<svg width="28" height="28" viewBox="0 0 28 28" fill="none" xmlns="http://www.w3.org/2000/svg">
<g clip-path="url(#clip0_432_8895)">
<path d="M7.01172 21.4727H13.3167L15.0438 23.0089C15.0459 23.01 15.0476 23.0112 15.0497 23.0123C15.2454 23.181 15.3571 23.4266 15.3544 23.685C15.3499 24.0805 15.1245 24.3507 14.8238 24.4809C14.5231 24.6112 14.1774 24.5889 13.8858 24.3217C13.8837 24.3206 13.8811 24.3195 13.879 24.3183L12.7501 23.3127C12.5696 23.1523 12.2931 23.1685 12.1322 23.3487C11.9696 23.5296 11.9859 23.8079 12.1681 23.9691L13.2936 24.9688C13.84 25.4695 14.585 25.5375 15.173 25.2828C15.5128 25.1357 15.8101 24.8754 16.0023 24.5391L22.1207 24.558C22.1252 24.558 22.1298 24.558 22.1344 24.558C22.4092 24.5497 22.725 24.6049 22.9235 24.7291C23.1219 24.8533 23.2509 25.0028 23.247 25.4215C23.2412 25.8522 22.9388 26.2067 22.5092 26.2756C22.5061 26.2756 22.503 26.2756 22.4998 26.2756L15.137 27.5791L9.28568 26.3013C9.25501 26.2948 9.22374 26.2917 9.19239 26.2919H7.01172V21.4727Z" fill="#F26921"/>
<path d="M2.62891 20.1543H5.69537C5.9875 20.1543 6.01294 20.2374 6.07023 20.352C6.12752 20.4666 6.13527 20.5942 6.13527 20.5942V26.7271C6.13527 26.7271 6.12752 26.8556 6.07023 26.9702C6.01294 27.0848 5.9875 27.167 5.69537 27.167H2.62891V20.1543Z" fill="#F26921"/>
<path d="M18.6335 14.4219H13.0553C12.9527 14.422 12.8542 14.4605 12.7816 14.5288C12.709 14.5972 12.6681 14.6898 12.668 14.7865C12.6683 15.0378 12.7745 15.2787 12.9633 15.4564C13.1521 15.6341 13.4081 15.7341 13.6751 15.7344H18.0137C18.2807 15.7341 18.5367 15.6341 18.7255 15.4564C18.9143 15.2787 19.0205 15.0378 19.0208 14.7865C19.0207 14.6898 18.9798 14.5972 18.9072 14.5288C18.8346 14.4605 18.7362 14.422 18.6335 14.4219Z" fill="#F26921"/>
<path d="M23.5855 7.18935L22.1935 2.38589C22.09 2.03132 21.8659 1.71848 21.5554 1.49531C21.2449 1.27215 20.8652 1.15098 20.4745 1.15039H11.2117C10.821 1.15098 10.4413 1.27215 10.1308 1.49531C9.82034 1.71848 9.59618 2.03132 9.49271 2.38589L8.10066 7.18935C7.94313 7.73346 7.8633 8.2949 7.86328 8.85885V17.9941C7.86386 18.4388 8.05178 18.865 8.38582 19.1794C8.71987 19.4938 9.17277 19.6707 9.64518 19.6712H22.041C22.5134 19.6707 22.9663 19.4938 23.3004 19.1794C23.6344 18.865 23.8223 18.4388 23.8229 17.9941V8.85885C23.8229 8.2949 23.7431 7.73346 23.5855 7.18935ZM13.209 3.70247H18.4772C18.7649 3.70247 19.0408 3.81003 19.2442 4.00147C19.4476 4.19291 19.5618 4.45257 19.5618 4.72331C19.5618 4.99405 19.4476 5.2537 19.2442 5.44515C19.0408 5.63659 18.7649 5.74414 18.4772 5.74414H13.209C12.9213 5.74414 12.6454 5.63659 12.442 5.44515C12.2386 5.2537 12.1243 4.99405 12.1243 4.72331C12.1243 4.45257 12.2386 4.19291 12.442 4.00147C12.6454 3.81003 12.9213 3.70247 13.209 3.70247ZM19.9576 14.187C20.0538 14.3737 20.1039 14.5784 20.1042 14.7858C20.1035 15.3078 19.8829 15.8082 19.4908 16.1772C19.0986 16.5463 18.5669 16.7539 18.0124 16.7546H13.6738C13.1193 16.7539 12.5876 16.5463 12.1954 16.1772C11.8033 15.8082 11.5827 15.3078 11.582 14.7858C11.5823 14.5784 11.6324 14.3737 11.7286 14.187C11.4942 14.05 11.3008 13.859 11.1668 13.632C11.0327 13.4051 10.9623 13.1497 10.9623 12.89C10.9623 12.6303 11.0327 12.3749 11.1668 12.1479C11.3008 11.921 11.4942 11.73 11.7286 11.5929C11.6324 11.4063 11.5823 11.2016 11.582 10.9941C11.5828 10.3949 11.836 9.82031 12.2863 9.39655C12.7365 8.97279 13.347 8.73442 13.9837 8.73372H17.7025C18.3392 8.73442 18.9497 8.97279 19.3999 9.39655C19.8502 9.82031 20.1034 10.3949 20.1042 10.9941C20.1039 11.2016 20.0538 11.4063 19.9576 11.5929C20.192 11.73 20.3854 11.921 20.5194 12.1479C20.6535 12.3749 20.7239 12.6303 20.7239 12.89C20.7239 13.1497 20.6535 13.4051 20.5194 13.632C20.3854 13.859 20.192 14.05 19.9576 14.187Z" fill="#F26921"/>
<path d="M13.0553 11.3581H18.6335C18.7362 11.3579 18.8346 11.3195 18.9072 11.2511C18.9798 11.1828 19.0207 11.0901 19.0208 10.9935C19.0204 10.6649 18.8815 10.3498 18.6346 10.1174C18.3877 9.88501 18.053 9.75429 17.7038 9.75391H13.985C13.6358 9.75429 13.3011 9.88501 13.0542 10.1174C12.8073 10.3498 12.6684 10.6649 12.668 10.9935C12.6681 11.0901 12.709 11.1828 12.7816 11.2511C12.8542 11.3195 12.9527 11.3579 13.0553 11.3581Z" fill="#F26921"/>
<path d="M19.0931 12.3789H12.5853C12.4415 12.3789 12.3035 12.4327 12.2018 12.5284C12.1001 12.6241 12.043 12.754 12.043 12.8893C12.043 13.0247 12.1001 13.1545 12.2018 13.2502C12.3035 13.346 12.4415 13.3997 12.5853 13.3997H19.0931C19.2369 13.3997 19.3749 13.346 19.4766 13.2502C19.5783 13.1545 19.6354 13.0247 19.6354 12.8893C19.6354 12.754 19.5783 12.6241 19.4766 12.5284C19.3749 12.4327 19.2369 12.3789 19.0931 12.3789Z" fill="#F26921"/>
<circle cx="22.4883" cy="5.56836" r="4.08333" fill="#F26921" stroke="white" stroke-width="1.16667"/>
<path d="M23.6729 4.4043C23.841 4.24601 24.111 4.24622 24.2793 4.4043C24.4516 4.56648 24.4516 4.83293 24.2793 4.99512L22.4326 6.7334C22.2644 6.89175 21.9945 6.89166 21.8262 6.7334L20.9697 5.92773C20.7975 5.76559 20.7975 5.50009 20.9697 5.33789C21.138 5.17949 21.4079 5.17949 21.5762 5.33789L22.1279 5.85645L23.6729 4.4043Z" fill="white" stroke="white" stroke-width="0.233333"/>
</g>
<defs>
<clipPath id="clip0_432_8895">
<rect width="28" height="28" fill="white"/>
</clipPath>
</defs>
</svg>
