<svg width="28" height="28" viewBox="0 0 28 28" fill="none" xmlns="http://www.w3.org/2000/svg">
<g clip-path="url(#clip0_432_8800)">
<path d="M7.00781 21.4727H13.3128L15.0399 23.0089C15.042 23.01 15.0437 23.0112 15.0458 23.0123C15.2415 23.181 15.3532 23.4266 15.3505 23.685C15.346 24.0805 15.1206 24.3507 14.8199 24.4809C14.5192 24.6112 14.1735 24.5889 13.8819 24.3217C13.8798 24.3206 13.8772 24.3195 13.8751 24.3183L12.7462 23.3127C12.5657 23.1523 12.2892 23.1685 12.1283 23.3487C11.9657 23.5296 11.982 23.8079 12.1642 23.9691L13.2897 24.9688C13.8361 25.4695 14.5811 25.5375 15.1691 25.2828C15.5089 25.1357 15.8062 24.8754 15.9984 24.5391L22.1168 24.558C22.1213 24.558 22.1259 24.558 22.1305 24.558C22.4052 24.5497 22.7211 24.6049 22.9196 24.7291C23.118 24.8533 23.247 25.0028 23.2431 25.4215C23.2373 25.8522 22.9349 26.2067 22.5053 26.2756C22.5022 26.2756 22.4991 26.2756 22.4959 26.2756L15.1331 27.5791L9.28177 26.3013C9.2511 26.2948 9.21983 26.2917 9.18849 26.2919H7.00781V21.4727Z" fill="#677381"/>
<path d="M2.62891 20.1543H5.69537C5.9875 20.1543 6.01294 20.2374 6.07023 20.352C6.12752 20.4666 6.13527 20.5942 6.13527 20.5942V26.7271C6.13527 26.7271 6.12752 26.8556 6.07023 26.9702C6.01294 27.0848 5.9875 27.167 5.69537 27.167H2.62891V20.1543Z" fill="#677381"/>
<path d="M18.6335 14.4219H13.0553C12.9527 14.422 12.8542 14.4605 12.7816 14.5288C12.709 14.5972 12.6681 14.6898 12.668 14.7865C12.6683 15.0378 12.7745 15.2787 12.9633 15.4564C13.1521 15.6341 13.4081 15.7341 13.6751 15.7344H18.0137C18.2807 15.7341 18.5367 15.6341 18.7255 15.4564C18.9143 15.2787 19.0205 15.0378 19.0208 14.7865C19.0207 14.6898 18.9798 14.5972 18.9072 14.5288C18.8346 14.4605 18.7362 14.422 18.6335 14.4219Z" fill="#677381"/>
<path d="M23.5894 7.18935L22.1974 2.38589C22.0939 2.03132 21.8698 1.71848 21.5593 1.49531C21.2488 1.27215 20.8691 1.15098 20.4784 1.15039H11.2156C10.8249 1.15098 10.4452 1.27215 10.1347 1.49531C9.82425 1.71848 9.60009 2.03132 9.49662 2.38589L8.10457 7.18935C7.94704 7.73346 7.86721 8.2949 7.86719 8.85885V17.9941C7.86776 18.4388 8.05568 18.865 8.38973 19.1794C8.72378 19.4938 9.17668 19.6707 9.64909 19.6712H22.0449C22.5173 19.6707 22.9702 19.4938 23.3043 19.1794C23.6383 18.865 23.8262 18.4388 23.8268 17.9941V8.85885C23.8268 8.2949 23.747 7.73346 23.5894 7.18935ZM13.2129 3.70247H18.4811C18.7688 3.70247 19.0447 3.81003 19.2481 4.00147C19.4515 4.19291 19.5658 4.45257 19.5658 4.72331C19.5658 4.99405 19.4515 5.2537 19.2481 5.44515C19.0447 5.63659 18.7688 5.74414 18.4811 5.74414H13.2129C12.9252 5.74414 12.6493 5.63659 12.4459 5.44515C12.2425 5.2537 12.1283 4.99405 12.1283 4.72331C12.1283 4.45257 12.2425 4.19291 12.4459 4.00147C12.6493 3.81003 12.9252 3.70247 13.2129 3.70247ZM19.9615 14.187C20.0577 14.3737 20.1078 14.5784 20.1081 14.7858C20.1074 15.3078 19.8868 15.8082 19.4947 16.1772C19.1025 16.5463 18.5709 16.7539 18.0163 16.7546H13.6777C13.1232 16.7539 12.5915 16.5463 12.1993 16.1772C11.8072 15.8082 11.5866 15.3078 11.5859 14.7858C11.5862 14.5784 11.6363 14.3737 11.7325 14.187C11.4981 14.05 11.3047 13.859 11.1707 13.632C11.0366 13.4051 10.9662 13.1497 10.9662 12.89C10.9662 12.6303 11.0366 12.3749 11.1707 12.1479C11.3047 11.921 11.4981 11.73 11.7325 11.5929C11.6363 11.4063 11.5862 11.2016 11.5859 10.9941C11.5867 10.3949 11.8399 9.82031 12.2902 9.39655C12.7404 8.97279 13.3509 8.73442 13.9876 8.73372H17.7064C18.3431 8.73442 18.9536 8.97279 19.4038 9.39655C19.8541 9.82031 20.1073 10.3949 20.1081 10.9941C20.1078 11.2016 20.0577 11.4063 19.9615 11.5929C20.1959 11.73 20.3893 11.921 20.5234 12.1479C20.6574 12.3749 20.7278 12.6303 20.7278 12.89C20.7278 13.1497 20.6574 13.4051 20.5234 13.632C20.3893 13.859 20.1959 14.05 19.9615 14.187Z" fill="#677381"/>
<path d="M13.0553 11.3581H18.6335C18.7362 11.3579 18.8346 11.3195 18.9072 11.2511C18.9798 11.1828 19.0207 11.0901 19.0208 10.9935C19.0204 10.6649 18.8815 10.3498 18.6346 10.1174C18.3877 9.88501 18.053 9.75429 17.7038 9.75391H13.985C13.6358 9.75429 13.3011 9.88501 13.0542 10.1174C12.8073 10.3498 12.6684 10.6649 12.668 10.9935C12.6681 11.0901 12.709 11.1828 12.7816 11.2511C12.8542 11.3195 12.9527 11.3579 13.0553 11.3581Z" fill="#677381"/>
<path d="M19.097 12.3789H12.5892C12.4454 12.3789 12.3074 12.4327 12.2057 12.5284C12.104 12.6241 12.0469 12.754 12.0469 12.8893C12.0469 13.0247 12.104 13.1545 12.2057 13.2502C12.3074 13.346 12.4454 13.3997 12.5892 13.3997H19.097C19.2408 13.3997 19.3788 13.346 19.4805 13.2502C19.5822 13.1545 19.6393 13.0247 19.6393 12.8893C19.6393 12.754 19.5822 12.6241 19.4805 12.5284C19.3788 12.4327 19.2408 12.3789 19.097 12.3789Z" fill="#677381"/>
<circle cx="22.4922" cy="5.56836" r="4.08333" fill="#677381" stroke="white" stroke-width="1.16667"/>
<path d="M23.6768 4.4043C23.8449 4.24601 24.1149 4.24622 24.2832 4.4043C24.4555 4.56648 24.4555 4.83293 24.2832 4.99512L22.4365 6.7334C22.2683 6.89175 21.9984 6.89166 21.8301 6.7334L20.9736 5.92773C20.8014 5.76559 20.8015 5.50009 20.9736 5.33789C21.1419 5.17949 21.4118 5.17949 21.5801 5.33789L22.1318 5.85645L23.6768 4.4043Z" fill="white" stroke="white" stroke-width="0.233333"/>
</g>
<defs>
<clipPath id="clip0_432_8800">
<rect width="28" height="28" fill="white"/>
</clipPath>
</defs>
</svg>
