<svg width="28" height="28" viewBox="0 0 28 28" fill="none" xmlns="http://www.w3.org/2000/svg">
<g clip-path="url(#clip0_432_8778)">
<path d="M9.40234 8.18908L15.894 14.6808L16.4847 14.0901C17.3516 13.2231 17.8292 12.0703 17.8292 10.8442C17.8292 9.61809 17.3517 8.46536 16.4847 7.59838C15.6177 6.73139 14.465 6.25391 13.2388 6.25391C12.0127 6.25391 10.86 6.73139 9.99299 7.59838L9.40234 8.18908Z" fill="#677381"/>
<path d="M5.58995 10.7931C6.27366 10.1094 6.65018 9.20034 6.65018 8.23345C6.65018 7.26656 6.27366 6.35753 5.58995 5.67383L4.4086 6.85518C4.77671 7.22335 4.97948 7.71281 4.97948 8.23345C4.97948 8.7541 4.77671 9.24356 4.4086 9.61173C4.04043 9.97984 3.55097 10.1826 3.03033 10.1826C2.50968 10.1826 2.02022 9.97984 1.65206 9.61173L0.470703 10.793C1.15435 11.4767 2.06344 11.8532 3.03033 11.8532C3.99722 11.8532 4.9063 11.4768 5.58995 10.7931Z" fill="#677381"/>
<path d="M7.49219 5.17578L10.6939 1.9741L11.8751 3.15528L8.67337 6.35697L7.49219 5.17578Z" fill="#677381"/>
<path d="M0.564453 13.5645H2.23515V15.2352H0.564453V13.5645Z" fill="#677381"/>
<path d="M14.7656 2.70312H16.4363V4.37383H14.7656V2.70312Z" fill="#677381"/>
<path d="M4.46289 15.7214C4.46289 16.1358 4.53356 16.5338 4.66254 16.9047H11.5029C11.6319 16.5338 11.7025 16.1358 11.7025 15.7214C11.7025 13.7254 10.0787 12.1016 8.08269 12.1016C6.0867 12.1016 4.46289 13.7254 4.46289 15.7214Z" fill="#677381"/>
<path d="M18.6741 17.6717L18.3902 18.5766H0L0.651685 21.1831C1.36441 24.0341 3.91468 26.0252 6.85338 26.0252H13.2117C16.1505 26.0252 18.7007 24.0341 19.4134 21.1831L19.7479 19.8455L20.1507 18.5361C20.4017 17.7204 20.726 16.9333 21.1192 16.1815L19.8576 15.0039C19.381 15.8531 18.985 16.7451 18.6741 17.6717Z" fill="#677381"/>
<path d="M27.1568 7.83632C26.6316 7.3497 25.9488 7.10316 25.2338 7.14281C24.5191 7.18218 23.8674 7.50195 23.3989 8.0432L19.5781 12.4575L23.4075 16.0316L27.3567 11.469C28.2852 10.3963 28.1973 8.80059 27.1568 7.83632Z" fill="#677381"/>
</g>
<defs>
<clipPath id="clip0_432_8778">
<rect width="28" height="28" fill="white"/>
</clipPath>
</defs>
</svg>
