<svg width="28" height="28" viewBox="0 0 28 28" fill="none" xmlns="http://www.w3.org/2000/svg">
<g clip-path="url(#clip0_1819_9584)">
<path d="M11.0177 2.77148H14.6478C16.5174 2.77146 18.0095 2.77145 19.1798 2.92879C20.3888 3.09133 21.3845 3.43609 22.1721 4.22375C22.9597 5.01142 23.3045 6.00706 23.4671 7.21603C23.6243 8.3863 23.6243 9.87842 23.6243 11.7482V13.3844C23.6243 15.434 24.0966 24.5136 22.5321 26.5492C18.666 26.5492 13.7197 26.6882 11.0177 26.6882C9.14796 26.6882 7.65583 26.6882 6.48557 26.5309C5.27659 26.3682 4.28095 26.0235 3.49328 25.2359C2.70562 24.4483 2.36086 23.4526 2.19832 22.2436C2.04098 21.0733 2.04099 19.5812 2.04102 17.7116V11.7481C2.04099 9.87842 2.04098 8.38629 2.19832 7.21604C2.36086 6.00706 2.70562 5.01142 3.49328 4.22375C4.28095 3.43609 5.27659 3.09133 6.48557 2.92879C7.65583 2.77145 9.14798 2.77146 11.0177 2.77148Z" fill="#677381"/>
<path fill-rule="evenodd" clip-rule="evenodd" d="M7.00065 1.3125C7.64498 1.3125 8.16732 1.83484 8.16732 2.47917V4.8125C8.16732 5.45683 7.64498 5.97917 7.00065 5.97917C6.35632 5.97917 5.83398 5.45683 5.83398 4.8125V2.47917C5.83398 1.83484 6.35632 1.3125 7.00065 1.3125ZM12.834 1.3125C13.4783 1.3125 14.0007 1.83484 14.0007 2.47917V4.8125C14.0007 5.45683 13.4783 5.97917 12.834 5.97917C12.1896 5.97917 11.6673 5.45683 11.6673 4.8125V2.47917C11.6673 1.83484 12.1896 1.3125 12.834 1.3125ZM18.6673 1.3125C19.3117 1.3125 19.834 1.83484 19.834 2.47917V4.8125C19.834 5.45683 19.3117 5.97917 18.6673 5.97917C18.023 5.97917 17.5007 5.45683 17.5007 4.8125V2.47917C17.5007 1.83484 18.023 1.3125 18.6673 1.3125Z" fill="#677381"/>
<path fill-rule="evenodd" clip-rule="evenodd" d="M7.29102 11.8125C7.29102 11.3293 7.68277 10.9375 8.16602 10.9375H17.4993C17.9826 10.9375 18.3743 11.3293 18.3743 11.8125C18.3743 12.2957 17.9826 12.6875 17.4993 12.6875H8.16602C7.68277 12.6875 7.29102 12.2957 7.29102 11.8125ZM7.29102 17.6458C7.29102 17.1626 7.68277 16.7708 8.16602 16.7708H12.8327C13.3159 16.7708 13.7077 17.1626 13.7077 17.6458C13.7077 18.1291 13.3159 18.5208 12.8327 18.5208H8.16602C7.68277 18.5208 7.29102 18.1291 7.29102 17.6458Z" fill="white"/>
<circle cx="20.416" cy="21.1465" r="5.83333" fill="#677381" stroke="white" stroke-width="1.16667"/>
<path d="M21.9492 19.4443C22.1689 19.225 22.5245 19.225 22.7441 19.4443C22.9639 19.6641 22.9639 20.0205 22.7441 20.2402L20.1367 22.8486C19.917 23.0683 19.5606 23.0682 19.3408 22.8486L18.1318 21.6396C17.9122 21.4199 17.9121 21.0634 18.1318 20.8438C18.3515 20.6241 18.708 20.6242 18.9277 20.8438L19.7383 21.6543L21.9492 19.4443Z" fill="white" stroke="white" stroke-width="0.233333"/>
</g>
<defs>
<clipPath id="clip0_1819_9584">
<rect width="28" height="28" fill="white"/>
</clipPath>
</defs>
</svg>
