<svg width="25" height="28" viewBox="0 0 25 28" fill="none" xmlns="http://www.w3.org/2000/svg">
<g clip-path="url(#clip0_432_8885)">
<path d="M15.6599 19.582H8.65994C8.53108 19.5822 8.40755 19.6335 8.31643 19.7246C8.22532 19.8158 8.17403 19.9393 8.17383 20.0681C8.17424 20.4032 8.30753 20.7245 8.54447 20.9614C8.7814 21.1983 9.10264 21.3316 9.43772 21.332H14.8822C15.2172 21.3316 15.5385 21.1983 15.7754 20.9614C16.0123 20.7245 16.1456 20.4032 16.1461 20.0681C16.1458 19.9393 16.0946 19.8158 16.0034 19.7246C15.9123 19.6335 15.7888 19.5822 15.6599 19.582Z" fill="#F26921"/>
<path d="M21.8764 9.94062L20.1295 3.53601C19.9996 3.06325 19.7183 2.64612 19.3287 2.34857C18.9391 2.05101 18.4626 1.88946 17.9723 1.88867H6.34843C5.85817 1.88946 5.38169 2.05101 4.99205 2.34857C4.60241 2.64612 4.3211 3.06325 4.19126 3.53601L2.44437 9.94062C2.24669 10.6661 2.14651 11.4147 2.14648 12.1666V24.347C2.1472 24.9398 2.38303 25.5082 2.80222 25.9274C3.22142 26.3466 3.78976 26.5824 4.3826 26.5831H19.9382C20.531 26.5824 21.0993 26.3466 21.5185 25.9274C21.9377 25.5082 22.1735 24.9398 22.1743 24.347V12.1666C22.1742 11.4147 22.0741 10.6661 21.8764 9.94062ZM8.85482 5.29145H15.4659C15.8269 5.29145 16.1731 5.43485 16.4284 5.69011C16.6836 5.94537 16.827 6.29157 16.827 6.65256C16.827 7.01355 16.6836 7.35975 16.4284 7.61501C16.1731 7.87027 15.8269 8.01367 15.4659 8.01367H8.85482C8.49383 8.01367 8.14762 7.87027 7.89237 7.61501C7.63711 7.35975 7.49371 7.01355 7.49371 6.65256C7.49371 6.29157 7.63711 5.94537 7.89237 5.69011C8.14762 5.43485 8.49383 5.29145 8.85482 5.29145ZM17.3237 19.2708C17.4444 19.5197 17.5073 19.7926 17.5076 20.0692C17.5068 20.7652 17.2299 21.4324 16.7378 21.9245C16.2457 22.4166 15.5785 22.6934 14.8826 22.6942H9.43815C8.74221 22.6934 8.07501 22.4166 7.58291 21.9245C7.0908 21.4324 6.81397 20.7652 6.81315 20.0692C6.81346 19.7926 6.87635 19.5197 6.9971 19.2708C6.70296 19.0881 6.46029 18.8335 6.29201 18.5308C6.12374 18.2282 6.03543 17.8877 6.03543 17.5414C6.03543 17.1952 6.12374 16.8547 6.29201 16.5521C6.46029 16.2494 6.70296 15.9948 6.9971 15.8121C6.87635 15.5632 6.81346 15.2903 6.81315 15.0137C6.81408 14.2146 7.13191 13.4486 7.69692 12.8836C8.26193 12.3185 9.02799 12.0007 9.82704 11.9998H14.4937C15.2928 12.0007 16.0588 12.3185 16.6238 12.8836C17.1888 13.4486 17.5067 14.2146 17.5076 15.0137C17.5073 15.2903 17.4444 15.5632 17.3237 15.8121C17.6178 15.9948 17.8605 16.2494 18.0287 16.5521C18.197 16.8547 18.2853 17.1952 18.2853 17.5414C18.2853 17.8877 18.197 18.2282 18.0287 18.5308C17.8605 18.8335 17.6178 19.0881 17.3237 19.2708Z" fill="#F26921"/>
<path d="M8.65994 15.4983H15.6599C15.7888 15.4981 15.9123 15.4468 16.0034 15.3557C16.0946 15.2645 16.1458 15.141 16.1461 15.0122C16.1455 14.574 15.9712 14.1539 15.6614 13.844C15.3516 13.5342 14.9315 13.3599 14.4933 13.3594H9.82661C9.38842 13.3599 8.96833 13.5342 8.65848 13.844C8.34864 14.1539 8.17434 14.574 8.17383 15.0122C8.17403 15.141 8.22532 15.2645 8.31643 15.3557C8.40755 15.4468 8.53108 15.4981 8.65994 15.4983Z" fill="#F26921"/>
<path d="M16.2437 16.8594H8.07704C7.89655 16.8594 7.72344 16.9311 7.59581 17.0587C7.46819 17.1863 7.39648 17.3594 7.39648 17.5399C7.39648 17.7204 7.46819 17.8935 7.59581 18.0212C7.72344 18.1488 7.89655 18.2205 8.07704 18.2205H16.2437C16.4242 18.2205 16.5973 18.1488 16.7249 18.0212C16.8526 17.8935 16.9243 17.7204 16.9243 17.5399C16.9243 17.3594 16.8526 17.1863 16.7249 17.0587C16.5973 16.9311 16.4242 16.8594 16.2437 16.8594Z" fill="#F26921"/>
<circle cx="19.1862" cy="5.70378" r="5.18518" fill="#F26921" stroke="white" stroke-width="1.03704"/>
<path d="M20.5469 4.19141C20.7422 3.99608 21.0586 3.99608 21.2539 4.19141C21.4492 4.38673 21.4492 4.70312 21.2539 4.89844L18.9355 7.2168C18.7402 7.41205 18.4238 7.41208 18.2285 7.2168L17.1543 6.14258C16.959 5.94728 16.959 5.63088 17.1543 5.43555C17.3496 5.24022 17.666 5.24022 17.8613 5.43555L18.582 6.15625L20.5469 4.19141Z" fill="white" stroke="white" stroke-width="0.207407"/>
</g>
<defs>
<clipPath id="clip0_432_8885">
<rect width="24.8889" height="28" fill="white"/>
</clipPath>
</defs>
</svg>
