<svg width="24" height="27" viewBox="0 0 24 27" fill="none" xmlns="http://www.w3.org/2000/svg">
<g clip-path="url(#clip0_432_8790)">
<path d="M15.0996 18.8828H8.34961C8.22535 18.883 8.10624 18.9325 8.01837 19.0203C7.93051 19.1082 7.88106 19.2273 7.88086 19.3516C7.88126 19.6747 8.00979 19.9844 8.23826 20.2129C8.46674 20.4414 8.7765 20.5699 9.09961 20.5703H14.3496C14.6727 20.5699 14.9825 20.4414 15.211 20.2129C15.4394 19.9844 15.568 19.6747 15.5684 19.3516C15.5682 19.2273 15.5187 19.1082 15.4308 19.0203C15.343 18.9325 15.2239 18.883 15.0996 18.8828Z" fill="#677381"/>
<path d="M21.0936 9.58469L19.4091 3.40881C19.2839 2.95294 19.0126 2.55071 18.6369 2.26378C18.2612 1.97686 17.8017 1.82107 17.329 1.82031H6.12023C5.64748 1.82107 5.18802 1.97686 4.8123 2.26378C4.43657 2.55071 4.16531 2.95294 4.04011 3.40881L2.35561 9.58469C2.16498 10.2843 2.06838 11.0061 2.06836 11.7312V23.4766C2.06905 24.0482 2.29645 24.5963 2.70068 25.0005C3.1049 25.4047 3.65295 25.6321 4.22461 25.6328H19.2246C19.7963 25.6321 20.3443 25.4047 20.7485 25.0005C21.1528 24.5963 21.3802 24.0482 21.3809 23.4766V11.7312C21.3808 11.0061 21.2842 10.2843 21.0936 9.58469ZM8.53711 5.10156H14.9121C15.2602 5.10156 15.594 5.23984 15.8402 5.48598C16.0863 5.73213 16.2246 6.06597 16.2246 6.41406C16.2246 6.76216 16.0863 7.096 15.8402 7.34214C15.594 7.58828 15.2602 7.72656 14.9121 7.72656H8.53711C8.18901 7.72656 7.85517 7.58828 7.60903 7.34214C7.36289 7.096 7.22461 6.76216 7.22461 6.41406C7.22461 6.06597 7.36289 5.73213 7.60903 5.48598C7.85517 5.23984 8.18901 5.10156 8.53711 5.10156ZM16.7035 18.5817C16.8199 18.8216 16.8806 19.0848 16.8809 19.3516C16.8801 20.0226 16.6131 20.666 16.1386 21.1406C15.6641 21.6151 15.0207 21.882 14.3496 21.8828H9.09961C8.42852 21.882 7.78515 21.6151 7.31062 21.1406C6.83609 20.666 6.56915 20.0226 6.56836 19.3516C6.56866 19.0848 6.6293 18.8216 6.74573 18.5817C6.46211 18.4055 6.2281 18.1599 6.06583 17.8681C5.90357 17.5763 5.81841 17.2479 5.81841 16.9141C5.81841 16.5802 5.90357 16.2518 6.06583 15.96C6.2281 15.6682 6.46211 15.4226 6.74573 15.2464C6.6293 15.0065 6.56866 14.7433 6.56836 14.4766C6.56925 13.7061 6.87573 12.9674 7.42057 12.4225C7.9654 11.8777 8.7041 11.5712 9.47461 11.5703H13.9746C14.7451 11.5712 15.4838 11.8777 16.0287 12.4225C16.5735 12.9674 16.88 13.7061 16.8809 14.4766C16.8806 14.7433 16.8199 15.0065 16.7035 15.2464C16.9871 15.4226 17.2211 15.6682 17.3834 15.96C17.5456 16.2518 17.6308 16.5802 17.6308 16.9141C17.6308 17.2479 17.5456 17.5763 17.3834 17.8681C17.2211 18.1599 16.9871 18.4055 16.7035 18.5817Z" fill="#677381"/>
<path d="M8.34961 14.9453H15.0996C15.2239 14.9451 15.343 14.8957 15.4308 14.8078C15.5187 14.7199 15.5682 14.6008 15.5684 14.4766C15.5679 14.054 15.3998 13.6489 15.101 13.3502C14.8022 13.0514 14.3971 12.8833 13.9746 12.8828H9.47461C9.05207 12.8833 8.64698 13.0514 8.34821 13.3502C8.04943 13.6489 7.88136 14.054 7.88086 14.4766C7.88106 14.6008 7.93051 14.7199 8.01837 14.8078C8.10624 14.8957 8.22535 14.9451 8.34961 14.9453Z" fill="#677381"/>
<path d="M15.6621 16.2578H7.78711C7.61306 16.2578 7.44614 16.327 7.32307 16.45C7.2 16.5731 7.13086 16.74 7.13086 16.9141C7.13086 17.0881 7.2 17.255 7.32307 17.3781C7.44614 17.5012 7.61306 17.5703 7.78711 17.5703H15.6621C15.8362 17.5703 16.0031 17.5012 16.1261 17.3781C16.2492 17.255 16.3184 17.0881 16.3184 16.9141C16.3184 16.74 16.2492 16.5731 16.1261 16.45C16.0031 16.327 15.8362 16.2578 15.6621 16.2578Z" fill="#677381"/>
<circle cx="18.5" cy="5.5" r="5" fill="#677381" stroke="white"/>
<path d="M19.8125 4.04102C20.0008 3.85267 20.3068 3.85267 20.4951 4.04102C20.6833 4.22923 20.683 4.53429 20.4951 4.72266L18.2588 6.95898C18.0704 7.14701 17.7654 7.14717 17.5771 6.95898L16.541 5.92285C16.3528 5.7346 16.353 5.42956 16.541 5.24121C16.7293 5.05288 17.0343 5.05292 17.2227 5.24121L17.918 5.93555L19.8125 4.04102Z" fill="white" stroke="white" stroke-width="0.2"/>
</g>
<defs>
<clipPath id="clip0_432_8790">
<rect width="24" height="27" fill="white"/>
</clipPath>
</defs>
</svg>
