<svg width="20" height="20" viewBox="0 0 20 20" fill="none" xmlns="http://www.w3.org/2000/svg">
<g clip-path="url(#clip0_432_21803)">
<g clip-path="url(#clip1_432_21803)">
<path d="M10 1.1084C15.0105 1.1084 19.0996 5.19715 19.0996 10.208C19.0996 15.2185 15.0108 19.3076 10 19.3076C4.98946 19.3076 0.900391 15.2188 0.900391 10.208C0.900391 5.19747 4.98914 1.1084 10 1.1084ZM13.291 7.80273C13.4221 8.15295 13.6159 8.46255 13.8623 8.70898L14.918 9.76465C16.3963 11.243 16.3963 13.6477 14.918 15.126C14.2009 15.8431 13.2488 16.2383 12.2373 16.2383C11.2258 16.2383 10.2736 15.843 9.55664 15.126L8.50098 14.0703C8.24931 13.8187 7.93803 13.6277 7.59473 13.499L4.91797 16.1768C6.28833 17.3453 8.06237 18.0537 10 18.0537C14.3258 18.0537 17.8457 14.5338 17.8457 10.208C17.8457 8.27036 17.1373 6.49634 15.9688 5.12598L13.291 7.80273ZM10 2.3623C5.67416 2.3623 2.1543 5.88217 2.1543 10.208C2.1543 12.1452 2.86221 13.9188 4.03027 15.2891L6.29785 13.0225C3.38427 11.5381 2.75909 7.613 5.08203 5.29004C6.97164 3.40047 10.046 3.40054 11.9355 5.29004C12.292 5.6466 12.5873 6.05732 12.8154 6.50391L15.0811 4.23828C13.7108 3.07026 11.9371 2.3623 10 2.3623ZM8.53906 12.5547C8.79478 12.6936 9.03235 12.8582 9.24414 13.0479C9.30794 13.105 9.33663 13.1315 9.48438 13.2793L10.4434 14.2393L10.6162 14.3965C10.9895 14.708 11.4381 14.8997 11.917 14.96C11.6426 14.3205 11.4939 13.6327 11.4834 12.9258C10.7548 12.4679 9.9398 12.1518 9.09473 11.999L8.53906 12.5547ZM13.6455 10.2656C13.0628 10.9925 12.7363 11.9045 12.7363 12.8447C12.7363 13.5275 12.9045 14.188 13.2217 14.7812C13.5194 14.6554 13.7951 14.4754 14.0312 14.2393C15.0202 13.2503 15.0202 11.6404 14.0312 10.6514L13.6455 10.2656ZM11.0479 6.17676C9.6476 4.77669 7.36895 4.7766 5.96875 6.17676C4.61101 7.53449 4.57026 9.71815 5.8457 11.126C5.92516 11.1763 5.99307 11.2448 6.04395 11.3281C6.39031 11.6546 6.80018 11.9068 7.24707 12.0732L11.8652 7.45508C11.6866 6.97553 11.4094 6.53831 11.0479 6.17676ZM10.1357 10.959C10.6556 11.1111 11.1596 11.3157 11.6387 11.5693C11.8374 10.7597 12.2219 10.0023 12.7646 9.36328C12.6063 9.17423 12.4675 8.96749 12.3477 8.74707L10.1357 10.959Z" fill="#E27E14" stroke="#E27E14" stroke-width="0.2"/>
<path d="M6.57227 6.78027C7.228 6.1245 8.29524 6.12467 8.95117 6.78027C9.60863 7.43766 9.60848 8.50194 8.95117 9.15918C8.29519 9.81511 7.22801 9.81496 6.57227 9.15918C5.91515 8.50179 5.91514 7.43741 6.57227 6.78027ZM8.06445 7.66797C7.89784 7.50139 7.62654 7.50141 7.45996 7.66797C7.29295 7.835 7.29291 8.10541 7.45996 8.27246C7.6265 8.43881 7.89789 8.43893 8.06445 8.27246C8.23146 8.10545 8.23135 7.83505 8.06445 7.66797Z" fill="#E27E14" stroke="#E27E14" stroke-width="0.2"/>
</g>
</g>
<defs>
<clipPath id="clip0_432_21803">
<rect width="20" height="20" fill="white"/>
</clipPath>
<clipPath id="clip1_432_21803">
<rect width="19" height="19" fill="white" transform="translate(0.5 0.708008)"/>
</clipPath>
</defs>
</svg>
