<svg width="45" height="54" viewBox="0 0 45 54" fill="none" xmlns="http://www.w3.org/2000/svg">
<path d="M0 0H41V54H23.2147C10.3936 54 0 43.6064 0 30.7853V0Z" fill="#F8F4E9"/>
<rect x="6" y="8" width="38.6912" height="38.6912" rx="19.3456" fill="#E4ED64"/>
<rect x="6" y="8" width="38.6912" height="38.6912" rx="19.3456" fill="white"/>
<g clip-path="url(#clip0_395_478388)">
<path d="M28.7218 22.9765C28.3332 23.3651 27.8523 23.628 27.2789 23.7655C26.7245 23.8934 26.1701 23.8887 25.6157 23.7512C25.0377 23.6091 24.552 23.3414 24.1587 22.9481L23.6612 22.4505L22.6874 23.4243L23.1849 23.9218C23.6114 24.3483 24.116 24.6776 24.6989 24.9098C25.258 25.1277 25.8432 25.2391 26.4544 25.2438L20.4485 31.2498L21.4365 32.2377L27.4424 26.2318C27.4471 26.8431 27.5585 27.4282 27.7765 27.9874C28.0086 28.5702 28.338 29.0748 28.7644 29.5013L29.2549 29.9917L30.2286 29.018L29.7382 28.5276C29.3449 28.1343 29.0772 27.6486 28.935 27.0705C28.7976 26.5161 28.7929 25.9617 28.9208 25.4073C29.0582 24.834 29.3212 24.353 29.7097 23.9645L30.1931 23.4811L29.2051 22.4932L28.7218 22.9765Z" fill="black"/>
</g>
<defs>
<clipPath id="clip0_395_478388">
<rect width="13.9288" height="13.9288" fill="white" transform="translate(18.3809 20.3813)"/>
</clipPath>
</defs>
</svg>
