<svg width="140" height="135" viewBox="0 0 140 135" fill="none" xmlns="http://www.w3.org/2000/svg">
<path d="M121.224 50.6945C121.146 50.6945 121.068 50.6945 120.99 50.6945C120.049 50.6319 119.172 50.1991 118.55 49.491C117.928 48.7829 117.612 47.8571 117.671 46.9164C117.714 46.2241 117.959 45.5596 118.375 45.0047C118.791 44.4498 119.361 44.0287 120.013 43.7932C120.666 43.5578 121.373 43.5182 122.047 43.6795C122.722 43.8407 123.335 44.1958 123.81 44.7008C124.285 45.2059 124.603 45.839 124.723 46.5221C124.843 47.2052 124.761 47.9085 124.486 48.5455C124.212 49.1825 123.757 49.7254 123.178 50.1072C122.599 50.489 121.921 50.6932 121.227 50.6945H121.224ZM119.546 47.0352C119.519 47.4782 119.668 47.9141 119.96 48.2478C120.253 48.5815 120.666 48.7859 121.109 48.8164C121.328 48.8312 121.549 48.8026 121.757 48.732C121.966 48.6614 122.158 48.5504 122.324 48.4052C122.489 48.26 122.625 48.0836 122.722 47.886C122.819 47.6884 122.876 47.4736 122.89 47.2539C122.91 46.9226 122.832 46.5926 122.665 46.3057C122.498 46.0189 122.249 45.7878 121.951 45.6418C121.653 45.4957 121.319 45.4412 120.99 45.4851C120.66 45.5289 120.352 45.6692 120.102 45.8883C119.938 46.033 119.804 46.2089 119.709 46.4058C119.613 46.6027 119.558 46.8167 119.546 47.0352Z" fill="#677381"/>
<path d="M136.485 63.8196C136.426 63.8227 136.366 63.8227 136.307 63.8196C135.578 63.773 134.898 63.4391 134.415 62.8913C133.932 62.3435 133.687 61.6265 133.732 60.8977C133.778 60.1693 134.112 59.4891 134.66 59.0069C135.208 58.5246 135.925 58.2796 136.654 58.3258C137.365 58.3737 138.03 58.6955 138.509 59.2235C138.987 59.7516 139.243 60.4447 139.221 61.1572C139.199 61.8697 138.902 62.5459 138.391 63.0436C137.881 63.5413 137.198 63.8217 136.485 63.8258V63.8196ZM135.604 61.0071C135.596 61.1226 135.611 61.2385 135.649 61.3482C135.686 61.4578 135.744 61.5591 135.82 61.6462C135.897 61.7332 135.989 61.8044 136.093 61.8556C136.197 61.9068 136.31 61.937 136.426 61.9446C136.655 61.9567 136.879 61.8781 137.051 61.7258C137.138 61.6501 137.208 61.5577 137.259 61.4541C137.309 61.3505 137.338 61.2378 137.344 61.1227C137.355 60.9494 137.313 60.7769 137.226 60.6269C137.138 60.4769 137.009 60.3561 136.853 60.2796C136.697 60.2032 136.522 60.1745 136.35 60.1972C136.177 60.2198 136.016 60.2929 135.885 60.4071C135.798 60.483 135.728 60.5755 135.677 60.679C135.627 60.7826 135.598 60.8952 135.591 61.0102L135.604 61.0071Z" fill="#677381"/>
<path d="M10.3906 105.752H8.51562V105.69H10.3906V105.752ZM10.3906 102.565H8.51562V100.69H10.3906V102.565ZM10.3906 97.5648H8.51562V95.9805C8.51562 95.8992 8.51562 95.8117 8.51562 95.7274L10.3906 95.6555V95.968V97.5648ZM7.8625 93.0648C7.62705 92.5653 7.33335 92.0954 6.9875 91.6649L8.45 90.493C8.88295 91.0392 9.25104 91.6338 9.54687 92.2648L7.8625 93.0648ZM4.80937 89.7586C4.29104 89.3517 3.79452 88.9178 3.32188 88.4586L4.625 87.1117C5.0506 87.5239 5.49702 87.914 5.9625 88.2805L4.80937 89.7586ZM1.15 86.0336C0.738526 85.5167 0.354658 84.9785 0 84.4211L1.59375 83.4336C1.59375 83.4336 1.97187 84.043 2.625 84.8805L1.15 86.0336Z" fill="#C5CAD0"/>
<path d="M93.5352 19.2246H99.0914V21.0996H93.5352V19.2246Z" fill="#677381"/>
<path d="M91.6758 14.209L95.604 10.2807L96.9297 11.6063L93.0014 15.5346L91.6758 14.209Z" fill="#677381"/>
<path d="M92.0195 25.9922L93.3452 24.6666L97.2734 28.5948L95.9478 29.9205L92.0195 25.9922Z" fill="#677381"/>
<path d="M15.6172 68.209H118.402V133.69H15.6172V68.209Z" fill="#F5F5F5"/>
<path style="mix-blend-mode:multiply" d="M118.4 76.3359V92.7016C117.299 93.023 116.157 93.1851 115.009 93.1828C111.777 93.1828 108.677 91.8988 106.392 89.6132C104.106 87.3276 102.822 84.2276 102.822 80.9953C102.886 82.6348 102.619 84.2703 102.036 85.804C101.453 87.3376 100.566 88.7378 99.429 89.9205C98.2918 91.1031 96.9275 92.044 95.4179 92.6868C93.9083 93.3295 92.2845 93.6608 90.6438 93.6608C89.003 93.6608 87.3792 93.3295 85.8696 92.6868C84.36 92.044 82.9957 91.1031 81.8585 89.9205C80.7213 88.7378 79.8347 87.3376 79.2516 85.804C78.6686 84.2703 78.4013 82.6348 78.4656 80.9953C78.3526 84.1501 77.0199 87.1379 74.7481 89.3298C72.4764 91.5216 69.4427 92.7465 66.2859 92.7465C63.1292 92.7465 60.0955 91.5216 57.8237 89.3298C55.552 87.1379 54.2193 84.1501 54.1062 80.9953C53.9827 84.1425 52.6457 87.1196 50.3753 89.3026C48.105 91.4856 45.0777 92.7049 41.9281 92.7049C38.7785 92.7049 35.7513 91.4856 33.4809 89.3026C31.2106 87.1196 29.8735 84.1425 29.75 80.9953C29.7488 82.7603 29.3643 84.504 28.623 86.1059C27.8817 87.7077 26.8013 89.1293 25.4566 90.2726C24.1119 91.4158 22.5349 92.2534 20.8347 92.7272C19.1344 93.2011 17.3516 93.3 15.6094 93.0172V76.3359H118.4Z" fill="url(#paint0_linear_432_20572)"/>
<path d="M52.7188 103.648H67.2V133.689H52.7188V103.648Z" fill="#DEE1EC"/>
<path d="M67.1992 103.648H81.6805V133.689H67.1992V103.648Z" fill="#DEE1EC"/>
<path d="M68.1375 134.627H51.7812V102.711H68.1375V134.627ZM53.6562 132.752H66.2625V104.586H53.6562V132.752Z" fill="#677381"/>
<path d="M82.618 134.627H66.2617V102.711H82.618V134.627ZM68.1367 132.752H80.743V104.586H68.1367V132.752Z" fill="#677381"/>
<path d="M25.7734 101.684H41.6641V117.574H25.7734V101.684Z" fill="#C5CAD0"/>
<path d="M23.3242 117.574H44.118V121.568H23.3242V117.574Z" fill="#677381"/>
<path d="M92.3516 101.684H108.242V117.574H92.3516V101.684Z" fill="#C5CAD0"/>
<path d="M42.6016 118.509H24.8359V100.75H42.6016V118.509ZM26.7109 116.634H40.7266V102.625H26.7109V116.634Z" fill="#677381"/>
<path d="M109.181 118.509H91.4219V100.75H109.188L109.181 118.509ZM93.2906 116.634H107.306V102.625H93.2969L93.2906 116.634Z" fill="#677381"/>
<path d="M89.8984 117.574H110.692V121.568H89.8984V117.574Z" fill="#677381"/>
<path d="M45.0516 122.505H22.3828V116.637H45.0516V122.505ZM24.2578 120.63H43.1766V118.512H24.2578V120.63Z" fill="#677381"/>
<path d="M111.63 122.505H88.9609V116.637H111.63V122.505ZM90.8359 120.63H109.755V118.512H90.8359V120.63Z" fill="#677381"/>
<path d="M6.03906 132.75H127.977V134.625H6.03906V132.75Z" fill="#677381"/>
<path d="M119.339 134.626H14.6797V67.2695H119.339V134.626ZM16.5547 132.751H117.464V69.1445H16.5547V132.751Z" fill="#677381"/>
<path d="M54.2828 69.8398L58.9328 49.7305H44.8641L30.2734 69.8398H54.2828Z" fill="#F5F5F5"/>
<path d="M44.8609 49.7305H27.5766L5.39844 69.8398H30.2703L44.8609 49.7305Z" fill="#42695A"/>
<path d="M102.316 69.8398L87.7289 49.7305H73.6602L78.3102 69.8398H102.316Z" fill="#F5F5F5"/>
<path d="M127.189 69.8398L105.986 49.7305H87.7266L102.314 69.8398H127.189Z" fill="#42695A"/>
<path d="M78.3094 69.8398L73.6594 49.7305H66.2938H58.9313L54.2812 69.8398H78.3094Z" fill="#42695A"/>
<path d="M54.2812 69.8398H30.275L29.7594 70.5523V74.5023C29.695 76.1418 29.9624 77.7774 30.5454 79.311C31.1284 80.8447 32.0151 82.2448 33.1523 83.4275C34.2895 84.6102 35.6538 85.5511 37.1634 86.1938C38.673 86.8365 40.2968 87.1678 41.9375 87.1678C43.5782 87.1678 45.2021 86.8365 46.7117 86.1938C48.2213 85.5511 49.5855 84.6102 50.7227 83.4275C51.8599 82.2448 52.7466 80.8447 53.3296 79.311C53.9126 77.7774 54.18 76.1418 54.1156 74.5023V70.5523L54.2812 69.8398Z" fill="#F5F5F5"/>
<path d="M17.5766 86.6898C20.8089 86.6898 23.9088 85.4058 26.1944 83.1202C28.48 80.8346 29.7641 77.7347 29.7641 74.5023V70.5523L30.2797 69.8398H5.39844V74.5023C5.39844 77.7331 6.68119 80.8316 8.96476 83.1169C11.2483 85.4022 14.3459 86.6874 17.5766 86.6898Z" fill="#42695A"/>
<path d="M102.316 69.8398H78.2969L78.4625 70.5523V74.5023C78.3982 76.1418 78.6655 77.7774 79.2485 79.311C79.8315 80.8447 80.7182 82.2448 81.8554 83.4275C82.9926 84.6102 84.3569 85.5511 85.8665 86.1938C87.3761 86.8365 88.9999 87.1678 90.6406 87.1678C92.2813 87.1678 93.9052 86.8365 95.4148 86.1938C96.9244 85.5511 98.2887 84.6102 99.4258 83.4275C100.563 82.2448 101.45 80.8447 102.033 79.311C102.616 77.7774 102.883 76.1418 102.819 74.5023V70.5523L102.316 69.8398Z" fill="#F5F5F5"/>
<path d="M102.832 70.5523V74.5023C102.773 76.1385 103.045 77.7697 103.631 79.2986C104.216 80.8274 105.104 82.2226 106.241 83.4009C107.378 84.5791 108.74 85.5162 110.247 86.1562C111.754 86.7963 113.375 87.1262 115.012 87.1262C116.649 87.1262 118.269 86.7963 119.776 86.1562C121.283 85.5162 122.646 84.5791 123.782 83.4009C124.919 82.2226 125.807 80.8274 126.393 79.2986C126.978 77.7697 127.25 76.1385 127.191 74.5023V69.8398H102.316L102.832 70.5523Z" fill="#42695A"/>
<path d="M78.2984 69.8398H54.2828L54.1172 70.5523V74.5023C54.0586 76.1385 54.3302 77.7697 54.9159 79.2986C55.5016 80.8274 56.3893 82.2226 57.5261 83.4009C58.6629 84.5791 60.0254 85.5162 61.5323 86.1562C63.0392 86.7963 64.6597 87.1262 66.2969 87.1262C67.9341 87.1262 69.5545 86.7963 71.0614 86.1562C72.5684 85.5162 73.9309 84.5791 75.0676 83.4009C76.2044 82.2226 77.0921 80.8274 77.6778 79.2986C78.2635 77.7697 78.5352 76.1385 78.4766 74.5023V70.5523L78.2984 69.8398Z" fill="#42695A"/>
<path style="mix-blend-mode:multiply" d="M54.2812 69.8398H30.275L29.7594 70.5523V74.5023C29.695 76.1418 29.9624 77.7774 30.5454 79.311C31.1284 80.8447 32.0151 82.2448 33.1523 83.4275C34.2895 84.6102 35.6538 85.5511 37.1634 86.1938C38.673 86.8365 40.2968 87.1678 41.9375 87.1678C43.5782 87.1678 45.2021 86.8365 46.7117 86.1938C48.2213 85.5511 49.5855 84.6102 50.7227 83.4275C51.8599 82.2448 52.7466 80.8447 53.3296 79.311C53.9126 77.7774 54.18 76.1418 54.1156 74.5023V70.5523L54.2812 69.8398Z" fill="url(#paint1_linear_432_20572)"/>
<path style="mix-blend-mode:multiply" d="M17.5766 86.6898C20.8089 86.6898 23.9088 85.4058 26.1944 83.1202C28.48 80.8346 29.7641 77.7347 29.7641 74.5023V70.5523L30.2797 69.8398H5.39844V74.5023C5.39844 77.7331 6.68119 80.8316 8.96476 83.1169C11.2483 85.4022 14.3459 86.6874 17.5766 86.6898Z" fill="url(#paint2_linear_432_20572)"/>
<path style="mix-blend-mode:multiply" d="M102.316 69.8398H78.2969L78.4625 70.5523V74.5023C78.3982 76.1418 78.6655 77.7774 79.2485 79.311C79.8315 80.8447 80.7182 82.2448 81.8554 83.4275C82.9926 84.6102 84.3569 85.5511 85.8665 86.1938C87.3761 86.8365 88.9999 87.1678 90.6406 87.1678C92.2813 87.1678 93.9052 86.8365 95.4148 86.1938C96.9244 85.5511 98.2887 84.6102 99.4258 83.4275C100.563 82.2448 101.45 80.8447 102.033 79.311C102.616 77.7774 102.883 76.1418 102.819 74.5023V70.5523L102.316 69.8398Z" fill="url(#paint3_linear_432_20572)"/>
<path style="mix-blend-mode:multiply" d="M102.832 70.5523V74.5023C102.773 76.1385 103.045 77.7697 103.631 79.2986C104.216 80.8274 105.104 82.2226 106.241 83.4009C107.378 84.5791 108.74 85.5162 110.247 86.1562C111.754 86.7963 113.375 87.1262 115.012 87.1262C116.649 87.1262 118.269 86.7963 119.776 86.1562C121.283 85.5162 122.646 84.5791 123.782 83.4009C124.919 82.2226 125.807 80.8274 126.393 79.2986C126.978 77.7697 127.25 76.1385 127.191 74.5023V69.8398H102.316L102.832 70.5523Z" fill="url(#paint4_linear_432_20572)"/>
<path style="mix-blend-mode:multiply" d="M78.2984 69.8398H54.2828L54.1172 70.5523V74.5023C54.0586 76.1385 54.3302 77.7697 54.9159 79.2986C55.5016 80.8274 56.3893 82.2226 57.5261 83.4009C58.6629 84.5791 60.0254 85.5162 61.5323 86.1562C63.0392 86.7963 64.6597 87.1262 66.2969 87.1262C67.9341 87.1262 69.5545 86.7963 71.0614 86.1562C72.5684 85.5162 73.9309 84.5791 75.0676 83.4009C76.2044 82.2226 77.0921 80.8274 77.6778 79.2986C78.2635 77.7697 78.5352 76.1385 78.4766 74.5023V70.5523L78.2984 69.8398Z" fill="url(#paint5_linear_432_20572)"/>
<path d="M41.9375 87.6273C38.4565 87.6273 35.1181 86.2445 32.6567 83.7831C30.1953 81.3217 28.8125 77.9833 28.8125 74.5023V70.2461L44.375 48.793H60.1094L55.0531 70.668V74.5023C55.0531 77.9817 53.6716 81.3187 51.2122 83.7798C48.7528 86.241 45.4168 87.6249 41.9375 87.6273ZM30.6875 70.8555V74.5023C30.6256 76.0171 30.8705 77.5288 31.4075 78.9465C31.9446 80.3642 32.7626 81.6588 33.8124 82.7524C34.8623 83.8461 36.1224 84.7163 37.5171 85.3107C38.9117 85.9051 40.4121 86.2115 41.9281 86.2115C43.4442 86.2115 44.9445 85.9051 46.3392 85.3107C47.7338 84.7163 48.9939 83.8461 50.0438 82.7524C51.0937 81.6588 51.9117 80.3642 52.4487 78.9465C52.9857 77.5288 53.2306 76.0171 53.1687 74.5023V70.4398L57.7437 50.6617H45.3406L30.6875 70.8555Z" fill="#677381"/>
<path d="M17.5781 87.6273C14.0972 87.6273 10.7588 86.2445 8.29735 83.7831C5.83593 81.3217 4.45313 77.9833 4.45312 74.5023V69.4242L4.76562 69.1461L27.2156 48.793H46.6969L30.6938 70.8555V74.5023C30.6938 77.9817 29.3122 81.3187 26.8528 83.7798C24.3935 86.241 21.0575 87.6249 17.5781 87.6273ZM6.32812 70.2555V74.5023C6.32812 77.486 7.51339 80.3475 9.62317 82.4573C11.733 84.5671 14.5944 85.7523 17.5781 85.7523C20.5618 85.7523 23.4233 84.5671 25.5331 82.4573C27.6429 80.3475 28.8281 77.486 28.8281 74.5023V70.2461L43.0281 50.668H27.9406L6.32812 70.2555Z" fill="#677381"/>
<path d="M90.6531 87.6289C87.1722 87.6289 83.8338 86.2461 81.3723 83.7847C78.9109 81.3233 77.5281 77.9849 77.5281 74.5039V70.6602L72.4688 48.7852H88.1969L103.759 70.2383V74.5039C103.759 77.9816 102.379 81.3172 99.9218 83.7781C97.4644 86.2389 94.1308 87.6239 90.6531 87.6289ZM74.8375 50.6695L79.4125 70.4414V74.5039C79.3506 76.0187 79.5955 77.5303 80.1325 78.948C80.6695 80.3658 81.4876 81.6603 82.5375 82.754C83.5873 83.8477 84.8474 84.7178 86.2421 85.3123C87.6367 85.9067 89.1371 86.2131 90.6531 86.2131C92.1692 86.2131 93.6695 85.9067 95.0642 85.3123C96.4588 84.7178 97.7189 83.8477 98.7688 82.754C99.8187 81.6603 100.637 80.3658 101.174 78.948C101.711 77.5303 101.956 76.0187 101.894 74.5039V70.857L87.25 50.6695H74.8375Z" fill="#677381"/>
<path d="M115.011 87.6273C111.53 87.6273 108.192 86.2445 105.73 83.7831C103.269 81.3217 101.886 77.9833 101.886 74.5023V70.8555L85.8828 48.793H106.352L128.12 69.4367V74.5023C128.12 77.9806 126.74 81.3166 124.282 83.7776C121.824 86.2386 118.489 87.6232 115.011 87.6273ZM89.5672 50.668L103.77 70.2461V74.5023C103.714 76.014 103.963 77.5214 104.503 78.9346C105.042 80.3477 105.861 81.6375 106.911 82.7269C107.96 83.8162 109.219 84.6827 110.611 85.2746C112.003 85.8665 113.5 86.1715 115.012 86.1715C116.525 86.1715 118.022 85.8665 119.414 85.2746C120.806 84.6827 122.065 83.8162 123.114 82.7269C124.164 81.6375 124.983 80.3477 125.522 78.9346C126.062 77.5214 126.311 76.014 126.255 74.5023V70.243L105.63 50.668H89.5672Z" fill="#677381"/>
<path d="M66.293 87.6277C62.812 87.6277 59.4736 86.2449 57.0122 83.7835C54.5508 81.3221 53.168 77.9837 53.168 74.5027V70.4402L58.168 48.7871H74.3867L79.3867 70.4402V74.5027C79.3867 77.9783 78.0082 81.312 75.5535 83.7725C73.0989 86.233 69.7685 87.6195 66.293 87.6277ZM55.043 70.659V74.5027C54.9866 76.0143 55.2357 77.5218 55.7752 78.9349C56.3148 80.3481 57.1339 81.6379 58.1834 82.7273C59.2329 83.8166 60.4913 84.6831 61.8833 85.275C63.2754 85.8669 64.7725 86.1719 66.2852 86.1719C67.7978 86.1719 69.2949 85.8669 70.687 85.275C72.0791 84.6831 73.3375 83.8166 74.387 82.7273C75.4364 81.6379 76.2555 80.3481 76.7951 78.9349C77.3347 77.5218 77.5837 76.0143 77.5273 74.5027V70.659L72.9023 50.659H59.6773L55.043 70.659Z" fill="#677381"/>
<path d="M66.293 43.9102C78.1585 43.9102 87.7773 34.2913 87.7773 22.4258C87.7773 10.5603 78.1585 0.941406 66.293 0.941406C54.4275 0.941406 44.8086 10.5603 44.8086 22.4258C44.8086 34.2913 54.4275 43.9102 66.293 43.9102Z" fill="url(#paint6_linear_432_20572)"/>
<path d="M66.293 44.8438C61.8582 44.8438 57.5231 43.5287 53.8357 41.0648C50.1484 38.6009 47.2745 35.0989 45.5776 31.0016C43.8806 26.9044 43.4368 22.3959 44.3022 18.0464C45.1676 13.6969 47.3034 9.70175 50.4394 6.56612C53.5755 3.43049 57.571 1.29526 61.9206 0.430459C66.2702 -0.434341 70.7786 0.0101331 74.8756 1.70767C78.9726 3.40521 82.4742 6.27956 84.9376 9.96723C87.401 13.6549 88.7155 17.9902 88.7149 22.425C88.7082 28.3693 86.3437 34.0683 82.1401 38.2713C77.9366 42.4742 72.2373 44.838 66.293 44.8438ZM66.293 1.87813C62.2292 1.87813 58.2567 3.08319 54.8777 5.34091C51.4988 7.59863 48.8653 10.8076 47.3101 14.5621C45.755 18.3165 45.3481 22.4478 46.1409 26.4335C46.9337 30.4192 48.8906 34.0803 51.7641 36.9538C54.6377 39.8274 58.2988 41.7843 62.2845 42.5771C66.2702 43.3699 70.4015 42.963 74.1559 41.4078C77.9104 39.8527 81.1194 37.2192 83.3771 33.8402C85.6348 30.4613 86.8399 26.4888 86.8399 22.425C86.8341 16.9774 84.6674 11.7546 80.8154 7.90257C76.9634 4.05054 71.7406 1.88392 66.293 1.87813Z" fill="#677381"/>
<path d="M64.3992 31.7969L55.9805 23.3781L59.0617 20.3L64.3992 25.6375L76.6148 13.4219L79.6961 16.5L64.3992 31.7969Z" fill="#F26921"/>
<path d="M98.493 50.607H34.8867V43.0352H98.493V50.607ZM36.7617 48.732H96.618V44.9102H36.7617V48.732Z" fill="#677381"/>
<path d="M35.8242 43.9727H97.5555V49.6695H35.8242V43.9727Z" fill="#677381"/>
<path d="M63.6953 117.73H70.8141V119.605H63.6953V117.73Z" fill="#677381"/>
<defs>
<linearGradient id="paint0_linear_432_20572" x1="67.0094" y1="75.0484" x2="67.0094" y2="108.117" gradientUnits="userSpaceOnUse">
<stop stop-color="#CACFDD"/>
<stop offset="1" stop-color="#EEF0F1"/>
</linearGradient>
<linearGradient id="paint1_linear_432_20572" x1="42.0188" y1="68.5523" x2="42.0188" y2="101.624" gradientUnits="userSpaceOnUse">
<stop stop-color="#CACFDD"/>
<stop offset="1" stop-color="#EEF0F1"/>
</linearGradient>
<linearGradient id="paint2_linear_432_20572" x1="17.8359" y1="68.5523" x2="17.8359" y2="101.624" gradientUnits="userSpaceOnUse">
<stop stop-color="#CACFDD"/>
<stop offset="1" stop-color="#EEF0F1"/>
</linearGradient>
<linearGradient id="paint3_linear_432_20572" x1="90.5719" y1="68.5523" x2="90.5719" y2="101.624" gradientUnits="userSpaceOnUse">
<stop stop-color="#CACFDD"/>
<stop offset="1" stop-color="#EEF0F1"/>
</linearGradient>
<linearGradient id="paint4_linear_432_20572" x1="114.754" y1="68.5523" x2="114.754" y2="101.624" gradientUnits="userSpaceOnUse">
<stop stop-color="#CACFDD"/>
<stop offset="1" stop-color="#EEF0F1"/>
</linearGradient>
<linearGradient id="paint5_linear_432_20572" x1="66.2953" y1="68.5523" x2="66.2953" y2="101.624" gradientUnits="userSpaceOnUse">
<stop stop-color="#CACFDD"/>
<stop offset="1" stop-color="#EEF0F1"/>
</linearGradient>
<linearGradient id="paint6_linear_432_20572" x1="44.8117" y1="22.4258" x2="87.7773" y2="22.4258" gradientUnits="userSpaceOnUse">
<stop stop-color="#CACFDD"/>
<stop offset="1" stop-color="#EEF0F1"/>
</linearGradient>
</defs>
</svg>
