<svg width="20" height="20" viewBox="0 0 20 20" fill="none" xmlns="http://www.w3.org/2000/svg">
<path d="M17.2133 12.3798C16.2175 11.4281 14.6392 11.4289 13.645 12.3856L12.425 13.3564C9.76 12.2256 7.86333 10.3248 6.64833 7.56727L7.61417 6.35394C8.56917 5.3606 8.57 3.7831 7.61917 2.78644C7.61917 2.78644 6.07583 0.780604 6.05 0.75477C5.045 -0.251896 3.40667 -0.251063 2.44417 0.715604L1.48667 1.55144C0.528333 2.50977 0 3.80394 0 5.1981C0 11.5614 8.43833 19.9998 14.8017 19.9998C16.1958 19.9998 17.4908 19.4723 18.4858 18.4723L19.2458 17.5973C20.25 16.5914 20.25 14.9556 19.2458 13.9506C19.2208 13.9248 17.2142 12.3814 17.2142 12.3814L17.2133 12.3798ZM18.0275 16.4598L17.2675 17.3348C16.625 17.9781 15.75 18.3323 14.8017 18.3323C9.81083 18.3323 1.66667 10.9948 1.66667 5.19727C1.66667 4.24894 2.02083 3.3731 2.62167 2.76977L3.58 1.93227C3.75833 1.75477 3.99167 1.6656 4.22583 1.6656C4.445 1.6656 4.66417 1.74394 4.8375 1.90144C4.8375 1.90144 6.3725 3.8956 6.3975 3.9206C6.75417 4.27644 6.75417 4.85644 6.3975 5.21144C6.375 5.23394 5.035 6.91477 5.035 6.91477C4.8475 7.14894 4.8025 7.4656 4.91333 7.74394C6.34083 11.3006 8.81417 13.7706 12.2642 15.0873C12.5375 15.1923 12.8492 15.1439 13.08 14.9614C13.08 14.9614 14.7617 13.6214 14.7833 13.5989C15.1283 13.2539 15.7292 13.2539 16.0742 13.5989C16.0992 13.6248 18.095 15.1598 18.095 15.1598C18.4183 15.5181 18.4067 16.0739 18.0242 16.4598H18.0275ZM19.2675 0.73227C18.7958 0.25977 18.1683 -0.00022971 17.5 -0.00022971H14.1667C12.7883 0.00143696 11.6667 1.1231 11.6667 2.5006V8.0181C11.6692 8.44727 11.9058 8.83727 12.2867 9.0356C12.4492 9.1206 12.625 9.1631 12.8042 9.1631C13.045 9.1631 13.2925 9.08477 13.5208 8.92477L15.2933 7.49977H17.4992C18.8775 7.49977 19.9992 6.3781 19.9992 4.99977V2.49977C19.9992 1.83144 19.7383 1.20394 19.2667 0.731437L19.2675 0.73227ZM18.3333 4.99977C18.3333 5.45894 17.96 5.8331 17.5 5.8331H15C14.81 5.8331 14.6258 5.8981 14.4775 6.01727L13.3342 6.9381V2.50144C13.3342 2.04227 13.7075 1.6681 14.1667 1.6681H17.5C17.7233 1.6681 17.9325 1.75394 18.0892 1.91144C18.2458 2.06894 18.3333 2.2781 18.3333 2.50144V5.00144V4.99977Z" fill="#42695A"/>
</svg>
