<svg width="13" height="18" viewBox="0 0 13 18" fill="none" xmlns="http://www.w3.org/2000/svg">
<path d="M6.25 17.9167C9.70175 17.9167 12.5 15.1184 12.5 11.6667C12.5 10.9454 12.3081 10.2527 12.0833 9.608C10.6944 10.9804 9.63892 11.6667 8.91667 11.6667C12.2462 5.83333 10.4167 3.33333 5.41667 0C5.83333 4.16626 3.08669 6.06146 1.96816 7.11383C0.75655 8.25375 0 9.87183 0 11.6667C0 15.1184 2.79822 17.9167 6.25 17.9167ZM6.84117 3.11248C9.54258 5.4044 9.5555 7.18525 7.46917 10.8405C6.835 11.9516 7.63733 13.3333 8.91667 13.3333C9.49033 13.3333 10.0701 13.166 10.6824 12.8376C10.1649 14.8017 8.37658 16.25 6.25 16.25C3.71869 16.25 1.66667 14.198 1.66667 11.6667C1.66667 10.384 2.19399 9.18967 3.11021 8.32767C3.21522 8.22892 3.74791 7.75675 3.77064 7.73633C4.12385 7.41842 4.41483 7.13858 4.70242 6.83064C5.72775 5.73277 6.46425 4.51359 6.84117 3.11248Z" fill="#E27E14"/>
</svg>
