<svg width="124" height="115" viewBox="0 0 124 115" fill="none" xmlns="http://www.w3.org/2000/svg">
<path d="M87.321 15.3965L81.96 69.7917L75.9805 87.2247H98.8548L92.7682 69.7917L87.767 15.3965H87.321Z" fill="url(#paint0_linear_432_8293)"/>
<path d="M55.9221 30.7341L35.5573 23.482C34.2824 23.027 33.1451 22.2531 32.2539 21.2341L33.5979 20.0448C34.2891 20.834 35.1702 21.4337 36.158 21.7872L54.3254 28.2811L54.6227 24.4484C54.7369 23.0563 54.4024 21.6642 53.6684 20.4759C52.9343 19.2876 51.8392 18.3655 50.5432 17.8445L45.4885 15.7928C44.9841 15.587 44.5258 15.2827 44.1404 14.8978C43.7549 14.5129 43.4501 14.055 43.2436 13.5509L44.8968 12.8789C45.0135 13.1622 45.1854 13.4195 45.4023 13.6359C45.6192 13.8523 45.8769 14.0235 46.1605 14.1396L51.2152 16.1913C52.8625 16.8545 54.2546 18.0272 55.1881 19.5379C56.1215 21.0485 56.5475 22.8181 56.4038 24.5881L55.9221 30.7341Z" fill="#5E6175"/>
<path style="mix-blend-mode:multiply" d="M87.3281 15.3965V87.2247H98.8619L92.7754 69.7917L87.7741 15.3965H87.3281Z" fill="url(#paint1_linear_432_8293)"/>
<path d="M87.3231 15.3965C84.8819 40.1381 86.0891 27.8847 81.9709 69.7917L75.9796 87.2247H12.1914C12.2271 87.0195 11.7603 88.414 18.1382 69.7917C23.862 11.7184 23.4189 16.0714 23.523 15.3965H87.3231Z" fill="url(#paint2_linear_432_8293)"/>
<path style="mix-blend-mode:multiply" d="M87.3287 15.3965L85.3931 35.0209H21.5781C23.6595 13.8919 23.4395 16.0179 23.5376 15.3965H87.3287Z" fill="url(#paint3_linear_432_8293)"/>
<path d="M75.9801 88.1199H11.1602L11.3861 86.7997L17.2734 69.6135C23.1697 9.75913 22.5036 16.2203 22.7683 14.5195H87.3236V16.3036H24.3174L19.0277 69.9852L13.417 86.3388H75.9801V88.1199Z" fill="#5E6175"/>
<path d="M100.113 88.1211H75.9805V86.337H97.6L91.8911 69.9834C91.8732 69.7931 86.8988 15.7101 86.878 15.4782L87.321 15.4395V14.5059H88.5817L93.6365 69.5998L100.113 88.1211Z" fill="#5E6175"/>
<path d="M23.2534 15.3965L18.3711 29.862H82.9353C87.7284 14.2993 87.2378 15.9763 87.33 15.3965H23.2534Z" fill="#F5F5F5"/>
<path d="M83.5961 30.7594H17.1289L22.6148 14.5098H88.3743L88.1186 16.0678L83.5961 30.7594ZM19.6147 28.9753H82.2789L86.1829 16.2938H23.8934L19.6147 28.9753Z" fill="#5E6175"/>
<path d="M62.8511 97.5646C61.4366 97.5314 60.0913 96.9463 59.1026 95.9342C58.114 94.9221 57.5605 93.5634 57.5605 92.1485C57.5605 90.7337 58.114 89.375 59.1026 88.3629C60.0913 87.3508 61.4366 86.7657 62.8511 86.7325H69.7791C72.2911 86.7325 74.7666 86.131 76.9985 84.9782C79.3317 83.7733 81.9295 83.1717 84.5549 83.2283C87.1804 83.2849 89.7498 83.9979 92.029 85.3023C95.5465 87.3153 94.3898 86.6344 97.1551 88.3054H122.931V110.903L94.9607 105.631L72.7108 112.634C69.301 113.626 65.6688 113.549 62.304 112.414L33.7297 102.602C32.2219 102.112 30.9702 101.044 30.2501 99.6318C29.5299 98.2196 29.4002 96.5792 29.8895 95.0714C30.3789 93.5636 31.4471 92.3119 32.8593 91.5918C34.2715 90.8716 35.9119 90.7419 37.4197 91.2313L56.6367 97.3327C57.1582 97.4963 57.7016 97.5795 58.2483 97.5794L62.8511 97.5646Z" fill="#DEE1EC"/>
<path d="M62.0293 113.254L33.4521 103.442C31.7557 102.851 30.3585 101.619 29.5599 100.01C28.7612 98.4007 28.6248 96.5428 29.1798 94.8343C29.7347 93.1258 30.937 91.7027 32.5288 90.8701C34.1206 90.0375 35.9752 89.8616 37.6951 90.3802L56.9211 96.4756C57.4207 96.6283 57.9421 96.6976 58.4642 96.6808C57.562 95.8071 56.9413 94.6838 56.6817 93.455C56.4222 92.2261 56.5356 90.9478 57.0075 89.7839C57.4794 88.6199 58.2882 87.6235 59.3303 86.9224C60.3723 86.2213 61.6 85.8474 62.8559 85.8487H69.784C72.1528 85.8465 74.4869 85.2798 76.593 84.1955C79.0568 82.9156 81.8029 82.2761 84.5787 82.3359C87.3544 82.3956 90.0705 83.1527 92.4769 84.5375C95.9944 86.5475 94.8883 85.8993 97.4068 87.4216H122.93V89.2057H96.9043C93.8744 87.3741 95.0786 88.0847 91.5849 86.0836C89.4354 84.85 87.0105 84.1762 84.5328 84.1243C82.055 84.0723 79.604 84.6438 77.4048 85.7863C75.046 87.0016 72.4314 87.6366 69.778 87.6387H62.85C62.2461 87.6232 61.6453 87.7288 61.0829 87.9492C60.5205 88.1696 60.0078 88.5003 59.5753 88.922C59.1427 89.3436 58.7989 89.8475 58.5642 90.4041C58.3294 90.9607 58.2085 91.5587 58.2085 92.1627C58.2085 92.7668 58.3294 93.3647 58.5642 93.9213C58.7989 94.4779 59.1427 94.9819 59.5753 95.4035C60.0078 95.8251 60.5205 96.1559 61.0829 96.3763C61.6453 96.5966 62.2461 96.7022 62.85 96.6867H75.481V98.4708H58.2591C57.6212 98.4675 56.9876 98.3672 56.3799 98.1734L37.1599 92.072C32.8931 90.74 29.1496 95.1792 31.0763 99.1457C31.3684 99.7547 31.7801 100.299 32.2868 100.745C32.7936 101.192 33.385 101.531 34.0259 101.744L62.6062 111.557C65.7919 112.634 69.2316 112.707 72.46 111.765L94.9032 104.709L123.097 110.019L122.764 111.774L95.0132 106.544L72.9774 113.483C69.3909 114.531 65.5689 114.452 62.0293 113.254Z" fill="#5E6175"/>
<path d="M49.1927 46.4604C49.6803 42.9755 48.2531 39.3242 45.8625 39.3242C43.4718 39.3242 41.0247 42.9726 40.5371 46.4604C40.1298 49.3921 41.2388 51.2713 43.0258 51.7916L39.1753 70.6519C39.0993 70.9483 39.0931 71.2583 39.1572 71.5575C39.2213 71.8567 39.354 72.1369 39.5448 72.3761C39.7356 72.6154 39.9793 72.807 40.2567 72.9361C40.5342 73.0651 40.8378 73.128 41.1437 73.1198C41.8109 73.1016 42.4487 72.841 42.9379 72.3868C43.4271 71.9327 43.7342 71.3159 43.8019 70.6519L45.2202 51.7916C47.1589 51.2713 48.7942 49.3951 49.1927 46.4604Z" fill="#F26921"/>
<path d="M63.3025 39.3285C63.0433 39.3357 62.7947 39.4332 62.5998 39.6042C62.4049 39.7753 62.2758 40.009 62.235 40.2651L61.5512 45.1593C61.5083 45.4259 61.3738 45.6692 61.1708 45.8473C60.9678 46.0253 60.709 46.1269 60.4391 46.1346C60.3158 46.1383 60.1931 46.1144 60.0802 46.0647C59.9672 46.015 59.8668 45.9407 59.7861 45.8473C59.7055 45.7539 59.6468 45.6436 59.6142 45.5246C59.5816 45.4056 59.5759 45.2808 59.5976 45.1593L60.2815 40.2651C60.3023 40.1487 60.2969 40.029 60.2657 39.9149C60.2345 39.8008 60.1783 39.6951 60.1011 39.6054C60.024 39.5157 59.9278 39.4443 59.8196 39.3964C59.7115 39.3485 59.594 39.3253 59.4757 39.3285H59.3568C59.0976 39.3357 58.849 39.4332 58.6541 39.6042C58.4592 39.7753 58.3302 40.009 58.2893 40.2651L57.6055 45.1593C57.5626 45.4259 57.4281 45.6692 57.2251 45.8473C57.0221 46.0253 56.7633 46.1269 56.4934 46.1346C56.3701 46.1383 56.2474 46.1144 56.1345 46.0647C56.0215 46.015 55.9211 45.9407 55.8405 45.8473C55.7598 45.7539 55.7011 45.6436 55.6685 45.5246C55.6359 45.4056 55.6302 45.2808 55.6519 45.1593L56.3358 40.2651C56.3566 40.1487 56.3512 40.029 56.32 39.9149C56.2888 39.8008 56.2326 39.6951 56.1554 39.6054C56.0783 39.5157 55.9821 39.4443 55.874 39.3964C55.7658 39.3485 55.6483 39.3253 55.53 39.3285C55.2708 39.3357 55.0223 39.4332 54.8273 39.6042C54.6324 39.7753 54.5034 40.009 54.4626 40.2651L53.5706 46.6401C53.2524 48.9385 54.5875 50.8593 56.6688 51.344L52.7291 70.6532C52.6537 70.9495 52.648 71.2593 52.7123 71.5582C52.7767 71.8572 52.9094 72.1372 53.1001 72.3762C53.2908 72.6153 53.5342 72.8069 53.8114 72.9362C54.0885 73.0654 54.3918 73.1287 54.6975 73.1211C55.3647 73.1029 56.0026 72.8423 56.4917 72.3881C56.9809 71.934 57.288 71.3172 57.3557 70.6532L58.8067 51.344C59.9267 51.0878 60.9449 50.5034 61.7309 49.6655C62.517 48.8275 63.0352 47.7741 63.2192 46.6401L64.1112 40.2651C64.1321 40.1484 64.1266 40.0285 64.0953 39.9142C64.0639 39.7998 64.0074 39.6939 63.9299 39.6042C63.8524 39.5145 63.7559 39.4431 63.6474 39.3954C63.5388 39.3478 63.421 39.3249 63.3025 39.3285Z" fill="#F26921"/>
<path d="M3.98828 93.9473L7.86261 90.0729L9.12393 91.3342L5.24959 95.2086L3.98828 93.9473Z" fill="#5E6175"/>
<path d="M12.1367 93.5879H13.9208V99.0678H12.1367V93.5879Z" fill="#5E6175"/>
<path d="M0 85.6387H5.47996V87.4227H0V85.6387Z" fill="#5E6175"/>
<path d="M94.3499 45.2096C104.819 45.2096 113.305 36.723 113.305 26.2542C113.305 15.7854 104.819 7.29883 94.3499 7.29883C83.8811 7.29883 75.3945 15.7854 75.3945 26.2542C75.3945 36.723 83.8811 45.2096 94.3499 45.2096Z" fill="#F5F5F5"/>
<path d="M105.661 49.9441L104.894 48.3354C105.409 48.0887 105.923 47.8211 106.42 47.5386L107.312 49.0907C106.768 49.394 106.214 49.6913 105.661 49.9441ZM109.881 47.4197L108.825 45.9805C109.286 45.6416 109.741 45.2818 110.175 44.9131L111.329 46.2749C110.862 46.6704 110.374 47.0539 109.881 47.4197ZM113.556 44.1489L112.25 42.9328C112.64 42.5165 113.018 42.0794 113.38 41.6334L114.766 42.7574C114.379 43.2361 113.972 43.7059 113.556 44.1519V44.1489ZM116.559 40.2568L115.051 39.3023C115.349 38.8176 115.646 38.3181 115.92 37.8156L117.49 38.66C117.201 39.2042 116.889 39.7394 116.559 40.2597V40.2568ZM118.774 35.874L117.115 35.2198C117.323 34.6876 117.516 34.1405 117.689 33.5993L119.39 34.1316C119.22 34.7143 119.012 35.3001 118.774 35.874ZM120.139 31.1463L118.385 30.8162C118.492 30.2543 118.578 29.6834 118.643 29.1154L120.427 29.3206C120.356 29.9302 120.261 30.5457 120.151 31.1463H120.139ZM120.594 26.2521H118.81C118.81 25.6812 118.789 25.1014 118.75 24.5335L120.534 24.4086C120.585 25.0122 120.606 25.6396 120.606 26.2521H120.594ZM118.385 21.6909C118.278 21.1259 118.15 20.564 118.007 20.0109L119.731 19.559C119.886 20.1536 120.029 20.7483 120.139 21.3579L118.385 21.6909ZM117.127 17.2814C116.919 16.7521 116.687 16.2199 116.44 15.7084L118.052 14.9383C118.313 15.4884 118.563 16.0563 118.786 16.6272L117.127 17.2814ZM115.045 13.1989C114.748 12.7172 114.415 12.2385 114.076 11.7776L115.515 10.7221C115.878 11.2156 116.226 11.73 116.556 12.2474L115.045 13.1989ZM112.247 9.57135C111.858 9.1521 111.448 8.74475 111.031 8.35523L112.247 7.04991C112.696 7.46619 113.139 7.90625 113.553 8.35523L112.247 9.57135ZM108.825 6.52362C108.364 6.18465 107.886 5.85758 107.401 5.5543L108.355 4.04679C108.873 4.37386 109.387 4.72472 109.881 5.08747L108.825 6.52362ZM104.894 4.16572C104.377 3.91893 103.845 3.68701 103.315 3.47887L103.97 1.81972C104.54 2.04272 105.108 2.29249 105.664 2.55712L104.894 4.16572ZM100.589 2.58685C100.039 2.44116 99.4738 2.3133 98.9118 2.20923L99.2419 0.454931C99.8365 0.56792 100.452 0.704694 101.044 0.862284L100.589 2.58685ZM96.0693 1.8435C95.5013 1.80485 94.9215 1.78403 94.3477 1.78403V0C94.9631 0 95.5816 0.0208135 96.1912 0.0624409L96.0693 1.8435Z" fill="#A9AFC4"/>
<path d="M94.3513 46.103C90.4259 46.103 86.5886 44.939 83.3247 42.7581C80.0608 40.5772 77.5169 37.4775 76.0147 33.8509C74.5125 30.2242 74.1195 26.2336 74.8853 22.3836C75.6511 18.5335 77.5414 14.9971 80.3171 12.2214C83.0928 9.44567 86.6293 7.55539 90.4793 6.78957C94.3293 6.02376 98.3199 6.4168 101.947 7.919C105.573 9.42121 108.673 11.9651 110.854 15.229C113.035 18.4929 114.199 22.3302 114.199 26.2556C114.192 31.5175 112.099 36.5621 108.379 40.2829C104.658 44.0036 99.6132 46.0967 94.3513 46.103ZM94.3513 8.19225C90.7787 8.19225 87.2863 9.25164 84.3158 11.2365C81.3453 13.2213 79.0301 16.0424 77.6629 19.3431C76.2958 22.6437 75.9381 26.2756 76.635 29.7796C77.332 33.2835 79.0524 36.5021 81.5786 39.0283C84.1048 41.5545 87.3234 43.2749 90.8273 43.9719C94.3313 44.6688 97.9632 44.3111 101.264 42.944C104.564 41.5768 107.386 39.2616 109.37 36.2911C111.355 33.3206 112.415 29.8282 112.415 26.2556C112.409 21.4666 110.504 16.8753 107.118 13.489C103.732 10.1026 99.1403 8.19775 94.3513 8.19225Z" fill="#5E6175"/>
<path d="M84.5312 32.1465L100.245 16.4326L104.174 20.3616L88.4602 36.0755L84.5312 32.1465Z" fill="#F26921"/>
<path d="M84.5312 20.3633L88.4602 16.4343L104.174 32.1481L100.245 36.0771L84.5312 20.3633Z" fill="#F26921"/>
<defs>
<linearGradient id="paint0_linear_432_8293" x1="75.9805" y1="51.3091" x2="98.8548" y2="51.3091" gradientUnits="userSpaceOnUse">
<stop stop-color="#A9AFC4"/>
<stop offset="1" stop-color="#D4D8E5"/>
</linearGradient>
<linearGradient id="paint1_linear_432_8293" x1="87.3281" y1="51.3091" x2="98.8619" y2="51.3091" gradientUnits="userSpaceOnUse">
<stop stop-color="#CACFDD"/>
<stop offset="1" stop-color="#EEF0F1"/>
</linearGradient>
<linearGradient id="paint2_linear_432_8293" x1="49.7572" y1="16.6275" x2="49.7572" y2="83.5139" gradientUnits="userSpaceOnUse">
<stop stop-color="#CACFDD"/>
<stop offset="1" stop-color="#EEF0F1"/>
</linearGradient>
<linearGradient id="paint3_linear_432_8293" x1="21.5781" y1="25.2146" x2="87.3287" y2="25.2146" gradientUnits="userSpaceOnUse">
<stop stop-color="#CACFDD"/>
<stop offset="1" stop-color="#EEF0F1"/>
</linearGradient>
</defs>
</svg>
