<svg width="48" height="53" viewBox="0 0 48 53" fill="none" xmlns="http://www.w3.org/2000/svg">
<g opacity="0.5">
<path d="M4.9707 18.5073H39.5035V47.3272H4.9707V18.5073Z" fill="#F5F5F5"/>
<path style="mix-blend-mode:multiply" d="M39.5035 21.4697V31.4213C38.6037 31.5845 37.6781 31.5337 36.8016 31.2731C35.925 31.0126 35.122 30.5495 34.4574 29.9213C33.343 30.9599 31.8718 31.5302 30.3485 31.5141C28.8252 31.498 27.3664 30.8966 26.2742 29.8346C25.1343 30.9131 23.6247 31.5141 22.0555 31.5141C20.4862 31.5141 18.9766 30.9131 17.8367 29.8346C16.7479 30.8927 15.295 31.4934 13.7769 31.5132C12.2588 31.5331 10.7907 30.9705 9.67461 29.9412C9.05312 30.5289 8.3084 30.9705 7.49468 31.2341C6.68096 31.4976 5.81871 31.5764 4.9707 31.4646V21.4697H39.5035Z" fill="url(#paint0_linear_395_478398)"/>
<path d="M4.9707 5.49121H39.5035V18.5072H4.9707V5.49121Z" fill="#F5F5F5"/>
<path d="M4.9707 5.49121H39.5023V18.5072H4.9707V5.49121Z" fill="#F5F5F5"/>
<path d="M7.94141 8.46094H36.5328V15.5367H7.94141V8.46094Z" fill="#DEE1EC"/>
<path d="M39.8551 47.6788H4.61914V18.1558H39.8551V47.6788ZM5.32227 46.9757H39.152V18.8589H5.32227V46.9757Z" fill="#5E6175"/>
<path d="M0 46.9756H39.5027V47.6787H0V46.9756Z" fill="#5E6175"/>
<path d="M9.62305 34.2573H17.7758V47.3272H9.62305V34.2573Z" fill="#DEE1EC"/>
<path d="M18.1273 47.6788H9.27148V33.9058H18.1273V47.6788ZM9.97461 46.9757H17.4242V34.6089H9.97461V46.9757Z" fill="#5E6175"/>
<path d="M22.4551 34.2573H34.8371V40.7917H22.4551V34.2573Z" fill="#A9AFC4"/>
<path d="M21.3125 40.792H36.0723V42.6646H21.3125V40.792Z" fill="#5E6175"/>
<path d="M11.8141 41.6096C12.2658 41.6096 12.632 41.2434 12.632 40.7916C12.632 40.3399 12.2658 39.9736 11.8141 39.9736C11.3623 39.9736 10.9961 40.3399 10.9961 40.7916C10.9961 41.2434 11.3623 41.6096 11.8141 41.6096Z" fill="#F26921"/>
<path d="M1.81641 25.7354V23.3447H9.62344V25.7354C9.62344 26.7706 9.21217 27.7635 8.48012 28.4956C7.74807 29.2276 6.7552 29.6389 5.71992 29.6389C4.68464 29.6389 3.69177 29.2276 2.95972 28.4956C2.22767 27.7635 1.81641 26.7706 1.81641 25.7354Z" fill="url(#paint1_linear_395_478398)"/>
<path d="M42.443 25.6641V23.3438H34.4883V25.6641C34.4883 26.7189 34.9073 27.7306 35.6532 28.4765C36.3991 29.2224 37.4108 29.6414 38.4656 29.6414C39.5205 29.6414 40.5321 29.2224 41.278 28.4765C42.0239 27.7306 42.443 26.7189 42.443 25.6641Z" fill="url(#paint2_linear_395_478398)"/>
<path d="M17.776 23.3447V25.358C17.7666 25.9261 17.8703 26.4903 18.0812 27.0178C18.2921 27.5454 18.6059 28.0257 19.0043 28.4307C19.4027 28.8358 19.8777 29.1574 20.4017 29.377C20.9257 29.5966 21.4881 29.7097 22.0563 29.7097C22.6244 29.7097 23.1868 29.5966 23.7108 29.377C24.2348 29.1574 24.7098 28.8358 25.1082 28.4307C25.5066 28.0257 25.8204 27.5454 26.0313 27.0178C26.2422 26.4903 26.3459 25.9261 26.3365 25.358V23.3447H17.776Z" fill="url(#paint3_linear_395_478398)"/>
<path d="M39.5039 18.5073H4.97109L1.81641 22.7542V23.3401H42.443V22.7542L39.5039 18.5073Z" fill="#F5F5F5"/>
<path d="M5.71992 29.9904C4.59168 29.9889 3.51011 29.5399 2.71243 28.742C1.91475 27.9441 1.46608 26.8624 1.46484 25.7342V22.9932H9.975V25.7342C9.97376 26.8624 9.5251 27.9441 8.72742 28.742C7.92974 29.5399 6.84817 29.9889 5.71992 29.9904ZM2.16797 23.6963V25.7342C2.16797 26.2006 2.25984 26.6625 2.43835 27.0935C2.61685 27.5244 2.87848 27.916 3.20831 28.2458C3.53814 28.5756 3.92971 28.8373 4.36065 29.0158C4.79159 29.1943 5.25347 29.2861 5.71992 29.2861C6.18637 29.2861 6.64825 29.1943 7.0792 29.0158C7.51014 28.8373 7.9017 28.5756 8.23153 28.2458C8.56136 27.916 8.823 27.5244 9.0015 27.0935C9.18 26.6625 9.27188 26.2006 9.27188 25.7342V23.6963H2.16797Z" fill="#5E6175"/>
<path d="M38.4586 29.9906C37.3127 29.9869 36.2149 29.5297 35.405 28.719C34.5952 27.9083 34.1392 26.81 34.1367 25.6641V22.9922H42.7945V25.6641C42.792 26.8124 42.3341 27.9129 41.5213 28.724C40.7084 29.5351 39.6069 29.9906 38.4586 29.9906ZM34.8352 23.6965V25.6641C34.8352 26.6263 35.2174 27.5491 35.8978 28.2295C36.5782 28.9099 37.501 29.2922 38.4633 29.2922C39.4255 29.2922 40.3483 28.9099 41.0288 28.2295C41.7092 27.5491 42.0914 26.6263 42.0914 25.6641V23.6953L34.8352 23.6965Z" fill="#5E6175"/>
<path d="M22.0531 29.9904C20.8251 29.9889 19.6479 29.5003 18.7796 28.6318C17.9114 27.7634 17.4231 26.586 17.4219 25.358V22.9932H26.6855V25.358C26.6843 26.5862 26.1959 27.7638 25.3274 28.6323C24.4589 29.5007 23.2813 29.9892 22.0531 29.9904ZM18.125 23.6963V25.358C18.116 25.8796 18.211 26.3978 18.4043 26.8824C18.5977 27.3669 18.8857 27.8081 19.2514 28.1802C19.6171 28.5523 20.0532 28.8478 20.5344 29.0495C21.0155 29.2513 21.532 29.3552 22.0537 29.3552C22.5754 29.3552 23.0919 29.2513 23.573 29.0495C24.0542 28.8478 24.4903 28.5523 24.856 28.1802C25.2217 27.8081 25.5097 27.3669 25.7031 26.8824C25.8965 26.3978 25.9914 25.8796 25.9824 25.358V23.6963H18.125Z" fill="#5E6175"/>
<path d="M42.7945 23.6963H1.46484V22.6416L4.79531 18.1592H39.6879L42.7945 22.6439V23.6963ZM2.17383 22.9932H42.0914V22.8631L39.3246 18.8588H5.14805L2.16797 22.8701L2.17383 22.9932Z" fill="#5E6175"/>
<path d="M9.62363 25.5619V23.3447H17.7764V25.5619C17.7855 26.103 17.6869 26.6406 17.4861 27.1432C17.2854 27.6458 16.9866 28.1034 16.6072 28.4893C16.2277 28.8753 15.7753 29.1818 15.2761 29.391C14.777 29.6002 14.2412 29.708 13.7 29.708C13.1588 29.708 12.623 29.6002 12.1239 29.391C11.6247 29.1818 11.1723 28.8753 10.7928 28.4893C10.4134 28.1034 10.1146 27.6458 9.91385 27.1432C9.71312 26.6406 9.61446 26.103 9.62363 25.5619Z" fill="#979797"/>
<path d="M9.62305 23.3448L11.7559 18.5073H19.0918L17.7758 23.3448H9.62305Z" fill="#979797"/>
<path d="M13.7 29.9904C12.5259 29.9892 11.4002 29.5222 10.5699 28.692C9.7397 27.8617 9.27273 26.736 9.27148 25.5619V22.9932H18.1273V25.5619C18.1261 26.7358 17.6593 27.8614 16.8293 28.6916C15.9993 29.5218 14.8739 29.9889 13.7 29.9904ZM9.97461 23.6963V25.5619C9.96583 26.0566 10.0557 26.5481 10.2389 27.0077C10.4222 27.4673 10.6952 27.8858 11.0419 28.2388C11.3887 28.5917 11.8022 28.8721 12.2585 29.0634C12.7148 29.2548 13.2046 29.3534 13.6994 29.3534C14.1942 29.3534 14.684 29.2548 15.1403 29.0634C15.5966 28.8721 16.0102 28.5917 16.3569 28.2388C16.7037 27.8858 16.9766 27.4673 17.1599 27.0077C17.3431 26.5481 17.433 26.0566 17.4242 25.5619V23.6963H9.97461Z" fill="#5E6175"/>
<path d="M18.0453 23.6964H9.08398L11.5262 18.1558H19.5512L18.0453 23.6964ZM10.1621 22.9933H17.5074L18.6312 18.8589H11.9844L10.1621 22.9933Z" fill="#5E6175"/>
<path d="M34.4893 25.5619V23.3447H26.3365V25.5619C26.3273 26.103 26.426 26.6406 26.6267 27.1432C26.8275 27.6458 27.1263 28.1034 27.5057 28.4893C27.8852 28.8753 28.3376 29.1818 28.8368 29.391C29.3359 29.6002 29.8717 29.708 30.4129 29.708C30.9541 29.708 31.4899 29.6002 31.989 29.391C32.4882 29.1818 32.9406 28.8753 33.3201 28.4893C33.6995 28.1034 33.9983 27.6458 34.199 27.1432C34.3998 26.6406 34.4984 26.103 34.4893 25.5619Z" fill="#979797"/>
<path d="M34.4891 23.3448L32.3574 18.5073H25.0215L26.3363 23.3448H34.4891Z" fill="#979797"/>
<path d="M30.4129 29.9909C29.2388 29.9897 28.1131 29.5227 27.2828 28.6925C26.4526 27.8622 25.9856 26.7365 25.9844 25.5624V22.9937H34.8402V25.5624C34.839 26.7363 34.3722 27.8618 33.5422 28.692C32.7122 29.5223 31.5868 29.9894 30.4129 29.9909ZM26.6875 23.6968V25.5624C26.6787 26.0571 26.7686 26.5486 26.9518 27.0082C27.1351 27.4678 27.4081 27.8863 27.7548 28.2393C28.1016 28.5922 28.5151 28.8726 28.9714 29.0639C29.4277 29.2553 29.9175 29.3539 30.4123 29.3539C30.9071 29.3539 31.3969 29.2553 31.8532 29.0639C32.3095 28.8726 32.7231 28.5922 33.0698 28.2393C33.4166 27.8863 33.6895 27.4678 33.8728 27.0082C34.056 26.5486 34.1459 26.0571 34.1371 25.5624V23.6968H26.6875Z" fill="#5E6175"/>
<path d="M35.0277 23.6969H26.0676L24.5605 18.1562H32.5855L35.0277 23.6969ZM26.6055 22.9938H33.9496L32.1309 18.8594H25.4805L26.6055 22.9938Z" fill="#5E6175"/>
<path d="M44.2679 47.7539C43.9625 47.7544 43.664 47.6627 43.4116 47.4908C43.1592 47.3189 42.9644 47.0749 42.8529 46.7906C42.7414 46.5063 42.7182 46.195 42.7864 45.8973C42.8546 45.5996 43.0111 45.3295 43.2353 45.1221C43.4595 44.9148 43.741 44.7799 44.0431 44.7351C44.3452 44.6904 44.6538 44.7378 44.9285 44.8712C45.2032 45.0046 45.4313 45.2178 45.5829 45.4828C45.7346 45.7479 45.8027 46.0526 45.7784 46.357C45.7481 46.737 45.5759 47.0917 45.296 47.3505C45.0161 47.6093 44.6491 47.7533 44.2679 47.7539ZM44.2679 45.423C44.1098 45.4231 43.9551 45.4692 43.8228 45.5558C43.6905 45.6423 43.5863 45.7656 43.5229 45.9104C43.4596 46.0553 43.4398 46.2154 43.4661 46.3713C43.4923 46.5272 43.5634 46.6721 43.6707 46.7882C43.778 46.9043 43.9168 46.9867 44.0701 47.0252C44.2235 47.0636 44.3847 47.0566 44.5341 47.0049C44.6835 46.9531 44.8146 46.859 44.9113 46.734C45.0081 46.6089 45.0663 46.4584 45.0788 46.3008C45.0866 46.189 45.0715 46.0768 45.0343 45.9711C44.9971 45.8654 44.9387 45.7685 44.8626 45.6862C44.7865 45.604 44.6944 45.5382 44.5919 45.4929C44.4894 45.4477 44.3787 45.4239 44.2667 45.423H44.2679Z" fill="#5E6175"/>
<path d="M38.6205 51.8567C38.4962 51.7111 38.4097 51.5371 38.3687 51.3501C38.3278 51.1631 38.3336 50.9689 38.3857 50.7846C38.4378 50.6004 38.5345 50.4319 38.6673 50.294C38.8001 50.1561 38.9649 50.0531 39.147 49.9941C39.3292 49.9351 39.523 49.922 39.7115 49.9559C39.8999 49.9898 40.077 50.0696 40.2272 50.1884C40.3774 50.3071 40.4959 50.4611 40.5724 50.6366C40.6488 50.8121 40.6808 51.0038 40.6654 51.1946C40.6464 51.4236 40.5601 51.6418 40.4174 51.8218C40.2747 52.0019 40.0819 52.1357 39.8633 52.2065C39.6448 52.2772 39.4102 52.2818 39.189 52.2196C38.9679 52.1573 38.7701 52.0311 38.6205 51.8567ZM39.1548 51.4009C39.204 51.4584 39.2666 51.5029 39.337 51.5305C39.4075 51.5581 39.4836 51.5679 39.5588 51.5591C39.6339 51.5502 39.7057 51.523 39.7678 51.4798C39.83 51.4366 39.8805 51.3788 39.915 51.3114C39.9494 51.2441 39.9667 51.1693 39.9654 51.0936C39.9641 51.018 39.9442 50.9438 39.9074 50.8777C39.8706 50.8116 39.818 50.7556 39.7544 50.7146C39.6908 50.6736 39.6181 50.6489 39.5427 50.6427C39.452 50.6358 39.3612 50.6558 39.2819 50.7003C39.2025 50.7448 39.1381 50.8118 39.0966 50.8928C39.0552 50.9738 39.0386 51.0652 39.0489 51.1556C39.0593 51.246 39.0961 51.3314 39.1548 51.4009Z" fill="#5E6175"/>
<path d="M2.08203 2.95605L2.57914 2.45895L4.09615 3.97596L3.59904 4.47307L2.08203 2.95605Z" fill="#5E6175"/>
<path d="M0.580078 5.64062H2.72578V6.34375H0.580078V5.64062Z" fill="#5E6175"/>
<path d="M5.13672 0.895508H5.83984V3.04121H5.13672V0.895508Z" fill="#5E6175"/>
<path style="mix-blend-mode:multiply" d="M39.5035 5.49121V18.0303C32.9668 18.0303 28.2699 11.7256 30.0969 5.49121H39.5035Z" fill="url(#paint4_linear_395_478398)"/>
<path d="M39.8551 18.8588H4.61914V5.13965H39.8551V18.8588ZM5.32227 18.1557H39.152V5.84277H5.32227V18.1557Z" fill="#5E6175"/>
<path d="M39.5031 16.1156C43.8563 16.1156 47.3852 12.5867 47.3852 8.23359C47.3852 3.88047 43.8563 0.351562 39.5031 0.351562C35.15 0.351562 31.6211 3.88047 31.6211 8.23359C31.6211 12.5867 35.15 16.1156 39.5031 16.1156Z" fill="#F5F5F5"/>
<path d="M39.5031 16.4672C37.8747 16.4672 36.2828 15.9843 34.9288 15.0796C33.5748 14.1749 32.5195 12.889 31.8963 11.3845C31.2731 9.87996 31.11 8.22446 31.4277 6.6273C31.7454 5.03014 32.5296 3.56306 33.6811 2.41157C34.8326 1.26008 36.2997 0.475905 37.8968 0.15821C39.494 -0.159485 41.1495 0.00356762 42.654 0.626749C44.1585 1.24993 45.4444 2.30525 46.3491 3.65926C47.2538 5.01327 47.7367 6.60515 47.7367 8.2336C47.7342 10.4165 46.866 12.5093 45.3224 14.0529C43.7789 15.5964 41.6861 16.4647 39.5031 16.4672ZM39.5031 0.703129C38.0137 0.703129 36.5578 1.14478 35.3194 1.97224C34.081 2.7997 33.1158 3.9758 32.5459 5.35181C31.9759 6.72782 31.8268 8.24195 32.1174 9.70272C32.4079 11.1635 33.1251 12.5053 34.1783 13.5584C35.2314 14.6116 36.5732 15.3288 38.034 15.6194C39.4948 15.9099 41.0089 15.7608 42.3849 15.1908C43.7609 14.6209 44.937 13.6557 45.7645 12.4173C46.5919 11.1789 47.0336 9.72298 47.0336 8.2336C47.0314 6.23706 46.2373 4.32292 44.8256 2.91115C43.4138 1.49938 41.4997 0.7053 39.5031 0.703129Z" fill="#5E6175"/>
<path d="M41.1549 5.2149V5.97662H40.4154V5.15631C40.4197 5.03951 40.4004 4.92305 40.3587 4.81388C40.3169 4.70471 40.2536 4.60508 40.1725 4.52093C40.0914 4.43679 39.9942 4.36985 39.8866 4.32414C39.779 4.27842 39.6634 4.25486 39.5465 4.25486C39.4296 4.25486 39.3139 4.27842 39.2064 4.32414C39.0988 4.36985 39.0016 4.43679 38.9205 4.52093C38.8393 4.60508 38.776 4.70471 38.7343 4.81388C38.6926 4.92305 38.6732 5.03951 38.6775 5.15631V5.97662H37.9381V5.2149C37.9323 5.00003 37.9696 4.78618 38.0478 4.58597C38.126 4.38575 38.2436 4.20325 38.3935 4.04922C38.5434 3.89519 38.7227 3.77276 38.9207 3.68917C39.1188 3.60557 39.3315 3.5625 39.5465 3.5625C39.7614 3.5625 39.9742 3.60557 40.1722 3.68917C40.3703 3.77276 40.5495 3.89519 40.6995 4.04922C40.8494 4.20325 40.9669 4.38575 41.0451 4.58597C41.1234 4.78618 41.1607 5.00003 41.1549 5.2149Z" fill="#F26921"/>
<path d="M42.2508 5.97656H36.7559L36.0879 11.577H42.9199L42.2508 5.97656Z" fill="#F26921"/>
<path d="M38.1133 37.876H37.4102V37.1729H38.1133V37.876ZM36.2383 37.876H35.5352V37.1729H36.2383V37.876Z" fill="#A9AFC4"/>
<path d="M37.9336 5.98486H38.6672V6.6915H37.9336V5.98486Z" fill="#F5F5F5"/>
<path d="M40.416 5.98486H41.1496V6.6915H40.416V5.98486Z" fill="#F5F5F5"/>
</g>
<defs>
<linearGradient id="paint0_linear_395_478398" x1="22.2371" y1="23.5088" x2="22.2371" y2="32.2381" gradientUnits="userSpaceOnUse">
<stop stop-color="#CACFDD"/>
<stop offset="1" stop-color="#EEF0F1"/>
</linearGradient>
<linearGradient id="paint1_linear_395_478398" x1="5.71992" y1="23.3096" x2="5.71992" y2="29.2814" gradientUnits="userSpaceOnUse">
<stop stop-color="#CACFDD"/>
<stop offset="1" stop-color="#EEF0F1"/>
</linearGradient>
<linearGradient id="paint2_linear_395_478398" x1="38.4633" y1="23.3098" x2="38.4633" y2="29.2816" gradientUnits="userSpaceOnUse">
<stop stop-color="#CACFDD"/>
<stop offset="1" stop-color="#EEF0F1"/>
</linearGradient>
<linearGradient id="paint3_linear_395_478398" x1="22.0557" y1="23.3096" x2="22.0557" y2="29.2814" gradientUnits="userSpaceOnUse">
<stop stop-color="#CACFDD"/>
<stop offset="1" stop-color="#EEF0F1"/>
</linearGradient>
<linearGradient id="paint4_linear_395_478398" x1="29.6996" y1="11.7607" x2="39.5035" y2="11.7607" gradientUnits="userSpaceOnUse">
<stop stop-color="#CACFDD"/>
<stop offset="1" stop-color="#EEF0F1"/>
</linearGradient>
</defs>
</svg>
