<svg width="70" height="23" viewBox="0 0 70 23" fill="none" xmlns="http://www.w3.org/2000/svg">
<g clip-path="url(#clip0_432_9057)">
<path d="M30.3346 22.3268H24.6641L28.2108 0.396484H33.881L30.3346 22.3268Z" fill="#00579F"/>
<path d="M50.8888 0.933661C49.7704 0.489932 47.9964 0 45.8028 0C40.2031 0 36.2597 2.9861 36.2355 7.25533C36.189 10.4052 39.0588 12.1546 41.2052 13.2049C43.3991 14.2781 44.1448 14.9786 44.1448 15.9352C44.1225 17.4043 42.3721 18.0816 40.7395 18.0816C38.4756 18.0816 37.2625 17.7324 35.4191 16.915L34.6724 16.5646L33.8789 21.4875C35.2089 22.0934 37.6591 22.6311 40.2031 22.6547C46.1529 22.6547 50.0265 19.7148 50.0724 15.1652C50.095 12.6688 48.5796 10.7559 45.3126 9.19273C43.3293 8.1893 42.1147 7.5127 42.1147 6.48601C42.138 5.55266 43.142 4.59667 45.3808 4.59667C47.2243 4.54985 48.5787 4.99296 49.6048 5.43638L50.1176 5.66925L50.8888 0.933661Z" fill="#00579F"/>
<path d="M58.4275 14.5577C58.8945 13.2978 60.6914 8.42175 60.6914 8.42175C60.6678 8.46857 61.1575 7.13862 61.4375 6.32217L61.8337 8.21182C61.8337 8.21182 62.9076 13.4612 63.1407 14.5577C62.2545 14.5577 59.5475 14.5577 58.4275 14.5577ZM65.427 0.396484H61.0409C59.6883 0.396484 58.6607 0.792771 58.0771 2.21605L49.6543 22.3265H55.6042C55.6042 22.3265 56.5837 19.6198 56.7943 19.0368C57.447 19.0368 63.235 19.0368 64.0747 19.0368C64.2375 19.8068 64.7513 22.3265 64.7513 22.3265H70.0016L65.427 0.396484Z" fill="#00579F"/>
<path d="M19.9277 0.396484L14.3744 15.3509L13.7676 12.3179C12.7409 8.81834 9.52098 5.0161 5.92773 3.12553L11.0143 22.3035H17.0107L25.9238 0.396484H19.9277Z" fill="#00579F"/>
<path d="M9.2166 0.396484H0.0933346L0 0.839593C7.11672 2.65947 11.83 7.04622 13.7664 12.3189L11.7832 2.23993C11.4566 0.839283 10.4532 0.442687 9.2166 0.396484Z" fill="#FAA61A"/>
</g>
<defs>
<clipPath id="clip0_432_9057">
<rect width="70" height="22.6547" fill="white"/>
</clipPath>
</defs>
</svg>
