<svg width="11" height="7" viewBox="0 0 11 7" fill="none" xmlns="http://www.w3.org/2000/svg">
<path d="M9.84473 0.149414C9.92411 0.149414 10.0028 0.165921 10.0762 0.196289C10.1495 0.226682 10.2163 0.270989 10.2725 0.327148C10.3286 0.383308 10.3729 0.450064 10.4033 0.523438C10.4337 0.596785 10.4502 0.675496 10.4502 0.754883C10.4502 0.834201 10.4337 0.913047 10.4033 0.986328C10.3729 1.05953 10.3285 1.12657 10.2725 1.18262L5.72754 5.72754C5.67142 5.78371 5.6046 5.82799 5.53125 5.8584C5.45786 5.88882 5.37925 5.9043 5.2998 5.9043C5.22036 5.9043 5.14175 5.88882 5.06836 5.8584C4.99501 5.82799 4.92819 5.78371 4.87207 5.72754L0.327148 1.18262C0.213802 1.06927 0.149494 0.91517 0.149414 0.754883C0.149414 0.594487 0.213731 0.440566 0.327148 0.327148C0.440566 0.213731 0.594487 0.149414 0.754883 0.149414C0.91517 0.149494 1.06927 0.213802 1.18262 0.327148L5.2998 4.44434L9.41699 0.327148C9.47304 0.271097 9.54007 0.226677 9.61328 0.196289C9.68656 0.165935 9.76541 0.149454 9.84473 0.149414Z" fill="#E27E14" stroke="#E27E14" stroke-width="0.3"/>
</svg>
