<svg width="178" height="175" viewBox="0 0 178 175" fill="none" xmlns="http://www.w3.org/2000/svg">
<path d="M55.975 47.9742V45.4105C56.7271 45.4636 57.4829 45.4162 58.2223 45.2695L58.8539 47.7521C57.9097 47.9614 56.9404 48.0362 55.975 47.9742ZM51.6781 47.9742H49.1V45.4105H51.6781V47.9742ZM63.0477 44.8551L60.9293 43.398C61.3159 42.8452 61.5769 42.2153 61.6941 41.5521L64.2336 41.9794C64.0557 43.013 63.6508 43.9949 63.0477 44.8551ZM61.0883 38.3261C60.7359 37.7509 60.2642 37.2571 59.7047 36.8776L61.157 34.7412C62.0265 35.3272 62.7592 36.0923 63.3055 36.9844L61.0883 38.3261ZM56.3617 36.0701H53.7836V33.5063H56.3617V36.0701ZM49.4867 36.0701C48.5509 36.1187 47.6125 36.0758 46.6852 35.9419L47.1449 33.4166C47.921 33.5194 48.705 33.5494 49.4867 33.5063V36.0701ZM42.2637 33.5833C41.5531 32.8525 40.9862 31.996 40.5922 31.058L42.9684 30.071C43.2382 30.7143 43.6274 31.3013 44.1156 31.8015L42.2637 33.5833ZM42.6934 26.6612L40.1797 26.0929C40.4058 25.1007 40.8184 24.1598 41.3957 23.3198L43.5441 24.7641C43.1319 25.3325 42.8316 25.9733 42.659 26.6527L42.6934 26.6612ZM46.2383 22.6576L45.3145 20.2434C46.2662 19.896 47.2742 19.7265 48.2879 19.7435V22.3072C47.5772 22.2923 46.8701 22.4112 46.2039 22.6576H46.2383ZM73.2441 22.3157V19.752C74.0146 19.8023 74.7883 19.7693 75.5516 19.6537L76.0758 22.1662C75.1292 22.3235 74.1677 22.3737 73.2098 22.3157H73.2441ZM68.9473 22.3157H66.3691V19.752H68.9473V22.3157ZM62.0723 22.3157H59.4941V19.752H62.0723V22.3157ZM55.1973 22.3157H52.6191V19.752H55.1973V22.3157ZM80.3812 19.4444L78.323 17.8976C78.7384 17.3645 79.0317 16.7477 79.1824 16.0902L81.7004 16.6371C81.4707 17.6569 81.0205 18.6148 80.3812 19.4444ZM79.2727 12.0993C79.2727 12.0566 79.0707 12.0737 81.8508 12.0737L79.2727 12.0993Z" fill="#A9AFC4"/>
<path style="mix-blend-mode:multiply" d="M80.541 10.6134C80.541 9.82105 80.698 9.03651 81.0029 8.30452C81.3078 7.57253 81.7547 6.90743 82.3181 6.34719C82.8814 5.78694 83.5503 5.34253 84.2864 5.03933C85.0225 4.73613 85.8114 4.58008 86.6082 4.58008H91.2789C91.2789 5.37274 91.1218 6.15763 90.8167 6.8899C90.5115 7.62217 90.0642 8.28747 89.5004 8.84776C88.9365 9.40806 88.2672 9.85238 87.5306 10.1553C86.794 10.4583 86.0045 10.6139 85.2074 10.6134H80.541Z" fill="url(#paint0_linear_432_16656)"/>
<path style="mix-blend-mode:multiply" d="M80.5406 10.6134C80.5406 9.82105 80.3837 9.03651 80.0788 8.30452C79.7739 7.57253 79.327 6.90743 78.7636 6.34719C78.2002 5.78694 77.5314 5.34253 76.7953 5.03933C76.0591 4.73613 75.2702 4.58008 74.4734 4.58008H69.8027C69.8027 5.37274 69.9598 6.15763 70.265 6.8899C70.5702 7.62217 71.0174 8.28747 71.5813 8.84776C72.1451 9.40806 72.8145 9.85238 73.5511 10.1553C74.2877 10.4583 75.0771 10.6139 75.8742 10.6134H80.5406Z" fill="url(#paint1_linear_432_16656)"/>
<path d="M85.2074 11.8958H79.252V10.614C79.2542 8.67456 80.03 6.81524 81.4091 5.44388C82.7881 4.07252 84.6579 3.30109 86.6082 3.29883H92.568V4.58069C92.5657 6.52083 91.7893 8.38079 90.4093 9.75228C89.0293 11.1238 87.1585 11.8947 85.2074 11.8958ZM82.0063 9.33211H85.2074C86.254 9.3358 87.273 8.99861 88.1087 8.37207C88.9444 7.74553 89.5508 6.86412 89.8352 5.86254H86.6297C85.5837 5.85907 84.5653 6.19643 83.7304 6.823C82.8954 7.44958 82.2898 8.33088 82.0063 9.33211Z" fill="#677381"/>
<path d="M81.8297 11.8958H75.8742C73.9232 11.8947 72.0523 11.1238 70.6723 9.75228C69.2923 8.38079 68.5159 6.52083 68.5137 4.58069V3.29883H74.4734C76.4237 3.30109 78.2935 4.07252 79.6726 5.44388C81.0517 6.81524 81.8274 8.67456 81.8297 10.614V11.8958ZM71.268 5.86254C71.5514 6.86059 72.1545 7.73943 72.9859 8.36561C73.8172 8.9918 74.8313 9.33114 75.8742 9.33211H79.0926C78.81 8.3344 78.2076 7.45568 77.377 6.82946C76.5464 6.20324 75.533 5.86374 74.4906 5.86254H71.268Z" fill="#677381"/>
<path style="mix-blend-mode:multiply" d="M112.608 13.6323C112.043 13.0716 111.595 12.4055 111.289 11.6723C110.984 10.9391 110.826 10.1532 110.826 9.35947C110.826 8.56573 110.984 7.77979 111.289 7.0466C111.595 6.31342 112.043 5.64738 112.608 5.08661L115.912 1.80078C116.477 2.36184 116.925 3.02797 117.23 3.76111C117.535 4.49426 117.693 5.28006 117.693 6.07364C117.693 6.86722 117.535 7.65302 117.23 8.38617C116.925 9.11931 116.477 9.78544 115.912 10.3465L112.608 13.6323Z" fill="url(#paint2_linear_432_16656)"/>
<path style="mix-blend-mode:multiply" d="M112.609 13.6293C112.045 13.067 111.375 12.6209 110.638 12.3165C109.901 12.0122 109.11 11.8555 108.312 11.8555C107.513 11.8555 106.723 12.0122 105.986 12.3165C105.248 12.6209 104.578 13.067 104.015 13.6293L100.715 16.9108C101.278 17.4736 101.948 17.9201 102.685 18.2249C103.423 18.5296 104.213 18.6864 105.012 18.6864C105.81 18.6864 106.601 18.5296 107.338 18.2249C108.076 17.9201 108.745 17.4736 109.309 16.9108L112.609 13.6293Z" fill="url(#paint3_linear_432_16656)"/>
<path d="M112.608 15.4421L111.697 14.5363C111.014 13.8569 110.471 13.0503 110.101 12.1624C109.731 11.2746 109.541 10.3229 109.541 9.36183C109.541 8.40075 109.731 7.4491 110.101 6.56124C110.471 5.67339 111.014 4.86674 111.697 4.1874L115.913 0L116.824 0.905846C117.507 1.58519 118.05 2.39183 118.42 3.27969C118.79 4.16754 118.98 5.1192 118.98 6.08028C118.98 7.04136 118.79 7.99301 118.42 8.88087C118.05 9.76872 117.507 10.5754 116.824 11.2547L112.608 15.4421ZM115.788 3.7473L113.524 6.00337C112.786 6.73795 112.311 7.69247 112.17 8.72102C112.03 9.74957 112.232 10.7956 112.746 11.6991L115.01 9.44729C115.749 8.71267 116.226 7.75795 116.368 6.7288C116.51 5.69965 116.309 4.65256 115.797 3.7473H115.788Z" fill="#677381"/>
<path d="M99.825 17.8197L98.9141 16.9138L103.125 12.7264C103.808 12.0466 104.619 11.5073 105.512 11.1394C106.405 10.7714 107.362 10.582 108.329 10.582C109.295 10.582 110.252 10.7714 111.145 11.1394C112.038 11.5073 112.849 12.0466 113.532 12.7264L114.443 13.6323L110.228 17.8197C109.546 18.5004 108.735 19.0405 107.842 19.409C106.95 19.7776 105.993 19.9673 105.026 19.9673C104.06 19.9673 103.103 19.7776 102.21 19.409C101.318 19.0405 100.507 18.5004 99.825 17.8197ZM102.682 16.7942C103.592 17.3032 104.644 17.5019 105.677 17.3599C106.711 17.2179 107.669 16.743 108.406 16.008L110.67 13.7562C109.761 13.2481 108.71 13.0495 107.676 13.1907C106.643 13.3318 105.685 13.805 104.947 14.5381L102.682 16.7942Z" fill="#677381"/>
<path d="M127.729 53.5987L127.673 51.035C128.369 51.0228 129.056 50.8778 129.697 50.6077L130.716 52.9621C129.77 53.3631 128.757 53.5792 127.729 53.5987ZM87.446 52.3168H84.8679V49.7531H87.446V52.3168ZM122.921 52.1331C122.084 51.5429 121.368 50.7989 120.811 49.9411L122.96 48.5525C123.339 49.135 123.826 49.6409 124.395 50.0437L122.921 52.1331ZM134.484 49.6378L132.258 48.3559C132.608 47.7588 132.839 47.1001 132.937 46.416L135.489 46.7792C135.344 47.7879 135.002 48.7587 134.484 49.6378ZM87.446 45.4803H84.8679C84.8126 44.5188 84.898 43.5545 85.1214 42.6175L87.6179 43.2541C87.4551 43.9844 87.3972 44.7339 87.446 45.4803ZM122.113 45.1769H119.535C119.579 44.4568 119.501 43.7346 119.303 43.0405L121.769 42.2927C122.044 43.2286 122.16 44.2032 122.113 45.1769ZM135.571 42.3184H132.993V39.7546H135.571V42.3184ZM89.4612 40.3956L87.837 38.4044C88.6346 37.7611 89.5493 37.2765 90.5312 36.9773L91.2874 39.4256C90.6219 39.6297 90.0019 39.959 89.4612 40.3956ZM117.326 40.246C116.769 39.8332 116.135 39.5328 115.462 39.3615L116.106 36.879C117.102 37.1303 118.038 37.5746 118.86 38.1865L117.326 40.246ZM111.504 39.1906H108.926V36.6269H111.504V39.1906ZM104.629 39.1906H102.051V36.6269H104.629V39.1906ZM97.7542 39.1906H95.1761V36.6269H97.7542V39.1906ZM135.567 35.4818H132.989V32.9181H135.567V35.4818ZM135.567 28.6452H132.989V26.0815H135.567V28.6452ZM132.731 22.2359C132.52 21.5768 132.183 20.9644 131.738 20.4328L133.719 18.792C134.377 19.5783 134.876 20.4837 135.189 21.4583L132.731 22.2359ZM128.864 18.6296C128.121 18.4776 127.36 18.4258 126.603 18.4758V15.9121C127.566 15.8566 128.532 15.9328 129.474 16.1385L128.864 18.6296ZM122.307 18.4758H119.728V15.9121H122.307V18.4758Z" fill="#A9AFC4"/>
<path d="M118.285 51.4082H140.289V163.071H118.285V51.4082Z" fill="url(#paint4_linear_432_16656)"/>
<path d="M27.0098 51.4082H118.28V163.075H27.0098V51.4082Z" fill="#F5F5F5"/>
<path d="M49.4719 86.7188C43.1947 86.7188 38.0879 91.8377 38.0879 98.1301V104.648H39.4782V98.1301C39.4782 92.6068 43.961 88.1132 49.4711 88.1132C54.9812 88.1132 59.4649 92.6068 59.4649 98.1301V104.648H60.8552V98.1301C60.856 91.8377 55.7492 86.7188 49.4719 86.7188Z" fill="#9CA7B3"/>
<path d="M48.4416 104.587C47.7477 104.137 47.3163 103.297 47.3163 102.395C47.3163 101.93 47.4299 101.474 47.6439 101.079C48.0111 100.396 48.5741 99.8406 49.0334 99.2226C49.3034 98.8587 49.5775 98.4874 49.8096 98.098C50.0977 97.6145 50.2772 96.9057 50.2772 96.2497C50.2772 95.0706 49.7413 93.9584 48.8441 93.2719C48.8383 93.2661 48.8317 93.2628 48.8235 93.262C48.812 93.2603 48.8004 93.2661 48.7939 93.2752C48.7856 93.2868 48.7856 93.3016 48.7939 93.3123C48.9503 93.6523 49.0293 94.0186 49.0293 94.4031C49.0293 94.7224 48.9733 95.0327 48.8638 95.3256C48.4679 96.5187 47.5073 97.4668 47.4966 97.4775C46.4282 98.6516 46.1088 99.2012 46.1063 99.2053C45.7392 99.7853 45.5449 100.464 45.5449 101.166C45.5449 102.931 46.7813 104.427 48.4202 104.646C48.4218 104.646 48.4235 104.646 48.4243 104.646C48.4374 104.646 48.4498 104.638 48.4547 104.625C48.4597 104.611 48.4547 104.595 48.4424 104.586" fill="#C5CAD0"/>
<path d="M53.0757 99.5355C52.2756 97.8424 51.2138 96.6551 51.2031 96.6435C51.1932 96.6328 51.1784 96.6303 51.166 96.6353C51.1537 96.641 51.1455 96.6542 51.1471 96.6683C51.1619 96.8069 51.1693 96.948 51.1693 97.0882C51.1693 98.1394 50.7355 98.9662 50.1239 99.7847C49.97 99.9902 49.8161 100.196 49.6638 100.404L49.1724 101.042C49.151 101.069 49.1288 101.097 49.1057 101.129C48.7106 101.659 48.0381 102.876 49.0217 104.074C49.0324 104.087 49.053 104.086 49.0621 104.072C49.0958 104.023 49.1337 103.974 49.1773 103.925C49.4259 103.67 49.6844 103.424 49.9412 103.178C50.4071 102.732 50.7775 102.267 50.9479 101.636C50.9709 101.552 50.9899 101.467 51.0039 101.383C51.0055 101.375 51.0113 101.367 51.0195 101.365C51.0277 101.362 51.0352 101.365 51.0384 101.372C51.0384 101.372 51.7752 102.514 51.4994 104.249C51.478 104.381 51.4451 104.51 51.4023 104.634C51.399 104.644 51.4089 104.652 51.4179 104.648C52.609 104.03 53.4 102.681 53.4 101.167C53.4 100.597 53.2914 100.05 53.0765 99.5364" fill="#C5CAD0"/>
<path d="M58.6385 104.646H57.9142V98.083C57.9142 93.417 54.1269 89.6206 49.472 89.6206C44.8172 89.6206 41.0291 93.417 41.0291 98.083V104.646H40.3047V98.083C40.3047 93.0168 44.4171 88.8945 49.472 88.8945C54.5269 88.8945 58.6385 93.0168 58.6385 98.083V104.646Z" fill="#9CA7B3"/>
<path d="M80.5066 95.5435C80.5066 96.046 80.915 96.4555 81.4161 96.4555C81.9173 96.4555 82.3257 96.046 82.3257 95.5435C82.3257 95.041 81.9173 94.6315 81.4161 94.6315C80.915 94.6315 80.5066 95.041 80.5066 95.5435ZM78.2551 95.5435C78.2551 96.046 78.6635 96.4555 79.1646 96.4555C79.6658 96.4555 80.0742 96.046 80.0742 95.5435C80.0742 95.041 79.6658 94.6315 79.1646 94.6315C78.6635 94.6315 78.2551 95.041 78.2551 95.5435ZM74.0633 87.6308C74.0633 87.1283 73.6549 86.7188 73.1537 86.7188C72.6525 86.7188 72.2441 87.1283 72.2441 87.6308C72.2441 88.1333 72.6525 88.5428 73.1537 88.5428C73.6549 88.5428 74.0633 88.1333 74.0633 87.6308ZM86.6776 87.6308C86.6776 87.1283 86.2692 86.7188 85.768 86.7188C85.2669 86.7188 84.8584 87.1283 84.8584 87.6308C84.8584 88.1333 85.2669 88.5428 85.768 88.5428C86.2692 88.5428 86.6776 88.1333 86.6776 87.6308ZM93.275 87.6308C93.275 87.1283 92.8666 86.7188 92.3654 86.7188C91.8642 86.7188 91.4558 87.1283 91.4558 87.6308C91.4558 88.1333 91.8642 88.5428 92.3654 88.5428C92.8666 88.5428 93.275 88.1333 93.275 87.6308ZM86.7943 92.5629H84.7418V91.6014C84.7418 91.0344 85.2025 90.5724 85.768 90.5724C86.3335 90.5724 86.7943 91.0344 86.7943 91.6014V92.5629ZM74.18 92.5629H72.1274V91.5354C72.1274 90.9684 72.5882 90.5064 73.1537 90.5064C73.7192 90.5064 74.18 90.9684 74.18 91.5354V92.5629ZM98.8087 91.7319V86.7202H97.3396V91.7319C97.3396 92.1909 96.9671 92.5629 96.5108 92.5629H94.8772V91.5354C94.8772 90.1973 93.8345 89.0993 92.515 89.0378L90.0436 89.0333V90.5064H92.3834C92.9489 90.5064 93.4096 90.9684 93.4096 91.5354V92.5629H88.2649V91.6014C88.2649 90.2228 87.1458 89.1008 85.771 89.1008C84.3962 89.1008 83.2757 90.2228 83.2757 91.6014V92.5629H80.9883V88.9988H79.5192V92.5629H75.649V91.5354C75.649 90.1553 74.53 89.0333 73.1552 89.0333C71.7804 89.0333 70.6613 90.1553 70.6613 91.5354V92.5629H68.2857C67.8279 92.5629 67.4569 92.1894 67.4569 91.7319V89.4428H65.9863V91.7319C65.9863 93.1104 67.1173 94.0359 68.175 94.0359H96.3358C97.745 94.0359 98.8087 93.0459 98.8087 91.7319ZM104.817 92.5629V91.6419C104.817 91.0149 105.325 90.5049 105.951 90.5049H107.474V89.0318H105.951C104.516 89.0318 103.349 90.2018 103.349 91.6404V92.5614H102.33C101.873 92.5614 101.502 92.1879 101.502 91.7304V86.7188H100.032V91.7304C100.032 93.1134 101.139 94.0014 102.161 94.0329H102.202L107.474 94.0345V92.5614H104.817V92.5629Z" fill="#9CA7B3"/>
<path d="M69.1564 101.263H67.3642C67.3686 100.813 67.7696 100.446 68.2603 100.446C68.7509 100.446 69.1519 100.811 69.1564 101.263ZM69.1564 104.695H70.5342V101.269C70.5342 100.095 69.5139 99.1387 68.2603 99.1387C67.0066 99.1387 65.9863 100.094 65.9863 101.269V104.695H67.3642V102.569H69.1564V104.695ZM73.2494 104.695H74.5016V103.389H73.2494C73.0146 103.389 72.8171 103.252 72.8171 103.09V99.1402H71.4393V103.09C71.4393 103.975 72.2516 104.695 73.2494 104.695ZM77.9559 101.204L79.3666 99.1402H77.6941L76.7366 100.541V99.1402H75.3588V104.701H76.7366V102.349H77.0957C77.5774 102.349 77.9693 102.709 77.9693 103.151V104.695H79.3472V103.151C79.3472 102.289 78.7832 101.525 77.9574 101.203M82.9869 104.701H84.3648V99.1402H82.9869V101.263H81.826V99.1402H80.4482V104.701H81.826V102.569H82.9869V104.701ZM88.6164 101.263H86.8242C86.8287 100.813 87.2296 100.446 87.7203 100.446C88.211 100.446 88.6119 100.811 88.6164 101.263ZM88.6164 104.701H89.9942V101.269C89.9942 100.095 88.974 99.1387 87.7203 99.1387C86.4667 99.1387 85.4464 100.094 85.4464 101.269V104.701H86.8242V102.569H88.6164V104.701ZM92.3819 102.569H94.4075V101.263H92.3819V100.746C92.3819 100.584 92.5808 100.448 92.8142 100.448H94.4075V99.1417H92.8142C91.8164 99.1417 91.004 99.8618 91.004 100.746V104.703H92.3819V102.571V102.569ZM96.9806 104.701H98.5738V103.395H96.9806C96.7457 103.395 96.5482 103.258 96.5482 103.097V102.569H98.5738V101.263H96.5482V100.746C96.5482 100.584 96.7472 100.448 96.9806 100.448H98.5738V99.1417H96.9806C95.9828 99.1417 95.1704 99.8618 95.1704 100.746V103.098C95.1704 103.982 95.9828 104.703 96.9806 104.703M101.466 104.701H103.059V103.395H101.466C101.231 103.395 101.033 103.258 101.033 103.097V102.569H103.059V101.263H101.033V100.746C101.033 100.584 101.232 100.448 101.466 100.448H103.059V99.1417H101.466C100.468 99.1417 99.6554 99.8618 99.6554 100.746V103.098C99.6554 103.982 100.468 104.703 101.466 104.703M105.448 101.263V100.746C105.448 100.584 105.647 100.448 105.88 100.448H107.474V99.1417H105.88C104.882 99.1417 104.07 99.8618 104.07 100.746V104.703H105.448V102.571H107.474V101.264H105.448V101.263Z" fill="#9CA7B3"/>
<path style="mix-blend-mode:multiply" d="M28.174 116.385L30.1076 161.891H57.1779C66.631 135.399 49.0224 118.513 28.174 116.385Z" fill="url(#paint5_linear_432_16656)"/>
<path style="mix-blend-mode:multiply" d="M118.285 163.068V159.137L129.285 151.117L140.289 159.137V163.068H118.285Z" fill="url(#paint6_linear_432_16656)"/>
<path d="M119.573 164.353H25.7207V50.127H119.573V164.353ZM28.2988 161.79H116.995V52.6907H28.2988V161.79Z" fill="#677381"/>
<path d="M141.579 164.351H116.996V158.489L129.289 149.516L141.579 158.489V164.351ZM119.574 161.787H139V159.788L129.289 152.703L119.574 159.783V161.787Z" fill="#677381"/>
<path d="M141.579 164.353H116.996V50.127H141.579V164.353ZM119.574 161.79H139V52.6907H119.574V161.79Z" fill="#677381"/>
<path d="M128 51.4082H130.578V151.12H128V51.4082Z" fill="#677381"/>
<path d="M0 51.9133C2.12878 51.9133 4.17036 52.7543 5.67564 54.2511C7.18091 55.748 8.02656 57.7782 8.02656 59.895C8.02656 57.7789 8.87163 55.7494 10.376 54.2526C11.8803 52.7559 13.9208 51.9145 16.0488 51.9133C14.995 51.9133 13.9514 51.7069 12.9778 51.3057C12.0043 50.9045 11.1197 50.3165 10.3747 49.5753C9.62972 48.8341 9.03889 47.9541 8.63599 46.9858C8.23308 46.0174 8.026 44.9796 8.02656 43.9316C8.02656 46.0485 7.18091 48.0787 5.67564 49.5756C4.17036 51.0724 2.12878 51.9133 0 51.9133Z" fill="#F26921"/>
<path d="M148.488 139.305C149.299 139.304 150.102 139.463 150.852 139.771C151.601 140.079 152.282 140.53 152.856 141.1C153.429 141.67 153.885 142.347 154.196 143.091C154.506 143.836 154.667 144.634 154.667 145.441C154.667 143.812 155.318 142.251 156.476 141.099C157.634 139.948 159.204 139.301 160.842 139.301C160.031 139.301 159.227 139.142 158.478 138.833C157.728 138.524 157.048 138.071 156.474 137.501C155.901 136.93 155.446 136.253 155.136 135.507C154.826 134.762 154.667 133.963 154.667 133.156C154.668 133.963 154.508 134.763 154.198 135.509C153.888 136.255 153.433 136.933 152.859 137.504C152.285 138.075 151.604 138.528 150.854 138.837C150.104 139.146 149.3 139.305 148.488 139.305Z" fill="#F26921"/>
<path d="M171.613 39.7801C170.517 39.7777 169.448 39.4472 168.544 38.8315C167.64 38.2158 166.943 37.3436 166.545 36.3285C166.147 35.3134 166.065 34.2026 166.311 33.1408C166.557 32.079 167.119 31.1155 167.924 30.3759C168.728 29.6363 169.738 29.155 170.822 28.9946C171.906 28.8342 173.013 29.0023 173.999 29.4768C174.986 29.9514 175.805 30.7104 176.352 31.655C176.898 32.5995 177.145 33.6859 177.061 34.7723C176.957 36.137 176.337 37.4119 175.327 38.3408C174.316 39.2698 172.989 39.784 171.613 39.7801ZM171.613 31.4993C171.054 31.4985 170.507 31.6599 170.039 31.9635C169.57 32.2672 169.201 32.7001 168.977 33.2091C168.752 33.7181 168.682 34.2812 168.774 34.8295C168.866 35.3777 169.117 35.8874 169.496 36.296C169.875 36.7046 170.366 36.9944 170.908 37.13C171.45 37.2656 172.02 37.2411 172.548 37.0594C173.077 36.8778 173.54 36.5469 173.882 36.1073C174.225 35.6677 174.43 35.1384 174.475 34.5843C174.505 34.1915 174.454 33.7966 174.325 33.4244C174.195 33.0522 173.989 32.7106 173.721 32.421C173.452 32.1314 173.126 31.9001 172.763 31.7415C172.401 31.5829 172.009 31.5004 171.613 31.4993Z" fill="#677381"/>
<path d="M154.605 55.8028C154.041 55.8024 153.483 55.6889 152.964 55.469C152.446 55.2491 151.977 54.9273 151.586 54.5229C151.196 54.1185 150.891 53.6399 150.691 53.1157C150.491 52.5914 150.399 52.0324 150.421 51.4721C150.444 50.9118 150.579 50.3617 150.821 49.8549C151.062 49.348 151.403 48.8948 151.825 48.5223C152.246 48.1499 152.739 47.8659 153.274 47.6874C153.808 47.5089 154.374 47.4396 154.936 47.4835C156.015 47.5679 157.02 48.0647 157.739 48.8697C158.459 49.6747 158.836 50.7254 158.794 51.8014C158.751 52.8774 158.291 53.8951 157.51 54.6411C156.729 55.3871 155.688 55.8034 154.605 55.8028ZM153.38 52.6793C153.553 52.879 153.772 53.0334 154.018 53.1289C154.265 53.2243 154.532 53.258 154.794 53.2267C155.057 53.1955 155.308 53.1004 155.525 52.9498C155.742 52.7992 155.918 52.5978 156.039 52.3634C156.159 52.1289 156.219 51.8686 156.214 51.6055C156.209 51.3424 156.139 51.0846 156.01 50.8548C155.881 50.625 155.697 50.4304 155.475 50.288C155.252 50.1457 154.998 50.0601 154.734 50.0387C154.416 50.015 154.099 50.0852 153.821 50.2404C153.544 50.3957 153.318 50.629 153.174 50.9112C153.029 51.1934 152.971 51.5117 153.008 51.8263C153.045 52.1409 153.174 52.4377 153.38 52.6793Z" fill="#677381"/>
<path d="M27.6672 173.715C41.5925 173.715 52.8812 162.489 52.8812 148.641C52.8812 134.794 41.5925 123.568 27.6672 123.568C13.7418 123.568 2.45312 134.794 2.45312 148.641C2.45312 162.489 13.7418 173.715 27.6672 173.715Z" fill="#F5F5F5"/>
<path d="M27.668 175C22.4251 175.001 17.2998 173.455 12.9401 170.56C8.58039 167.664 5.1822 163.547 3.17526 158.731C1.16831 153.914 0.64276 148.614 1.66507 143.501C2.68738 138.387 5.21163 133.69 8.91859 130.003C12.6255 126.316 17.3487 123.805 22.4908 122.788C27.6328 121.771 32.9628 122.292 37.8066 124.287C42.6505 126.282 46.7906 129.661 49.7035 133.996C52.6164 138.331 54.1711 143.427 54.1711 148.641C54.1643 155.629 51.3699 162.329 46.4012 167.27C41.4325 172.212 34.6953 174.992 27.668 175ZM27.668 124.849C22.9348 124.848 18.3078 126.243 14.372 128.858C10.4361 131.472 7.3684 135.188 5.55671 139.537C3.74503 143.885 3.27079 148.67 4.19397 153.286C5.11715 157.902 7.39628 162.143 10.7431 165.471C14.0899 168.799 18.3541 171.065 22.9964 171.983C27.6386 172.901 32.4503 172.43 36.823 170.628C41.1957 168.827 44.9329 165.776 47.562 161.862C50.191 157.948 51.5938 153.347 51.593 148.641C51.585 142.333 49.0618 136.286 44.5767 131.826C40.0916 127.366 34.0108 124.857 27.668 124.849Z" fill="#677381"/>
<path d="M14.1191 155.113L34.1692 135.175L40.9589 141.927L20.9088 161.865L14.1191 155.113Z" fill="#F26921"/>
<path d="M14.1211 141.928L20.9108 135.176L40.9609 155.114L34.1712 161.866L14.1211 141.928Z" fill="#F26921"/>
<defs>
<linearGradient id="paint0_linear_432_16656" x1="80.541" y1="7.59672" x2="91.2789" y2="7.59672" gradientUnits="userSpaceOnUse">
<stop stop-color="#CACFDD"/>
<stop offset="1" stop-color="#EEF0F1"/>
</linearGradient>
<linearGradient id="paint1_linear_432_16656" x1="69.8027" y1="7.59672" x2="80.5406" y2="7.59672" gradientUnits="userSpaceOnUse">
<stop stop-color="#CACFDD"/>
<stop offset="1" stop-color="#EEF0F1"/>
</linearGradient>
<linearGradient id="paint2_linear_432_16656" x1="111.014" y1="11.1047" x2="118.595" y2="3.4809" gradientUnits="userSpaceOnUse">
<stop stop-color="#CACFDD"/>
<stop offset="1" stop-color="#EEF0F1"/>
</linearGradient>
<linearGradient id="paint3_linear_432_16656" x1="103.39" y1="18.6829" x2="110.972" y2="11.0591" gradientUnits="userSpaceOnUse">
<stop stop-color="#CACFDD"/>
<stop offset="1" stop-color="#EEF0F1"/>
</linearGradient>
<linearGradient id="paint4_linear_432_16656" x1="118.285" y1="107.237" x2="140.289" y2="107.237" gradientUnits="userSpaceOnUse">
<stop stop-color="#A9AFC4"/>
<stop offset="1" stop-color="#D4D8E5"/>
</linearGradient>
<linearGradient id="paint5_linear_432_16656" x1="59.1578" y1="139.287" x2="30.3515" y2="139.287" gradientUnits="userSpaceOnUse">
<stop stop-color="#CACFDD"/>
<stop offset="1" stop-color="#EEF0F1"/>
</linearGradient>
<linearGradient id="paint6_linear_432_16656" x1="118.285" y1="157.091" x2="140.289" y2="157.091" gradientUnits="userSpaceOnUse">
<stop stop-color="#CACFDD"/>
<stop offset="1" stop-color="#EEF0F1"/>
</linearGradient>
</defs>
</svg>
