<svg width="22" height="18" viewBox="0 0 22 18" fill="none" xmlns="http://www.w3.org/2000/svg">
<path d="M19.5 0H1.625C1.19402 0 0.780698 0.171205 0.475951 0.475951C0.171205 0.780698 0 1.19402 0 1.625V16.25C0 16.681 0.171205 17.0943 0.475951 17.399C0.780698 17.7038 1.19402 17.875 1.625 17.875H19.5C19.931 17.875 20.3443 17.7038 20.649 17.399C20.9538 17.0943 21.125 16.681 21.125 16.25V1.625C21.125 1.19402 20.9538 0.780698 20.649 0.475951C20.3443 0.171205 19.931 0 19.5 0ZM19.5 16.25H1.625V1.625H19.5V16.25ZM15.4375 4.875C15.4375 6.16793 14.9239 7.40791 14.0096 8.32215C13.0954 9.23639 11.8554 9.75 10.5625 9.75C9.26957 9.75 8.02959 9.23639 7.11535 8.32215C6.20111 7.40791 5.6875 6.16793 5.6875 4.875C5.6875 4.65951 5.7731 4.45285 5.92548 4.30048C6.07785 4.1481 6.28451 4.0625 6.5 4.0625C6.71549 4.0625 6.92215 4.1481 7.07452 4.30048C7.2269 4.45285 7.3125 4.65951 7.3125 4.875C7.3125 5.73695 7.65491 6.5636 8.2644 7.1731C8.8739 7.78259 9.70055 8.125 10.5625 8.125C11.4245 8.125 12.2511 7.78259 12.8606 7.1731C13.4701 6.5636 13.8125 5.73695 13.8125 4.875C13.8125 4.65951 13.8981 4.45285 14.0505 4.30048C14.2028 4.1481 14.4095 4.0625 14.625 4.0625C14.8405 4.0625 15.0472 4.1481 15.1995 4.30048C15.3519 4.45285 15.4375 4.65951 15.4375 4.875Z" fill="#36594C"/>
</svg>
