<svg width="17" height="17" viewBox="0 0 17 17" fill="none" xmlns="http://www.w3.org/2000/svg">
<path d="M8.125 0C6.51803 0 4.94714 0.476523 3.611 1.36931C2.27485 2.2621 1.23344 3.53105 0.618482 5.0157C0.00352044 6.50035 -0.157382 8.13401 0.156123 9.71011C0.469628 11.2862 1.24346 12.7339 2.37976 13.8702C3.51606 15.0065 4.9638 15.7804 6.5399 16.0939C8.11599 16.4074 9.74966 16.2465 11.2343 15.6315C12.719 15.0166 13.9879 13.9752 14.8807 12.639C15.7735 11.3029 16.25 9.73197 16.25 8.125C16.2477 5.97081 15.391 3.90551 13.8677 2.38227C12.3445 0.85903 10.2792 0.00227486 8.125 0ZM8.125 15C6.76526 15 5.43605 14.5968 4.30546 13.8414C3.17487 13.0859 2.29368 12.0122 1.77333 10.7559C1.25298 9.49971 1.11683 8.11737 1.3821 6.78375C1.64738 5.45013 2.30216 4.22513 3.26364 3.26364C4.22513 2.30216 5.45014 1.64737 6.78376 1.3821C8.11738 1.11683 9.49971 1.25298 10.756 1.77333C12.0122 2.29368 13.0859 3.17487 13.8414 4.30545C14.5968 5.43604 15 6.76525 15 8.125C14.9979 9.94773 14.2729 11.6952 12.9841 12.9841C11.6952 14.2729 9.94773 14.9979 8.125 15ZM13.125 8.125C13.125 8.29076 13.0592 8.44973 12.9419 8.56694C12.8247 8.68415 12.6658 8.75 12.5 8.75H8.125C7.95924 8.75 7.80027 8.68415 7.68306 8.56694C7.56585 8.44973 7.5 8.29076 7.5 8.125V3.75C7.5 3.58424 7.56585 3.42527 7.68306 3.30806C7.80027 3.19085 7.95924 3.125 8.125 3.125C8.29076 3.125 8.44974 3.19085 8.56695 3.30806C8.68416 3.42527 8.75 3.58424 8.75 3.75V7.5H12.5C12.6658 7.5 12.8247 7.56585 12.9419 7.68306C13.0592 7.80027 13.125 7.95924 13.125 8.125Z" fill="#F26921"/>
</svg>
