<svg width="38" height="38" viewBox="0 0 38 38" fill="none" xmlns="http://www.w3.org/2000/svg">
<rect width="38" height="38" rx="19" fill="#F04438"/>
<path d="M23.8115 23.0546C23.855 23.1001 23.8895 23.154 23.9131 23.2134C23.9366 23.2727 23.9488 23.3363 23.9488 23.4006C23.9488 23.4648 23.9366 23.5284 23.9131 23.5878C23.8895 23.6472 23.855 23.7011 23.8115 23.7465C23.768 23.792 23.7163 23.828 23.6595 23.8526C23.6026 23.8772 23.5417 23.8898 23.4802 23.8898C23.4186 23.8898 23.3577 23.8772 23.3009 23.8526C23.244 23.828 23.1924 23.792 23.1489 23.7465L19.2654 19.6911L15.3819 23.7465C15.2941 23.8383 15.1749 23.8898 15.0506 23.8898C14.9263 23.8898 14.8071 23.8383 14.7193 23.7465C14.6314 23.6548 14.582 23.5303 14.582 23.4006C14.582 23.2708 14.6314 23.1464 14.7193 23.0546L18.6033 18.9998L14.7193 14.9451C14.6314 14.8533 14.582 14.7289 14.582 14.5991C14.582 14.4694 14.6314 14.3449 14.7193 14.2532C14.8071 14.1614 14.9263 14.1099 15.0506 14.1099C15.1749 14.1099 15.2941 14.1614 15.3819 14.2532L19.2654 18.3086L23.1489 14.2532C23.2367 14.1614 23.3559 14.1099 23.4802 14.1099C23.6045 14.1099 23.7236 14.1614 23.8115 14.2532C23.8994 14.3449 23.9488 14.4694 23.9488 14.5991C23.9488 14.7289 23.8994 14.8533 23.8115 14.9451L19.9275 18.9998L23.8115 23.0546Z" fill="white"/>
</svg>
