<svg width="200" height="200" viewBox="0 0 200 200" fill="none" xmlns="http://www.w3.org/2000/svg">
<path d="M130.901 79.3633C122.73 69.875 120.948 61.6484 120.948 61.6484H60.4796C60.4796 61.6484 58.6983 69.875 50.5304 79.3633C42.3624 88.8516 40.0577 100.488 45.4757 109.016H135.956C141.374 100.488 139.062 88.8516 130.901 79.3633Z" fill="#F26921"/>
<path d="M136.598 110.187H44.8281L44.4804 109.645C38.9218 100.887 40.9648 88.6992 49.6406 78.6016C53.9843 73.5508 58.1601 66.7383 59.5351 60.4805H121.894C123.242 66.7305 127.434 73.5508 131.785 78.6055C140.48 88.7031 142.504 100.871 136.941 109.648L136.598 110.187ZM46.1288 107.844H135.297C139.867 100.031 137.832 89.2148 130.008 80.1289C123.23 72.2578 120.758 65.2852 120.043 62.8203H61.3828C60.6679 65.2773 58.1913 72.2578 51.4179 80.1289C43.5937 89.2148 41.5585 100 46.1288 107.844Z" fill="#677381"/>
<path d="M90.4961 88.4253C87.077 88.4268 83.691 87.7548 80.5317 86.4475C77.3723 85.1402 74.5014 83.2234 72.083 80.8064C69.6646 78.3895 67.746 75.5197 66.4369 72.3612C65.1277 69.2026 64.4536 65.8171 64.4531 62.3979V49.3354C64.537 42.4873 67.3163 35.948 72.1886 31.135C77.061 26.322 83.6337 23.623 90.4824 23.623C97.3311 23.623 103.904 26.322 108.776 31.135C113.649 35.948 116.428 42.4873 116.512 49.3354V62.3979C116.512 69.2988 113.771 75.9172 108.893 80.7979C104.014 85.6786 97.3969 88.4222 90.4961 88.4253Z" fill="#F5F5F5"/>
<path d="M90.4961 89.5979C83.2826 89.5927 76.3657 86.7259 71.2635 81.6266C66.1613 76.5274 63.2906 69.6122 63.2812 62.3986V49.3361C63.367 42.1784 66.2706 35.3429 71.3625 30.3117C76.4544 25.2805 83.3242 22.459 90.4824 22.459C97.6407 22.459 104.51 25.2805 109.602 30.3117C114.694 35.3429 117.598 42.1784 117.684 49.3361V62.3986C117.675 69.6078 114.809 76.5194 109.712 81.6181C104.616 86.7168 97.7052 89.5865 90.4961 89.5979ZM90.4961 24.4807C83.9038 24.4848 77.5826 27.1043 72.9197 31.7643C68.2568 36.4242 65.6333 42.7439 65.625 49.3361V62.3986C65.707 68.9373 68.3619 75.1803 73.0147 79.7751C77.6675 84.3699 83.9433 86.9464 90.4824 86.9464C97.0216 86.9464 103.297 84.3699 107.95 79.7751C112.603 75.1803 115.258 68.9373 115.34 62.3986V49.3361C115.333 42.7483 112.713 36.4322 108.056 31.7728C103.399 27.1134 97.0839 24.491 90.4961 24.4807Z" fill="#677381"/>
<path d="M61.5781 50.0234C61.5781 50.0234 63.0781 50.4141 64.2227 50.0234C67.1328 48.9961 71.918 45.8594 74.7695 40.5977H75.6602C75.6602 40.5977 82.2344 50.0234 96.5586 50.0234H119.398V49.0938C119.401 45.3457 118.665 41.634 117.232 38.1708C115.798 34.7076 113.697 31.5609 111.046 28.9106C108.396 26.2604 105.249 24.1586 101.786 22.7255C98.323 21.2924 94.6113 20.556 90.8633 20.5586H90.1133C86.3669 20.5586 82.6573 21.2968 79.1963 22.7311C75.7354 24.1654 72.591 26.2675 69.9428 28.9175C67.2946 31.5675 65.1946 34.7134 63.7627 38.1753C62.3308 41.6372 61.5951 45.3474 61.5977 49.0938L61.5781 50.0234Z" fill="#F26921"/>
<path d="M63.0195 51.375C62.1308 51.3546 61.25 51.2019 60.4062 50.9219V49.0938C60.4145 41.2209 63.5443 33.6725 69.1095 28.1037C74.6746 22.5349 82.2209 19.4002 90.0938 19.3867H90.8516C98.7278 19.395 106.279 22.5275 111.848 28.0968C117.418 33.6662 120.55 41.2175 120.559 49.0938V51.1953H96.5664C84.0664 51.1953 77.2695 44.3711 75.3047 42.0312C72.4609 46.7187 67.9688 49.9453 64.6133 51.1289C64.0999 51.3008 63.5609 51.384 63.0195 51.375ZM62.75 49.0312C63.1139 49.0657 63.481 49.0313 63.832 48.9297C66.1758 48.1016 70.8945 45.2969 73.7461 40.0469L74.0781 39.4336H76.2812L76.6289 39.9336C76.6914 40.0195 83.0703 48.8594 96.5508 48.8594H118.219C118.146 41.6471 115.232 34.7545 110.109 29.6772C104.986 24.5998 98.0681 21.7472 90.8555 21.7383H90.1133C82.8721 21.7465 75.9288 24.6213 70.8012 29.7343C65.6736 34.8472 62.7789 41.7823 62.75 49.0234V49.0312Z" fill="#677381"/>
<path d="M150.016 123.469C150.067 118.077 148.351 112.816 145.129 108.492C142.291 104.73 138.464 101.83 134.074 100.117L107.313 88.4258H73.668L47.3555 100.117C38.2773 103.672 31.4141 112.328 31.4141 123.469V164.992H150.016V123.469Z" fill="#F5F5F5"/>
<path d="M85.3867 164.992H31.4102V123.469C31.4102 112.473 38.1016 103.734 47.3555 100.117L67.6914 91.0742L85.3867 164.992Z" fill="#C5CAD0"/>
<path d="M150.016 123.469V164.992H95.5859L113.277 91.0742C113.707 91.2109 111.578 90.293 134.078 100.117C143.355 103.75 150.016 112.469 150.016 123.469Z" fill="#C5CAD0"/>
<path d="M48.7312 165.625C48.4646 165.226 48.1511 164.86 47.7976 164.535C45.6486 162.575 43.9194 160.199 42.7144 157.551C41.5094 154.904 40.8537 152.039 40.7869 149.131C40.7201 146.223 41.2436 143.332 42.3257 140.632C43.4078 137.932 45.0261 135.479 47.0828 133.422L47.9929 132.512C48.5402 131.966 48.9742 131.318 49.2698 130.604C49.5655 129.89 49.717 129.124 49.7156 128.352V123.828H52.0593V128.383C52.061 129.463 51.8492 130.533 51.4363 131.531C51.0234 132.529 50.4174 133.436 49.6531 134.199L48.739 135.109C46.905 136.943 45.462 139.129 44.4971 141.536C43.5323 143.943 43.0657 146.521 43.1256 149.114C43.1855 151.706 43.7706 154.26 44.8455 156.62C45.9205 158.98 47.463 161.097 49.3797 162.844C49.8755 163.297 50.3137 163.81 50.6843 164.371L48.7312 165.625Z" fill="#677381"/>
<path d="M132.609 165.645L130.656 164.34C131.029 163.784 131.467 163.275 131.961 162.824C133.877 161.077 135.419 158.96 136.494 156.6C137.568 154.24 138.153 151.686 138.213 149.094C138.273 146.502 137.807 143.924 136.842 141.517C135.878 139.11 134.435 136.924 132.602 135.09L131.688 134.18C130.927 133.416 130.324 132.509 129.913 131.511C129.503 130.514 129.294 129.446 129.297 128.367V123.828H131.641V128.383C131.639 129.156 131.791 129.921 132.086 130.635C132.382 131.349 132.816 131.997 133.363 132.543L134.277 133.453C136.334 135.51 137.952 137.963 139.034 140.663C140.117 143.363 140.64 146.255 140.573 149.163C140.506 152.071 139.851 154.935 138.646 157.583C137.441 160.23 135.712 162.606 133.563 164.566C133.204 164.887 132.884 165.249 132.609 165.645Z" fill="#677381"/>
<path d="M114.891 130.516L117.504 138.363L98.3945 164.992H95.5938L113.281 91.0352L115 91.7813L124.145 117.941L114.891 130.516Z" fill="#C5CAD0"/>
<path d="M98.9961 166.164H94.1094L112.469 89.4023L115.937 90.9102L125.453 118.137L116.195 130.723L118.809 138.559L98.9961 166.164ZM97.0781 163.82H97.793L116.203 138.164L113.586 130.309L122.836 117.742L114.086 92.7148L97.0781 163.82Z" fill="#677381"/>
<path d="M85.3828 164.992H82.5859L63.4727 138.402L66.0898 130.555L56.8359 117.98L65.9648 91.8438L67.6953 91.0742L85.3828 164.992Z" fill="#C5CAD0"/>
<path d="M86.875 166.164H81.9883L62.1758 138.598L64.7891 130.762L55.5273 118.176L65.0313 90.9805L68.5117 89.418L86.875 166.164ZM83.1914 163.82H83.9023L66.8945 92.75L58.1484 117.781L67.3984 130.348L64.7773 138.203L83.1914 163.82Z" fill="#677381"/>
<path d="M75.4219 88.4258L90.4922 99.0234L106.012 88.4258H75.4219Z" fill="#DEE1EC"/>
<path d="M73.668 88.4258H75.418L90.4883 99.0234L78.0859 107.668L67.6953 91.0742L73.668 88.4258Z" fill="#F5F5F5"/>
<path d="M107.316 88.4258H106.012L90.4922 99.0234L102.898 107.668L113.281 91.0352L107.316 88.4258Z" fill="#F5F5F5"/>
<path d="M77.7344 109.332L65.9727 90.5508L73.3945 87.2539H75.7812L92.5273 99.0273L77.7344 109.332ZM69.3945 91.5977L78.4141 106.004L88.4336 99.0195L75.0352 89.5977H73.9062L69.3945 91.5977Z" fill="#677381"/>
<path d="M103.238 109.336L88.4297 99.0156L105.648 87.2539H107.559L114.98 90.5039L103.238 109.336ZM92.5781 99.0352L102.578 106L111.59 91.5469L107.09 89.5938H106.395L92.5781 99.0352Z" fill="#677381"/>
<path d="M56.875 44.8711H64.5703V67.5039H56.875C55.321 67.5039 53.8307 66.8866 52.7318 65.7877C51.633 64.6889 51.0156 63.1985 51.0156 61.6445V50.7461C51.0136 49.9753 51.1636 49.2117 51.4572 48.499C51.7507 47.7863 52.182 47.1385 52.7263 46.5928C53.2706 46.047 53.9172 45.614 54.6291 45.3186C55.341 45.0232 56.1042 44.8711 56.875 44.8711Z" fill="#677381"/>
<path d="M124.223 67.5078H116.543V44.875H124.238C125.792 44.875 127.283 45.4923 128.381 46.5912C129.48 47.69 130.098 49.1804 130.098 50.7344V61.6328C130.098 63.1868 129.48 64.6772 128.381 65.776C127.283 66.8749 125.792 67.4922 124.238 67.4922L124.223 67.5078Z" fill="#677381"/>
<path d="M125.316 48.668H122.973C122.971 40.2478 119.629 32.1722 113.68 26.2127C107.732 20.2532 99.6624 16.8965 91.2422 16.8789H89.8438C81.4239 16.8965 73.3549 20.2533 67.407 26.2129C61.4592 32.1725 58.1182 40.2481 58.1172 48.668H55.7734C55.7755 39.6268 59.3637 30.9557 65.7509 24.5568C72.1381 18.1579 80.8026 14.5538 89.8438 14.5352H91.2344C100.278 14.5507 108.945 18.1534 115.335 24.5526C121.725 30.9519 125.314 39.6248 125.316 48.668Z" fill="#677381"/>
<path d="M110.156 81.8789H90.7148V79.5352H110.156C112.64 79.5279 115.021 78.5379 116.777 76.7813C118.534 75.0247 119.524 72.6443 119.531 70.1602H121.875C121.868 73.2659 120.631 76.2425 118.435 78.4386C116.239 80.6347 113.262 81.8717 110.156 81.8789Z" fill="#677381"/>
<path d="M93.1523 81.8789H88.7187C87.7076 81.8789 86.7379 81.4772 86.0229 80.7623C85.3079 80.0473 84.9063 79.0775 84.9062 78.0664C84.9063 77.0553 85.3079 76.0855 86.0229 75.3706C86.7379 74.6556 87.7076 74.2539 88.7187 74.2539H93.1523C94.1635 74.2539 95.1332 74.6556 95.8482 75.3706C96.5632 76.0855 96.9648 77.0553 96.9648 78.0664C96.9648 79.0775 96.5632 80.0473 95.8482 80.7623C95.1332 81.4772 94.1635 81.8789 93.1523 81.8789ZM88.7187 76.5977C88.3292 76.5977 87.9556 76.7524 87.6802 77.0278C87.4047 77.3033 87.25 77.6769 87.25 78.0664C87.25 78.4559 87.4047 78.8295 87.6802 79.105C87.9556 79.3804 88.3292 79.5352 88.7187 79.5352H93.1523C93.5419 79.5352 93.9155 79.3804 94.1909 79.105C94.4664 78.8295 94.6211 78.4559 94.6211 78.0664C94.6211 77.6769 94.4664 77.3033 94.1909 77.0278C93.9155 76.7524 93.5419 76.5977 93.1523 76.5977H88.7187Z" fill="#677381"/>
<path d="M119.562 67.5039H121.906V70.1445H119.562V67.5039Z" fill="#677381"/>
<path style="mix-blend-mode:multiply" d="M150.018 124.938V164.992H118.135C113.416 144.531 129.037 124.938 150.018 124.938Z" fill="url(#paint0_linear_416_12650)"/>
<path d="M176.656 82.0312H152.008C150.968 82.0318 149.939 81.8274 148.979 81.4299C148.018 81.0323 147.146 80.4494 146.411 79.7144C145.676 78.9794 145.093 78.1068 144.695 77.1464C144.298 76.186 144.093 75.1566 144.094 74.1172V69.9648L136.727 64.8867L144.094 59.7188V54.1641C144.093 53.1244 144.298 52.0949 144.695 51.1343C145.093 50.1737 145.675 49.3008 146.41 48.5655C147.145 47.8301 148.018 47.2469 148.978 46.8489C149.939 46.4509 150.968 46.2461 152.008 46.2461H176.656C177.696 46.2461 178.725 46.4509 179.686 46.8489C180.646 47.2469 181.519 47.8301 182.254 48.5655C182.989 49.3008 183.572 50.1737 183.969 51.1343C184.367 52.0949 184.571 53.1244 184.57 54.1641V74.1094C184.572 75.1495 184.368 76.1797 183.971 77.141C183.574 78.1023 182.991 78.9758 182.256 79.7117C181.521 80.4475 180.648 81.0311 179.687 81.4291C178.726 81.8272 177.696 82.0318 176.656 82.0312Z" fill="#F5F5F5"/>
<path d="M176.66 83.2031H152.012C149.603 83.2011 147.293 82.2431 145.589 80.5396C143.886 78.8361 142.928 76.5263 142.926 74.1172V70.6016L134.68 64.918L142.926 59.1328V54.1641C142.928 51.7546 143.886 49.4444 145.589 47.7402C147.292 46.0361 149.602 45.0773 152.012 45.0742H176.66C179.069 45.0784 181.379 46.0375 183.082 47.7414C184.785 49.4453 185.743 51.7549 185.746 54.1641V74.1094C185.745 76.5195 184.788 78.8308 183.084 80.5357C181.381 82.2407 179.07 83.2 176.66 83.2031ZM138.77 64.8867L145.254 69.3555V74.1172C145.255 75.0036 145.431 75.8811 145.771 76.6997C146.111 77.5183 146.609 78.2618 147.236 78.8879C147.864 79.5139 148.609 80.0103 149.428 80.3486C150.247 80.6868 151.125 80.8604 152.012 80.8594H176.66C178.448 80.8573 180.161 80.1463 181.425 78.8823C182.689 77.6184 183.4 75.9047 183.402 74.1172V54.1641C183.4 52.3762 182.689 50.6621 181.426 49.3975C180.162 48.1329 178.448 47.4211 176.66 47.418H152.012C150.224 47.42 148.509 48.1316 147.245 49.3964C145.981 50.6612 145.271 52.3759 145.27 54.1641V60.332L138.77 64.8867Z" fill="#677381"/>
<path d="M153.785 66.6172C155.157 66.6172 156.27 65.5049 156.27 64.1328C156.27 62.7607 155.157 61.6484 153.785 61.6484C152.413 61.6484 151.301 62.7607 151.301 64.1328C151.301 65.5049 152.413 66.6172 153.785 66.6172Z" fill="#F26921"/>
<path d="M164.313 66.6172C165.685 66.6172 166.797 65.5049 166.797 64.1328C166.797 62.7607 165.685 61.6484 164.313 61.6484C162.94 61.6484 161.828 62.7607 161.828 64.1328C161.828 65.5049 162.94 66.6172 164.313 66.6172Z" fill="#F26921"/>
<path d="M174.836 66.6172C176.208 66.6172 177.32 65.5049 177.32 64.1328C177.32 62.7607 176.208 61.6484 174.836 61.6484C173.464 61.6484 172.352 62.7607 172.352 64.1328C172.352 65.5049 173.464 66.6172 174.836 66.6172Z" fill="#F26921"/>
<path d="M151.188 164.992H148.844V123.469C148.887 118.65 147.454 113.934 144.738 109.953C142.021 105.973 138.151 102.919 133.648 101.203L107.086 89.5938H73.918L47.7812 101.203C39.1094 104.594 32.5859 112.809 32.5859 123.469V164.992H30.2422V123.469C30.2422 112.047 37.1328 102.863 46.9023 99.0352L73.4336 87.2539H107.566L134.52 99.0313C144.164 102.813 151.184 111.922 151.184 123.469L151.188 164.992Z" fill="#677381"/>
<path d="M150.016 184.297C164.729 184.297 176.656 172.369 176.656 157.656C176.656 142.943 164.729 131.016 150.016 131.016C135.302 131.016 123.375 142.943 123.375 157.656C123.375 172.369 135.302 184.297 150.016 184.297Z" fill="#F5F5F5"/>
<path d="M150.016 185.465C144.515 185.465 139.138 183.834 134.564 180.778C129.99 177.722 126.425 173.378 124.32 168.296C122.215 163.214 121.664 157.621 122.738 152.226C123.811 146.831 126.46 141.876 130.349 137.986C134.239 134.096 139.195 131.447 144.59 130.374C149.985 129.301 155.577 129.852 160.659 131.957C165.741 134.062 170.085 137.627 173.141 142.201C176.197 146.774 177.828 152.152 177.828 157.652C177.82 165.026 174.887 172.096 169.673 177.31C164.459 182.524 157.389 185.457 150.016 185.465ZM150.016 132.184C144.978 132.184 140.054 133.677 135.866 136.476C131.678 139.274 128.413 143.252 126.486 147.906C124.558 152.56 124.054 157.681 125.036 162.621C126.019 167.562 128.445 172.1 132.007 175.661C135.568 179.223 140.106 181.649 145.047 182.632C149.987 183.614 155.108 183.11 159.762 181.182C164.416 179.255 168.394 175.99 171.192 171.802C173.991 167.614 175.484 162.69 175.484 157.652C175.476 150.9 172.79 144.427 168.016 139.652C163.241 134.878 156.768 132.192 150.016 132.184Z" fill="#677381"/>
<path d="M135.492 153.477H136.719V158.785H135.48C135.011 158.785 134.561 158.599 134.229 158.267C133.897 157.935 133.711 157.485 133.711 157.016V155.246C133.711 155.013 133.758 154.782 133.848 154.567C133.938 154.352 134.069 154.156 134.235 153.992C134.4 153.827 134.596 153.697 134.812 153.609C135.028 153.521 135.259 153.476 135.492 153.477Z" fill="#F26921"/>
<path d="M138.512 162.621H144.535L142.477 170.945H138.512V162.621Z" fill="#F26921"/>
<path d="M162.992 146.113C162.992 167.871 163.031 166.328 162.926 166.25C157.723 162.49 151.466 160.467 145.047 160.469H141.195C140.484 160.468 139.803 160.185 139.3 159.681C138.798 159.178 138.516 158.496 138.516 157.785V154.586C138.517 153.885 138.796 153.213 139.291 152.717C139.787 152.221 140.459 151.942 141.16 151.941H145.047C151.462 151.942 157.715 149.922 162.918 146.168L162.992 146.113Z" fill="#F26921"/>
<path d="M17.6343 165.949C16.974 165.95 16.3209 165.813 15.7168 165.546C15.1127 165.28 14.571 164.89 14.1263 164.402C13.6817 163.914 13.3439 163.339 13.1347 162.712C12.9256 162.086 12.8495 161.423 12.9116 160.766C12.9679 160.146 13.1472 159.543 13.439 158.993C13.7307 158.443 14.1291 157.957 14.6108 157.563C17.8296 154.91 22.7436 157.449 22.3374 161.668C22.2249 162.838 21.6811 163.925 20.8117 164.716C19.9424 165.507 18.8098 165.947 17.6343 165.949ZM15.2319 160.988C15.187 161.459 15.2826 161.932 15.5066 162.349C15.7306 162.765 16.073 163.105 16.4905 163.327C16.9081 163.549 17.3819 163.642 17.8522 163.594C18.3226 163.547 18.7682 163.361 19.1329 163.06C19.4976 162.759 19.7649 162.357 19.901 161.904C20.0372 161.452 20.0361 160.969 19.8978 160.517C19.7596 160.065 19.4904 159.664 19.1244 159.364C18.7583 159.065 18.3118 158.881 17.8413 158.836C17.21 158.776 16.5807 158.969 16.0916 159.373C15.6024 159.776 15.2932 160.357 15.2319 160.988Z" fill="#677381"/>
<path d="M35.1749 179.762C34.6677 179.762 34.1661 179.656 33.702 179.451C33.2379 179.246 32.8215 178.947 32.4794 178.573C32.1373 178.198 31.8769 177.757 31.7148 177.276C31.5528 176.796 31.4926 176.286 31.5382 175.781C31.6063 175.079 31.8766 174.412 32.3165 173.86C32.7564 173.309 33.3469 172.897 34.0163 172.674C34.6857 172.452 35.4054 172.428 36.0878 172.607C36.7703 172.785 37.3864 173.158 37.8612 173.68C38.336 174.202 38.6492 174.85 38.7627 175.546C38.8763 176.242 38.7854 176.957 38.501 177.602C38.2166 178.248 37.7509 178.797 37.1605 179.183C36.5701 179.569 35.8804 179.776 35.1749 179.777V179.762ZM33.8702 175.992C33.846 176.248 33.8981 176.506 34.0201 176.732C34.142 176.958 34.3283 177.143 34.5554 177.264C34.7824 177.384 35.0402 177.435 35.2959 177.409C35.5517 177.383 35.7941 177.282 35.9925 177.119C36.1909 176.955 36.3364 176.737 36.4106 176.49C36.4848 176.244 36.4845 175.982 36.4095 175.736C36.3346 175.49 36.1884 175.272 35.9896 175.109C35.7907 174.946 35.548 174.845 35.2921 174.82C34.9483 174.788 34.6055 174.893 34.3389 175.112C34.0724 175.332 33.9039 175.648 33.8702 175.992Z" fill="#677381"/>
<path d="M173.828 131.996L178.957 126.868L180.614 128.525L175.485 133.653L173.828 131.996Z" fill="#677381"/>
<path d="M167.531 121.738H169.875V128.992H167.531V121.738Z" fill="#677381"/>
<path d="M178.68 137.164H185.934V139.508H178.68V137.164Z" fill="#677381"/>
<path d="M137.891 55.8603H135.547V53.5166H137.891V55.8603ZM138.031 49.79L135.711 49.4463C135.836 48.6086 136.031 47.7828 136.293 46.9775L138.523 47.7041C138.305 48.3872 138.144 49.0876 138.043 49.7978L138.031 49.79ZM140.105 44.5322L138.172 43.2119C138.649 42.5174 139.183 41.8641 139.77 41.2588L141.457 42.8799C140.963 43.3933 140.511 43.9459 140.105 44.5322ZM144.262 40.6611L143.09 38.6338C143.822 38.209 144.589 37.847 145.383 37.5517L146.203 39.7471C145.532 39.9914 144.882 40.292 144.262 40.6455V40.6611ZM149.68 38.9814L149.5 36.6377C150.281 36.5791 150.746 36.5908 151.934 36.5908V38.9346C150.898 38.9267 150.336 38.915 149.68 38.9658V38.9814ZM176.934 38.9424H174.59V36.5986H176.934V38.9424ZM170.684 38.9424H168.34V36.5986H170.684V38.9424ZM164.434 38.9424H162.09V36.5986H164.434V38.9424ZM158.184 38.9424H155.84V36.5986H158.184V38.9424Z" fill="#C5CAD0"/>
<path d="M24.0703 132.082H21.7266V129.738H24.0703V132.082ZM24.0703 125.832H21.7266V123.488H24.0703V125.832ZM24.1484 119.672L21.8047 119.496C21.8672 118.691 21.957 117.875 22.082 117.078L24.3984 117.434C24.2891 118.172 24.2148 118.926 24.1484 119.672ZM25.2187 113.777L22.9688 113.117C23.1992 112.336 23.4609 111.555 23.75 110.809L25.9414 111.645C25.6719 112.34 25.4297 113.059 25.2187 113.777ZM27.5039 108.238L25.4414 107.121C25.832 106.41 26.2461 105.707 26.6836 105.027L28.6367 106.301C28.2422 106.93 27.8555 107.582 27.5039 108.238ZM30.8945 103.301L29.1133 101.777C29.6719 101.125 30.2852 100.48 30.7695 99.9922L32.418 101.648C31.8906 102.184 31.3945 102.734 30.8945 103.301ZM35.1914 98.8867L33.5352 97.2305L34.9805 95.7852L36.6367 97.4414L35.1914 98.8867Z" fill="#C5CAD0"/>
<defs>
<linearGradient id="paint0_linear_416_12650" x1="117.287" y1="144.965" x2="150.018" y2="144.965" gradientUnits="userSpaceOnUse">
<stop stop-color="#CACFDD"/>
<stop offset="1" stop-color="#EEF0F1"/>
</linearGradient>
</defs>
</svg>
