<svg width="40" height="32" viewBox="0 0 40 32" fill="none" xmlns="http://www.w3.org/2000/svg">
<path d="M1.54688 8.34961V22.4852H35.0389V8.34961H1.54688Z" fill="#F5F5F5"/>
<path d="M15.1943 8.34961H35.0383V22.4852H15.1943V8.34961Z" fill="#DEE1EC"/>
<path d="M19.8774 1.90047C19.8533 1.72783 19.872 1.55189 19.9321 1.38824C19.9921 1.22459 20.0916 1.07827 20.2217 0.96225C20.3518 0.846228 20.5085 0.764081 20.678 0.723087C20.8474 0.682093 21.0243 0.683517 21.1931 0.727232C21.3618 0.770947 21.5172 0.855603 21.6454 0.973704C21.7736 1.0918 21.8708 1.2397 21.9282 1.4043C21.9856 1.5689 22.0015 1.74512 21.9745 1.91734C21.9476 2.08957 21.8786 2.25249 21.7736 2.39167C21.6474 2.55907 21.4743 2.68528 21.2764 2.75433C21.0784 2.82339 20.8644 2.83218 20.6614 2.7796C20.4584 2.72702 20.2756 2.61543 20.1361 2.45895C19.9965 2.30246 19.9065 2.10811 19.8774 1.90047ZM20.9276 1.2368C20.8533 1.23673 20.78 1.25259 20.7124 1.28331C20.6449 1.31404 20.5847 1.35891 20.536 1.4149C20.4873 1.47089 20.4512 1.53668 20.4301 1.60784C20.409 1.67899 20.4034 1.75384 20.4138 1.82733C20.4275 1.92605 20.4693 2.01874 20.5342 2.09433C20.5992 2.16993 20.6845 2.22523 20.78 2.25364C20.8756 2.28206 20.9773 2.28237 21.073 2.25456C21.1687 2.22674 21.2543 2.17197 21.3198 2.09678C21.3852 2.0216 21.4276 1.92917 21.4419 1.83054C21.4562 1.73191 21.4418 1.63124 21.4004 1.54057C21.3591 1.44989 21.2925 1.37303 21.2087 1.31916C21.1248 1.2653 21.0272 1.23671 20.9276 1.2368Z" fill="#9CA7B3"/>
<path d="M24.7608 4.95758C24.7422 4.82425 24.7567 4.68838 24.8031 4.56201C24.8496 4.43564 24.9264 4.32266 25.0269 4.23306C25.1274 4.14347 25.2484 4.08004 25.3793 4.04837C25.5101 4.0167 25.6467 4.01778 25.7771 4.05151C25.9074 4.08524 26.0274 4.15057 26.1265 4.24174C26.2255 4.3329 26.3006 4.44708 26.345 4.57417C26.3894 4.70126 26.4018 4.83733 26.3811 4.97036C26.3604 5.10338 26.3072 5.22925 26.2263 5.33681C26.129 5.46674 25.9954 5.56481 25.8422 5.61856C25.6891 5.6723 25.5235 5.67929 25.3664 5.63864C25.2093 5.59798 25.0678 5.51152 24.96 5.39024C24.8521 5.26897 24.7828 5.11836 24.7608 4.95758ZM25.5734 4.5666C25.5341 4.56698 25.4953 4.57576 25.4596 4.59235C25.424 4.60893 25.3922 4.63295 25.3666 4.66278C25.3409 4.69261 25.322 4.72758 25.3109 4.76534C25.2999 4.8031 25.297 4.84278 25.3026 4.88173C25.3099 4.93459 25.3323 4.98422 25.3671 5.02466C25.4019 5.0651 25.4477 5.09463 25.4989 5.1097C25.55 5.12477 25.6045 5.12475 25.6557 5.10963C25.7069 5.09452 25.7526 5.06495 25.7874 5.02448C25.8222 4.98401 25.8445 4.93437 25.8518 4.8815C25.859 4.82863 25.8509 4.77479 25.8283 4.72645C25.8057 4.6781 25.7696 4.6373 25.7244 4.60894C25.6792 4.58059 25.6268 4.56589 25.5734 4.5666Z" fill="#9CA7B3"/>
<path d="M1.33691 27.4531L2.62134 26.1687L3.00437 26.5517L1.71994 27.8362L1.33691 27.4531Z" fill="#9CA7B3"/>
<path d="M4.04395 27.3154H4.58571V29.1322H4.04395V27.3154Z" fill="#9CA7B3"/>
<path d="M0 24.7041H1.81672V25.2459H0V24.7041Z" fill="#9CA7B3"/>
<path d="M14.9229 9.30078H15.4646V9.84255H14.9229V9.30078Z" fill="#9CA7B3"/>
<path d="M24.1084 29.1322C24.4617 29.1321 24.8115 29.2016 25.1379 29.3367C25.4643 29.4718 25.7609 29.67 26.0107 29.9198C26.2605 30.1696 26.4586 30.4661 26.5938 30.7925C26.7289 31.1189 26.7984 31.4688 26.7983 31.8221C26.7983 31.4687 26.8679 31.1189 27.0031 30.7925C27.1383 30.4661 27.3366 30.1695 27.5864 29.9197C27.8363 29.6699 28.1329 29.4718 28.4594 29.3367C28.7859 29.2015 29.1357 29.1321 29.489 29.1322C28.7754 29.1322 28.091 28.8487 27.5864 28.3441C27.0818 27.8395 26.7983 27.155 26.7983 26.4414C26.7984 26.7947 26.7289 27.1446 26.5938 27.4711C26.4586 27.7975 26.2605 28.0941 26.0107 28.344C25.761 28.5939 25.4644 28.7921 25.138 28.9273C24.8116 29.0626 24.4617 29.1322 24.1084 29.1322Z" fill="#F26921"/>
<path d="M8.26562 4.85108C8.66723 4.85108 9.05238 5.01061 9.33635 5.29459C9.62033 5.57856 9.77986 5.96371 9.77986 6.36532C9.77974 6.16643 9.81883 5.96947 9.89488 5.7857C9.97094 5.60193 10.0825 5.43496 10.2231 5.29432C10.3637 5.15369 10.5307 5.04216 10.7145 4.9661C10.8983 4.89005 11.0952 4.85096 11.2941 4.85108C11.0952 4.85108 10.8982 4.81188 10.7144 4.73573C10.5306 4.65957 10.3637 4.54795 10.2231 4.40725C10.0824 4.26654 9.97091 4.09951 9.89487 3.91569C9.81882 3.73187 9.77974 3.53487 9.77986 3.33594C9.77998 3.53487 9.7409 3.73187 9.66486 3.91569C9.58881 4.09951 9.47729 4.26654 9.33667 4.40725C9.19605 4.54795 9.02908 4.65957 8.84531 4.73573C8.66153 4.81188 8.46455 4.85108 8.26562 4.85108Z" fill="#F26921"/>
<path style="mix-blend-mode:multiply" d="M35.0399 8.34961H26.7969C27.0825 9.27735 27.55 10.139 28.1721 10.8842H35.0389L35.0399 8.34961Z" fill="url(#paint0_linear_432_17386)"/>
<path d="M35.3092 22.7574H1.27539V8.08008H35.3092V22.7574ZM1.81716 22.2157H34.7674V8.62184H1.81716V22.2157Z" fill="#9CA7B3"/>
<path d="M4.31543 10.8838V25.0194H37.8074V10.8838H4.31543Z" fill="#F5F5F5"/>
<path d="M17.9619 10.8838H37.8059V25.0194H17.9619V10.8838Z" fill="#DEE1EC"/>
<path d="M18.2341 24.1273H17.6924V23.6758H18.2341V24.1273ZM18.2341 22.7729H17.6924V22.2311H18.2341V22.7729ZM18.2341 21.3282H17.6924V20.7864H18.2341V21.3282ZM18.2341 19.8835H17.6924V19.3417H18.2341V19.8835ZM18.2341 18.4388H17.6924V17.897H18.2341V18.4388ZM18.2341 16.9941H17.6924V16.4523H18.2341V16.9941ZM18.2341 15.5494H17.6924V15.0076H18.2341V15.5494ZM18.2341 14.1046H17.6924V13.5629H18.2341V14.1046ZM18.2341 12.6599H17.6924V12.1182H18.2341V12.6599Z" fill="#9CA7B3"/>
<path d="M13.9223 21.0766C14.2903 20.7085 14.2903 20.1118 13.9223 19.7437C13.5542 19.3756 12.9574 19.3756 12.5893 19.7437C12.2212 20.1118 12.2212 20.7085 12.5893 21.0766C12.9574 21.4447 13.5542 21.4447 13.9223 21.0766Z" fill="#F26921"/>
<path d="M13.2604 14.1309C13.1089 14.131 12.9597 14.1677 12.8255 14.2378C12.6913 14.308 12.5759 14.4094 12.4892 14.5336C12.4802 14.5273 12.5588 14.4433 8.27068 19.7499C8.18056 19.8411 8.11003 19.9497 8.06342 20.0691C8.0168 20.1886 7.99509 20.3163 7.99961 20.4444C8.00413 20.5725 8.03479 20.6984 8.0897 20.8142C8.14462 20.9301 8.22263 21.0335 8.31895 21.1181C8.41527 21.2027 8.52787 21.2668 8.64983 21.3063C8.77179 21.3458 8.90055 21.36 9.02819 21.348C9.15583 21.3359 9.27966 21.2979 9.39209 21.2363C9.50452 21.1747 9.60317 21.0907 9.68198 20.9896C9.69101 20.9978 9.51855 21.1973 14.0342 15.6135C14.133 15.4721 14.1911 15.3064 14.2022 15.1342C14.2133 14.9621 14.177 14.7903 14.0972 14.6374C14.0174 14.4845 13.8971 14.3564 13.7496 14.2671C13.602 14.1778 13.4328 14.1307 13.2604 14.1309Z" fill="#F26921"/>
<path d="M21.1425 18.9597L23.9082 21.7263H34.7634V14.1777H23.9082L21.1416 16.9453L21.1425 18.9597ZM23.2057 17.3615C23.3224 17.2449 23.4711 17.1654 23.6329 17.1333C23.7948 17.1011 23.9625 17.1177 24.1149 17.1808C24.2674 17.244 24.3976 17.3509 24.4893 17.4881C24.581 17.6253 24.6299 17.7866 24.6299 17.9516C24.6299 18.1166 24.581 18.2779 24.4893 18.4151C24.3976 18.5523 24.2674 18.6592 24.1149 18.7224C23.9625 18.7855 23.7948 18.8021 23.6329 18.7699C23.4711 18.7377 23.3224 18.6583 23.2057 18.5417C23.0496 18.385 22.962 18.1728 22.962 17.9516C22.962 17.7304 23.0496 17.5182 23.2057 17.3615Z" fill="#9CA7B3"/>
<path style="mix-blend-mode:multiply" d="M28.1719 10.8848C29.3201 12.2664 30.936 13.1779 32.7123 13.4459C34.4887 13.7139 36.3015 13.3198 37.8063 12.3385V10.8848H28.1719Z" fill="url(#paint1_linear_432_17386)"/>
<path d="M38.0777 25.2906H4.04395V10.6133H38.0777V25.2906ZM4.58571 24.7489H37.5359V11.155H4.58571V24.7489Z" fill="#9CA7B3"/>
<path d="M33.8082 12.1163C37.079 12.1163 39.7306 9.46475 39.7306 6.1939C39.7306 2.92304 37.079 0.271484 33.8082 0.271484C30.5373 0.271484 27.8857 2.92304 27.8857 6.1939C27.8857 9.46475 30.5373 12.1163 33.8082 12.1163Z" fill="#F5F5F5"/>
<path d="M33.8066 12.3866C32.5816 12.3866 31.3842 12.0233 30.3657 11.3428C29.3472 10.6622 28.5534 9.69489 28.0846 8.56316C27.6159 7.43143 27.4933 6.18612 27.7324 4.98471C27.9714 3.78331 28.5613 2.67977 29.4276 1.81366C30.2938 0.947546 31.3974 0.357763 32.5989 0.118895C33.8003 -0.119973 35.0456 0.00280435 36.1773 0.471699C37.3089 0.940593 38.2761 1.73454 38.9566 2.75314C39.637 3.77174 40.0001 4.96924 39.9999 6.1942C39.998 7.83609 39.3448 9.41018 38.1837 10.5711C37.0227 11.732 35.4485 12.3849 33.8066 12.3866ZM33.8066 0.542672C32.6888 0.542672 31.5961 0.874129 30.6668 1.49513C29.7374 2.11612 29.013 2.99877 28.5852 4.03145C28.1575 5.06414 28.0456 6.20047 28.2636 7.29676C28.4817 8.39305 29.02 9.40005 29.8103 10.1904C30.6007 10.9808 31.6077 11.5191 32.704 11.7371C33.8003 11.9552 34.9366 11.8433 35.9693 11.4155C37.002 10.9878 37.8847 10.2634 38.5057 9.33402C39.1266 8.40463 39.4581 7.31197 39.4581 6.1942C39.4564 4.69584 38.8605 3.25932 37.801 2.19981C36.7415 1.14031 35.3049 0.544345 33.8066 0.542672Z" fill="#9CA7B3"/>
<path d="M33.8088 2C31.603 2 29.8086 3.80884 29.8086 6.03228V8.33531H30.2971V6.03228C30.2971 4.08057 31.8723 2.49274 33.8085 2.49274C35.7446 2.49274 37.3201 4.08057 37.3201 6.03228V8.33531H37.8086V6.03228C37.8089 3.80884 36.0145 2 33.8088 2Z" fill="#42695A"/>
<path d="M33.4475 8.31455C33.2037 8.15536 33.0521 7.85855 33.0521 7.53988C33.0521 7.37544 33.092 7.2145 33.1672 7.07484C33.2962 6.83343 33.4941 6.63721 33.6555 6.41883C33.7503 6.29025 33.8467 6.15905 33.9282 6.02143C34.0295 5.85058 34.0925 5.60013 34.0925 5.36834C34.0925 4.9517 33.9042 4.55868 33.589 4.3161C33.5869 4.31406 33.5846 4.31289 33.5817 4.3126C33.5777 4.31202 33.5736 4.31406 33.5713 4.31726C33.5684 4.32135 33.5684 4.32659 33.5713 4.33038C33.6263 4.45051 33.654 4.57996 33.654 4.71583C33.654 4.82866 33.6344 4.93829 33.5959 5.04179C33.4568 5.46339 33.1192 5.79839 33.1155 5.80218C32.74 6.21707 32.6278 6.41125 32.6269 6.41271C32.4979 6.61767 32.4297 6.85734 32.4297 7.10545C32.4297 7.7291 32.8641 8.2577 33.44 8.33525C33.4406 8.33525 33.4412 8.33525 33.4414 8.33525C33.4461 8.33525 33.4504 8.33234 33.4521 8.32767C33.4539 8.32272 33.4521 8.31718 33.4478 8.31397" fill="#F26921"/>
<path d="M35.0754 6.52765C34.7943 5.92937 34.4211 5.50981 34.4174 5.50573C34.4139 5.50194 34.4087 5.50107 34.4044 5.50282C34.4 5.50486 34.3971 5.50952 34.3977 5.51448C34.4029 5.56346 34.4055 5.61332 34.4055 5.66288C34.4055 6.03433 34.2531 6.32647 34.0382 6.6157C33.9841 6.6883 33.93 6.76119 33.8765 6.83437L33.7038 7.06004C33.6963 7.06937 33.6885 7.07957 33.6804 7.09065C33.5416 7.27813 33.3053 7.70818 33.6509 8.13123C33.6547 8.1359 33.6619 8.1356 33.6651 8.13065C33.6769 8.11345 33.6902 8.09595 33.7056 8.07875C33.7929 7.98866 33.8837 7.90177 33.974 7.81489C34.1377 7.65715 34.2678 7.49301 34.3277 7.26996C34.3358 7.24022 34.3425 7.21019 34.3474 7.18045C34.348 7.17754 34.35 7.17491 34.3529 7.17404C34.3558 7.17316 34.3584 7.17404 34.3595 7.17666C34.3595 7.17666 34.6184 7.58018 34.5215 8.19304C34.514 8.23998 34.5024 8.28547 34.4874 8.3292C34.4862 8.3327 34.4897 8.33561 34.4929 8.33416C34.9114 8.11578 35.1894 7.63908 35.1894 7.10407C35.1894 6.90289 35.1512 6.70929 35.0757 6.52794" fill="#F26921"/>
<path d="M37.0291 8.33541H36.7746V6.01635C36.7746 4.36757 35.4438 3.0261 33.8082 3.0261C32.1725 3.0261 30.8414 4.36757 30.8414 6.01635V8.33541H30.5869V6.01635C30.5869 4.22617 32.0319 2.76953 33.8082 2.76953C35.5844 2.76953 37.0291 4.22617 37.0291 6.01635V8.33541Z" fill="#42695A"/>
<path d="M9.60586 15.7387C9.97394 15.3707 9.97394 14.7739 9.60586 14.4058C9.23778 14.0377 8.641 14.0377 8.27292 14.4058C7.90483 14.7739 7.90483 15.3707 8.27292 15.7387C8.641 16.1068 9.23778 16.1068 9.60586 15.7387Z" fill="#F26921"/>
<defs>
<linearGradient id="paint0_linear_432_17386" x1="26.7969" y1="9.61644" x2="37.8074" y2="9.61644" gradientUnits="userSpaceOnUse">
<stop stop-color="#CACFDD"/>
<stop offset="1" stop-color="#EEF0F1"/>
</linearGradient>
<linearGradient id="paint1_linear_432_17386" x1="19.5912" y1="12.2067" x2="47.2565" y2="12.2067" gradientUnits="userSpaceOnUse">
<stop stop-color="#CACFDD"/>
<stop offset="1" stop-color="#EEF0F1"/>
</linearGradient>
</defs>
</svg>
