<svg width="176" height="40" viewBox="0 0 176 40" fill="none" xmlns="http://www.w3.org/2000/svg">
<mask id="path-1-inside-1_432_17356" fill="white">
<path d="M45.499 3.59277L49.0918 0H172C174.209 0 176 1.79086 176 4V36C176 38.2091 174.209 40 172 40H48.998L45.499 36.501L42 40H4C1.79086 40 3.22132e-08 38.2091 0 36V4C5.15413e-07 1.79086 1.79086 6.44256e-08 4 0H41.9062L45.499 3.59277Z"/>
</mask>
<path d="M45.499 3.59277L49.0918 0H172C174.209 0 176 1.79086 176 4V36C176 38.2091 174.209 40 172 40H48.998L45.499 36.501L42 40H4C1.79086 40 3.22132e-08 38.2091 0 36V4C5.15413e-07 1.79086 1.79086 6.44256e-08 4 0H41.9062L45.499 3.59277Z" fill="#F0F1F3"/>
<path d="M45.499 3.59277L45.1455 3.94633L45.499 4.29988L45.8526 3.94633L45.499 3.59277ZM49.0918 0V-0.5H48.8847L48.7382 -0.353553L49.0918 0ZM176 4H176.5H176ZM176 36H176.5H176ZM172 40V40.5V40ZM48.998 40L48.6445 40.3536L48.7909 40.5H48.998V40ZM45.499 36.501L45.8526 36.1474L45.499 35.7939L45.1455 36.1474L45.499 36.501ZM42 40V40.5H42.2071L42.3536 40.3536L42 40ZM0 36H-0.5H0ZM0 4H-0.5H0ZM4 0V-0.5V0ZM41.9062 0L42.2598 -0.353553L42.1134 -0.5H41.9062V0ZM45.499 3.59277L45.8526 3.23922L44.9544 2.34103L44.6008 2.69458L44.2473 3.04813L45.1455 3.94633L45.499 3.59277ZM42.8044 0.898193L43.158 0.54464L42.2598 -0.353553L41.9062 0L41.5527 0.353553L42.4509 1.25175L42.8044 0.898193ZM41.9062 0V-0.5H40.3268V0V0.5H41.9062V0ZM37.168 0V-0.5H34.0091V0V0.5H37.168V0ZM30.8503 0V-0.5H27.6914V0V0.5H30.8503V0ZM24.5326 0V-0.5H21.3737V0V0.5H24.5326V0ZM18.2148 0V-0.5H15.056V0V0.5H18.2148V0ZM11.8971 0V-0.5H8.73828V0V0.5H11.8971V0ZM5.57943 0V-0.5H4V0V0.5H5.57943V0ZM4 0V-0.5C3.39076 -0.5 2.8086 -0.378653 2.27732 -0.158341L2.46885 0.303522L2.66038 0.765385C3.07236 0.594543 3.52451 0.5 4 0.5V0ZM0.303522 2.46885L-0.158341 2.27732C-0.378653 2.8086 -0.5 3.39076 -0.5 4H0H0.5C0.5 3.52451 0.594543 3.07236 0.765385 2.66038L0.303522 2.46885ZM0 4H-0.5V5.6H0H0.5V4H0ZM0 8.8H-0.5V12H0H0.5V8.8H0ZM0 15.2H-0.5V18.4H0H0.5V15.2H0ZM0 21.6H-0.5V24.8H0H0.5V21.6H0ZM0 28H-0.5V31.2H0H0.5V28H0ZM0 34.4H-0.5V36H0H0.5V34.4H0ZM0 36H-0.5C-0.5 36.6092 -0.378653 37.1914 -0.158341 37.7227L0.303522 37.5312L0.765385 37.3396C0.594543 36.9276 0.5 36.4755 0.5 36H0ZM2.46885 39.6965L2.27732 40.1583C2.8086 40.3787 3.39076 40.5 4 40.5V40V39.5C3.52451 39.5 3.07236 39.4055 2.66038 39.2346L2.46885 39.6965ZM4 40V40.5H5.58333V40V39.5H4V40ZM8.75 40V40.5H11.9167V40V39.5H8.75V40ZM15.0833 40V40.5H18.25V40V39.5H15.0833V40ZM21.4167 40V40.5H24.5833V40V39.5H21.4167V40ZM27.75 40V40.5H30.9167V40V39.5H27.75V40ZM34.0833 40V40.5H37.25V40V39.5H34.0833V40ZM40.4167 40V40.5H42V40V39.5H40.4167V40ZM42 40L42.3536 40.3536L43.2283 39.4788L42.8748 39.1252L42.5212 38.7717L41.6464 39.6464L42 40ZM44.6243 37.3757L44.9778 37.7293L45.8526 36.8545L45.499 36.501L45.1455 36.1474L44.2707 37.0222L44.6243 37.3757ZM45.499 36.501L45.1455 36.8545L46.0202 37.7293L46.3738 37.3757L46.7273 37.0222L45.8526 36.1474L45.499 36.501ZM48.1233 39.1252L47.7697 39.4788L48.6445 40.3536L48.998 40L49.3516 39.6464L48.4768 38.7717L48.1233 39.1252ZM48.998 40V40.5H50.4624V40V39.5H48.998V40ZM53.391 40V40.5H56.3196V40V39.5H53.391V40ZM59.2482 40V40.5H62.1768V40V39.5H59.2482V40ZM65.1054 40V40.5H68.0341V40V39.5H65.1054V40ZM70.9627 40V40.5H73.8913V40V39.5H70.9627V40ZM76.8199 40V40.5H79.7485V40V39.5H76.8199V40ZM82.6771 40V40.5H85.6058V40V39.5H82.6771V40ZM88.5344 40V40.5H91.463V40V39.5H88.5344V40ZM94.3916 40V40.5H97.3203V40V39.5H94.3916V40ZM100.249 40V40.5H103.177V40V39.5H100.249V40ZM106.106 40V40.5H109.035V40V39.5H106.106V40ZM111.963 40V40.5H114.892V40V39.5H111.963V40ZM117.821 40V40.5H120.749V40V39.5H117.821V40ZM123.678 40V40.5H126.606V40V39.5H123.678V40ZM129.535 40V40.5H132.464V40V39.5H129.535V40ZM135.392 40V40.5H138.321V40V39.5H135.392V40ZM141.25 40V40.5H144.178V40V39.5H141.25V40ZM147.107 40V40.5H150.035V40V39.5H147.107V40ZM152.964 40V40.5H155.893V40V39.5H152.964V40ZM158.821 40V40.5H161.75V40V39.5H158.821V40ZM164.678 40V40.5H167.607V40V39.5H164.678V40ZM170.536 40V40.5H172V40V39.5H170.536V40ZM172 40V40.5C172.609 40.5 173.191 40.3787 173.723 40.1583L173.531 39.6965L173.34 39.2346C172.928 39.4055 172.475 39.5 172 39.5V40ZM175.696 37.5312L176.158 37.7227C176.379 37.1914 176.5 36.6092 176.5 36H176H175.5C175.5 36.4755 175.405 36.9276 175.235 37.3396L175.696 37.5312ZM176 36H176.5V34.4H176H175.5V36H176ZM176 31.2H176.5V28H176H175.5V31.2H176ZM176 24.8H176.5V21.6H176H175.5V24.8H176ZM176 18.4H176.5V15.2H176H175.5V18.4H176ZM176 12H176.5V8.8H176H175.5V12H176ZM176 5.6H176.5V4H176H175.5V5.6H176ZM176 4H176.5C176.5 3.39076 176.379 2.8086 176.158 2.27732L175.696 2.46885L175.235 2.66038C175.405 3.07236 175.5 3.52451 175.5 4H176ZM173.531 0.303522L173.723 -0.158341C173.191 -0.378653 172.609 -0.5 172 -0.5V0V0.5C172.475 0.5 172.928 0.594542 173.34 0.765385L173.531 0.303522ZM172 0V-0.5H170.464V0V0.5H172V0ZM167.391 0V-0.5H164.318V0V0.5H167.391V0ZM161.246 0V-0.5H158.173V0V0.5H161.246V0ZM155.1 0V-0.5H152.027V0V0.5H155.1V0ZM148.955 0V-0.5H145.882V0V0.5H148.955V0ZM142.809 0V-0.5H139.737V0V0.5H142.809V0ZM136.664 0V-0.5H133.591V0V0.5H136.664V0ZM130.518 0V-0.5H127.446V0V0.5H130.518V0ZM124.373 0V-0.5H121.3V0V0.5H124.373V0ZM118.228 0V-0.5H115.155V0V0.5H118.228V0ZM112.082 0V-0.5H109.01V0V0.5H112.082V0ZM105.937 0V-0.5H102.864V0V0.5H105.937V0ZM99.7914 0V-0.5H96.7187V0V0.5H99.7914V0ZM93.646 0V-0.5H90.5733V0V0.5H93.646V0ZM87.5006 0V-0.5H84.4279V0V0.5H87.5006V0ZM81.3552 0V-0.5H78.2825V0V0.5H81.3552V0ZM75.2098 0V-0.5H72.1371V0V0.5H75.2098V0ZM69.0644 0V-0.5H65.9916V0V0.5H69.0644V0ZM62.9189 0V-0.5H59.8462V0V0.5H62.9189V0ZM56.7735 0V-0.5H53.7008V0V0.5H56.7735V0ZM50.6281 0V-0.5H49.0918V0V0.5H50.6281V0ZM49.0918 0L48.7382 -0.353553L47.84 0.54464L48.1936 0.898193L48.5472 1.25175L49.4454 0.353553L49.0918 0ZM46.3972 2.69458L46.0437 2.34103L45.1455 3.23922L45.499 3.59277L45.8526 3.94633L46.7508 3.04813L46.3972 2.69458ZM45.499 3.59277L44.7919 4.29988L45.499 5.00699L46.2061 4.29988L45.499 3.59277ZM49.0918 0V-1H48.6776L48.3847 -0.707107L49.0918 0ZM176 4H177H176ZM176 36H177H176ZM172 40V41V40ZM48.998 40L48.2909 40.7071L48.5838 41H48.998V40ZM45.499 36.501L46.2061 35.7939L45.499 35.0868L44.7919 35.7939L45.499 36.501ZM42 40V41H42.4142L42.7071 40.7071L42 40ZM0 36H-1H0ZM0 4L-1 4V4H0ZM4 0V-1V0ZM41.9062 0L42.6134 -0.707107L42.3205 -1H41.9062V0ZM45.499 3.59277L46.2061 2.88567L45.3079 1.98747L44.6008 2.69458L43.8937 3.40169L44.7919 4.29988L45.499 3.59277ZM42.8044 0.898193L43.5116 0.191087L42.6134 -0.707107L41.9062 0L41.1991 0.707107L42.0973 1.6053L42.8044 0.898193ZM41.9062 0V-1H40.3268V0V1H41.9062V0ZM37.168 0V-1H34.0091V0V1H37.168V0ZM30.8503 0V-1H27.6914V0V1H30.8503V0ZM24.5326 0V-1H21.3737V0V1H24.5326V0ZM18.2148 0V-1H15.056V0V1H18.2148V0ZM11.8971 0V-1H8.73828V0V1H11.8971V0ZM5.57943 0V-1H4V0V1H5.57943V0ZM4 0V-1C3.32388 -1 2.67672 -0.865251 2.08579 -0.620204L2.46885 0.303522L2.8519 1.22725C3.20424 1.08114 3.59138 1 4 1V0ZM0.303522 2.46885L-0.620204 2.0858C-0.865251 2.67672 -1 3.32389 -1 4L0 4H1C1 3.59138 1.08114 3.20424 1.22725 2.8519L0.303522 2.46885ZM0 4H-1V5.6H0H1V4H0ZM0 8.8H-1V12H0H1V8.8H0ZM0 15.2H-1V18.4H0H1V15.2H0ZM0 21.6H-1V24.8H0H1V21.6H0ZM0 28H-1V31.2H0H1V28H0ZM0 34.4H-1V36H0H1V34.4H0ZM0 36H-1C-1 36.6761 -0.865251 37.3233 -0.620204 37.9142L0.303522 37.5312L1.22725 37.1481C1.08114 36.7958 1 36.4086 1 36H0ZM2.46885 39.6965L2.0858 40.6202C2.67672 40.8652 3.32389 41 4 41V40V39C3.59138 39 3.20424 38.9189 2.8519 38.7728L2.46885 39.6965ZM4 40V41H5.58333V40V39H4V40ZM8.75 40V41H11.9167V40V39H8.75V40ZM15.0833 40V41H18.25V40V39H15.0833V40ZM21.4167 40V41H24.5833V40V39H21.4167V40ZM27.75 40V41H30.9167V40V39H27.75V40ZM34.0833 40V41H37.25V40V39H34.0833V40ZM40.4167 40V41H42V40V39H40.4167V40ZM42 40L42.7071 40.7071L43.5819 39.8324L42.8748 39.1252L42.1676 38.4181L41.2929 39.2929L42 40ZM44.6243 37.3757L45.3314 38.0828L46.2061 37.2081L45.499 36.501L44.7919 35.7939L43.9172 36.6686L44.6243 37.3757ZM45.499 36.501L44.7919 37.2081L45.6667 38.0828L46.3738 37.3757L47.0809 36.6686L46.2061 35.7939L45.499 36.501ZM48.1233 39.1252L47.4162 39.8324L48.2909 40.7071L48.998 40L49.7052 39.2929L48.8304 38.4181L48.1233 39.1252ZM48.998 40V41H50.4624V40V39H48.998V40ZM53.391 40V41H56.3196V40V39H53.391V40ZM59.2482 40V41H62.1768V40V39H59.2482V40ZM65.1054 40V41H68.0341V40V39H65.1054V40ZM70.9627 40V41H73.8913V40V39H70.9627V40ZM76.8199 40V41H79.7485V40V39H76.8199V40ZM82.6771 40V41H85.6058V40V39H82.6771V40ZM88.5344 40V41H91.463V40V39H88.5344V40ZM94.3916 40V41H97.3203V40V39H94.3916V40ZM100.249 40V41H103.177V40V39H100.249V40ZM106.106 40V41H109.035V40V39H106.106V40ZM111.963 40V41H114.892V40V39H111.963V40ZM117.821 40V41H120.749V40V39H117.821V40ZM123.678 40V41H126.606V40V39H123.678V40ZM129.535 40V41H132.464V40V39H129.535V40ZM135.392 40V41H138.321V40V39H135.392V40ZM141.25 40V41H144.178V40V39H141.25V40ZM147.107 40V41H150.035V40V39H147.107V40ZM152.964 40V41H155.893V40V39H152.964V40ZM158.821 40V41H161.75V40V39H158.821V40ZM164.678 40V41H167.607V40V39H164.678V40ZM170.536 40V41H172V40V39H170.536V40ZM172 40V41C172.676 41 173.323 40.8652 173.914 40.6202L173.531 39.6965L173.148 38.7728C172.796 38.9189 172.409 39 172 39V40ZM175.696 37.5312L176.62 37.9142C176.865 37.3233 177 36.6761 177 36H176H175C175 36.4086 174.919 36.7958 174.773 37.1481L175.696 37.5312ZM176 36H177V34.4H176H175V36H176ZM176 31.2H177V28H176H175V31.2H176ZM176 24.8H177V21.6H176H175V24.8H176ZM176 18.4H177V15.2H176H175V18.4H176ZM176 12H177V8.8H176H175V12H176ZM176 5.6H177V4H176H175V5.6H176ZM176 4H177C177 3.32389 176.865 2.67672 176.62 2.08579L175.696 2.46885L174.773 2.8519C174.919 3.20424 175 3.59138 175 4H176ZM173.531 0.303522L173.914 -0.620204C173.323 -0.865251 172.676 -1 172 -1V0V1C172.409 1 172.796 1.08114 173.148 1.22725L173.531 0.303522ZM172 0V-1H170.464V0V1H172V0ZM167.391 0V-1H164.318V0V1H167.391V0ZM161.246 0V-1H158.173V0V1H161.246V0ZM155.1 0V-1H152.027V0V1H155.1V0ZM148.955 0V-1H145.882V0V1H148.955V0ZM142.809 0V-1H139.737V0V1H142.809V0ZM136.664 0V-1H133.591V0V1H136.664V0ZM130.518 0V-1H127.446V0V1H130.518V0ZM124.373 0V-1H121.3V0V1H124.373V0ZM118.228 0V-1H115.155V0V1H118.228V0ZM112.082 0V-1H109.01V0V1H112.082V0ZM105.937 0V-1H102.864V0V1H105.937V0ZM99.7914 0V-1H96.7187V0V1H99.7914V0ZM93.646 0V-1H90.5733V0V1H93.646V0ZM87.5006 0V-1H84.4279V0V1H87.5006V0ZM81.3552 0V-1H78.2825V0V1H81.3552V0ZM75.2098 0V-1H72.1371V0V1H75.2098V0ZM69.0644 0V-1H65.9916V0V1H69.0644V0ZM62.9189 0V-1H59.8462V0V1H62.9189V0ZM56.7735 0V-1H53.7008V0V1H56.7735V0ZM50.6281 0V-1H49.0918V0V1H50.6281V0ZM49.0918 0L48.3847 -0.707107L47.4865 0.191087L48.1936 0.898193L48.9007 1.6053L49.7989 0.707107L49.0918 0ZM46.3972 2.69458L45.6901 1.98747L44.7919 2.88567L45.499 3.59277L46.2061 4.29988L47.1043 3.40169L46.3972 2.69458Z" fill="#42695A" mask="url(#path-1-inside-1_432_17356)"/>
</svg>
