<svg width="20" height="20" viewBox="0 0 20 20" fill="none" xmlns="http://www.w3.org/2000/svg">
<path d="M10 0C4.48583 0 0 4.48583 0 10C0 15.5142 4.48583 20 10 20C15.5142 20 20 15.5142 20 10C20 4.48583 15.5142 0 10 0ZM13.6825 12.5042C14.0083 12.83 14.0083 13.3567 13.6825 13.6825C13.52 13.845 13.3067 13.9267 13.0933 13.9267C12.88 13.9267 12.6667 13.845 12.5042 13.6825L10 11.1783L7.49583 13.6825C7.33333 13.845 7.12 13.9267 6.90667 13.9267C6.69333 13.9267 6.48 13.845 6.3175 13.6825C5.99167 13.3567 5.99167 12.83 6.3175 12.5042L8.82167 10L6.3175 7.49583C5.99167 7.17 5.99167 6.64333 6.3175 6.3175C6.64333 5.99167 7.17 5.99167 7.49583 6.3175L10 8.82167L12.5042 6.3175C12.83 5.99167 13.3567 5.99167 13.6825 6.3175C14.0083 6.64333 14.0083 7.17 13.6825 7.49583L11.1783 10L13.6825 12.5042Z" fill="#42695A"/>
</svg>
