<svg width="19" height="19" viewBox="0 0 19 19" fill="none" xmlns="http://www.w3.org/2000/svg">
<path d="M8.52943 18.8251C8.33793 18.8255 8.14825 18.788 7.9713 18.7148C7.79435 18.6416 7.63361 18.5342 7.49834 18.3986L5.93668 16.8378C5.71649 16.6094 5.57494 16.3167 5.53264 16.0023C5.49033 15.6879 5.54948 15.3682 5.70147 15.0897C5.84307 14.8148 5.89366 14.502 5.84594 14.1965C5.79823 13.891 5.65467 13.6085 5.43599 13.3899C5.21732 13.1713 4.93483 13.0278 4.6293 12.9801C4.32377 12.9325 4.011 12.9831 3.73613 13.1248C3.45744 13.2761 3.13782 13.3348 2.82355 13.2924C2.50928 13.25 2.21667 13.1086 1.98808 12.8888L0.427251 11.3275C0.2918 11.1921 0.184351 11.0314 0.111042 10.8545C0.0377325 10.6776 0 10.4879 0 10.2964C0 10.1049 0.0377325 9.91529 0.111042 9.73837C0.184351 9.56145 0.2918 9.40071 0.427251 9.26534L9.26592 0.426637C9.53952 0.153444 9.91036 0 10.297 0C10.6836 0 11.0545 0.153444 11.3281 0.426637L12.8898 1.98747C13.1099 2.21586 13.2515 2.50856 13.2938 2.82297C13.3361 3.13738 13.277 3.45709 13.125 3.73555C12.9834 4.01045 12.9328 4.32323 12.9805 4.62875C13.0282 4.93427 13.1718 5.21673 13.3904 5.43536C13.6091 5.65399 13.8916 5.79748 14.1971 5.84514C14.5027 5.89279 14.8154 5.84213 15.0903 5.70048C15.369 5.54928 15.6886 5.49065 16.0029 5.53308C16.3171 5.5755 16.6097 5.71678 16.8384 5.93648L18.3992 7.49776C18.5346 7.63314 18.6421 7.79388 18.7154 7.9708C18.7887 8.14772 18.8264 8.33734 18.8264 8.52885C18.8264 8.72035 18.7887 8.90998 18.7154 9.0869C18.6421 9.26382 18.5346 9.42456 18.3992 9.55994L9.56052 18.3986C9.42525 18.5342 9.26451 18.6416 9.08756 18.7148C8.9106 18.788 8.72092 18.8255 8.52943 18.8251ZM4.40671 11.7108C4.87108 11.7117 5.32743 11.8319 5.73203 12.0598C6.13663 12.2877 6.47591 12.6157 6.71737 13.0123C6.95883 13.409 7.09436 13.861 7.11099 14.3251C7.12761 14.7892 7.02477 15.2497 6.81231 15.6626C6.78366 15.7063 6.76908 15.7576 6.77054 15.8098C6.77199 15.862 6.78941 15.9124 6.82044 15.9544L8.38211 17.5149C8.40145 17.5342 8.42441 17.5496 8.44969 17.56C8.47496 17.5705 8.50205 17.5759 8.52941 17.5759C8.55676 17.5759 8.58385 17.5705 8.60912 17.56C8.6344 17.5496 8.65736 17.5342 8.6767 17.5149L17.5154 8.67614C17.5348 8.65685 17.5501 8.63392 17.5606 8.60868C17.5711 8.58344 17.5765 8.55639 17.5765 8.52906C17.5765 8.50174 17.5711 8.47468 17.5606 8.44944C17.5501 8.4242 17.5348 8.40128 17.5154 8.38198L15.9546 6.82031C15.9127 6.78923 15.8623 6.77173 15.8102 6.7702C15.7581 6.76866 15.7068 6.78316 15.6632 6.81173C15.1528 7.07475 14.572 7.16879 14.0046 7.08025C13.4373 6.99172 12.9127 6.72521 12.5067 6.31917C12.1006 5.91314 11.8341 5.38859 11.7456 4.82124C11.6571 4.25388 11.7511 3.67307 12.0141 3.16264C12.0428 3.11901 12.0574 3.06765 12.0559 3.01548C12.0544 2.96332 12.037 2.91285 12.006 2.87089L10.4443 1.31042C10.425 1.29107 10.402 1.27572 10.3767 1.26525C10.3515 1.25478 10.3244 1.24939 10.297 1.24939C10.2697 1.24939 10.2426 1.25478 10.2173 1.26525C10.192 1.27572 10.1691 1.29107 10.1497 1.31042L1.311 10.1491C1.29166 10.1684 1.27631 10.1914 1.26584 10.2166C1.25537 10.2418 1.24998 10.2689 1.24998 10.2962C1.24998 10.3235 1.25537 10.3506 1.26584 10.3758C1.27631 10.4011 1.29166 10.424 1.311 10.4433L2.87183 12.005C2.91368 12.0361 2.96406 12.0536 3.01618 12.0551C3.06829 12.0566 3.11961 12.0421 3.16322 12.0135C3.54758 11.8148 3.97398 11.7109 4.40671 11.7108Z" fill="#42695A"/>
<path d="M9.41406 12.5391C9.24832 12.539 9.08937 12.4732 8.97217 12.356C8.85497 12.2388 8.78911 12.0798 8.78906 11.9141V6.91406C8.78906 6.7483 8.85491 6.58933 8.97212 6.47212C9.08933 6.35491 9.2483 6.28906 9.41406 6.28906C9.57982 6.28906 9.73879 6.35491 9.856 6.47212C9.97321 6.58933 10.0391 6.7483 10.0391 6.91406V11.9141C10.039 12.0798 9.97316 12.2388 9.85596 12.356C9.73875 12.4732 9.57981 12.539 9.41406 12.5391Z" fill="#42695A"/>
<path d="M7.05599 9.6569C7.51623 9.6569 7.88932 9.28381 7.88932 8.82357C7.88932 8.36333 7.51623 7.99023 7.05599 7.99023C6.59575 7.99023 6.22266 8.36333 6.22266 8.82357C6.22266 9.28381 6.59575 9.6569 7.05599 9.6569Z" fill="#42695A"/>
<path d="M11.7708 10.8346C12.2311 10.8346 12.6042 10.4615 12.6042 10.0013C12.6042 9.54106 12.2311 9.16797 11.7708 9.16797C11.3106 9.16797 10.9375 9.54106 10.9375 10.0013C10.9375 10.4615 11.3106 10.8346 11.7708 10.8346Z" fill="#42695A"/>
</svg>
