<svg width="15" height="17" viewBox="0 0 15 17" fill="none" xmlns="http://www.w3.org/2000/svg">
<path d="M13.75 1.25H11.875V0.625C11.875 0.45924 11.8092 0.300268 11.6919 0.183058C11.5747 0.065848 11.4158 0 11.25 0C11.0842 0 10.9253 0.065848 10.8081 0.183058C10.6908 0.300268 10.625 0.45924 10.625 0.625V1.25H4.375V0.625C4.375 0.45924 4.30915 0.300268 4.19194 0.183058C4.07473 0.065848 3.91576 0 3.75 0C3.58424 0 3.42527 0.065848 3.30806 0.183058C3.19085 0.300268 3.125 0.45924 3.125 0.625V1.25H1.25C0.918479 1.25 0.600537 1.3817 0.366116 1.61612C0.131696 1.85054 0 2.16848 0 2.5V15C0 15.3315 0.131696 15.6495 0.366116 15.8839C0.600537 16.1183 0.918479 16.25 1.25 16.25H13.75C14.0815 16.25 14.3995 16.1183 14.6339 15.8839C14.8683 15.6495 15 15.3315 15 15V2.5C15 2.16848 14.8683 1.85054 14.6339 1.61612C14.3995 1.3817 14.0815 1.25 13.75 1.25ZM3.125 2.5V3.125C3.125 3.29076 3.19085 3.44973 3.30806 3.56694C3.42527 3.68415 3.58424 3.75 3.75 3.75C3.91576 3.75 4.07473 3.68415 4.19194 3.56694C4.30915 3.44973 4.375 3.29076 4.375 3.125V2.5H10.625V3.125C10.625 3.29076 10.6908 3.44973 10.8081 3.56694C10.9253 3.68415 11.0842 3.75 11.25 3.75C11.4158 3.75 11.5747 3.68415 11.6919 3.56694C11.8092 3.44973 11.875 3.29076 11.875 3.125V2.5H13.75V5H1.25V2.5H3.125ZM13.75 15H1.25V6.25H13.75V15ZM10.7547 8.30781C10.8128 8.36586 10.8589 8.43479 10.8904 8.51066C10.9218 8.58654 10.938 8.66787 10.938 8.75C10.938 8.83213 10.9218 8.91346 10.8904 8.98934C10.8589 9.06521 10.8128 9.13414 10.7547 9.19219L7.00469 12.9422C6.94664 13.0003 6.87771 13.0464 6.80184 13.0779C6.72596 13.1093 6.64463 13.1255 6.5625 13.1255C6.48037 13.1255 6.39904 13.1093 6.32316 13.0779C6.24729 13.0464 6.17836 13.0003 6.12031 12.9422L4.24531 11.0672C4.12804 10.9499 4.06215 10.7909 4.06215 10.625C4.06215 10.4591 4.12804 10.3001 4.24531 10.1828C4.36259 10.0655 4.52165 9.99965 4.6875 9.99965C4.85335 9.99965 5.01241 10.0655 5.12969 10.1828L6.5625 11.6164L9.87031 8.30781C9.92836 8.2497 9.99729 8.2036 10.0732 8.17215C10.149 8.1407 10.2304 8.12451 10.3125 8.12451C10.3946 8.12451 10.476 8.1407 10.5518 8.17215C10.6277 8.2036 10.6966 8.2497 10.7547 8.30781Z" fill="#42695A"/>
</svg>
