<svg width="140" height="134" viewBox="0 0 140 134" fill="none" xmlns="http://www.w3.org/2000/svg">
<path d="M127.318 123.263L113.081 133.074H55.1617L40.913 123.263C39.0228 121.973 37.5317 120.18 36.6087 118.085C35.6858 115.991 35.3679 113.681 35.6912 111.415L36.8195 81.1155C37.3119 77.7473 38.6827 74.5682 40.7939 71.898C42.9051 69.2277 45.6823 67.1606 48.846 65.9045C72.8332 56.5265 71.1532 57.0844 71.9243 57.0844H96.3095C96.6409 57.0832 96.9696 57.1448 97.278 57.2662L119.385 65.9045C122.547 67.1567 125.324 69.2198 127.436 71.8862C129.548 74.5526 130.92 77.7283 131.414 81.0935L132.543 111.393C132.871 113.663 132.555 115.978 131.631 118.077C130.708 120.176 129.213 121.973 127.318 123.263Z" fill="#F5F5F5"/>
<path style="mix-blend-mode:multiply" d="M127.999 85.1155L123.457 121.587H124.852V124.944L113.076 133.058H55.1598L43.3872 124.944V121.587H44.782L40.2309 85.1155C40.1007 84.0721 40.1939 83.013 40.5042 82.0084C40.8145 81.0038 41.3349 80.0766 42.0309 79.2885C42.7269 78.5003 43.5825 77.8692 44.541 77.4369C45.4995 77.0047 46.5389 76.7812 47.5904 76.7813H120.636C121.688 76.7812 122.728 77.0047 123.686 77.437C124.645 77.8692 125.501 78.5003 126.197 79.2884C126.893 80.0765 127.414 81.0035 127.724 82.0082C128.035 83.0128 128.129 84.072 127.999 85.1155Z" fill="url(#paint0_linear_432_10157)"/>
<path d="M84.1113 57.0901C81.5315 57.0901 78.977 56.5819 76.5936 55.5945C74.2102 54.6072 72.0446 53.16 70.2205 51.3357C68.3965 49.5113 66.9497 47.3455 65.9627 44.962C64.9757 42.5784 64.468 40.0238 64.4684 37.444V27.5896C64.4355 24.9889 64.9194 22.4076 65.8919 19.9955C66.8644 17.5833 68.3061 15.3882 70.1335 13.5375C71.961 11.6869 74.1377 10.2175 76.5374 9.21461C78.9371 8.21173 81.5121 7.69531 84.1129 7.69531C86.7137 7.69531 89.2887 8.21173 91.6884 9.21461C94.0881 10.2175 96.2648 11.6869 98.0922 13.5375C99.9197 15.3882 101.361 17.5833 102.334 19.9955C103.306 22.4076 103.79 24.9889 103.757 27.5896V37.444C103.757 42.6544 101.688 47.6515 98.0032 51.3358C94.3189 55.0202 89.3218 57.0901 84.1113 57.0901Z" fill="#F5F5F5"/>
<path d="M20.4434 132.117H132.38V133.998H20.4434V132.117Z" fill="#5E6175"/>
<path d="M113.37 134.003H54.845L40.3643 124.026C38.3266 122.651 36.717 120.731 35.7193 118.484C34.7216 116.238 34.3761 113.756 34.7224 111.322L35.8508 81.0195C36.3744 77.484 37.8157 74.1475 40.0309 71.3427C42.2462 68.5379 45.158 66.3628 48.476 65.0343L70.5794 56.3961C70.9919 56.2343 71.4308 56.1503 71.8739 56.1485H96.2779C96.7274 56.1472 97.1731 56.2312 97.5912 56.3961L119.726 65.0406C123.035 66.3663 125.94 68.5334 128.153 71.3274C130.366 74.1213 131.811 77.4451 132.345 80.9694C132.361 81.1229 132.605 87.7866 133.48 111.322C133.826 113.756 133.481 116.239 132.483 118.486C131.485 120.733 129.876 122.654 127.838 124.029L113.37 134.003ZM55.4436 132.122H112.802L126.8 122.478C128.552 121.293 129.934 119.638 130.788 117.703C131.641 115.768 131.931 113.631 131.624 111.539C131.624 111.388 131.364 104.725 130.489 81.1856C129.998 77.9999 128.686 74.9971 126.681 72.4732C124.676 69.9493 122.047 67.9915 119.055 66.7927C95.0775 57.421 96.8014 58.0353 96.3218 58.0353C69.7801 58.0353 71.7579 57.9758 71.3097 58.1544L49.2031 66.7927C46.211 67.9915 43.5829 69.9493 41.5778 72.4732C39.5728 74.9971 38.2601 77.9999 37.769 81.1856C36.5811 113.131 36.6469 111.463 36.6344 111.539C36.3275 113.63 36.617 115.766 37.4698 117.701C38.3225 119.635 39.7039 121.29 41.455 122.474L55.4436 132.122Z" fill="#5E6175"/>
<path d="M84.1126 58.0341C78.655 58.0275 73.423 55.8564 69.5642 51.997C65.7055 48.1377 63.5351 42.9053 63.5293 37.4477V27.5902C63.5961 22.1748 65.7943 17.0038 69.6474 13.1979C73.5006 9.39201 78.6983 7.25781 84.1141 7.25781C89.53 7.25781 94.7277 9.39201 98.5808 13.1979C102.434 17.0038 104.632 22.1748 104.699 27.5902V37.4477C104.693 42.9058 102.522 48.1387 98.6629 51.9981C94.8035 55.8575 89.5706 58.0283 84.1126 58.0341ZM84.1126 8.88754C79.1541 8.89335 74.4004 10.8657 70.8942 14.3718C67.388 17.878 65.4157 22.6317 65.4099 27.5902V37.4477C65.3778 39.9244 65.838 42.3827 66.7636 44.6801C67.6891 46.9776 69.0618 49.0683 70.8018 50.831C72.5418 52.5937 74.6146 53.9933 76.8998 54.9485C79.1851 55.9038 81.6373 56.3957 84.1141 56.3957C86.591 56.3957 89.0432 55.9038 91.3284 54.9485C93.6137 53.9933 95.6864 52.5937 97.4265 50.831C99.1665 49.0683 100.539 46.9776 101.465 44.6801C102.39 42.3827 102.85 39.9244 102.818 37.4477V27.5902C102.813 22.6312 100.84 17.877 97.333 14.3707C93.8261 10.8645 89.0716 8.89252 84.1126 8.88754Z" fill="#5E6175"/>
<path d="M108.022 31.7414V34.509C108.022 35.0568 107.914 35.5993 107.704 36.1054C107.494 36.6115 107.187 37.0713 106.799 37.4584L105.467 38.7905C104.982 39.2777 104.383 39.6363 103.725 39.8343C103.784 38.894 103.762 39.0601 103.762 27.5633C104.318 27.5525 104.87 27.6525 105.386 27.8576C105.902 28.0627 106.373 28.3688 106.769 28.7578C107.166 29.1469 107.481 29.6112 107.696 30.1235C107.911 30.6357 108.022 31.1858 108.022 31.7414Z" fill="#F5F5F5"/>
<path d="M64.5092 39.8244C63.8618 39.625 63.2731 39.2698 62.7947 38.7901L61.4626 37.458C61.0751 37.0708 60.7676 36.611 60.5579 36.1049C60.3481 35.5988 60.2402 35.0564 60.2402 34.5086V31.7409C60.2398 31.1879 60.3492 30.6403 60.5621 30.1299C60.7751 29.6195 61.0873 29.1565 61.4807 28.7678C61.8741 28.379 62.3408 28.0724 62.8537 27.8655C63.3666 27.6587 63.9155 27.5558 64.4685 27.5628C64.4685 39.5298 64.4528 38.9499 64.5092 39.8244Z" fill="#F5F5F5"/>
<path d="M102.701 41.1144C102.87 38.4471 102.823 40.7634 102.823 26.6181H103.764C104.443 26.6055 105.118 26.7288 105.749 26.9805C106.381 27.2323 106.955 27.6076 107.44 28.0843C107.924 28.561 108.308 29.1296 108.57 29.7567C108.831 30.3838 108.965 31.0569 108.964 31.7364V34.5041C108.961 35.8609 108.422 37.1616 107.462 38.1211C105.281 40.3089 105.506 40.2807 102.701 41.1144ZM104.704 28.6209V38.2151C104.795 38.1305 104.704 38.2151 106.13 36.789C106.734 36.1822 107.072 35.3603 107.07 34.5041V31.7364C107.07 31.03 106.839 30.3429 106.412 29.7803C105.984 29.2178 105.385 28.8105 104.704 28.6209Z" fill="#5E6175"/>
<path d="M65.5402 41.1142C62.7537 40.2679 62.9888 40.3118 60.801 38.1177C59.844 37.1582 59.3054 35.859 59.3028 34.5038V31.7362C59.299 31.0587 59.4304 30.3873 59.6894 29.7613C59.9484 29.1353 60.3298 28.5673 60.8112 28.0906C61.2926 27.6139 61.8643 27.238 62.4928 26.9851C63.1213 26.7322 63.794 26.6074 64.4714 26.6178H65.4117C65.4085 40.7537 65.374 38.5691 65.5402 41.1142ZM63.5311 28.6269C62.8526 28.8155 62.2551 29.2222 61.8309 29.7841C61.4066 30.3461 61.179 31.0321 61.1834 31.7362V34.5038C61.183 35.3588 61.521 36.1792 62.1237 36.7856C63.4872 38.1522 63.4527 38.1209 63.5279 38.1898C63.5279 37.2746 63.5311 36.5882 63.5311 28.6269Z" fill="#5E6175"/>
<path d="M75.4799 41.2955H74.3516C72.9949 41.2955 71.6938 40.7566 70.7345 39.7973C69.7752 38.838 69.2363 37.5369 69.2363 36.1803V33.0679C69.2363 32.6614 69.3978 32.2715 69.6852 31.9841C69.9727 31.6966 70.3625 31.5352 70.769 31.5352H79.0625C79.469 31.5352 79.8589 31.6966 80.1463 31.9841C80.4337 32.2715 80.5952 32.6614 80.5952 33.0679V36.1803C80.5952 37.5369 80.0563 38.838 79.097 39.7973C78.1377 40.7566 76.8366 41.2955 75.4799 41.2955Z" fill="#A9AFC4"/>
<path d="M93.8917 41.2955H92.7696C91.4129 41.2955 90.1118 40.7566 89.1525 39.7973C88.1932 38.838 87.6543 37.5369 87.6543 36.1803V33.0679C87.6543 32.6614 87.8158 32.2715 88.1032 31.9841C88.3907 31.6966 88.7805 31.5352 89.187 31.5352H97.4711C97.8776 31.5352 98.2674 31.6966 98.5549 31.9841C98.8423 32.2715 99.0038 32.6614 99.0038 33.0679V36.1803C99.0038 37.5364 98.4653 38.837 97.5067 39.7962C96.548 40.7554 95.2478 41.2947 93.8917 41.2955Z" fill="#A9AFC4"/>
<path d="M75.4788 42.2347H74.3505C72.7452 42.2322 71.2064 41.5934 70.0713 40.4583C68.9362 39.3232 68.2974 37.7844 68.2949 36.1792V33.0668C68.2958 32.4111 68.5566 31.7826 69.0202 31.319C69.4838 30.8554 70.1123 30.5946 70.7679 30.5938H79.0614C79.717 30.5946 80.3456 30.8554 80.8092 31.319C81.2728 31.7826 81.5336 32.4111 81.5344 33.0668V36.1792C81.5319 37.7844 80.8931 39.3232 79.758 40.4583C78.6229 41.5934 77.0841 42.2322 75.4788 42.2347ZM70.7773 32.4744C70.6202 32.4744 70.4695 32.5368 70.3584 32.6479C70.2473 32.759 70.1849 32.9096 70.1849 33.0668V36.1792C70.1866 37.2859 70.627 38.3469 71.4096 39.1295C72.1922 39.9121 73.2531 40.3525 74.3599 40.3541H75.4882C76.595 40.3525 77.656 39.9121 78.4386 39.1295C79.2212 38.3469 79.6615 37.2859 79.6632 36.1792V33.0668C79.6632 32.9096 79.6008 32.759 79.4897 32.6479C79.3786 32.5368 79.2279 32.4744 79.0708 32.4744H70.7773Z" fill="#5E6175"/>
<path d="M93.8945 42.2347H92.7724C91.1671 42.2322 89.6283 41.5934 88.4932 40.4583C87.3581 39.3232 86.7193 37.7844 86.7168 36.1792V33.0668C86.7176 32.4111 86.9784 31.7826 87.442 31.319C87.9056 30.8554 88.5342 30.5946 89.1898 30.5938H97.4739C98.1295 30.5946 98.758 30.8554 99.2216 31.319C99.6852 31.7826 99.9461 32.4111 99.9469 33.0668V36.1792C99.9444 37.7839 99.306 39.3222 98.1716 40.4572C97.0372 41.5922 95.4992 42.2314 93.8945 42.2347ZM89.1929 32.4744C89.0358 32.4744 88.8851 32.5368 88.774 32.6479C88.663 32.759 88.6005 32.9096 88.6005 33.0668V36.1792C88.6022 37.2854 89.0422 38.3459 89.8241 39.1284C90.606 39.9109 91.6661 40.3516 92.7724 40.3541H93.9007C95.0075 40.3525 96.0684 39.9121 96.851 39.1295C97.6336 38.3469 98.074 37.2859 98.0757 36.1792V33.0668C98.0757 32.9096 98.0133 32.759 97.9022 32.6479C97.7911 32.5368 97.6404 32.4744 97.4833 32.4744H89.1929Z" fill="#5E6175"/>
<path d="M81.5299 35.9004H79.6493C79.6283 35.3048 79.7266 34.711 79.9385 34.1539C80.1504 33.5969 80.4715 33.0879 80.8831 32.6568C81.2946 32.2257 81.7882 31.8812 82.3348 31.6437C82.8814 31.4062 83.47 31.2804 84.0659 31.2737C84.6618 31.267 85.2531 31.3796 85.8049 31.6048C86.3567 31.83 86.8579 32.1632 87.279 32.585C87.7001 33.0067 88.0326 33.5084 88.2569 34.0606C88.4812 34.6127 88.5929 35.2041 88.5853 35.8001H86.7047C86.708 35.4538 86.6418 35.1104 86.51 34.7901C86.3782 34.4699 86.1835 34.1794 85.9374 33.9357C85.6914 33.6921 85.3989 33.5003 85.0774 33.3716C84.7559 33.243 84.4119 33.1802 84.0656 33.1869C83.7194 33.1936 83.3781 33.2697 83.0618 33.4107C82.7455 33.5517 82.4607 33.7547 82.2243 34.0077C81.9878 34.2607 81.8045 34.5586 81.6853 34.8837C81.566 35.2088 81.5132 35.5545 81.5299 35.9004Z" fill="#5E6175"/>
<path d="M98.1699 33.3047L103.044 26.4034L104.58 27.4885L99.7064 34.3898L98.1699 33.3047Z" fill="#5E6175"/>
<path d="M64.1074 28.1953L65.5931 27.0293L70.5232 33.3113L69.0376 34.4773L64.1074 28.1953Z" fill="#5E6175"/>
<path d="M30.7223 21.9516L15.3285 37.3453C14.0565 38.6173 14.0565 40.6796 15.3285 41.9516L30.7223 57.3453C31.9942 58.6173 34.0565 58.6173 35.3285 57.3453L50.7223 41.9516C51.9942 40.6796 51.9942 38.6173 50.7223 37.3453L35.3285 21.9516C34.0565 20.6796 31.9942 20.6796 30.7223 21.9516Z" fill="#F5F5F5"/>
<path d="M33.041 20.0996C33.5859 20.0996 34.1255 20.2073 34.6289 20.416C35.1322 20.6247 35.5896 20.9309 35.9746 21.3164L51.3691 36.7129C52.1467 37.4911 52.5829 38.5464 52.583 39.6465C52.583 40.7468 52.1468 41.8027 51.3691 42.5811L35.9795 57.9639C35.5943 58.3503 35.1367 58.658 34.6328 58.8672C34.129 59.0763 33.5885 59.1836 33.043 59.1836C32.4977 59.1835 31.9578 59.0762 31.4541 58.8672C30.9502 58.658 30.4916 58.3513 30.1064 57.9648V57.9639L14.7129 42.5713C14.3273 42.1863 14.0213 41.7289 13.8125 41.2256C13.6037 40.7221 13.4961 40.1817 13.4961 39.6367C13.4961 39.0918 13.6038 38.5522 13.8125 38.0488C14.0212 37.5455 14.3273 37.0882 14.7129 36.7031L30.1074 21.3164C30.4924 20.9309 30.9498 20.6247 31.4531 20.416C31.9565 20.2073 32.4961 20.0996 33.041 20.0996ZM33.0449 21.8867C32.4175 21.8867 31.8152 22.135 31.3711 22.5781L31.2236 22.7256L31.2188 22.7148L15.9727 37.9629L15.9717 37.9619C15.5292 38.4063 15.2813 39.0086 15.2812 39.6357C15.2812 40.2631 15.53 40.8651 15.9727 41.3096L31.3652 56.7051C31.8101 57.1479 32.4133 57.3965 33.041 57.3965C33.6688 57.3965 34.2709 57.1479 34.7158 56.7051L50.1123 41.3193C50.5561 40.8755 50.8047 40.2731 50.8047 39.6455C50.8046 39.0181 50.5558 38.4164 50.1123 37.9727L34.7178 22.5781C34.2737 22.1352 33.6721 21.8868 33.0449 21.8867Z" fill="#5E6175" stroke="#5E6175" stroke-width="0.3"/>
<path d="M30.4941 30.42V37.4885L31.2919 41.9019H33.0405V41.9044L34.794 41.9019L35.5917 37.4835L35.5966 30.4102L30.4941 30.42Z" fill="#E1830E"/>
<path d="M31.1309 45.0547H34.959V48.8828H31.1309V45.0547Z" fill="#E1830E"/>
<path d="M84.1203 66.1588L74.9084 73.8191L68.2793 58.3135L70.9435 57.2729C71.5422 57.0378 71.8462 57.0911 73.6766 57.0911L84.1203 66.1588Z" fill="#F5F5F5"/>
<path d="M99.9437 58.3193L93.3177 73.8218L84.1152 66.1614L94.5526 57.0938H96.3016C96.9692 57.0938 97.0914 57.2035 99.9437 58.3193Z" fill="#F5F5F5"/>
<path d="M74.5478 75.3506L67.0254 57.7982L69.2194 56.9394C71.5608 56.0273 70.843 56.1589 74.0119 56.1589L85.5463 66.1889L74.5478 75.3506ZM69.5329 58.8388L75.2844 72.2914L82.6658 66.145L73.338 58.0333C71.6705 58.0333 71.6736 58.0019 71.1878 58.1931C70.8869 58.3091 70.8994 58.306 69.5329 58.8388Z" fill="#5E6175"/>
<path d="M93.6895 75.3507L82.666 66.1765L94.2036 56.1465C97.5981 56.1465 96.2848 55.8707 101.193 57.7921L93.6895 75.3507ZM85.5622 66.1451L92.9467 72.2916L98.6951 58.8389C96.7957 58.0867 96.686 58.0334 96.2973 58.0334H94.8994L85.5622 66.1451Z" fill="#5E6175"/>
<path d="M88.3386 77.7209H79.8947L76.3027 71.4522L84.1167 64.9453L91.9306 71.4522L88.3386 77.7209ZM80.9855 75.8403H87.2542L89.5203 71.8754L84.1229 67.3807L78.7256 71.8754L80.9855 75.8403Z" fill="#5E6175"/>
<path d="M96.1079 134.002H72.127L79.6086 75.8438H88.6136L96.1079 134.002ZM74.2646 132.121H93.9671L86.965 77.7244H81.2698L74.2646 132.121Z" fill="#5E6175"/>
<path d="M84.1209 66.1602L77.5137 71.6578L80.4443 76.7825H87.7975L90.725 71.6578L84.1209 66.1602Z" fill="#5E6175"/>
<path d="M87.79 76.7812H80.44L73.1934 133.058H95.0366L87.79 76.7812Z" fill="#5E6175"/>
<path d="M45.2623 84.4908L50.2553 124.61C50.3257 125.179 50.6017 125.703 51.0312 126.082C51.4608 126.461 52.0142 126.67 52.5873 126.67H115.654C116.227 126.67 116.78 126.461 117.21 126.082C117.639 125.703 117.915 125.179 117.986 124.61L122.979 84.4908C123.02 84.1603 122.99 83.8247 122.892 83.5064C122.794 83.1882 122.629 82.8945 122.408 82.6448C122.188 82.3952 121.917 82.1954 121.613 82.0586C121.309 81.9219 120.98 81.8513 120.647 81.8517H47.6162C47.2813 81.8482 46.9494 81.9164 46.643 82.0518C46.3366 82.1872 46.0627 82.3866 45.8398 82.6365C45.6168 82.8865 45.4499 83.1813 45.3503 83.5012C45.2507 83.821 45.2207 84.1584 45.2623 84.4908Z" fill="url(#paint1_linear_432_10157)"/>
<path d="M84.1177 112.743C87.7651 112.743 90.7218 109.787 90.7218 106.139C90.7218 102.492 87.7651 99.5352 84.1177 99.5352C80.4704 99.5352 77.5137 102.492 77.5137 106.139C77.5137 109.787 80.4704 112.743 84.1177 112.743Z" fill="#A9AFC4"/>
<path d="M116.763 133.06H51.4649C50.6641 133.06 49.896 132.742 49.3294 132.176C48.7629 131.61 48.4442 130.842 48.4434 130.041V126.656H119.781V130.041C119.781 130.842 119.463 131.61 118.897 132.176C118.331 132.742 117.563 133.06 116.763 133.06Z" fill="#DEE1EC"/>
<path d="M115.653 127.597H52.5867C51.7845 127.596 51.0102 127.303 50.4089 126.772C49.8076 126.241 49.4207 125.509 49.3207 124.714L44.3277 84.5938C44.2704 84.1311 44.3121 83.6614 44.45 83.216C44.588 82.7705 44.819 82.3595 45.1278 82.0101C45.4366 81.6606 45.8161 81.3809 46.2413 81.1892C46.6664 80.9976 47.1273 80.8985 47.5937 80.8984H120.64C121.106 80.8989 121.566 80.9983 121.991 81.1902C122.416 81.382 122.795 81.6619 123.103 82.0112C123.412 82.3606 123.643 82.7715 123.78 83.2167C123.918 83.6619 123.96 84.1313 123.903 84.5938L118.91 124.714C118.81 125.508 118.424 126.239 117.825 126.769C117.225 127.3 116.453 127.594 115.653 127.597ZM47.5937 82.7916C47.3939 82.7914 47.1964 82.8337 47.0142 82.9157C46.8321 82.9977 46.6695 83.1176 46.5372 83.2673C46.405 83.417 46.3061 83.5932 46.2473 83.7841C46.1884 83.975 46.1708 84.1762 46.1957 84.3744L51.1888 124.494C51.2308 124.835 51.3962 125.149 51.6537 125.376C51.9112 125.604 52.2431 125.729 52.5867 125.729H115.653C115.997 125.729 116.328 125.604 116.586 125.376C116.843 125.149 117.009 124.835 117.051 124.494L122.044 84.3744C122.069 84.1765 122.051 83.9755 121.993 83.7848C121.934 83.5942 121.835 83.4182 121.703 83.2685C121.571 83.1188 121.409 82.9989 121.228 82.9167C121.046 82.8344 120.849 82.7918 120.649 82.7916H47.5937Z" fill="#5E6175"/>
<path d="M116.762 134.003H51.4645C50.4151 134.001 49.4092 133.584 48.6672 132.842C47.9251 132.1 47.5075 131.094 47.5059 130.044V125.719H120.724V130.044C120.723 131.094 120.305 132.101 119.562 132.843C118.819 133.585 117.812 134.002 116.762 134.003ZM49.3739 127.599V130.044C49.3748 130.595 49.594 131.123 49.9835 131.513C50.373 131.902 50.9011 132.121 51.452 132.122H116.762C117.314 132.122 117.843 131.903 118.233 131.514C118.623 131.124 118.843 130.596 118.844 130.044V127.599H49.3739Z" fill="#5E6175"/>
<path d="M62.3691 25.9978H63.8956C67.0095 26.0141 70.021 24.8865 72.3583 22.829C73.981 21.3476 75.8936 20.2195 77.9751 19.5159H78.7837V25.9946C85.0336 25.9946 89.1271 21.1521 90.3495 19.5159H90.7225C90.7233 21.2345 91.4066 22.8824 92.6221 24.0973C93.8375 25.3122 95.4858 25.9946 97.2043 25.9946H105.871C105.87 20.5666 103.713 15.3612 99.8751 11.523C96.0369 7.68481 90.8315 5.52818 85.4035 5.52734H82.8458C80.1571 5.52652 77.4945 6.0554 75.0102 7.08376C72.5259 8.11213 70.2685 9.61984 68.367 11.5208C66.4655 13.4217 64.9571 15.6786 63.928 18.1626C62.8988 20.6466 62.3691 23.309 62.3691 25.9978Z" fill="#F26921"/>
<path d="M106.81 26.9377H97.2032C95.5626 26.9358 93.9687 26.3912 92.6698 25.3889C91.371 24.3866 90.4402 22.9828 90.0224 21.3962C88.076 23.5652 84.1768 26.9377 78.7826 26.9377H77.8423V20.5688C76.0485 21.2308 74.4014 22.2369 72.9935 23.5307C70.4839 25.7425 67.249 26.955 63.9039 26.9377H61.4277V25.9974C61.4344 20.3213 63.6924 14.8796 67.7063 10.8662C71.7203 6.85285 77.1623 4.59565 82.8385 4.58984H85.3961C91.0717 4.59648 96.513 6.85405 100.526 10.8673C104.54 14.8806 106.797 20.3218 106.804 25.9974L106.81 26.9377ZM89.8845 18.5784H91.6742V19.5188C91.6767 20.9874 92.2614 22.3951 93.3002 23.4333C94.339 24.4715 95.7471 25.0555 97.2157 25.0571H104.92C104.672 20.0491 102.509 15.3278 98.8791 11.8688C95.2491 8.40969 90.4291 6.47716 85.4149 6.47045H82.8573C77.8428 6.47712 73.0224 8.40955 69.3919 11.8685C65.7614 15.3275 63.5982 20.0488 63.3491 25.0571H63.9133C66.7961 25.0738 69.5847 24.0308 71.7491 22.1265C73.4581 20.5695 75.4692 19.381 77.6574 18.6349C77.8768 18.5534 77.532 18.5784 79.7292 18.5784V25.0164C83.8854 24.6591 87.3488 21.9949 89.872 18.5753L89.8845 18.5784Z" fill="#5E6175"/>
<path d="M104.697 7.53516L108.429 3.80344L109.759 5.13303L106.027 8.86475L104.697 7.53516Z" fill="#5E6175"/>
<path d="M108.143 11.6016H113.421V13.4822H108.143V11.6016Z" fill="#5E6175"/>
<path d="M100.404 0H102.285V5.27824H100.404V0Z" fill="#5E6175"/>
<path d="M133.833 127.287L132.545 125.917C132.977 125.509 133.391 125.077 133.78 124.632L135.203 125.861C134.771 126.359 134.314 126.835 133.833 127.287ZM137.127 123.187L135.513 122.225C135.818 121.718 136.095 121.194 136.344 120.658L138.052 121.447C137.774 122.043 137.464 122.624 137.124 123.187H137.127ZM139.162 118.338L137.344 117.859C137.495 117.284 137.616 116.703 137.707 116.116L139.566 116.404C139.464 117.055 139.329 117.701 139.162 118.338ZM137.908 113.157C137.908 112.9 137.908 112.95 137.833 111.298L139.713 111.217C139.782 112.809 139.785 112.847 139.792 113.116L137.908 113.157ZM137.698 108.167L137.616 106.287L139.497 106.205L139.578 108.086L137.698 108.167ZM137.482 103.152L137.4 101.272L139.281 101.19L139.362 103.071L137.482 103.152ZM137.265 98.1372L137.184 96.2566L139.064 96.1751L139.143 98.0557L137.265 98.1372ZM137.049 93.1223L136.971 91.2417L138.851 91.1602L138.933 93.0408L137.049 93.1223Z" fill="#A9AFC4"/>
<path d="M20.3434 88.2282C21.5981 88.2315 22.8003 88.7323 23.6864 89.6207C24.5724 90.5091 25.07 91.7126 25.07 92.9673C25.0716 91.7109 25.5715 90.5065 26.4599 89.6181C27.3483 88.7297 28.5527 88.2299 29.8091 88.2282C29.1869 88.2286 28.5707 88.1064 27.9958 87.8686C27.4208 87.6308 26.8983 87.282 26.4582 86.8422C26.0181 86.4023 25.669 85.8801 25.4308 85.3053C25.1926 84.7305 25.07 84.1144 25.07 83.4922C25.07 84.7483 24.571 85.9529 23.6828 86.841C22.7947 87.7292 21.5901 88.2282 20.334 88.2282" fill="#F26921"/>
<path d="M119.783 47.6831C122.308 47.6831 124.729 48.686 126.514 50.4711C128.299 52.2563 129.302 54.6775 129.302 57.2021C129.303 54.6778 130.306 52.257 132.091 50.4721C133.876 48.6871 136.297 47.6839 138.821 47.6831C137.571 47.6835 136.333 47.4376 135.178 46.9593C134.023 46.4811 132.973 45.7799 132.089 44.8959C131.205 44.0119 130.504 42.9624 130.026 41.8073C129.548 40.6522 129.302 39.4142 129.302 38.1641C129.302 40.6887 128.299 43.1099 126.514 44.895C124.729 46.6802 122.308 47.6831 119.783 47.6831Z" fill="#F26921"/>
<defs>
<linearGradient id="paint0_linear_432_10157" x1="84.1149" y1="140.531" x2="84.1149" y2="57.0317" gradientUnits="userSpaceOnUse">
<stop stop-color="#CACFDD"/>
<stop offset="1" stop-color="#EEF0F1"/>
</linearGradient>
<linearGradient id="paint1_linear_432_10157" x1="84.1157" y1="126.657" x2="84.1157" y2="83.9329" gradientUnits="userSpaceOnUse">
<stop stop-color="#CACFDD"/>
<stop offset="1" stop-color="#EEF0F1"/>
</linearGradient>
</defs>
</svg>
