<svg width="54" height="58" viewBox="0 0 54 58" fill="none" xmlns="http://www.w3.org/2000/svg">
<path d="M47.7633 45.4062L45.6284 33.5686C45.4259 32.153 44.868 30.8117 44.0069 29.6701C43.0648 28.4214 41.7944 27.4587 40.3375 26.8894L30.8555 23.0088H19.6885L10.212 26.8894C8.81754 27.4342 7.59282 28.3398 6.66318 29.5133C5.73353 30.6869 5.13234 32.0864 4.9211 33.5686L2.78072 45.4062C2.6383 46.4026 2.77811 47.4188 3.18427 48.3397C3.59042 49.2606 4.24665 50.0491 5.07842 50.6157L10.5557 54.8869H39.2045L45.467 50.6157C46.2985 50.0489 46.9544 49.2603 47.3603 48.3395C47.7663 47.4186 47.9058 46.4024 47.7633 45.4062Z" fill="#DEE1EC"/>
<path d="M45.4668 50.6144L39.2043 54.8855H10.5555L5.07824 50.6144C4.2467 50.0478 3.59062 49.2595 3.18448 48.3389C2.77834 47.4183 2.6384 46.4023 2.78054 45.4062L4.91678 33.5686C5.12812 32.0858 5.72983 30.6859 6.66027 29.5123C7.59071 28.3386 8.81643 27.4334 10.2119 26.8894L19.6939 23.0088H30.8567L40.3373 26.8894C41.7315 27.4347 42.9559 28.3404 43.8855 29.5139C44.8151 30.6874 45.4165 32.0866 45.6283 33.5686L47.7645 45.4062C47.9066 46.4023 47.7667 47.4183 47.3606 48.3389C46.9544 49.2595 46.2983 50.0478 45.4668 50.6144Z" fill="#DEE1EC"/>
<path d="M20.2695 23.0088L25.272 26.7334L30.4236 23.0088H20.2695Z" fill="url(#paint0_linear_395_478518)"/>
<path d="M25.2729 23.0089C23.1135 23.0089 21.0425 22.1511 19.5156 20.6242C17.9887 19.0972 17.1309 17.0263 17.1309 14.8669V10.7807C17.1309 8.62129 17.9887 6.55034 19.5156 5.02341C21.0425 3.49649 23.1135 2.63867 25.2729 2.63867C27.4323 2.63867 29.5032 3.49649 31.0302 5.02341C32.5571 6.55034 33.4149 8.62129 33.4149 10.7807V14.8669C33.4149 17.0263 32.5571 19.0972 31.0302 20.6242C29.5032 22.1511 27.4323 23.0089 25.2729 23.0089Z" fill="#F5F5F5"/>
<path d="M19.6891 23.0088H20.2701L25.2726 26.7334L20.4633 29.8439L17.666 23.7995L19.6891 23.0088Z" fill="#F26921"/>
<path d="M30.855 23.0088H30.423L25.2715 26.7334L30.0808 29.8439L32.8794 23.7995L30.855 23.0088Z" fill="#F26921"/>
<path d="M39.3307 55.3008H10.4141L4.8306 50.9496C3.93307 50.3403 3.22592 49.4897 2.7906 48.4961C2.35529 47.5024 2.20951 46.4059 2.37005 45.333L4.50492 33.5023C4.72798 31.949 5.35914 30.4827 6.33399 29.2531C7.30884 28.0234 8.59248 27.0744 10.0539 26.5029L19.6035 22.5947H30.9333L40.4899 26.5057C41.9497 27.0781 43.2317 28.0271 44.2055 29.2561C45.1792 30.4852 45.8099 31.9502 46.0333 33.5023L48.1696 45.3468C48.3275 46.4199 48.1791 47.5157 47.7416 48.5081C47.3041 49.5005 46.5952 50.3493 45.6966 50.9565L39.3307 55.3008ZM10.697 54.4728H39.0767L45.2343 50.2734C46.0031 49.7532 46.6098 49.0269 46.9849 48.1778C47.3601 47.3287 47.4884 46.3911 47.3554 45.4724L45.2191 33.6265C45.0171 32.2176 44.4447 30.8877 43.5605 29.7724C42.6763 28.6571 41.5119 27.7965 40.1863 27.2785L30.7746 23.4227H19.7705L10.3658 27.2716C9.03552 27.79 7.86733 28.6534 6.98134 29.7729C6.09534 30.8925 5.52351 32.2278 5.32464 33.6416L3.19115 45.4724C3.05743 46.3911 3.18552 47.329 3.5607 48.1782C3.93589 49.0274 4.54296 49.7536 5.31222 50.2734L10.697 54.4728Z" fill="#5E6175"/>
<path d="M34.9906 32.0591L33.3026 49.1859L31.4199 54.6748H38.6221L36.7057 49.1859L35.131 32.0591H34.9906Z" fill="url(#paint1_linear_395_478518)"/>
<path style="mix-blend-mode:multiply" d="M34.9902 32.0591V54.6748H38.6218L36.7054 49.1859L35.1307 32.0591H34.9902Z" fill="url(#paint2_linear_395_478518)"/>
<path d="M34.9899 32.0581C34.2212 39.8482 34.6013 35.9901 33.3047 49.1849L31.4183 54.6739H11.334C11.3452 54.6093 11.1982 55.0483 13.2064 49.1849C15.0086 30.9 14.8691 32.2706 14.9018 32.0581H34.9899Z" fill="url(#paint3_linear_395_478518)"/>
<path style="mix-blend-mode:multiply" d="M34.9893 32.0581L34.3798 38.237H14.2871C14.9424 31.5844 14.8732 32.2538 14.9041 32.0581H34.9893Z" fill="url(#paint4_linear_395_478518)"/>
<path d="M35.1084 31.6636V32.4614H15.2588L13.6045 49.2573L13.6025 49.271L13.5986 49.2837L11.8857 54.2769H31.5371V55.0728H10.8701L10.8936 54.936L10.9648 54.52L10.9668 54.5103L10.9697 54.5015L12.8184 49.103C14.673 30.2764 14.4639 32.3029 14.5479 31.7632L14.5635 31.6636H35.1084Z" fill="#5E6175" stroke="#5E6175" stroke-width="0.23552"/>
<path d="M35.4951 31.6592L35.5049 31.7666L37.0947 49.1006L39.1289 54.917L39.1836 55.0732H31.3018V54.2764H38.0615L36.3184 49.2842L36.3135 49.2705L36.3125 49.2559C36.306 49.1863 34.74 32.1669 34.7334 32.0938L34.7236 31.9766L34.8408 31.9658L34.873 31.9629V31.6592H35.4951Z" fill="#5E6175" stroke="#5E6175" stroke-width="0.23552"/>
<path d="M14.8146 32.0591L13.2773 36.6137H33.606C35.1151 31.7136 34.9606 32.2416 34.9897 32.0591H14.8146Z" fill="#F5F5F5"/>
<path d="M35.458 31.6602L35.4355 31.7979L35.3545 32.2881L35.3535 32.2959L35.3506 32.3037L33.9268 36.9297L33.9014 37.0127H12.7227L12.7754 36.8574L14.502 31.7402L14.5293 31.6602H35.458ZM13.834 36.2148H33.3125L34.4697 32.458H15.1006L13.834 36.2148Z" fill="#5E6175" stroke="#5E6175" stroke-width="0.23552"/>
<path d="M22.9841 41.8387C23.1377 40.7414 22.6883 39.5918 21.9356 39.5918C21.1829 39.5918 20.4124 40.7405 20.2589 41.8387C20.1306 42.7618 20.4798 43.3534 21.0425 43.5173L19.8301 49.4556C19.8061 49.5489 19.8042 49.6465 19.8244 49.7407C19.8446 49.8349 19.8863 49.9232 19.9464 49.9985C20.0065 50.0738 20.0832 50.1342 20.1706 50.1748C20.2579 50.2154 20.3535 50.2352 20.4498 50.2326C20.6599 50.2269 20.8607 50.1449 21.0148 50.0019C21.1688 49.8589 21.2655 49.6647 21.2868 49.4556L21.7334 43.5173C22.3438 43.3534 22.8587 42.7627 22.9841 41.8387Z" fill="#F26921"/>
<path d="M27.4265 39.5929C27.3449 39.5951 27.2666 39.6259 27.2052 39.6797C27.1439 39.7336 27.1032 39.8072 27.0904 39.8878L26.8751 41.4288C26.8616 41.5127 26.8192 41.5893 26.7553 41.6454C26.6914 41.7014 26.6099 41.7334 26.5249 41.7358C26.4861 41.737 26.4475 41.7295 26.4119 41.7139C26.3764 41.6982 26.3447 41.6748 26.3193 41.6454C26.294 41.616 26.2755 41.5813 26.2652 41.5438C26.2549 41.5063 26.2532 41.467 26.26 41.4288L26.4753 39.8878C26.4819 39.8511 26.4802 39.8135 26.4703 39.7775C26.4605 39.7416 26.4428 39.7083 26.4185 39.6801C26.3942 39.6518 26.364 39.6294 26.3299 39.6143C26.2958 39.5992 26.2588 39.5919 26.2216 39.5929H26.1842C26.1025 39.5951 26.0243 39.6259 25.9629 39.6797C25.9015 39.7336 25.8609 39.8072 25.8481 39.8878L25.6327 41.4288C25.6193 41.5127 25.5769 41.5893 25.513 41.6454C25.4491 41.7014 25.3676 41.7334 25.2826 41.7358C25.2438 41.737 25.2052 41.7295 25.1696 41.7139C25.134 41.6982 25.1024 41.6748 25.077 41.6454C25.0516 41.616 25.0331 41.5813 25.0229 41.5438C25.0126 41.5063 25.0108 41.467 25.0177 41.4288L25.233 39.8878C25.2395 39.8511 25.2378 39.8135 25.228 39.7775C25.2182 39.7416 25.2005 39.7083 25.1762 39.6801C25.1519 39.6518 25.1216 39.6294 25.0876 39.6143C25.0535 39.5992 25.0165 39.5919 24.9793 39.5929C24.8977 39.5951 24.8194 39.6259 24.758 39.6797C24.6967 39.7336 24.656 39.8072 24.6432 39.8878L24.3623 41.895C24.2621 42.6187 24.6825 43.2235 25.3378 43.3761L24.0974 49.4557C24.0736 49.5491 24.0718 49.6466 24.0921 49.7407C24.1124 49.8348 24.1541 49.923 24.2142 49.9983C24.2742 50.0735 24.3509 50.1339 24.4381 50.1746C24.5254 50.2153 24.6209 50.2352 24.7171 50.2328C24.9272 50.2271 25.128 50.145 25.2821 50.002C25.4361 49.859 25.5328 49.6648 25.5541 49.4557L26.011 43.3761C26.3636 43.2954 26.6842 43.1114 26.9317 42.8476C27.1792 42.5838 27.3423 42.2521 27.4003 41.895L27.6811 39.8878C27.6877 39.851 27.686 39.8133 27.6761 39.7773C27.6662 39.7413 27.6484 39.708 27.6241 39.6797C27.5997 39.6514 27.5693 39.629 27.5351 39.614C27.5009 39.599 27.4638 39.5918 27.4265 39.5929Z" fill="#F26921"/>
<path d="M20.2852 30.4497L17.1016 23.5745L19.609 22.5947H20.4039L25.9971 26.7596L20.2852 30.4497ZM18.2235 24.0258L20.6371 29.2436L24.5467 26.7154L20.1307 23.4296H19.7663L18.2235 24.0258Z" fill="#5E6175"/>
<path d="M30.2564 30.4496L24.5391 26.7595L30.2895 22.6016H30.934L33.4401 23.5814L30.2564 30.4496ZM26.0046 26.714L29.9059 29.2435L32.3195 24.0326L30.7739 23.4227H30.5531L26.0046 26.714Z" fill="#5E6175"/>
<path d="M25.2728 23.4228C23.0044 23.4203 20.8296 22.518 19.2256 20.914C17.6216 19.31 16.7194 17.1352 16.7168 14.8668V10.7806C16.7168 8.51143 17.6182 6.33517 19.2228 4.73061C20.8274 3.12604 23.0036 2.22461 25.2728 2.22461C27.542 2.22461 29.7183 3.12604 31.3228 4.73061C32.9274 6.33517 33.8288 8.51143 33.8288 10.7806V14.8668C33.8263 17.1352 32.924 19.31 31.32 20.914C29.716 22.518 27.5412 23.4203 25.2728 23.4228ZM25.2728 3.05261C23.224 3.05517 21.2598 3.87019 19.8111 5.31892C18.3624 6.76765 17.5474 8.73181 17.5448 10.7806V14.8668C17.5448 16.9164 18.359 18.8821 19.8083 20.3313C21.2576 21.7806 23.2232 22.5948 25.2728 22.5948C27.3224 22.5948 29.2881 21.7806 30.7373 20.3313C32.1866 18.8821 33.0008 16.9164 33.0008 14.8668V10.7806C32.9986 8.7317 32.1837 6.76732 30.7349 5.31852C29.2861 3.86971 27.3217 3.0548 25.2728 3.05261Z" fill="#5E6175"/>
<path d="M35.1822 12.5001V13.6496C35.1823 13.8767 35.1376 14.1016 35.0507 14.3114C34.9638 14.5212 34.8364 14.7118 34.6757 14.8723L34.1237 15.4243C33.9207 15.6264 33.6709 15.7753 33.3965 15.8576C33.4213 15.4629 33.413 15.5361 33.413 10.7709C33.6434 10.7658 33.8725 10.8067 34.0868 10.8913C34.3012 10.9759 34.4965 11.1024 34.6613 11.2634C34.8261 11.4245 34.957 11.6169 35.0465 11.8292C35.1359 12.0416 35.1821 12.2697 35.1822 12.5001Z" fill="#F5F5F5"/>
<path d="M17.1461 15.8577C16.8782 15.7745 16.6344 15.6277 16.4354 15.4299L15.8834 14.8779C15.7225 14.7175 15.595 14.527 15.5081 14.3171C15.4211 14.1073 15.3766 13.8823 15.377 13.6552V12.5084C15.3768 12.2792 15.4221 12.0522 15.5104 11.8406C15.5986 11.629 15.728 11.4371 15.8911 11.276C16.0542 11.1148 16.2476 10.9877 16.4602 10.902C16.6728 10.8162 16.9003 10.7736 17.1296 10.7765C17.1296 15.7293 17.1227 15.492 17.1461 15.8577Z" fill="#F5F5F5"/>
<path d="M32.9492 16.4206C33.021 15.3097 33.003 16.2826 33.003 10.3486H33.4502C34.0191 10.3494 34.5645 10.5757 34.9667 10.978C35.369 11.3802 35.5953 11.9256 35.5961 12.4945V13.6496C35.5953 14.2189 35.369 14.7647 34.9668 15.1676C34.0408 16.0908 34.1402 16.066 32.9492 16.4206ZM33.831 11.2374C33.831 15.267 33.8172 15.1386 33.831 15.129L34.383 14.577C34.63 14.3304 34.769 13.9958 34.7694 13.6468V12.5001C34.7689 12.2168 34.6774 11.9413 34.5085 11.7139C34.3396 11.4866 34.1021 11.3195 33.831 11.2374Z" fill="#5E6175"/>
<path d="M17.5973 16.4205C16.4216 16.0631 16.5237 16.0976 15.5908 15.1619C15.3916 14.9625 15.2336 14.7259 15.1258 14.4654C15.0181 14.2049 14.9627 13.9258 14.9629 13.6439V12.4971C14.964 11.9281 15.1909 11.3828 15.5938 10.981C15.9966 10.5791 16.5425 10.3536 17.1116 10.354H17.5476C17.5435 16.3156 17.5256 15.3055 17.5973 16.4205ZM16.7155 11.2413C16.4475 11.3254 16.2133 11.4928 16.047 11.7191C15.8807 11.9455 15.791 12.219 15.7909 12.4999V13.6495C15.7913 13.9975 15.9291 14.3313 16.1745 14.5782L16.7155 15.1205V11.2413Z" fill="#5E6175"/>
<path d="M30.4365 7.27415C28.8615 6.22398 27.0109 5.66357 25.1179 5.66357C23.225 5.66357 21.3743 6.22398 19.7994 7.27415L16.2266 9.65465V9.95411C16.2266 12.2739 18.8486 13.6249 20.7337 12.3112L21.3271 11.8972C22.4402 11.1246 23.7629 10.7106 25.1179 10.7106C26.4729 10.7106 27.7956 11.1246 28.9088 11.8972L29.5022 12.3112C31.3928 13.6249 34.0093 12.2739 34.0093 9.95411V9.65465L30.4365 7.27415Z" fill="#F26921"/>
<path d="M33.9996 6.34807C33.9172 4.74678 33.2231 3.23828 32.0605 2.13402C30.898 1.02976 29.3558 0.414065 27.7523 0.414062H22.4821C19.1411 0.414062 16.2266 3.33691 16.2266 6.66962V9.65594L19.7994 7.27406C21.3745 6.22424 23.225 5.66404 25.1179 5.66404C27.0108 5.66404 28.8614 6.22424 30.4365 7.27406L34.0079 9.65594C34.0079 6.464 34.012 6.57716 33.9996 6.34807Z" fill="#DEE1EC"/>
<path d="M31.1361 13.2355C30.4677 13.2369 29.815 13.0332 29.2661 12.6518L28.6727 12.2378C27.6291 11.5127 26.3887 11.1241 25.1179 11.1241C23.8471 11.1241 22.6066 11.5127 21.563 12.2378L20.9696 12.6518C20.4769 12.9937 19.9001 13.1942 19.3016 13.2316C18.7031 13.2689 18.1058 13.1417 17.5744 12.8638C17.0431 12.5858 16.598 12.1677 16.2874 11.6547C15.9768 11.1417 15.8126 10.5535 15.8125 9.95387V9.43499L19.5689 6.9289C21.2121 5.83323 23.1429 5.24854 25.1179 5.24854C27.0929 5.24854 29.0237 5.83323 30.6669 6.9289L34.4232 9.43361V9.95249C34.4236 10.3841 34.3388 10.8115 34.1737 11.2102C34.0085 11.609 33.7664 11.9712 33.461 12.2762C33.1556 12.5812 32.7931 12.8229 32.3941 12.9875C31.9952 13.1522 31.5676 13.2364 31.1361 13.2355ZM29.1447 11.5588L29.7381 11.9728C30.112 12.232 30.5504 12.3824 31.0047 12.4072C31.4589 12.4319 31.9111 12.3302 32.311 12.1132C32.7108 11.8961 33.0425 11.5724 33.2693 11.178C33.496 10.7837 33.6089 10.3341 33.5952 9.87935L30.2073 7.61752C28.7002 6.61263 26.9293 6.07639 25.1179 6.07639C23.3064 6.07639 21.5355 6.61263 20.0284 7.61752L16.6405 9.87659C16.6405 12.0266 18.9272 13.0616 20.4976 11.9701L21.091 11.5561C22.2733 10.7347 23.6787 10.2947 25.1183 10.2952C26.5579 10.2957 27.9629 10.7366 29.1447 11.5588Z" fill="#5E6175"/>
<path d="M34.4218 10.4301L30.2059 7.619C28.6991 6.61405 26.9284 6.07776 25.1172 6.07776C23.3059 6.07776 21.5353 6.61405 20.0284 7.619L15.8125 10.4301V6.66956C15.8125 3.11743 18.9299 3.74977e-06 22.4821 3.74977e-06H27.7523C29.4625 -0.00180955 31.1079 0.654088 32.3479 1.83191C33.5879 3.00973 34.3275 4.61927 34.4136 6.32732C34.4136 6.70268 34.4218 4.98181 34.4218 10.4301ZM30.6655 6.93038L33.5938 8.8817C33.5938 6.52466 33.5938 6.58124 33.5869 6.36872C33.5111 4.87289 32.8632 3.46347 31.7771 2.43211C30.691 1.40076 29.25 0.826441 27.7523 0.828005H22.4821C19.3701 0.828005 16.6405 3.55765 16.6405 6.66956V8.87756L19.5702 6.92624C21.2135 5.83159 23.144 5.24785 25.1185 5.24858C27.093 5.24932 29.023 5.8345 30.6655 6.93038Z" fill="#5E6175"/>
<path d="M14.1304 49.302L16.446 50.9097C16.6395 51.0453 16.7765 51.2472 16.8312 51.4771C16.8859 51.707 16.8544 51.949 16.7427 52.1572C16.631 52.3654 16.4469 52.5255 16.2251 52.6072C16.0034 52.6888 15.7594 52.6863 15.5393 52.6002L14.6134 52.2745C14.4104 52.2038 14.189 52.2071 13.9882 52.2838C13.7874 52.3604 13.6201 52.5055 13.5158 52.6934C13.4116 52.8813 13.377 53.1 13.4182 53.311C13.4594 53.5219 13.5738 53.7115 13.7412 53.8463L14.2863 54.2824C14.7748 54.6731 15.3816 54.8862 16.0072 54.8869H18.2276C18.461 54.896 18.6819 54.9951 18.8438 55.1635C19.0057 55.3319 19.0962 55.5564 19.0962 55.7901C19.0962 56.0237 19.0057 56.2482 18.8438 56.4166C18.6819 56.585 18.461 56.6842 18.2276 56.6933H15.4248C13.8575 56.6935 12.3306 56.1963 11.064 55.2733C10.926 55.1753 8.68763 53.4199 8.67383 53.4199C8.67383 50.1079 11.1371 48.347 11.1233 48.3594C12.1984 48.3593 13.2477 48.6882 14.1304 49.302Z" fill="#F5F5F5"/>
<path d="M18.233 57.1074H15.4247C13.7694 57.1105 12.1562 56.5855 10.8197 55.6087L8.25977 53.6229V53.42C8.26089 52.3984 8.48947 51.3898 8.92891 50.4675C9.36835 49.5451 10.0076 48.7322 10.8004 48.0877L10.9756 47.9497H11.1233C12.2834 47.9481 13.416 48.3031 14.3677 48.9668L16.6819 50.5759C16.959 50.7688 17.1557 51.0565 17.2349 51.3847C17.3141 51.7129 17.2702 52.0587 17.1116 52.3567C16.953 52.6548 16.6906 52.8843 16.3742 53.0019C16.0577 53.1195 15.7091 53.1171 15.3944 52.995L14.4753 52.6707C14.3645 52.6323 14.2437 52.6342 14.1341 52.6761C14.0246 52.718 13.9333 52.7972 13.8764 52.8997C13.8195 53.0023 13.8006 53.1217 13.8231 53.2368C13.8456 53.3519 13.9079 53.4554 13.9992 53.5291L14.5512 53.9651C14.9658 54.2929 15.4786 54.4717 16.0071 54.473H18.2275C18.5695 54.4841 18.8938 54.6277 19.1317 54.8735C19.3697 55.1193 19.5028 55.4481 19.5028 55.7902C19.5028 56.1323 19.3697 56.4611 19.1317 56.7069C18.8938 56.9527 18.5695 57.0963 18.2275 57.1074H18.233ZM9.09053 53.2199L11.3151 54.9463C12.5075 55.816 13.9461 56.283 15.422 56.2794H18.2303C18.3555 56.2728 18.4735 56.2183 18.5598 56.1273C18.6461 56.0363 18.6942 55.9156 18.6942 55.7902C18.6942 55.6648 18.6461 55.5441 18.5598 55.4531C18.4735 55.3621 18.3555 55.3076 18.2303 55.301H16.0071C15.2867 55.3016 14.5873 55.0584 14.0227 54.611L13.4776 54.1763C13.2335 53.9806 13.0665 53.7049 13.006 53.398C12.9456 53.091 12.9956 52.7726 13.1472 52.499C13.2988 52.2253 13.5422 52.0141 13.8345 51.9026C14.1268 51.7911 14.4491 51.7865 14.7444 51.8896L15.6856 52.2208C15.8114 52.2706 15.9511 52.2724 16.0782 52.2259C16.2052 52.1794 16.3108 52.0879 16.3748 51.9687C16.4389 51.8495 16.4569 51.7109 16.4255 51.5793C16.3941 51.4477 16.3154 51.3323 16.2044 51.2548L13.8888 49.6457C13.1178 49.1078 12.2065 48.8066 11.2668 48.7791C10.612 49.3245 10.0797 50.002 9.70465 50.7672C9.32963 51.5325 9.12037 52.3683 9.09053 53.2199Z" fill="#5E6175"/>
<path d="M10.781 48.5899L9.20508 46.2591L10.7217 39.9897L11.5262 40.1843L10.0952 46.0976L11.4669 48.1262L10.781 48.5899Z" fill="#5E6175"/>
<path d="M35.8961 49.302L33.5818 50.9097C33.3883 51.0453 33.2513 51.2472 33.1966 51.4771C33.1419 51.707 33.1734 51.949 33.2851 52.1572C33.3968 52.3654 33.5809 52.5255 33.8027 52.6072C34.0244 52.6888 34.2684 52.6863 34.4885 52.6002L35.4144 52.2745C35.618 52.2003 35.8413 52.201 36.0444 52.2765C36.2475 52.3519 36.4172 52.4972 36.5229 52.6863C36.6287 52.8754 36.6637 53.096 36.6216 53.3085C36.5796 53.5211 36.4633 53.7117 36.2935 53.8463L35.7415 54.2824C35.2518 54.674 34.6435 54.8871 34.0165 54.8869H31.7947C31.6731 54.8821 31.5518 54.9019 31.4381 54.9452C31.3244 54.9884 31.2205 55.0542 31.1328 55.1385C31.0451 55.2229 30.9754 55.3241 30.9277 55.436C30.88 55.548 30.8555 55.6684 30.8555 55.7901C30.8555 55.9117 30.88 56.0322 30.9277 56.1441C30.9754 56.2561 31.0451 56.3572 31.1328 56.4416C31.2205 56.5259 31.3244 56.5917 31.4381 56.6349C31.5518 56.6782 31.6731 56.698 31.7947 56.6933H34.603C36.1702 56.6933 37.6971 56.1961 38.9638 55.2733C38.9776 55.2636 41.3678 53.4199 41.354 53.4199C41.354 50.1079 38.8907 48.347 38.9045 48.3594C37.829 48.3593 36.7792 48.6882 35.8961 49.302Z" fill="#F5F5F5"/>
<path d="M34.6044 57.1076H31.7961C31.6195 57.1133 31.4436 57.0834 31.2788 57.0198C31.114 56.9562 30.9637 56.8601 30.8367 56.7372C30.7098 56.6143 30.6089 56.4672 30.54 56.3045C30.4711 56.1419 30.4355 55.967 30.4355 55.7903C30.4355 55.6137 30.4711 55.4388 30.54 55.2762C30.6089 55.1135 30.7098 54.9664 30.8367 54.8435C30.9637 54.7206 31.114 54.6245 31.2788 54.5609C31.4436 54.4973 31.6195 54.4674 31.7961 54.4731H34.0165C34.5494 54.4726 35.0665 54.2916 35.4835 53.9598L36.0286 53.5237C36.089 53.4757 36.1375 53.4143 36.1701 53.3444C36.2027 53.2744 36.2185 53.1979 36.2164 53.1207C36.2142 53.0436 36.1941 52.968 36.1577 52.9C36.1213 52.832 36.0695 52.7733 36.0065 52.7288C35.9417 52.682 35.8665 52.6517 35.7873 52.6407C35.7082 52.6296 35.6276 52.6381 35.5525 52.6653L34.6389 52.9896C34.3243 53.1108 33.9762 53.1126 33.6604 52.9947C33.3445 52.8767 33.0828 52.6473 32.9245 52.3496C32.7662 52.052 32.7224 51.7066 32.8013 51.3789C32.8802 51.0511 33.0764 50.7635 33.3527 50.5705L35.667 48.9614C36.6186 48.2978 37.7512 47.9427 38.9114 47.9443H39.0549L39.2302 48.0823C40.0229 48.7268 40.6622 49.5398 41.1016 50.4621C41.541 51.3844 41.7696 52.393 41.7707 53.4147V53.6175L39.2191 55.602C37.8806 56.5828 36.2638 57.1103 34.6044 57.1076ZM31.7961 55.3011C31.7297 55.2976 31.6632 55.3076 31.6008 55.3306C31.5384 55.3536 31.4813 55.3891 31.433 55.4349C31.3847 55.4806 31.3463 55.5358 31.32 55.5969C31.2937 55.658 31.2802 55.7238 31.2802 55.7903C31.2802 55.8569 31.2937 55.9227 31.32 55.9838C31.3463 56.0449 31.3847 56.1001 31.433 56.1458C31.4813 56.1916 31.5384 56.2271 31.6008 56.2501C31.6632 56.273 31.7297 56.2831 31.7961 56.2796H34.6044C36.0842 56.2825 37.5264 55.813 38.7209 54.9396L40.9372 53.2201C40.9079 52.3676 40.6987 51.5309 40.3234 50.7649C39.9481 49.9989 39.4152 49.3208 38.7596 48.7751C37.8199 48.8026 36.9086 49.1038 36.1376 49.6417L33.8233 51.2508C33.713 51.3284 33.635 51.4437 33.6039 51.5749C33.5727 51.7061 33.5907 51.8441 33.6544 51.9629C33.718 52.0818 33.823 52.1732 33.9495 52.22C34.0759 52.2668 34.2151 52.2656 34.3408 52.2168L35.282 51.8856C35.5774 51.7818 35.9001 51.7859 36.1928 51.8972C36.4856 52.0085 36.7295 52.2197 36.8814 52.4936C37.0333 52.7675 37.0833 53.0863 37.0227 53.3935C36.9621 53.7007 36.7947 53.9766 36.5502 54.1723L36.0051 54.607C35.4404 55.0542 34.741 55.2974 34.0207 55.297L31.7961 55.3011Z" fill="#5E6175"/>
<path d="M39.2472 48.5899L38.5613 48.1262L39.933 46.0976L38.502 40.1843L39.3065 39.9897L40.8245 46.2591L39.2472 48.5899Z" fill="#5E6175"/>
<path d="M24.8574 26.7334H25.6854V31.6324H24.8574V26.7334Z" fill="#5E6175"/>
<path d="M8.75528 21.76C8.3959 21.7601 8.045 21.6508 7.74921 21.4467C7.45341 21.2426 7.22673 20.9533 7.09928 20.6173C6.53762 19.1504 8.03768 17.7193 9.48254 18.3596C9.85437 18.5257 10.1579 18.8145 10.3423 19.1775C10.5267 19.5406 10.5809 19.956 10.4957 20.3543C10.4106 20.7525 10.1912 21.1094 9.8744 21.3653C9.55759 21.6212 9.16252 21.7605 8.75528 21.76ZM8.75528 19.0331C8.58427 19.0325 8.41627 19.078 8.26903 19.165C8.12179 19.252 8.00077 19.3771 7.91876 19.5272C7.83675 19.6773 7.7968 19.8467 7.80312 20.0176C7.80943 20.1885 7.86179 20.3545 7.95465 20.4981C8.04752 20.6417 8.17744 20.7575 8.3307 20.8334C8.48396 20.9093 8.65487 20.9423 8.82537 20.9291C8.99587 20.9159 9.15963 20.8568 9.29935 20.7582C9.43907 20.6596 9.54956 20.5251 9.61916 20.3689C9.6832 20.2249 9.71047 20.0673 9.69849 19.9102C9.68652 19.7531 9.6357 19.6014 9.55058 19.4688C9.46547 19.3362 9.34873 19.2269 9.21087 19.1506C9.07302 19.0743 8.91836 19.0334 8.7608 19.0317L8.75528 19.0331Z" fill="#5E6175"/>
<path d="M0.0898893 25.0858C0.00989678 24.8768 -0.017307 24.6513 0.0106886 24.4292C0.0386842 24.2072 0.121015 23.9955 0.250386 23.8129C0.379756 23.6303 0.552172 23.4824 0.752358 23.3823C0.952544 23.2823 1.17432 23.2331 1.39803 23.2393C1.62174 23.2454 1.84049 23.3067 2.03488 23.4175C2.22927 23.5284 2.39332 23.6856 2.51247 23.875C2.63163 24.0644 2.70221 24.2803 2.71798 24.5036C2.73375 24.7268 2.69422 24.9505 2.60287 25.1548C2.49211 25.3994 2.31161 25.6058 2.08401 25.7482C1.8564 25.8906 1.59183 25.9626 1.32346 25.9552C1.05508 25.9479 0.794861 25.8614 0.575415 25.7067C0.355968 25.5521 0.187067 25.3361 0.0898893 25.0858ZM1.36225 24.0674C1.26629 24.067 1.172 24.0925 1.08934 24.1412C1.00669 24.19 0.938741 24.2602 0.892684 24.3444C0.846626 24.4286 0.824168 24.5236 0.827683 24.6196C0.831197 24.7155 0.860554 24.8086 0.91265 24.8892C0.964747 24.9698 1.03765 25.0348 1.12365 25.0774C1.20965 25.12 1.30556 25.1386 1.40124 25.1311C1.49691 25.1237 1.58881 25.0906 1.66721 25.0352C1.74561 24.9799 1.8076 24.9044 1.84663 24.8167C1.88267 24.7358 1.89795 24.6471 1.89109 24.5588C1.88423 24.4705 1.85545 24.3853 1.80736 24.3109C1.75927 24.2365 1.69338 24.1752 1.61566 24.1327C1.53794 24.0902 1.45084 24.0677 1.36225 24.0674Z" fill="#5E6175"/>
<path d="M49.5762 50.0835L50.1616 49.4981L52.0719 51.4084L51.4865 51.9938L49.5762 50.0835Z" fill="#5E6175"/>
<path d="M51.2969 47.1519H53.9989V47.9799H51.2969V47.1519Z" fill="#5E6175"/>
<path d="M47.4043 51.2822H48.2323V53.9843H47.4043V51.2822Z" fill="#5E6175"/>
<defs>
<linearGradient id="paint0_linear_395_478518" x1="25.3466" y1="21.7295" x2="25.3466" y2="27.6221" gradientUnits="userSpaceOnUse">
<stop stop-color="#CACFDD"/>
<stop offset="1" stop-color="#EEF0F1"/>
</linearGradient>
<linearGradient id="paint1_linear_395_478518" x1="31.4199" y1="43.3665" x2="38.6221" y2="43.3665" gradientUnits="userSpaceOnUse">
<stop stop-color="#A9AFC4"/>
<stop offset="1" stop-color="#D4D8E5"/>
</linearGradient>
<linearGradient id="paint2_linear_395_478518" x1="34.9902" y1="43.3665" x2="38.6218" y2="43.3665" gradientUnits="userSpaceOnUse">
<stop stop-color="#CACFDD"/>
<stop offset="1" stop-color="#EEF0F1"/>
</linearGradient>
<linearGradient id="paint3_linear_395_478518" x1="23.1619" y1="32.4457" x2="23.1619" y2="53.5055" gradientUnits="userSpaceOnUse">
<stop stop-color="#CACFDD"/>
<stop offset="1" stop-color="#EEF0F1"/>
</linearGradient>
<linearGradient id="paint4_linear_395_478518" x1="14.2871" y1="35.1494" x2="34.9893" y2="35.1494" gradientUnits="userSpaceOnUse">
<stop stop-color="#CACFDD"/>
<stop offset="1" stop-color="#EEF0F1"/>
</linearGradient>
</defs>
</svg>
