<svg width="60" height="60" viewBox="0 0 60 60" fill="none" xmlns="http://www.w3.org/2000/svg">
<path d="M17.8824 35.0833L18.8668 33.8036C19.4117 33.0933 19.7808 32.264 19.9437 31.3837L20.9609 25.8911H21.4965C22.3534 25.892 23.1748 26.2331 23.7804 26.8393C24.386 27.4456 24.7262 28.2674 24.7262 29.1243V33.5048C24.726 33.9511 24.8198 34.3925 25.0015 34.8001C25.1832 35.2078 25.4488 35.5726 25.7809 35.8708C26.365 36.3933 27.1218 36.6813 27.9055 36.6794H28.1398C28.5636 36.6794 28.9832 36.5947 29.3738 36.4303C29.7644 36.2659 30.1182 36.0251 30.4145 35.722L32.6949 33.6606C33.2629 33.147 33.7069 32.5111 33.9934 31.8009L35.7781 27.3817C35.9366 26.9449 36.2257 26.5674 36.6063 26.3007C36.9869 26.034 37.4404 25.891 37.9051 25.8911C38.2566 25.8912 38.6033 25.9731 38.9177 26.1304C39.2321 26.2878 39.5055 26.5161 39.7164 26.7974C39.9272 27.0788 40.0696 27.4053 40.1323 27.7512C40.195 28.0971 40.1764 28.4529 40.0777 28.7903L38.4805 33.4063C38.2883 33.9614 38.0012 34.4788 37.632 34.9356L33.8961 39.5517C33.0384 40.6122 31.9829 41.4962 30.7883 42.1544L23.0363 46.4282L17.2437 44.8063L15.8867 40.5021L16.9414 36.9255C17.1396 36.259 17.4585 35.6345 17.8824 35.0833Z" fill="#F5F5F5"/>
<path style="mix-blend-mode:multiply" d="M24.6293 28.3312H20.5078L20.959 25.8901H21.4945C22.2141 25.8905 22.913 26.1307 23.4807 26.5728C24.0484 27.0149 24.4526 27.6336 24.6293 28.3312Z" fill="url(#paint0_linear_395_478580)"/>
<path style="mix-blend-mode:multiply" d="M40.1695 28.1509C40.1695 28.2107 40.1695 28.2681 40.1613 28.3314H35.3906L35.7738 27.381C35.9555 26.8808 36.3075 26.4605 36.7682 26.194C37.2288 25.9275 37.7687 25.8318 38.2929 25.9237C38.8171 26.0155 39.2922 26.2892 39.6347 26.6965C39.9773 27.1038 40.1654 27.6187 40.166 28.1509H40.1695Z" fill="url(#paint1_linear_395_478580)"/>
<path d="M23.0766 46.8058L16.9629 45.0937L15.5156 40.5058L16.6055 36.8261C16.8144 36.1184 17.1521 35.4554 17.6016 34.8702L18.5836 33.5905C19.0937 32.9236 19.4398 32.146 19.5938 31.3206L20.6648 25.5397H21.4922C22.4424 25.541 23.3534 25.9191 24.0252 26.5911C24.697 27.2632 25.0749 28.1743 25.0758 29.1245V33.505C25.0767 34.2542 25.3751 34.9724 25.9053 35.5018C26.4356 36.0312 27.1543 36.3283 27.9035 36.328H28.1379C28.5147 36.3271 28.8875 36.2514 29.2347 36.1051C29.582 35.9588 29.8967 35.745 30.1605 35.4761L30.177 35.4608L32.4586 33.3983C32.9859 32.9197 33.3988 32.3285 33.6668 31.6687L35.4492 27.2542C35.6342 26.7517 35.9687 26.318 36.4076 26.0112C36.8465 25.7045 37.3688 25.5396 37.9043 25.5386C38.3105 25.5384 38.7112 25.6329 39.0745 25.8145C39.4378 25.9962 39.7538 26.26 39.9975 26.5851C40.2411 26.9101 40.4056 27.2875 40.478 27.6872C40.5504 28.0869 40.5286 28.498 40.4145 28.8878L40.4086 28.9042L38.8113 33.5202C38.6071 34.1159 38.3001 34.6711 37.9043 35.1608L34.166 39.7733C33.2805 40.8695 32.1899 41.7826 30.9551 42.4616L23.0766 46.8058ZM17.5195 44.5194L22.9887 46.0546L30.6164 41.8499C31.7713 41.214 32.7915 40.3595 33.6199 39.3339L37.3547 34.7179C37.6996 34.2938 37.967 33.8122 38.1445 33.2952L39.7395 28.6874C39.8765 28.2112 39.8233 27.7004 39.591 27.2626C39.3587 26.8249 38.9655 26.4945 38.4943 26.3412C38.0231 26.1878 37.5107 26.2234 37.0653 26.4406C36.6198 26.6577 36.2761 27.0393 36.1066 27.505V27.5167L34.316 31.9335C34.009 32.6936 33.5343 33.3746 32.9273 33.9257L30.6527 35.9765C30.3234 36.3098 29.9313 36.5747 29.4991 36.7557C29.0668 36.9367 28.603 37.0304 28.1344 37.0312H27.9C26.9648 37.0308 26.068 36.6593 25.4065 35.9981C24.7451 35.3369 24.3733 34.4402 24.3727 33.505V29.1245C24.3717 28.3605 24.0678 27.6281 23.5276 27.0879C22.9874 26.5477 22.255 26.2438 21.491 26.2429H21.2484L20.284 31.4483C20.1095 32.3828 19.7177 33.2632 19.1402 34.0183L18.1617 35.2979C17.7633 35.8164 17.4641 36.404 17.2793 37.0312L16.2516 40.5034L17.5195 44.5194Z" fill="#5E6175"/>
<path d="M15.4934 38.8853L23.9461 47.3392L19.6934 51.5919L11.3086 43.206L15.4934 38.8853Z" fill="#F5F5F5"/>
<path d="M19.6906 52.0887L10.8125 43.2105L15.4859 38.3848L24.4402 47.3438L19.6906 52.0887ZM11.7992 43.2023L19.6906 51.0938L23.4406 47.3379L15.4941 39.3867L11.7992 43.2023Z" fill="#5E6175"/>
<path d="M16.0539 55.7895H6.63672V45.3223L11.3664 42.7734L20.1836 51.5895L16.0539 55.7895ZM7.34336 55.0863H15.7598L19.2004 51.593L11.2492 43.6406L7.33984 45.743L7.34336 55.0863Z" fill="#5E6175"/>
<path d="M19.6937 51.5918L15.9051 55.4379H6.98828V45.5332L11.309 43.207L19.6937 51.5918Z" fill="#5E6175"/>
<path d="M4.21875 23.2173C5.25234 24.8474 6.94336 25.8915 8.90625 25.8915H51.0938C52.0402 25.8921 52.9704 25.6457 53.7925 25.1767C54.6146 24.7077 55.3001 24.0323 55.7812 23.2173H4.21875Z" fill="#DEE1EC"/>
<path d="M51.0934 26.2431H8.90586C6.88438 26.2431 5.06797 25.2083 3.92539 23.4048L3.58203 22.8657H56.3973L56.0832 23.3954C55.5695 24.2617 54.8395 24.9796 53.9647 25.4788C53.09 25.978 52.1005 26.2414 51.0934 26.2431ZM4.90039 23.5688C5.90937 24.8286 7.33789 25.5399 8.90234 25.5399H51.0934C51.8692 25.5381 52.6344 25.3596 53.331 25.0181C54.0276 24.6766 54.6374 24.181 55.1141 23.5688H4.90039Z" fill="#5E6175"/>
<path d="M44.9727 11.809C43.8695 10.5152 42.4988 9.47618 40.9551 8.76361C39.4114 8.05104 37.7315 7.68189 36.0312 7.68164H23.9727C22.2724 7.68189 20.5925 8.05104 19.0488 8.76361C17.5051 9.47618 16.1344 10.5152 15.0312 11.809C13.217 13.9351 12.2198 16.6382 12.2188 19.4332V23.2172H47.7816V19.4332C47.7805 16.6382 46.7834 13.9351 44.9691 11.809H44.9727Z" fill="#A9AFC4"/>
<path d="M48.1297 23.5687H11.8672V19.4332C11.8669 17.8438 12.1797 16.2699 12.7877 14.8014C13.3958 13.333 14.2872 11.9987 15.411 10.8747C16.5348 9.7508 17.869 8.85928 19.3375 8.25108C20.8059 7.64288 22.3797 7.32992 23.9691 7.33008H36.0277C37.7783 7.32966 39.5081 7.70953 41.0975 8.44341C42.6869 9.17728 44.0978 10.2476 45.2328 11.5805C47.0988 13.7711 48.124 16.5544 48.125 19.432L48.1297 23.5687ZM12.5703 22.8656H47.4266V19.4332C47.4256 16.7226 46.4598 14.1009 44.702 12.0375C43.6328 10.7817 42.3036 9.77321 40.8063 9.08181C39.309 8.39042 37.6793 8.03263 36.0301 8.0332H23.9691C20.9459 8.03351 18.0465 9.23472 15.9089 11.3726C13.7712 13.5105 12.5703 16.4099 12.5703 19.4332V22.8656Z" fill="#5E6175"/>
<path d="M29.9973 8.03311C29.6192 8.03311 29.2497 7.92101 28.9354 7.71099C28.6211 7.50097 28.3761 7.20246 28.2314 6.85321C28.0868 6.50396 28.0489 6.11966 28.1227 5.7489C28.1964 5.37813 28.3784 5.03757 28.6458 4.77027C28.9131 4.50296 29.2536 4.32092 29.6244 4.24718C29.9951 4.17343 30.3795 4.21128 30.7287 4.35594C31.078 4.50061 31.3765 4.74558 31.5865 5.0599C31.7965 5.37422 31.9086 5.74375 31.9086 6.12178C31.9083 6.6286 31.7068 7.11457 31.3484 7.47295C30.9901 7.83132 30.5041 8.0328 29.9973 8.03311ZM29.9973 4.91358C29.7583 4.91358 29.5247 4.98444 29.326 5.11719C29.1273 5.24995 28.9725 5.43865 28.881 5.65942C28.7896 5.88019 28.7657 6.12312 28.8123 6.35749C28.8589 6.59186 28.974 6.80714 29.1429 6.97611C29.3119 7.14508 29.5272 7.26015 29.7616 7.30677C29.9959 7.35338 30.2389 7.32946 30.4596 7.23801C30.6804 7.14657 30.8691 6.99171 31.0019 6.79302C31.1346 6.59433 31.2055 6.36074 31.2055 6.12178C31.2052 5.80144 31.0778 5.49431 30.8513 5.26779C30.6247 5.04128 30.3176 4.91389 29.9973 4.91358Z" fill="#5E6175"/>
<path d="M29.9973 7.68154C30.8587 7.68154 31.557 6.98321 31.557 6.12178C31.557 5.26034 30.8587 4.56201 29.9973 4.56201C29.1358 4.56201 28.4375 5.26034 28.4375 6.12178C28.4375 6.98321 29.1358 7.68154 29.9973 7.68154Z" fill="#F26921"/>
<path d="M48.1777 20.271H11.8168C11.0033 20.271 10.3438 20.9305 10.3438 21.744C10.3438 22.5576 11.0033 23.2171 11.8168 23.2171H48.1777C48.9913 23.2171 49.6508 22.5576 49.6508 21.744C49.6508 20.9305 48.9913 20.271 48.1777 20.271Z" fill="#F26921"/>
<path d="M49.6522 21.7442C49.6522 22.1349 49.497 22.5096 49.2207 22.7858C48.9445 23.0621 48.5698 23.2173 48.1791 23.2173H11.8182C11.5598 23.217 11.3061 23.1488 11.0824 23.0194C10.8588 22.89 10.6732 22.704 10.5442 22.4802C10.4152 22.2563 10.3474 22.0024 10.3477 21.7441C10.3479 21.4857 10.4161 21.2319 10.5455 21.0083C10.6097 21.1198 10.6886 21.2223 10.7799 21.313C10.9162 21.4501 11.0784 21.5588 11.257 21.6328C11.4357 21.7068 11.6272 21.7447 11.8205 21.7442H48.1791C48.4372 21.744 48.6906 21.6759 48.914 21.5467C49.1374 21.4175 49.3229 21.2318 49.4518 21.0083C49.5824 21.2316 49.6515 21.4855 49.6522 21.7442Z" fill="#F26921"/>
<path d="M48.1777 23.5687H11.8168C11.5772 23.5687 11.3399 23.5215 11.1185 23.4298C10.8972 23.3381 10.696 23.2037 10.5266 23.0342C10.3572 22.8648 10.2228 22.6637 10.1311 22.4423C10.0394 22.2209 9.99219 21.9837 9.99219 21.744C9.99219 21.5044 10.0394 21.2672 10.1311 21.0458C10.2228 20.8244 10.3572 20.6233 10.5266 20.4538C10.696 20.2844 10.8972 20.15 11.1185 20.0583C11.3399 19.9666 11.5772 19.9194 11.8168 19.9194H48.1777C48.6617 19.9194 49.1257 20.1117 49.4679 20.4538C49.8101 20.796 50.0023 21.2601 50.0023 21.744C50.0023 22.228 49.8101 22.6921 49.4679 23.0342C49.1257 23.3764 48.6617 23.5687 48.1777 23.5687ZM11.8168 20.6249C11.5194 20.6249 11.2341 20.7431 11.0238 20.9534C10.8135 21.1637 10.6953 21.449 10.6953 21.7464C10.6953 22.0438 10.8135 22.3291 11.0238 22.5394C11.2341 22.7497 11.5194 22.8679 11.8168 22.8679H48.1777C48.4752 22.8679 48.7604 22.7497 48.9707 22.5394C49.1811 22.3291 49.2992 22.0438 49.2992 21.7464C49.2992 21.449 49.1811 21.1637 48.9707 20.9534C48.7604 20.7431 48.4752 20.6249 48.1777 20.6249H11.8168Z" fill="#5E6175"/>
<path d="M11.6094 7.76758L12.1065 7.27047L13.8472 9.01118L13.3501 9.50829L11.6094 7.76758Z" fill="#5E6175"/>
<path d="M9.85156 10.938H12.3137V11.6411H9.85156V10.938Z" fill="#5E6175"/>
<path d="M15.1328 5.44092H15.8359V7.90303H15.1328V5.44092Z" fill="#5E6175"/>
<path d="M49.7859 16.9793C49.7461 16.7566 49.7004 16.5305 49.6488 16.3078L50.3344 16.1496C50.3883 16.384 50.4363 16.6184 50.4785 16.8527L49.7859 16.9793ZM49.3465 15.2062C49.2773 14.9895 49.2023 14.7715 49.1227 14.557L49.7812 14.3121C49.8645 14.5359 49.9441 14.7656 50.0156 14.993L49.3465 15.2062ZM48.6809 13.5012C48.5859 13.2949 48.484 13.0875 48.3785 12.8848L49.002 12.5602C49.1121 12.7723 49.2187 12.9891 49.3195 13.2059L48.6809 13.5012ZM47.8102 11.8875C47.693 11.693 47.5652 11.4984 47.4363 11.3086L48.0223 10.9148C48.157 11.1129 48.2883 11.3156 48.4125 11.5184L47.8102 11.8875ZM46.7555 10.3816C46.6137 10.2012 46.466 10.0219 46.3184 9.84961L46.8527 9.39141C47.0062 9.57187 47.1598 9.7582 47.3086 9.94687L46.7555 10.3816ZM45.5402 9.01055C45.2391 8.71172 45.048 8.55352 45.0469 8.55117L45.4934 8.00977C45.5027 8.0168 45.709 8.18672 46.0348 8.51133L45.5402 9.01055Z" fill="#A9AFC4"/>
<path d="M37.8244 42.8564C37.4943 42.856 37.1774 42.7272 36.9406 42.4973C36.7037 42.2674 36.5656 41.9545 36.5553 41.6246C36.545 41.2947 36.6634 40.9737 36.8855 40.7296C37.1075 40.4854 37.4158 40.3371 37.7452 40.3161C38.0746 40.295 38.3992 40.4029 38.6505 40.6169C38.9018 40.8309 39.06 41.1342 39.0918 41.4627C39.1235 41.7912 39.0263 42.1192 38.8206 42.3773C38.6149 42.6354 38.3169 42.8035 37.9896 42.8459C37.9348 42.8529 37.8796 42.8564 37.8244 42.8564ZM37.8244 41.0213C37.8002 41.0196 37.7759 41.0196 37.7517 41.0213C37.678 41.0314 37.6069 41.0559 37.5427 41.0935C37.4784 41.131 37.4222 41.1809 37.3773 41.2402C37.3323 41.2996 37.2995 41.3672 37.2807 41.4392C37.2619 41.5112 37.2575 41.5862 37.2677 41.66C37.2766 41.7336 37.3002 41.8048 37.337 41.8692C37.3738 41.9336 37.4232 41.9899 37.4822 42.035C37.5532 42.0899 37.6363 42.1272 37.7246 42.1437C37.8129 42.1602 37.9039 42.1554 37.99 42.1298C38.0761 42.1042 38.1548 42.0584 38.2197 41.9963C38.2847 41.9343 38.3339 41.8576 38.3633 41.7728C38.3927 41.6879 38.4015 41.5972 38.389 41.5083C38.3765 41.4193 38.343 41.3347 38.2912 41.2612C38.2395 41.1878 38.171 41.1278 38.0914 41.086C38.0119 41.0443 37.9236 41.0221 37.8338 41.0213H37.8244Z" fill="#5E6175"/>
<path d="M42.7912 36.0692C42.551 36.0688 42.3191 35.9809 42.139 35.822C41.9589 35.663 41.8429 35.4438 41.8127 35.2055C41.7878 35.0115 41.8211 34.8144 41.9083 34.6393C41.9954 34.4641 42.1326 34.3187 42.3023 34.2215C42.4721 34.1243 42.6669 34.0797 42.8621 34.0932C43.0573 34.1067 43.244 34.1778 43.3988 34.2975C43.5536 34.4171 43.6693 34.58 43.7315 34.7655C43.7937 34.951 43.7995 35.1508 43.7481 35.3396C43.6968 35.5283 43.5906 35.6976 43.443 35.826C43.2954 35.9545 43.113 36.0362 42.919 36.061C42.8766 36.0666 42.8339 36.0694 42.7912 36.0692ZM42.51 35.1165C42.5145 35.1537 42.5264 35.1896 42.5449 35.2222C42.5634 35.2548 42.5882 35.2833 42.6178 35.3063C42.6628 35.3417 42.7174 35.3627 42.7745 35.3667C42.8316 35.3706 42.8886 35.3574 42.9381 35.3286C42.9876 35.2998 43.0273 35.2568 43.0521 35.2052C43.0769 35.1536 43.0856 35.0957 43.0772 35.0391C43.0727 35.0018 43.0607 34.9657 43.042 34.9331C43.0233 34.9005 42.9982 34.872 42.9682 34.8493C42.9234 34.8148 42.8695 34.7943 42.8131 34.7905C42.7567 34.7866 42.7005 34.7996 42.6515 34.8276C42.6025 34.8557 42.5629 34.8977 42.5377 34.9483C42.5125 34.9988 42.5029 35.0557 42.51 35.1118V35.1165Z" fill="#5E6175"/>
<defs>
<linearGradient id="paint0_linear_395_478580" x1="20.5078" y1="27.1112" x2="24.6293" y2="27.1112" gradientUnits="userSpaceOnUse">
<stop stop-color="#CACFDD"/>
<stop offset="1" stop-color="#EEF0F1"/>
</linearGradient>
<linearGradient id="paint1_linear_395_478580" x1="35.3941" y1="27.1115" x2="40.1695" y2="27.1115" gradientUnits="userSpaceOnUse">
<stop stop-color="#CACFDD"/>
<stop offset="1" stop-color="#EEF0F1"/>
</linearGradient>
</defs>
</svg>
