<svg width="20" height="20" viewBox="0 0 20 20" fill="none" xmlns="http://www.w3.org/2000/svg">
<g clip-path="url(#clip0_432_8742)">
<path d="M9.44141 0.131836C9.75006 -0.176796 10.2499 -0.176758 10.5586 0.131836L19.8682 9.44141C20.1769 9.75016 20.1768 10.2498 19.8682 10.5586L10.5586 19.8682C10.4043 20.0225 10.2021 20.0996 10 20.0996C9.7979 20.0996 9.59572 20.0225 9.44141 19.8682L0.131836 10.5586C-0.176803 10.2499 -0.176781 9.75022 0.131836 9.44141L9.44141 0.131836ZM1.80859 10L10 18.1914L18.1914 10L10 1.80859L1.80859 10Z" fill="#F26921" stroke="#F26921" stroke-width="0.2"/>
<path d="M10.5996 5.85449C10.8891 5.56487 11.3476 5.54649 11.6582 5.7998L11.7178 5.85449L13.4619 7.59863C13.6101 7.74693 13.6934 7.94765 13.6934 8.15723C13.6934 8.367 13.6101 8.56859 13.4619 8.7168L11.7109 10.4678C11.5566 10.6221 11.3535 10.6992 11.1514 10.6992C10.9493 10.6991 10.7471 10.622 10.5928 10.4678C10.2841 10.1591 10.284 9.65835 10.5928 9.34961L10.9941 8.94824H9.27441C9.02025 8.9484 8.81366 9.15498 8.81348 9.40918V13.0381C8.81342 13.4748 8.45904 13.8281 8.02246 13.8281C7.58596 13.828 7.23248 13.4747 7.23242 13.0381V9.40918C7.23261 8.28296 8.14828 7.36735 9.27441 7.36719H10.9951L10.5996 6.97266C10.2909 6.66408 10.2911 6.16327 10.5996 5.85449Z" fill="#F26921" stroke="#F26921" stroke-width="0.2"/>
</g>
<defs>
<clipPath id="clip0_432_8742">
<rect width="20" height="20" fill="white"/>
</clipPath>
</defs>
</svg>
