<svg width="14" height="8" viewBox="0 0 14 8" fill="none" xmlns="http://www.w3.org/2000/svg">
<path d="M13.7108 0.295798C13.6178 0.20207 13.5072 0.127675 13.3854 0.0769067C13.2635 0.026138 13.1328 0 13.0008 0C12.8688 0 12.7381 0.026138 12.6162 0.0769067C12.4944 0.127675 12.3838 0.20207 12.2908 0.295798L7.71079 4.8758C7.61783 4.96953 7.50723 5.04392 7.38537 5.09469C7.26351 5.14546 7.1328 5.1716 7.00079 5.1716C6.86878 5.1716 6.73807 5.14546 6.61622 5.09469C6.49436 5.04392 6.38376 4.96953 6.29079 4.8758L1.71079 0.295798C1.61783 0.20207 1.50723 0.127675 1.38537 0.0769067C1.26351 0.026138 1.1328 0 1.00079 0C0.868781 0 0.738075 0.026138 0.616216 0.0769067C0.494356 0.127675 0.383755 0.20207 0.290792 0.295798C0.104542 0.483161 0 0.736612 0 1.0008C0 1.26498 0.104542 1.51844 0.290792 1.7058L4.88079 6.2958C5.44329 6.8576 6.20579 7.17316 7.00079 7.17316C7.79579 7.17316 8.55829 6.8576 9.12079 6.2958L13.7108 1.7058C13.897 1.51844 14.0016 1.26498 14.0016 1.0008C14.0016 0.736612 13.897 0.483161 13.7108 0.295798Z" fill="#42695A"/>
</svg>
