<svg width="36" height="36" viewBox="0 0 36 36" fill="none" xmlns="http://www.w3.org/2000/svg">
<circle opacity="0.05" cx="18" cy="18" r="18" fill="#677381"/>
<path opacity="0.2" d="M27.2813 18.125C27.2813 19.905 26.7534 21.6451 25.7645 23.1251C24.7755 24.6052 23.3699 25.7587 21.7254 26.4399C20.0809 27.1211 18.2713 27.2993 16.5254 26.9521C14.7796 26.6048 13.176 25.7476 11.9173 24.489C10.6586 23.2303 9.80145 21.6266 9.45419 19.8808C9.10692 18.135 9.28515 16.3254 9.96634 14.6808C10.6475 13.0363 11.8011 11.6307 13.2811 10.6418C14.7612 9.65284 16.5012 9.125 18.2813 9.125C20.6682 9.125 22.9574 10.0732 24.6452 11.761C26.333 13.4489 27.2813 15.7381 27.2813 18.125Z" fill="#677381"/>
<path d="M18.2813 8.375C16.3529 8.375 14.4678 8.94683 12.8644 10.0182C11.2611 11.0895 10.0114 12.6123 9.27343 14.3938C8.53547 16.1754 8.34239 18.1358 8.7186 20.0271C9.0948 21.9184 10.0234 23.6557 11.387 25.0193C12.7505 26.3829 14.4878 27.3115 16.3791 27.6877C18.2704 28.0639 20.2308 27.8708 22.0124 27.1328C23.794 26.3949 25.3167 25.1452 26.3881 23.5418C27.4594 21.9384 28.0313 20.0534 28.0313 18.125C28.0285 15.54 27.0004 13.0616 25.1725 11.2337C23.3446 9.40584 20.8663 8.37773 18.2813 8.375ZM19.0313 26.3403V20.375H21.2813C21.4802 20.375 21.6709 20.296 21.8116 20.1553C21.9522 20.0147 22.0313 19.8239 22.0313 19.625C22.0313 19.4261 21.9522 19.2353 21.8116 19.0947C21.6709 18.954 21.4802 18.875 21.2813 18.875H19.0313V16.625C19.0313 16.2272 19.1893 15.8456 19.4706 15.5643C19.7519 15.283 20.1334 15.125 20.5313 15.125H22.0313C22.2302 15.125 22.4209 15.046 22.5616 14.9053C22.7022 14.7647 22.7813 14.5739 22.7813 14.375C22.7813 14.1761 22.7022 13.9853 22.5616 13.8447C22.4209 13.704 22.2302 13.625 22.0313 13.625H20.5313C19.7356 13.625 18.9725 13.9411 18.4099 14.5037C17.8473 15.0663 17.5313 15.8294 17.5313 16.625V18.875H15.2813C15.0823 18.875 14.8916 18.954 14.7509 19.0947C14.6103 19.2353 14.5313 19.4261 14.5313 19.625C14.5313 19.8239 14.6103 20.0147 14.7509 20.1553C14.8916 20.296 15.0823 20.375 15.2813 20.375H17.5313V26.3403C15.417 26.1473 13.4585 25.1467 12.0632 23.5465C10.6679 21.9464 9.9432 19.8699 10.0398 17.7491C10.1364 15.6282 11.0469 13.6263 12.5819 12.1596C14.1169 10.6929 16.1582 9.87447 18.2813 9.87447C20.4043 9.87447 22.4456 10.6929 23.9806 12.1596C25.5156 13.6263 26.4261 15.6282 26.5227 17.7491C26.6193 19.8699 25.8946 21.9464 24.4993 23.5465C23.104 25.1467 21.1455 26.1473 19.0313 26.3403Z" fill="#677381"/>
</svg>
