<svg width="174" height="175" viewBox="0 0 174 175" fill="none" xmlns="http://www.w3.org/2000/svg">
<path d="M161.672 41.5189C160.843 41.5178 160.033 41.28 159.335 40.8337C158.638 40.3874 158.082 39.751 157.734 38.9996C157.386 38.2481 157.26 37.4129 157.371 36.5922C157.482 35.7715 157.825 34.9996 158.36 34.3673C158.894 33.7351 159.599 33.2688 160.39 33.0233C161.181 32.7779 162.025 32.7636 162.824 32.9821C163.623 33.2006 164.342 33.6427 164.898 34.2565C165.454 34.8703 165.823 35.6302 165.962 36.4466C166.067 37.0704 166.036 37.7097 165.869 38.32C165.702 38.9302 165.404 39.4966 164.995 39.9797C164.587 40.4627 164.078 40.8508 163.503 41.1166C162.929 41.3825 162.304 41.5198 161.672 41.5189ZM161.672 35.1983C161.266 35.1961 160.87 35.3188 160.536 35.5496C160.203 35.7804 159.949 36.1083 159.808 36.4886C159.667 36.869 159.647 37.2834 159.75 37.6755C159.854 38.0677 160.075 38.4187 160.384 38.6807C160.694 38.9428 161.076 39.1033 161.48 39.1404C161.884 39.1775 162.289 39.0894 162.641 38.8881C162.993 38.6868 163.275 38.3821 163.448 38.0153C163.62 37.6484 163.676 37.2373 163.607 36.8377C163.527 36.3848 163.292 35.974 162.941 35.6761C162.591 35.3783 162.147 35.2121 161.687 35.2062L161.672 35.1983Z" fill="#5E6175"/>
<path d="M144.329 22.591C143.799 22.5871 143.277 22.4585 142.806 22.2155C142.335 21.9725 141.928 21.6221 141.617 21.1924C141.306 20.7628 141.101 20.2661 141.018 19.7425C140.935 19.2189 140.977 18.683 141.139 18.1784C141.302 17.6737 141.581 17.2144 141.953 16.8376C142.326 16.4608 142.783 16.1771 143.286 16.0094C143.789 15.8417 144.324 15.7947 144.849 15.8723C145.373 15.9499 145.872 16.1499 146.305 16.4561C146.889 16.8727 147.326 17.4645 147.551 18.1458C147.777 18.8271 147.78 19.5626 147.56 20.2458C147.34 20.929 146.909 21.5245 146.328 21.9461C145.747 22.3677 145.047 22.5936 144.329 22.591ZM144.329 18.2061C144.123 18.205 143.921 18.2675 143.751 18.3852C143.581 18.5029 143.451 18.67 143.379 18.8639C143.308 19.0578 143.297 19.2691 143.35 19.469C143.402 19.669 143.515 19.848 143.673 19.9817C143.83 20.1154 144.025 20.1973 144.231 20.2164C144.437 20.2355 144.644 20.1908 144.823 20.0884C145.003 19.9859 145.147 19.8307 145.235 19.6438C145.323 19.4569 145.352 19.2473 145.317 19.0435C145.277 18.8121 145.158 18.6018 144.98 18.4489C144.802 18.296 144.576 18.2101 144.341 18.2061H144.329Z" fill="#5E6175"/>
<path d="M124.544 48.9821C123.407 48.981 122.316 48.5286 121.513 47.7242C120.709 46.9197 120.258 45.8291 120.258 44.692V26.9786C120.258 17.1027 112.46 8.8662 102.603 8.68054C100.212 8.63701 97.8355 9.07011 95.6131 9.95458C93.3907 10.8391 91.3666 12.1572 89.659 13.8321C87.9513 15.507 86.5943 17.5052 85.667 19.7101C84.7396 21.915 84.2606 24.2825 84.2579 26.6744V44.6722C84.2753 45.2463 84.1773 45.8181 83.9696 46.3535C83.762 46.889 83.4489 47.3774 83.049 47.7896C82.6491 48.2018 82.1705 48.5296 81.6415 48.7534C81.1126 48.9772 80.5441 49.0925 79.9698 49.0925C79.3954 49.0925 78.8269 48.9772 78.298 48.7534C77.7691 48.5296 77.2905 48.2018 76.8905 47.7896C76.4906 47.3774 76.1776 46.889 75.9699 46.3535C75.7623 45.8181 75.6642 45.2463 75.6817 44.6722V27.0774C75.6817 12.4926 87.2602 0.32553 101.845 0.100359C105.368 0.0501394 108.866 0.700156 112.136 2.01269C115.406 3.32521 118.383 5.27412 120.894 7.74629C123.404 10.2185 125.399 13.1647 126.762 16.414C128.125 19.6632 128.829 23.1508 128.834 26.6744V44.6722C128.836 45.2373 128.727 45.7973 128.513 46.3201C128.298 46.8428 127.983 47.3181 127.584 47.7186C127.186 48.119 126.712 48.4368 126.19 48.6536C125.668 48.8705 125.109 48.9821 124.544 48.9821Z" fill="#F26921"/>
<path d="M145.922 34.9688L160.779 145.417V173.812H116.172V145.417L131.029 34.9688H145.922Z" fill="#DEE1EC"/>
<path style="mix-blend-mode:multiply" d="M160.779 145.417V173.812H116.172V168.582L138.476 152.559V34.9688H145.922L160.779 145.417Z" fill="url(#paint0_linear_432_9111)"/>
<path d="M131.03 34.9688L116.173 145.417V173.812H11.8516V145.417L30.197 34.9688H131.03Z" fill="#F5F5F5"/>
<path d="M161.964 174.997H114.986V167.974L138.475 151.102L161.964 167.974V174.997ZM117.357 172.627H159.594V169.19L138.475 154.021L117.357 169.19V172.627Z" fill="#5E6175"/>
<path d="M137.291 34.9648H139.661V152.559H137.291V34.9648Z" fill="#5E6175"/>
<path style="mix-blend-mode:multiply" d="M105.814 9.02927C102.001 8.26501 98.0441 8.75416 94.5327 10.4237C91.0213 12.0933 88.1441 14.8537 86.3304 18.2929C84.216 16.2171 81.3918 15.0225 78.4297 14.9509C80.2946 11.1661 83.0322 7.87863 86.4168 5.35938C89.8015 2.84013 93.7363 1.1612 97.8971 0.460938C101.024 2.82397 103.705 5.72546 105.814 9.02927Z" fill="url(#paint1_linear_432_9111)"/>
<path d="M0 172.629H173.527V174.999H0V172.629Z" fill="#5E6175"/>
<path style="mix-blend-mode:multiply" d="M11.8516 145.418H116.173V173.813H11.8516V145.418Z" fill="url(#paint2_linear_432_9111)"/>
<path d="M161.964 174.999H114.986V145.26L129.998 33.7812H146.961C147.201 35.5629 161.743 143.672 161.972 145.339L161.964 174.999ZM117.357 172.628H159.594V145.497L144.883 36.1515H132.068L117.357 145.497V172.628Z" fill="#5E6175"/>
<path d="M117.357 174.999H10.666V145.225L29.1734 33.7812H132.384L117.373 145.497L117.357 174.999ZM13.0362 172.628H114.987V145.339C114.987 145.217 114.647 147.872 129.675 36.1515H31.2L13.0283 145.517L13.0362 172.628Z" fill="#5E6175"/>
<path d="M100.419 48.8608C99.2815 48.8608 98.1909 48.4094 97.3865 47.6057C96.582 46.802 96.1296 45.7118 96.1285 44.5747V26.8613C96.1285 16.9854 88.3305 8.74891 78.4783 8.56324C76.0869 8.52025 73.7109 8.95372 71.4887 9.83838C69.2665 10.7231 67.2427 12.0412 65.5351 13.716C63.8276 15.3908 62.4705 17.3888 61.543 19.5935C60.6155 21.7981 60.1361 24.1653 60.1329 26.5571V44.5589C60.099 45.6737 59.6324 46.7314 58.8319 47.508C58.0314 48.2845 56.96 48.7188 55.8448 48.7188C54.7295 48.7188 53.6581 48.2845 52.8576 47.508C52.0571 46.7314 51.5905 45.6737 51.5566 44.5589V26.9798C51.5566 12.3951 63.1351 0.224038 77.7199 0.00281758C81.243 -0.0484627 84.7413 0.600696 88.0115 1.9126C91.2817 3.2245 94.2587 5.17301 96.7696 7.64498C99.2806 10.1169 101.275 13.0631 102.638 16.3124C104.001 19.5617 104.705 23.0494 104.709 26.5729V44.5747C104.708 45.7118 104.255 46.802 103.451 47.6057C102.646 48.4094 101.556 48.8608 100.419 48.8608Z" fill="#F26921"/>
<path d="M20.043 25.2656L21.7187 23.5899L27.2906 29.1617L25.6148 30.8375L20.043 25.2656Z" fill="#5E6175"/>
<path d="M14.4551 35.3164H22.336V37.6866H14.4551V35.3164Z" fill="#5E6175"/>
<path d="M31.2988 17.7773H33.669V25.6583H31.2988V17.7773Z" fill="#5E6175"/>
<path d="M170.631 160.176H168.261V157.806H170.631V160.176ZM170.631 153.855H168.261V151.485H170.631V153.855ZM170.631 147.535H168.261C168.261 146.413 168.261 145.923 168.261 145.196L170.631 145.129C170.635 145.899 170.631 146.425 170.631 147.535ZM167.953 141.372C167.838 140.424 167.724 139.792 167.605 139.081L169.944 138.686C170.07 139.445 170.181 140.077 170.307 141.08L167.953 141.372ZM166.954 135.182L166.559 132.847L168.897 132.452L169.292 134.791L166.954 135.182ZM165.907 128.948L165.512 126.614L167.846 126.219L168.241 128.557L165.907 128.948Z" fill="#A9AFC4"/>
<path d="M97.3283 139.01H36.1175C34.9897 139.01 33.8752 138.767 32.8502 138.297C31.8252 137.826 30.9141 137.14 30.1791 136.284C29.4441 135.429 28.9027 134.425 28.592 133.341C28.2813 132.257 28.2085 131.118 28.3787 130.003L38.8551 61.4883C39.1382 59.6394 40.0738 57.953 41.4925 56.7342C42.9113 55.5155 44.7195 54.8448 46.5899 54.8438H107.485C108.609 54.8441 109.721 55.0869 110.744 55.5554C111.766 56.024 112.676 56.7074 113.41 57.559C114.145 58.4107 114.688 59.4107 115.001 60.4909C115.315 61.5712 115.392 62.7063 115.227 63.819L105.071 132.334C104.795 134.19 103.862 135.886 102.44 137.111C101.019 138.337 99.2049 139.011 97.3283 139.01Z" fill="#A9AFC4"/>
<path d="M97.3293 140.197H36.1185C34.8203 140.197 33.5374 139.916 32.3576 139.375C31.1779 138.833 30.1291 138.042 29.2831 137.058C28.4372 136.073 27.814 134.917 27.4563 133.669C27.0985 132.421 27.0147 131.11 27.2105 129.827L37.6829 61.3121C37.9985 59.1782 39.073 57.2297 40.7093 55.8242C42.3456 54.4187 44.4339 53.6503 46.5909 53.6603H107.486C108.78 53.6622 110.059 53.9428 111.235 54.483C112.411 55.0231 113.457 55.8102 114.302 56.7907C115.146 57.7711 115.77 58.922 116.13 60.165C116.491 61.4081 116.579 62.7141 116.39 63.9944L106.237 132.509C105.906 134.639 104.828 136.582 103.196 137.99C101.564 139.398 99.4847 140.18 97.3293 140.197ZM46.5909 56.0305C45.0016 56.0236 43.4631 56.5898 42.2573 57.6251C41.0515 58.6604 40.2591 60.0956 40.0254 61.6676L29.553 130.183C29.4084 131.129 29.47 132.095 29.7335 133.015C29.9971 133.935 30.4563 134.787 31.0799 135.513C31.7034 136.239 32.4765 136.821 33.3462 137.221C34.2158 137.62 35.1616 137.827 36.1185 137.827H97.3491C98.9391 137.819 100.474 137.244 101.678 136.206C102.883 135.167 103.677 133.733 103.919 132.162L114.075 63.6468C114.215 62.7025 114.15 61.7391 113.884 60.8223C113.619 59.9054 113.158 59.0566 112.535 58.3337C111.911 57.6109 111.139 57.031 110.271 56.6335C109.403 56.236 108.46 56.0303 107.505 56.0305H46.5909Z" fill="#5E6175"/>
<path d="M89.7847 65.076C88.1224 63.4134 86.0044 62.2811 83.6985 61.8223C81.3927 61.3635 79.0026 61.5988 76.8305 62.4984C74.6584 63.398 72.8018 64.9215 71.4956 66.8763C70.1894 68.8311 69.4922 71.1293 69.4922 73.4804C69.4922 75.8314 70.1894 78.1297 71.4956 80.0845C72.8018 82.0392 74.6584 83.5628 76.8305 84.4624C79.0026 85.362 81.3927 85.5973 83.6985 85.1385C86.0044 84.6796 88.1224 83.5473 89.7847 81.8848C92.0134 79.6557 93.2654 76.6326 93.2654 73.4804C93.2654 70.3282 92.0134 67.3051 89.7847 65.076ZM76.6458 78.2149C75.7123 77.278 75.0774 76.0856 74.8211 74.7882C74.5649 73.4907 74.6988 72.1465 75.206 70.9251C75.7132 69.7037 76.5709 68.66 77.6709 67.9258C78.7708 67.1915 80.0637 66.7996 81.3862 66.7996C82.7087 66.7996 84.0016 67.1915 85.1015 67.9258C86.2015 68.66 87.0592 69.7037 87.5664 70.9251C88.0736 72.1465 88.2075 73.4907 87.9513 74.7882C87.695 76.0856 87.0601 77.278 86.1266 78.2149C85.5049 78.8388 84.7661 79.3339 83.9527 79.6717C83.1392 80.0096 82.267 80.1835 81.3862 80.1835C80.5054 80.1835 79.6332 80.0096 78.8197 79.6717C78.0063 79.3339 77.2675 78.8388 76.6458 78.2149Z" fill="#F5F5F5"/>
<path d="M81.3812 86.5457C79.2321 86.5459 77.1161 86.016 75.2208 85.003C73.3254 83.9901 71.7091 82.5253 70.5151 80.7384C69.3211 78.9516 68.5862 76.8978 68.3755 74.7591C68.1648 72.6204 68.4848 70.4627 69.3072 68.4772C70.1296 66.4917 71.429 64.7397 73.0902 63.3764C74.7515 62.013 76.7233 61.0804 78.8311 60.6612C80.9389 60.242 83.1176 60.3491 85.1741 60.973C87.2306 61.5969 89.1015 62.7184 90.621 64.2381C92.4484 66.0656 93.6929 68.394 94.197 70.9288C94.7012 73.4636 94.4424 76.0909 93.4534 78.4786C92.4644 80.8664 90.7896 82.9072 88.6408 84.3431C86.4919 85.7791 83.9656 86.5456 81.3812 86.5457ZM73.8123 65.913C72.3156 67.4096 71.2963 69.3164 70.8833 71.3924C70.4704 73.4683 70.6823 75.62 71.4922 77.5755C72.3022 79.531 73.6738 81.2024 75.4337 82.3783C77.1935 83.5542 79.2626 84.1819 81.3792 84.1819C83.4958 84.1819 85.5648 83.5542 87.3247 82.3783C89.0845 81.2024 90.4562 79.531 91.2661 77.5755C92.0761 75.62 92.288 73.4683 91.875 71.3924C91.4621 69.3164 90.4428 67.4096 88.9461 65.913C87.9526 64.9189 86.773 64.1302 85.4746 63.5922C84.1763 63.0541 82.7846 62.7772 81.3792 62.7772C79.9737 62.7772 78.5821 63.0541 77.2837 63.5922C75.9853 64.1302 74.8057 64.9189 73.8123 65.913ZM75.8072 79.0519C74.7056 77.9503 73.9554 76.5467 73.6515 75.0187C73.3476 73.4908 73.5036 71.907 74.0998 70.4676C74.696 69.0283 75.7056 67.7981 77.001 66.9326C78.2964 66.0671 79.8193 65.6051 81.3772 65.6051C82.9351 65.6051 84.458 66.0671 85.7534 66.9326C87.0488 67.7981 88.0584 69.0283 88.6546 70.4676C89.2508 71.907 89.4068 73.4908 89.1029 75.0187C88.799 76.5467 88.0488 77.9503 86.9472 79.0519C85.4669 80.5234 83.4645 81.3494 81.3772 81.3494C79.2899 81.3494 77.2875 80.5234 75.8072 79.0519ZM77.4861 69.571C76.7157 70.3411 76.191 71.3223 75.9784 72.3906C75.7657 73.4589 75.8746 74.5662 76.2913 75.5726C76.7081 76.5789 77.4139 77.4391 78.3195 78.0443C79.2252 78.6495 80.2899 78.9726 81.3792 78.9726C82.4684 78.9726 83.5332 78.6495 84.4388 78.0443C85.3445 77.4391 86.0503 76.5789 86.467 75.5726C86.8837 74.5662 86.9927 73.4589 86.78 72.3906C86.5673 71.3223 86.0426 70.3411 85.2723 69.571C84.2345 68.5467 82.8341 67.9736 81.3759 67.9766C79.9177 67.9795 78.5197 68.5583 77.4861 69.5868V69.571Z" fill="#5E6175"/>
<path d="M68.1367 85.0273L72.1194 81.0447L73.7951 82.7204L69.8125 86.7031L68.1367 85.0273Z" fill="#5E6175"/>
<path d="M65.8105 90.4219H68.1808V96.0551H65.8105V90.4219Z" fill="#5E6175"/>
<path d="M63.2579 87.7536C63.2547 87.1193 63.4083 86.494 63.7049 85.9333C64.0015 85.3726 64.432 84.8939 64.9581 84.5396C65.4843 84.1853 66.0898 83.9665 66.7209 83.9025C67.3519 83.8385 67.989 83.9313 68.5756 84.1728C69.1621 84.4142 69.68 84.7968 70.0831 85.2866C70.4862 85.7763 70.7622 86.358 70.8864 86.98C71.0106 87.602 70.9793 88.2451 70.7953 88.8521C70.6112 89.4592 70.2801 90.0113 69.8313 90.4596C69.2928 90.9947 68.6084 91.359 67.8638 91.5068C67.1192 91.6545 66.3476 91.5792 65.6456 91.2902C64.9437 91.0013 64.3426 90.5115 63.9179 89.8823C63.4931 89.2532 63.2635 88.5127 63.2579 87.7536ZM67.1055 86.2722C66.8618 86.272 66.6218 86.3319 66.4068 86.4466C66.1918 86.5613 66.0084 86.7274 65.8729 86.9299C65.7374 87.1325 65.654 87.3654 65.63 87.6079C65.606 87.8504 65.6423 88.0951 65.7355 88.3203C65.8287 88.5455 65.9761 88.7441 66.1645 88.8987C66.3529 89.0533 66.5765 89.1591 66.8156 89.2065C67.0546 89.254 67.3017 89.2418 67.5348 89.171C67.768 89.1001 67.9801 88.9728 68.1524 88.8004C68.3593 88.5932 68.5001 88.3294 68.5572 88.0422C68.6142 87.755 68.5849 87.4574 68.4729 87.1868C68.3609 86.9163 68.1712 86.685 67.9278 86.5222C67.6845 86.3595 67.3983 86.2724 67.1055 86.2722Z" fill="#5E6175"/>
<path d="M69.5469 97.642L72.6202 103.891C72.8251 104.305 73.1274 104.663 73.501 104.934C73.8746 105.205 74.3085 105.381 74.7653 105.448L81.6389 106.447C82.1651 106.523 82.6596 106.745 83.0662 107.088C83.4729 107.43 83.7756 107.88 83.94 108.385C84.1045 108.891 84.1241 109.433 83.9967 109.949C83.8692 110.465 83.5999 110.935 83.219 111.306L78.2455 116.138C77.9145 116.46 77.6668 116.857 77.5236 117.296C77.3805 117.735 77.3462 118.203 77.4239 118.658L78.609 125.504C78.6987 126.028 78.6401 126.566 78.4399 127.058C78.2396 127.55 77.9057 127.977 77.4758 128.289C77.046 128.601 76.5373 128.787 76.0074 128.826C75.4774 128.864 74.9473 128.753 74.4769 128.506L68.3301 125.275C67.9212 125.061 67.4664 124.949 67.0048 124.949C66.5432 124.949 66.0884 125.061 65.6795 125.275L59.505 128.502C59.0347 128.749 58.5045 128.86 57.9746 128.822C57.4446 128.783 56.936 128.597 56.5061 128.285C56.0762 127.973 55.7423 127.546 55.5421 127.054C55.3418 126.562 55.2833 126.024 55.373 125.5L56.5581 118.654C56.6357 118.199 56.6015 117.731 56.4583 117.292C56.3152 116.853 56.0674 116.456 55.7364 116.134L50.7669 111.287C50.386 110.916 50.1167 110.445 49.9892 109.929C49.8618 109.413 49.8814 108.871 50.0459 108.366C50.2103 107.86 50.513 107.411 50.9197 107.068C51.3263 106.726 51.8208 106.504 52.347 106.428L59.2206 105.428C59.6774 105.362 60.1113 105.185 60.4849 104.914C60.8585 104.643 61.1608 104.285 61.3657 103.872L64.439 97.642C64.6743 97.1655 65.0381 96.7644 65.4894 96.4839C65.9408 96.2033 66.4616 96.0547 66.993 96.0547C67.5243 96.0547 68.0451 96.2033 68.4964 96.4839C68.9478 96.7644 69.3116 97.1655 69.5469 97.642Z" fill="#F26921"/>
<path d="M73.911 129.571L67.7682 126.339C67.5297 126.213 67.2639 126.147 66.9939 126.147C66.724 126.147 66.4581 126.213 66.2197 126.339L60.0729 129.571C59.4068 129.922 58.6558 130.079 57.9049 130.025C57.1541 129.971 56.4333 129.708 55.8241 129.266C55.2149 128.823 54.7417 128.22 54.4579 127.522C54.1742 126.825 54.0912 126.062 54.2185 125.32L55.4036 118.478C55.4498 118.212 55.4304 117.939 55.3471 117.682C55.2638 117.425 55.1191 117.193 54.9256 117.005L49.9521 112.158C49.4126 111.632 49.0309 110.967 48.8502 110.236C48.6696 109.505 48.6971 108.738 48.9298 108.021C49.1625 107.305 49.591 106.669 50.1668 106.183C50.7426 105.698 51.4428 105.384 52.188 105.276L59.0616 104.277C59.3283 104.238 59.5817 104.135 59.7998 103.977C60.018 103.819 60.1944 103.61 60.3139 103.368L63.3872 97.1423C63.7204 96.4676 64.2356 95.8995 64.8747 95.5023C65.5138 95.105 66.2513 94.8945 67.0038 94.8945C67.7563 94.8945 68.4938 95.105 69.1329 95.5023C69.772 95.8995 70.2872 96.4676 70.6204 97.1423L73.6937 103.368C73.8138 103.609 73.9903 103.818 74.2084 103.976C74.4264 104.134 74.6795 104.237 74.946 104.277L81.8196 105.276C82.564 105.385 83.2631 105.7 83.8379 106.186C84.4128 106.671 84.8406 107.307 85.0731 108.023C85.3055 108.739 85.3335 109.505 85.1537 110.235C84.9739 110.966 84.5935 111.632 84.0555 112.158L79.082 117.005C78.8888 117.193 78.7443 117.426 78.661 117.682C78.5777 117.939 78.5582 118.212 78.604 118.478L79.7891 125.32C79.9164 126.065 79.8325 126.83 79.547 127.529C79.2615 128.228 78.7857 128.833 78.1737 129.276C77.5617 129.719 76.838 129.981 76.0845 130.033C75.3311 130.085 74.5781 129.925 73.911 129.571ZM68.8703 124.238L75.0171 127.469C75.2919 127.614 75.6016 127.679 75.9113 127.656C76.221 127.634 76.5183 127.525 76.7695 127.343C77.0207 127.16 77.2157 126.911 77.3326 126.624C77.4495 126.336 77.4835 126.021 77.4308 125.715L76.2457 118.873C76.138 118.231 76.187 117.573 76.3885 116.954C76.59 116.335 76.9381 115.773 77.4031 115.318L82.3766 110.471C82.5988 110.254 82.7558 109.979 82.83 109.678C82.9042 109.377 82.8925 109.06 82.7963 108.765C82.7001 108.47 82.5233 108.208 82.2857 108.008C82.0482 107.808 81.7595 107.679 81.4522 107.634L74.5826 106.635C73.9348 106.542 73.3197 106.292 72.7903 105.907C72.261 105.522 71.8335 105.014 71.5447 104.427L68.4714 98.201C68.334 97.9228 68.1215 97.6885 67.858 97.5247C67.5945 97.3609 67.2904 97.2741 66.9801 97.2741C66.6698 97.2741 66.3657 97.3609 66.1022 97.5247C65.8387 97.6885 65.6262 97.9228 65.4888 98.201L62.4155 104.427C62.1267 105.014 61.6992 105.522 61.1699 105.907C60.6405 106.292 60.0253 106.542 59.3776 106.635L52.508 107.634C52.2007 107.679 51.912 107.808 51.6745 108.008C51.4369 108.208 51.2601 108.47 51.1639 108.765C51.0677 109.06 51.056 109.377 51.1302 109.678C51.2044 109.979 51.3614 110.254 51.5836 110.471L56.5571 115.318C57.0229 115.773 57.3716 116.334 57.5732 116.953C57.7747 117.572 57.8232 118.231 57.7145 118.873L56.5294 125.715C56.4762 126.022 56.51 126.337 56.627 126.625C56.744 126.914 56.9395 127.163 57.1914 127.346C57.4432 127.529 57.7412 127.637 58.0516 127.659C58.3619 127.681 58.6722 127.615 58.947 127.469L65.0899 124.238C65.6712 123.928 66.3193 123.764 66.9781 123.762C67.6369 123.759 68.2865 123.917 68.8703 124.222V124.238Z" fill="white"/>
<defs>
<linearGradient id="paint0_linear_432_9111" x1="131.333" y1="104.388" x2="193.433" y2="104.388" gradientUnits="userSpaceOnUse">
<stop stop-color="#CACFDD"/>
<stop offset="1" stop-color="#EEF0F1"/>
</linearGradient>
<linearGradient id="paint1_linear_432_9111" x1="92.1137" y1="-3.48942" x2="92.1137" y2="34.4024" gradientUnits="userSpaceOnUse">
<stop stop-color="#CACFDD"/>
<stop offset="1" stop-color="#EEF0F1"/>
</linearGradient>
<linearGradient id="paint2_linear_432_9111" x1="64.0121" y1="138.572" x2="64.0121" y2="182.599" gradientUnits="userSpaceOnUse">
<stop stop-color="#CACFDD"/>
<stop offset="1" stop-color="#EEF0F1"/>
</linearGradient>
</defs>
</svg>
