<svg width="22" height="19" viewBox="0 0 22 19" fill="none" xmlns="http://www.w3.org/2000/svg">
<path d="M21.2667 16.8669H19.8V10.2669L20.0145 10.4814C20.1523 10.619 20.3392 10.6962 20.534 10.696C20.7288 10.6959 20.9155 10.6183 21.0531 10.4805C21.1907 10.3426 21.2679 10.1558 21.2677 9.96101C21.2676 9.76623 21.19 9.57951 21.0522 9.4419L12.0367 0.429237C11.7617 0.154391 11.3888 0 11 0C10.6112 0 10.2383 0.154391 9.96325 0.429237L0.947833 9.4419C0.810352 9.57951 0.733164 9.76609 0.73325 9.9606C0.733336 10.1551 0.810688 10.3416 0.948292 10.4791C1.08589 10.6166 1.27248 10.6938 1.46699 10.6937C1.66151 10.6936 1.84802 10.6163 1.9855 10.4787L2.2 10.2669V16.8669H0.733333C0.538841 16.8669 0.352315 16.9442 0.214788 17.0817C0.0772616 17.2192 0 17.4057 0 17.6002C0 17.7947 0.0772616 17.9813 0.214788 18.1188C0.352315 18.2563 0.538841 18.3336 0.733333 18.3336H21.2667C21.4612 18.3336 21.6477 18.2563 21.7852 18.1188C21.9227 17.9813 22 17.7947 22 17.6002C22 17.4057 21.9227 17.2192 21.7852 17.0817C21.6477 16.9442 21.4612 16.8669 21.2667 16.8669ZM3.66667 8.80024L11 1.4669L18.3333 8.80024V16.8669H13.9333V11.7336C13.9333 11.5391 13.8561 11.3526 13.7185 11.215C13.581 11.0775 13.3945 11.0002 13.2 11.0002H8.8C8.60551 11.0002 8.41898 11.0775 8.28146 11.215C8.14393 11.3526 8.06667 11.5391 8.06667 11.7336V16.8669H3.66667V8.80024ZM12.4667 16.8669H9.53333V12.4669H12.4667V16.8669Z" fill="white"/>
</svg>
