<svg width="143" height="112" viewBox="0 0 143 112" fill="none" xmlns="http://www.w3.org/2000/svg">
<path d="M120.269 43.1834V63.9501C120.269 66.3583 119.795 68.743 118.873 70.9679C117.952 73.1928 116.601 75.2143 114.898 76.917C113.195 78.6198 111.173 79.9703 108.948 80.8916C106.723 81.8129 104.338 82.2869 101.93 82.2865V94.8838L86.9311 82.2737H47.0681C44.6599 82.2741 42.2752 81.8001 40.0501 80.8788C37.8251 79.9575 35.8033 78.6069 34.1003 76.9042C32.3972 75.2015 31.0463 73.1799 30.1246 70.9551C29.2029 68.7302 28.7285 66.3455 28.7285 63.9373V43.1834C28.7285 38.3194 30.6607 33.6546 34.1001 30.2153C37.5394 26.776 42.2042 24.8438 47.0681 24.8438H101.93C106.794 24.8438 111.459 26.776 114.898 30.2153C118.337 33.6546 120.269 38.3194 120.269 43.1834Z" fill="url(#paint0_linear_1341_9941)"/>
<path style="mix-blend-mode:multiply" d="M120.269 43.1834V51.3464C116.579 51.5772 112.88 51.0721 109.387 49.8605C105.894 48.649 102.677 46.7551 99.9223 44.289C97.1678 41.823 94.9309 38.834 93.3419 35.4957C91.7528 32.1575 90.8432 28.5367 90.666 24.8438H101.929C106.793 24.8438 111.458 26.776 114.898 30.2153C118.337 33.6546 120.269 38.3194 120.269 43.1834Z" fill="url(#paint1_linear_1341_9941)"/>
<path style="mix-blend-mode:multiply" d="M99.3553 58.2187V78.9887C99.362 82.9442 98.3694 86.8372 96.4697 90.3067L86.9344 82.2911H47.0682C44.6601 82.2919 42.2754 81.8183 40.0504 80.8974C37.8253 79.9764 35.8036 78.6262 34.1005 76.9237C32.3974 75.2212 31.0464 73.1999 30.1247 70.9752C29.203 68.7505 28.7285 66.366 28.7285 63.9579V43.1847C28.7239 40.1789 29.4618 37.2184 30.8767 34.5664H75.7062C81.9765 34.574 87.9878 37.0685 92.4213 41.5026C96.8548 45.9368 99.3485 51.9484 99.3553 58.2187Z" fill="url(#paint2_linear_1341_9941)"/>
<path d="M102.892 96.963L86.5688 83.25H47.0649C41.9485 83.2441 37.0433 81.209 33.4255 77.5911C29.8077 73.9733 27.7725 69.0681 27.7666 63.9517V43.185C27.7725 38.0686 29.8077 33.1635 33.4255 29.5456C37.0433 25.9278 41.9485 23.8927 47.0649 23.8867H101.93C107.046 23.8927 111.951 25.9278 115.569 29.5456C119.187 33.1635 121.222 38.0686 121.228 43.185V63.9517C121.222 68.9018 119.317 73.661 115.905 77.2475C112.493 80.8341 107.835 82.9746 102.892 83.2276V96.963ZM47.0649 25.8105C42.4584 25.8155 38.0421 27.6477 34.7848 30.905C31.5276 34.1622 29.6954 38.5785 29.6903 43.185V63.9517C29.6954 68.5582 31.5276 72.9745 34.7848 76.2318C38.0421 79.489 42.4584 81.3212 47.0649 81.3263H87.2838L100.968 92.8334V81.3263H101.93C106.536 81.3212 110.953 79.489 114.21 76.2318C117.467 72.9745 119.299 68.5582 119.304 63.9517V43.185C119.299 38.5785 117.467 34.1622 114.21 30.905C110.953 27.6477 106.536 25.8155 101.93 25.8105H47.0649Z" fill="#5E6175"/>
<path d="M75.7062 39.8828H20.8413C15.9782 39.8828 11.3142 41.8147 7.87549 45.2534C4.43675 48.6922 2.50488 53.3561 2.50488 58.2192V78.986C2.50488 83.8491 4.43675 88.513 7.87549 91.9517C11.3142 95.3905 15.9782 97.3224 20.8413 97.3224H21.7487V109.932L36.7474 97.3224H75.7062C78.1143 97.3228 80.4989 96.8488 82.7238 95.9274C84.9486 95.0061 86.9702 93.6555 88.673 91.9527C90.3758 90.2499 91.7264 88.2284 92.6477 86.0035C93.5691 83.7786 94.0431 81.394 94.0426 78.986V58.2192C94.0431 55.8111 93.5691 53.4265 92.6477 51.2017C91.7264 48.9768 90.3758 46.9553 88.673 45.2525C86.9702 43.5497 84.9486 42.1991 82.7238 41.2777C80.4989 40.3564 78.1143 39.8824 75.7062 39.8828Z" fill="#F5F5F5"/>
<path d="M20.7862 112.001V98.2852C15.6804 98.2631 10.7908 96.2209 7.18614 92.6048C3.58145 88.9887 1.55471 84.0928 1.54883 78.9869V58.2202C1.55476 53.1049 3.589 48.2007 7.20545 44.583C10.8219 40.9654 15.7254 38.9295 20.8407 38.9219H75.7056C80.822 38.9278 85.7272 40.9629 89.345 44.5808C92.9629 48.1986 94.998 53.1038 95.0039 58.2202V78.9869C94.998 84.1033 92.9629 89.0084 89.345 92.6263C85.7272 96.2441 80.822 98.2792 75.7056 98.2852H37.0995L20.7862 112.001ZM20.8407 40.8456C16.2342 40.8507 11.8179 42.6829 8.56066 45.9401C5.3034 49.1974 3.47124 53.6137 3.46615 58.2202V78.9869C3.47124 83.5933 5.3034 88.0097 8.56066 91.2669C11.8179 94.5242 16.2342 96.3563 20.8407 96.3614H22.7099V107.869L36.3973 96.3614H75.7056C80.3121 96.3563 84.7284 94.5242 87.9857 91.2669C91.2429 88.0097 93.0751 83.5933 93.0802 78.9869V58.2202C93.0751 53.6137 91.2429 49.1974 87.9857 45.9401C84.7284 42.6829 80.3121 40.8507 75.7056 40.8456H20.8407Z" fill="#5E6175"/>
<path d="M57.2574 63.6016C57.9322 63.6047 58.5927 63.4075 59.1553 63.035C59.7179 62.6624 60.1572 62.1312 60.4176 61.5088C60.678 60.8863 60.7478 60.2005 60.6181 59.5383C60.4884 58.8761 60.1651 58.2673 59.6891 57.7891C59.2131 57.3108 58.6058 56.9846 57.9443 56.8518C57.2827 56.719 56.5966 56.7856 55.9729 57.043C55.3492 57.3005 54.816 57.7374 54.4408 58.2982C54.0655 58.859 53.8652 59.5186 53.8652 60.1933C53.8661 61.0942 54.2232 61.9582 54.8587 62.5967C55.4943 63.2353 56.3565 63.5965 57.2574 63.6016Z" fill="#5E6175"/>
<path d="M36.4873 63.6016C38.3696 63.6016 39.8955 62.0757 39.8955 60.1934C39.8955 58.3111 38.3696 56.7852 36.4873 56.7852C34.605 56.7852 33.0791 58.3111 33.0791 60.1934C33.0791 62.0757 34.605 63.6016 36.4873 63.6016Z" fill="#5E6175"/>
<path d="M65.2926 78.6051C64.9977 78.3422 57.9792 72.1445 47.0171 72.1445C36.0551 72.1445 29.0623 78.3422 28.7417 78.6051L27.876 79.381L31.6369 83.5715L32.5026 82.8149C36.6357 79.5602 41.7436 77.7906 47.0043 77.7906C52.2651 77.7906 57.3729 79.5602 61.5061 82.8149L62.3686 83.5811L66.1327 79.381L65.2926 78.6051Z" fill="#5E6175"/>
<path d="M21.9313 33.669L16.4165 22.7454C17.1896 22.3752 17.8798 21.8526 18.4457 21.2088C19.0116 20.5651 19.4415 19.8136 19.7096 18.9995C19.9777 18.1854 20.0783 17.3255 20.0056 16.4714C19.9329 15.6174 19.6882 14.7869 19.2863 14.0299C18.8844 13.2728 18.3336 12.6049 17.667 12.0661C17.0004 11.5273 16.2317 11.1289 15.4072 10.8948C14.5827 10.6607 13.7193 10.5957 12.869 10.7038C12.0188 10.8119 11.1991 11.0907 10.4594 11.5236C6.37144 8.28854 0.269988 11.1068 0.160976 16.3778C0.130793 17.7384 0.541298 19.0723 1.33125 20.1804C-1.8365 24.278 0.988182 30.3153 6.23036 30.4404C7.30006 30.4631 8.35814 30.2149 9.30611 29.7188C10.2541 29.2227 11.0611 28.4948 11.6521 27.6028L21.9313 33.669Z" fill="#F26921"/>
<path d="M118.509 46.0918C130.971 46.0918 141.074 35.9889 141.074 23.5264C141.074 11.0638 130.971 0.960938 118.509 0.960938C106.046 0.960938 95.9434 11.0638 95.9434 23.5264C95.9434 35.9889 106.046 46.0918 118.509 46.0918Z" fill="#F5F5F5"/>
<path d="M118.51 47.0546C113.856 47.0546 109.308 45.6747 105.439 43.0895C101.57 40.5043 98.5541 36.8299 96.7733 32.5308C94.9926 28.2318 94.5267 23.5012 95.4345 18.9374C96.3423 14.3735 98.5831 10.1813 101.873 6.89099C105.164 3.60064 109.356 1.35989 113.92 0.452081C118.484 -0.455725 123.214 0.0101939 127.513 1.79092C131.812 3.57164 135.487 6.58719 138.072 10.4562C140.657 14.3253 142.037 18.874 142.037 23.5273C142.03 29.765 139.549 35.7454 135.139 40.1561C130.728 44.5669 124.747 47.0478 118.51 47.0546ZM118.51 1.92695C114.237 1.92695 110.06 3.19406 106.507 5.56803C102.954 7.942 100.185 11.3162 98.5503 15.2639C96.9153 19.2116 96.4877 23.5556 97.3215 27.7463C98.1554 31.9371 100.213 35.7865 103.235 38.8077C106.256 41.8288 110.106 43.8861 114.297 44.7193C118.488 45.5526 122.832 45.1243 126.779 43.4887C130.727 41.8531 134.101 39.0836 136.474 35.5305C138.847 31.9774 140.114 27.8002 140.113 23.5273C140.107 17.7998 137.829 12.3086 133.779 8.25898C129.729 4.20932 124.237 1.93204 118.51 1.92695Z" fill="#5E6175"/>
<path d="M122.353 28.6989H124.082V15.252L120.805 13.5078H111.282C110.439 13.5074 109.62 13.7924 108.96 14.3163C108.299 14.8402 107.835 15.5723 107.643 16.3934L105.748 24.114C105.62 24.6619 105.618 25.2316 105.741 25.7806C105.864 26.3296 106.109 26.8437 106.459 27.2846C106.809 27.7254 107.253 28.0816 107.76 28.3265C108.266 28.5714 108.822 28.6987 109.384 28.6989H115.909L115.341 33.0273C115.225 33.9502 115.396 34.8863 115.829 35.7092C116.263 36.5321 116.939 37.202 117.765 37.6283L122.353 28.6989Z" fill="#DEE1EC"/>
<path d="M118.169 38.9417L117.191 38.403C116.224 37.8758 115.439 37.0688 114.938 36.0876C114.437 35.1064 114.245 33.9968 114.386 32.9043L114.812 29.6564H109.384C108.676 29.6564 107.977 29.4962 107.34 29.1879C106.702 28.8796 106.143 28.4311 105.703 27.8761C105.263 27.3211 104.955 26.6738 104.8 25.9827C104.646 25.2916 104.65 24.5746 104.812 23.8852L106.71 16.1518C106.95 15.1202 107.533 14.2006 108.363 13.5435C109.194 12.8865 110.223 12.531 111.282 12.5352H121.048L125.043 14.6705V29.6564H122.937L118.169 38.9417ZM111.282 14.4653C110.656 14.4637 110.047 14.6746 109.556 15.0637C109.065 15.4527 108.721 15.9969 108.579 16.6071L106.681 24.3469C106.588 24.7534 106.587 25.1757 106.679 25.5824C106.772 25.9892 106.954 26.3699 107.214 26.6962C107.474 27.0225 107.804 27.286 108.18 27.4672C108.555 27.6483 108.967 27.7423 109.384 27.7423H117.002L116.297 33.1576C116.224 33.7198 116.287 34.2912 116.481 34.8239C116.674 35.3567 116.993 35.8353 117.409 36.2196L121.766 27.7423H123.12V15.8248L120.555 14.4653H111.282Z" fill="#5E6175"/>
<path d="M123.088 12.5117H132.28V30.5724H123.088V12.5117Z" fill="#F26921"/>
<path d="M105.818 100.344L107.178 98.9837L111.612 103.418L110.252 104.778L105.818 100.344Z" fill="#5E6175"/>
<path d="M109.809 93.5352H116.08V95.4589H109.809V93.5352Z" fill="#5E6175"/>
<path d="M100.77 103.121H102.693V109.392H100.77V103.121Z" fill="#5E6175"/>
<path d="M79.6448 8.02004C78.9772 8.01835 78.3281 7.80079 77.7943 7.39983C77.2606 6.99888 76.8708 6.43605 76.6832 5.79536C76.4957 5.15468 76.5203 4.47051 76.7536 3.84501C76.9868 3.2195 77.4161 2.68622 77.9774 2.32477C78.5387 1.96332 79.2018 1.7931 79.8677 1.83952C80.5337 1.88594 81.1668 2.14651 81.6725 2.58233C82.1782 3.01815 82.5293 3.60584 82.6736 4.25765C82.8178 4.90946 82.7473 5.59044 82.4727 6.1989C82.2265 6.74236 81.8287 7.20326 81.3271 7.52628C80.8255 7.84931 80.2414 8.02075 79.6448 8.02004ZM79.6448 3.75255C79.4336 3.75206 79.2263 3.80855 79.0445 3.91606C78.8628 4.02357 78.7135 4.17813 78.6122 4.36342C78.511 4.54872 78.4616 4.7579 78.4693 4.9689C78.4771 5.17991 78.5416 5.38492 78.6561 5.56233C78.7705 5.73974 78.9308 5.88298 79.1199 5.97693C79.309 6.07089 79.5199 6.11208 79.7304 6.09617C79.941 6.08026 80.1433 6.00785 80.3162 5.88655C80.489 5.76525 80.6259 5.59956 80.7124 5.40697C80.7924 5.22896 80.8268 5.03382 80.8123 4.83921C80.7979 4.6446 80.7351 4.45665 80.6298 4.2924C80.5244 4.12814 80.3797 3.99275 80.2089 3.89849C80.038 3.80423 79.8463 3.75407 79.6512 3.75255H79.6448Z" fill="#5E6175"/>
<path d="M64.6335 18.3609C63.8582 18.3596 63.098 18.1465 62.435 17.7447C61.772 17.3428 61.2314 16.7675 60.8716 16.0807C60.5119 15.394 60.3466 14.622 60.3936 13.8481C60.4406 13.0743 60.6982 12.328 61.1385 11.6899C61.5788 11.0518 62.1851 10.5461 62.8918 10.2275C63.5986 9.90886 64.379 9.78941 65.1487 9.88204C65.9185 9.97467 66.6482 10.2758 67.2592 10.753C67.8703 11.2302 68.3393 11.8653 68.6156 12.5897C68.8624 13.2344 68.9485 13.9296 68.8664 14.6151C68.7842 15.3005 68.5364 15.9557 68.1444 16.524C67.7523 17.0922 67.2277 17.5564 66.616 17.8764C66.0043 18.1965 65.3239 18.3628 64.6335 18.3609ZM64.6335 11.7721C64.2137 11.7712 63.8014 11.8838 63.4403 12.0979C63.0791 12.3119 62.7825 12.6196 62.5817 12.9882C62.381 13.3569 62.2835 13.773 62.2996 14.1925C62.3157 14.612 62.4448 15.0194 62.6733 15.3716C62.9018 15.7238 63.2212 16.0077 63.5977 16.1935C63.9742 16.3792 64.3938 16.4598 64.8123 16.4267C65.2309 16.3936 65.6327 16.2482 65.9754 16.0056C66.318 15.7631 66.5889 15.4326 66.7592 15.0489C66.9156 14.6945 66.9814 14.3068 66.9506 13.9207C66.9199 13.5347 66.7935 13.1623 66.5829 12.8372C66.3724 12.5121 66.0842 12.2446 65.7445 12.0586C65.4047 11.8727 65.024 11.7742 64.6367 11.7721H64.6335Z" fill="#5E6175"/>
<path d="M136.135 69.3889H134.211V67.4652H136.135V69.3889ZM136.135 64.2589H134.211V62.3352H136.135V64.2589ZM136.135 59.129H134.211V57.2052H136.135V59.129ZM136.135 53.999H134.211V52.0753H136.135V53.999ZM136.135 48.869H134.211V46.9453H136.135V48.869Z" fill="#A9AFC4"/>
<path d="M130.892 69.369H128.968V67.4453H130.892V69.369ZM125.762 69.369H123.838V67.4453H125.762V69.369Z" fill="#A9AFC4"/>
<path d="M115.654 69.369H113.731V67.4453H115.654V69.369ZM110.524 69.369H108.601V67.4453H110.524V69.369ZM105.394 69.369H103.471V67.4453H105.394V69.369Z" fill="#A9AFC4"/>
<defs>
<linearGradient id="paint0_linear_1341_9941" x1="28.7285" y1="59.8686" x2="120.269" y2="59.8686" gradientUnits="userSpaceOnUse">
<stop stop-color="#A9AFC4"/>
<stop offset="1" stop-color="#D4D8E5"/>
</linearGradient>
<linearGradient id="paint1_linear_1341_9941" x1="90.666" y1="38.1239" x2="120.269" y2="38.1239" gradientUnits="userSpaceOnUse">
<stop stop-color="#CACFDD"/>
<stop offset="1" stop-color="#EEF0F1"/>
</linearGradient>
<linearGradient id="paint2_linear_1341_9941" x1="28.7285" y1="62.4381" x2="99.3553" y2="62.4381" gradientUnits="userSpaceOnUse">
<stop stop-color="#CACFDD"/>
<stop offset="1" stop-color="#EEF0F1"/>
</linearGradient>
</defs>
</svg>
