<svg width="24" height="19" viewBox="0 0 24 19" fill="none" xmlns="http://www.w3.org/2000/svg">
<path d="M12.0004 0C5.38328 0 0 5.42649 0 12.0968V19.0058H1.46556V12.0968C1.46556 6.24169 6.19111 1.4782 11.9996 1.4782C17.808 1.4782 22.5344 6.24169 22.5344 12.0968V19.0058H24V12.0968C24.0009 5.42649 18.6176 0 12.0004 0Z" fill="#42695A"/>
<path d="M10.9148 18.9426C10.1833 18.4651 9.72864 17.5746 9.72864 16.6186C9.72864 16.1253 9.84839 15.6425 10.074 15.2235C10.461 14.4993 11.0545 13.9106 11.5387 13.2555C11.8233 12.8697 12.1122 12.4761 12.3569 12.0633C12.6606 11.5507 12.8498 10.7994 12.8498 10.104C12.8498 8.85411 12.2849 7.67505 11.3391 6.94732C11.333 6.94119 11.3261 6.9377 11.3174 6.93682C11.3053 6.93507 11.2931 6.94119 11.2862 6.95082C11.2775 6.96306 11.2775 6.97881 11.2862 6.99018C11.451 7.35054 11.5343 7.7389 11.5343 8.1465C11.5343 8.485 11.4753 8.81388 11.3599 9.12439C10.9426 10.3892 9.92995 11.3942 9.91867 11.4055C8.79238 12.6502 8.45571 13.2327 8.45311 13.2371C8.06611 13.852 7.86133 14.571 7.86133 15.3153C7.86133 17.1863 9.16463 18.7721 10.8922 19.0047C10.894 19.0047 10.8957 19.0047 10.8966 19.0047C10.9105 19.0047 10.9235 18.996 10.9287 18.982C10.9339 18.9671 10.9287 18.9505 10.9157 18.9409" fill="#F26921"/>
<path d="M15.7994 13.5868C14.956 11.792 13.8366 10.5334 13.8254 10.5211C13.8149 10.5097 13.7993 10.5071 13.7863 10.5124C13.7733 10.5185 13.7646 10.5325 13.7664 10.5473C13.782 10.6943 13.7898 10.8439 13.7898 10.9926C13.7898 12.1069 13.3325 12.9833 12.6878 13.851C12.5255 14.0688 12.3633 14.2875 12.2027 14.507L11.6847 15.184C11.6622 15.212 11.6387 15.2426 11.6144 15.2758C11.1979 15.8383 10.489 17.1284 11.5259 18.3976C11.5372 18.4116 11.5589 18.4107 11.5684 18.3958C11.604 18.3442 11.6439 18.2917 11.6899 18.2401C11.952 17.9698 12.2244 17.7092 12.4952 17.4485C12.9863 16.9753 13.3768 16.4829 13.5564 15.8138C13.5807 15.7246 13.6006 15.6345 13.6154 15.5452C13.6171 15.5365 13.6232 15.5286 13.6319 15.526C13.6405 15.5234 13.6483 15.526 13.6518 15.5339C13.6518 15.5339 14.4284 16.7444 14.1377 18.583C14.1152 18.7238 14.0805 18.8603 14.0353 18.9915C14.0319 19.002 14.0423 19.0107 14.0518 19.0063C15.3074 18.3512 16.1413 16.9211 16.1413 15.3161C16.1413 14.7126 16.0267 14.1318 15.8003 13.5877" fill="#F26921"/>
<path d="M21.6625 19.0052H20.8989V12.048C20.8989 7.10172 16.9065 3.07733 11.9996 3.07733C7.09273 3.07733 3.09952 7.10172 3.09952 12.048V19.0052H2.33594V12.048C2.33594 6.6775 6.67102 2.30762 11.9996 2.30762C17.3282 2.30762 21.6625 6.6775 21.6625 12.048V19.0052Z" fill="#42695A"/>
</svg>
