<svg width="17" height="18" viewBox="0 0 17 18" fill="none" xmlns="http://www.w3.org/2000/svg">
<path d="M10.4625 6.54379C10.4625 10.125 8.23844 13.0282 5.49492 13.0282C2.7514 13.0282 0.527344 10.125 0.527344 6.54379C0.527344 2.96257 2.7514 0.527344 5.49492 0.527344C8.23844 0.527344 10.4625 2.96257 10.4625 6.54379Z" stroke="#42695A" stroke-width="1.05641" stroke-miterlimit="10"/>
<path d="M6.84894 7.00386L7.53557 5.81463H6.16027L5.49435 4.66797L4.82842 5.81463H3.45312L4.13975 7.00386L3.45312 8.19313H4.82635L5.49435 9.3501L6.16235 8.19313H7.53557L6.84894 7.00386Z" stroke="#42695A" stroke-width="1.05641" stroke-miterlimit="10"/>
<path d="M6.41488 12.918L6.98924 15.5362H3.99609L4.57043 12.9181" stroke="#42695A" stroke-width="1.05641" stroke-miterlimit="10"/>
<path d="M5.49609 15.5352V18.0001" stroke="#42695A" stroke-width="1.05641" stroke-miterlimit="10"/>
<path d="M8.34854 1.54526C9.15553 0.891487 10.1388 0.527344 11.1997 0.527344C13.9432 0.527344 16.1672 2.96257 16.1672 6.54379C16.1672 10.125 13.9432 13.0282 11.1997 13.0282C10.1384 13.0282 9.15479 12.5937 8.34766 11.8536" stroke="#42695A" stroke-width="1.05641" stroke-miterlimit="10"/>
<path d="M10.4309 5.81463L11.196 4.66797L11.8619 5.81463H13.2372L12.5506 7.00386L13.2372 8.19313H11.8639L11.196 9.3501L10.528 8.19313H10.3008" stroke="#42695A" stroke-width="1.05641" stroke-miterlimit="10"/>
<path d="M12.1219 12.918L12.6963 15.5362H9.70312L10.2775 12.9181" stroke="#42695A" stroke-width="1.05641" stroke-miterlimit="10"/>
<path d="M11.1992 15.5352V18.0001" stroke="#42695A" stroke-width="1.05641" stroke-miterlimit="10"/>
</svg>
