<svg width="20" height="20" viewBox="0 0 20 20" fill="none" xmlns="http://www.w3.org/2000/svg">
<path d="M6.1113 10.4145H6.09299C4.43057 10.4145 3.07812 9.06205 3.07812 7.39967C3.07812 5.73725 4.43061 4.38477 6.09299 4.38477H6.1113C7.77372 4.38477 9.12621 5.73725 9.12621 7.39963C9.12621 9.06205 7.77372 10.4145 6.1113 10.4145ZM6.09299 5.53863C5.06682 5.53863 4.23199 6.3735 4.23199 7.39963C4.23199 8.42581 5.06686 9.26067 6.09299 9.26067H6.1113C7.13747 9.26067 7.97234 8.42581 7.97234 7.39967C7.97234 6.3735 7.13747 5.53863 6.1113 5.53863H6.09299Z" fill="#42695A"/>
<path d="M13.3371 9.07291H13.3158C11.4293 9.07291 9.89453 7.53815 9.89453 5.65169C9.89453 3.76523 11.4293 2.23047 13.3158 2.23047H13.3371C15.2236 2.23047 16.7583 3.76523 16.7583 5.65169C16.7583 7.53815 15.2235 9.07291 13.3371 9.07291ZM13.3157 3.38434C12.0655 3.38434 11.0484 4.40147 11.0484 5.65169C11.0484 6.90191 12.0655 7.91904 13.3157 7.91904H13.3371C14.5873 7.91904 15.6044 6.90191 15.6044 5.65169C15.6044 4.40147 14.5873 3.38434 13.3371 3.38434H13.3157Z" fill="#42695A"/>
<path d="M17.8857 17.7697H8.43631C8.11769 17.7697 7.85938 17.5114 7.85938 17.1928V11.3258C7.85938 10.8153 8.20488 10.3708 8.69958 10.2449L11.1408 9.6234C11.4089 9.55509 11.6875 9.68671 11.8052 9.93691L13.4102 13.349L15.0081 9.93775C15.1252 9.68779 15.4031 9.55582 15.6707 9.62282L18.1567 10.2455C18.6539 10.3701 19.0011 10.815 19.0011 11.3275V16.6543C19.0011 17.2694 18.5008 17.7697 17.8857 17.7697ZM9.01324 16.6158H17.8473V11.3575L15.8514 10.8577L13.9338 14.9515C13.731 15.3844 13.0947 15.3891 12.8892 14.9524L10.9638 10.8592L9.01324 11.3557V16.6158Z" fill="#42695A"/>
<path d="M5.76172 16.6172H6.89874V17.7711H5.76172V16.6172Z" fill="#42695A"/>
<path d="M4.76004 17.7682H2.11541C1.50036 17.7682 1 17.2678 1 16.6528V12.1193C1 11.6368 1.30781 11.2112 1.76594 11.06L3.54705 10.4724C3.76879 10.3993 4.01283 10.467 4.16514 10.644L6.10187 12.8951L6.58653 12.3318L7.4612 13.0843L6.53919 14.1559C6.31326 14.4185 5.89048 14.4186 5.66452 14.1559L3.54213 11.6891L2.15387 12.1471V16.6143H4.76004V17.7682Z" fill="#42695A"/>
</svg>
