<svg width="17" height="15" viewBox="0 0 17 15" fill="none" xmlns="http://www.w3.org/2000/svg">
<path fill-rule="evenodd" clip-rule="evenodd" d="M0 13.2C0 12.5372 0.537252 12 1.2 12H8.4C9.06276 12 9.6 12.5372 9.6 13.2C9.6 13.8628 9.06276 14.4 8.4 14.4H1.2C0.537252 14.4 0 13.8628 0 13.2ZM0 1.2C0 0.537252 0.537252 0 1.2 0H15.6C16.2628 0 16.8 0.537252 16.8 1.2C16.8 1.86274 16.2628 2.4 15.6 2.4H1.2C0.537252 2.4 0 1.86274 0 1.2ZM0 7.2C0 6.53726 0.537252 6 1.2 6H15.6C16.2628 6 16.8 6.53726 16.8 7.2C16.8 7.86276 16.2628 8.4 15.6 8.4H1.2C0.537252 8.4 0 7.86276 0 7.2Z" fill="#F26921"/>
</svg>
