<svg width="18" height="18" viewBox="0 0 18 18" fill="none" xmlns="http://www.w3.org/2000/svg">
<path d="M9 0L1.86982e-06 5.475V7.00793C-0.00232754 8.7612 2.17239 9.60635 3.35294 8.33894C4.11967 9.15176 5.40836 9.15321 6.17647 8.33894C6.77051 8.96869 7.70495 9.12886 8.47059 8.73642V11.0667H4.76471V12.1256H8.47059V17.9491H9.52941V12.1256H13.2353V11.0667H9.52941V8.73642C10.2962 9.12946 11.2303 8.96784 11.8235 8.33894C12.5902 9.15176 13.879 9.15321 14.6471 8.33894C15.8282 9.60688 18.0026 8.76028 18 7.00793V5.475L9 0ZM16.9412 7.00793C16.8967 8.17719 15.2206 8.1763 15.1765 7.00793V6.30205H14.1176V7.00793C14.0731 8.17719 12.397 8.1763 12.3529 7.00793V6.30205H11.2941V7.00793C11.2496 8.17719 9.57349 8.1763 9.52941 7.00793V6.30205H8.47059V7.00793C8.42608 8.17719 6.74996 8.1763 6.70588 7.00793V6.30205H5.64706V7.00793C5.60255 8.17719 3.92644 8.1763 3.88235 7.00793V6.30205H2.82353V7.00793C2.77902 8.17719 1.10291 8.1763 1.05883 7.00793V6.07027L9 1.23935L16.9412 6.07023V7.00793Z" fill="#42695A"/>
<path d="M15.8819 13.1843H11.1172V17.949H12.176V16.3608H15.8819V17.949H16.9407C16.9407 17.1658 16.9407 10.8217 16.9407 10.0078H15.8819V13.1843ZM12.176 14.2431H15.8819V15.3019H12.176V14.2431Z" fill="#42695A"/>
<path d="M2.11742 10.0078H1.05859V17.949H2.11742V16.3608H5.8233V17.949H6.88212C6.88212 17.4267 6.88212 13.7227 6.88212 13.1843H2.11742V10.0078ZM5.8233 15.3019H2.11742V14.2431H5.8233V15.3019Z" fill="#42695A"/>
</svg>
