<svg width="36" height="36" viewBox="0 0 36 36" fill="none" xmlns="http://www.w3.org/2000/svg">
<circle opacity="0.05" cx="18" cy="18" r="18" fill="#677381"/>
<path d="M21.3981 9.11133H14.607C11.5776 9.11133 9.11719 11.5718 9.11719 14.6011V21.3922C9.11719 24.4215 11.5776 26.882 14.607 26.882H21.3981C24.4274 26.882 26.8878 24.4215 26.8878 21.3922V14.6011C26.8878 11.5718 24.4274 9.11133 21.3981 9.11133ZM24.9038 21.3993C24.9038 23.3335 23.3323 24.9122 21.391 24.9122H14.5998C12.6656 24.9122 11.087 23.3407 11.087 21.3993V14.6082C11.087 12.674 12.6585 11.0953 14.5998 11.0953H21.391C23.3252 11.0953 24.9038 12.6669 24.9038 14.6082V21.3993Z" fill="#677381"/>
<path d="M17.9991 13.4551C15.496 13.4551 13.4551 15.496 13.4551 17.9991C13.4551 20.5022 15.496 22.5431 17.9991 22.5431C20.5022 22.5431 22.5431 20.5022 22.5431 17.9991C22.5431 15.496 20.5022 13.4551 17.9991 13.4551ZM17.9991 20.7582C16.4773 20.7582 15.24 19.5209 15.24 17.9991C15.24 16.4773 16.4773 15.24 17.9991 15.24C19.5209 15.24 20.7582 16.4773 20.7582 17.9991C20.7582 19.5209 19.5209 20.7582 17.9991 20.7582Z" fill="#677381"/>
<path d="M22.8885 13.9557C23.3072 13.8878 23.5915 13.4934 23.5237 13.0748C23.4558 12.6561 23.0614 12.3718 22.6428 12.4396C22.2241 12.5075 21.9398 12.9019 22.0076 13.3205C22.0755 13.7392 22.4699 14.0235 22.8885 13.9557Z" fill="#677381"/>
</svg>
