<svg width="16" height="21" viewBox="0 0 16 21" fill="none" xmlns="http://www.w3.org/2000/svg">
<path d="M13.6569 14.2031L8 20.0862L2.34311 14.2031C1.2243 13.0395 0.46239 11.557 0.153715 9.94314C-0.154961 8.32915 0.00347471 6.65633 0.608977 5.13605C1.21448 3.61577 2.23986 2.31637 3.55545 1.40217C4.87104 0.487959 6.41776 0 8 0C9.58222 0 11.129 0.487959 12.4445 1.40217C13.7602 2.31637 14.7855 3.61577 15.391 5.13605C15.9965 6.65633 16.1549 8.32915 15.8463 9.94314C15.5376 11.557 14.7757 13.0395 13.6569 14.2031ZM8 12.0177C8.94302 12.0177 9.84738 11.6281 10.5141 10.9346C11.181 10.2412 11.5556 9.30065 11.5556 8.31991C11.5556 7.33922 11.181 6.39867 10.5141 5.7052C9.84738 5.01174 8.94302 4.62215 8 4.62215C7.05701 4.62215 6.15264 5.01174 5.48585 5.7052C4.81905 6.39867 4.44444 7.33922 4.44444 8.31991C4.44444 9.30065 4.81905 10.2412 5.48585 10.9346C6.15264 11.6281 7.05701 12.0177 8 12.0177ZM8 10.1688C7.52853 10.1688 7.07632 9.97402 6.74292 9.62726C6.40953 9.28059 6.22222 8.81033 6.22222 8.31991C6.22222 7.82958 6.40953 7.3593 6.74292 7.01257C7.07632 6.66584 7.52853 6.47104 8 6.47104C8.47147 6.47104 8.92365 6.66584 9.25707 7.01257C9.59049 7.3593 9.77778 7.82958 9.77778 8.31991C9.77778 8.81033 9.59049 9.28059 9.25707 9.62726C8.92365 9.97402 8.47147 10.1688 8 10.1688Z" fill="#42695A"/>
</svg>
