<svg width="142" height="124" viewBox="0 0 142 124" fill="none" xmlns="http://www.w3.org/2000/svg">
<path d="M116.718 23.4336H4.64451C2.60581 23.4336 0.953125 25.0863 0.953125 27.125V99.2135C0.953125 101.252 2.60581 102.905 4.64451 102.905H116.718C118.757 102.905 120.41 101.252 120.41 99.2135V27.125C120.41 25.0863 118.757 23.4336 116.718 23.4336Z" fill="#DEE1EC"/>
<path d="M120.414 27.1345V87.6879H0.957031V27.16C0.957031 26.1722 1.34919 25.2249 2.04733 24.5261C2.74547 23.8274 3.69247 23.4344 4.68021 23.4336H116.716C117.697 23.4344 118.637 23.8247 119.331 24.5187C120.024 25.2127 120.414 26.1535 120.414 27.1345Z" fill="#F5F5F5"/>
<path style="mix-blend-mode:multiply" d="M104.235 23.4336V70.7189C104.233 73.3407 103.19 75.8543 101.336 77.7081C99.4824 79.562 96.9688 80.6046 94.347 80.6071H26.4046C23.7831 80.6046 21.2698 79.5619 19.4165 77.708C17.5631 75.854 16.5212 73.3404 16.5195 70.7189V23.4336H104.235Z" fill="url(#paint0_linear_432_10222)"/>
<path d="M46.957 102.91H74.4119V117.781H46.957V102.91Z" fill="#DEE1EC"/>
<path d="M76.8143 122.489H44.5552C43.9304 122.489 43.3311 122.241 42.8893 121.799C42.4474 121.357 42.1992 120.758 42.1992 120.133C42.1992 119.508 42.4474 118.909 42.8893 118.467C43.3311 118.026 43.9304 117.777 44.5552 117.777H76.8143C77.4391 117.777 78.0384 118.026 78.4802 118.467C78.9221 118.909 79.1703 119.508 79.1703 120.133C79.1703 120.758 78.9221 121.357 78.4802 121.799C78.0384 122.241 77.4391 122.489 76.8143 122.489Z" fill="#DEE1EC"/>
<path d="M76.814 123.441H44.5549C43.6953 123.414 42.8798 123.054 42.2811 122.436C41.6824 121.819 41.3477 120.993 41.3477 120.132C41.3477 119.272 41.6824 118.446 42.2811 117.829C42.8798 117.211 43.6953 116.851 44.5549 116.824H76.814C77.6737 116.851 78.4892 117.211 79.0878 117.829C79.6865 118.446 80.0213 119.272 80.0213 120.132C80.0213 120.993 79.6865 121.819 79.0878 122.436C78.4892 123.054 77.6737 123.414 76.814 123.441ZM44.5549 118.732C44.195 118.749 43.8555 118.904 43.6069 119.165C43.3582 119.426 43.2195 119.772 43.2195 120.132C43.2195 120.493 43.3582 120.839 43.6069 121.1C43.8555 121.361 44.195 121.516 44.5549 121.533H76.814C77.1739 121.516 77.5134 121.361 77.7621 121.1C78.0107 120.839 78.1494 120.493 78.1494 120.132C78.1494 119.772 78.0107 119.426 77.7621 119.165C77.5134 118.904 77.1739 118.749 76.814 118.732H44.5549Z" fill="#5E6175"/>
<path style="mix-blend-mode:multiply" d="M46.957 102.91H74.4119V110.757H46.957V102.91Z" fill="url(#paint1_linear_432_10222)"/>
<path d="M75.3665 118.731H46.0039V101.953H75.3665V118.731ZM47.9116 116.824H73.4588V103.861H47.9116V116.824Z" fill="#5E6175"/>
<path style="mix-blend-mode:multiply" d="M116.715 102.908H96.6013C92.2899 87.1986 104.108 71.6445 120.428 71.6445V99.2043C120.429 99.6918 120.334 100.175 120.147 100.625C119.961 101.075 119.687 101.485 119.342 101.829C118.997 102.173 118.587 102.446 118.136 102.631C117.685 102.816 117.202 102.911 116.715 102.908Z" fill="url(#paint2_linear_432_10222)"/>
<path d="M116.722 103.859H4.64524C4.03438 103.858 3.42967 103.737 2.86563 103.502C2.30159 103.268 1.78928 102.924 1.35793 102.492C0.926576 102.059 0.584644 101.546 0.351652 100.981C0.118659 100.417 -0.000831291 99.8116 4.35283e-06 99.2008V27.125C0.00168451 25.8932 0.491531 24.7123 1.36223 23.841C2.23292 22.9697 3.41347 22.4791 4.64524 22.4766H116.722C117.954 22.4791 119.134 22.9697 120.005 23.841C120.876 24.7123 121.366 25.8932 121.367 27.125V99.2008C121.368 99.8116 121.249 100.417 121.016 100.981C120.783 101.546 120.441 102.059 120.009 102.492C119.578 102.924 119.066 103.268 118.502 103.502C117.938 103.737 117.333 103.858 116.722 103.859ZM4.64524 24.3715C3.91916 24.3732 3.22335 24.6626 2.71024 25.1763C2.19712 25.69 1.90854 26.3862 1.9077 27.1123V99.2008C1.90854 99.9265 2.19723 100.622 2.71043 101.136C3.22364 101.649 3.91945 101.937 4.64524 101.938H116.722C117.448 101.937 118.144 101.649 118.657 101.136C119.17 100.622 119.459 99.9265 119.46 99.2008V27.125C119.459 26.3989 119.17 25.7028 118.657 25.189C118.144 24.6753 117.448 24.3859 116.722 24.3843L4.64524 24.3715Z" fill="#5E6175"/>
<path d="M120.416 116.797C131.7 116.797 140.847 107.642 140.847 96.3496C140.847 85.0569 131.7 75.9023 120.416 75.9023C109.132 75.9023 99.9844 85.0569 99.9844 96.3496C99.9844 107.642 109.132 116.797 120.416 116.797Z" fill="#F5F5F5"/>
<path d="M120.414 117.743C116.183 117.743 112.047 116.488 108.529 114.137C105.01 111.787 102.268 108.446 100.649 104.537C99.0292 100.628 98.6052 96.3263 99.4302 92.1763C100.255 88.0263 102.292 84.2141 105.284 81.2218C108.275 78.2294 112.087 76.1912 116.236 75.365C120.386 74.5388 124.688 74.9615 128.597 76.5799C132.507 78.1982 135.849 80.9395 138.2 84.457C140.552 87.9745 141.808 92.1103 141.809 96.3415C141.807 102.016 139.552 107.457 135.54 111.469C131.529 115.482 126.088 117.738 120.414 117.743ZM120.414 76.8608C116.56 76.8608 112.792 78.0039 109.587 80.1454C106.382 82.287 103.885 85.3308 102.41 88.892C100.935 92.4532 100.55 96.3717 101.302 100.152C102.055 103.932 103.911 107.405 106.637 110.13C109.363 112.855 112.836 114.71 116.616 115.461C120.397 116.213 124.315 115.826 127.876 114.35C131.437 112.874 134.48 110.375 136.62 107.17C138.761 103.964 139.903 100.196 139.901 96.3415C139.896 91.1754 137.841 86.2224 134.188 82.5699C130.534 78.9175 125.58 76.8642 120.414 76.8608Z" fill="#5E6175"/>
<path d="M60.6819 98.8912C62.668 98.8912 64.2779 97.2812 64.2779 95.2952C64.2779 93.3092 62.668 91.6992 60.6819 91.6992C58.6959 91.6992 57.0859 93.3092 57.0859 95.2952C57.0859 97.2812 58.6959 98.8912 60.6819 98.8912Z" fill="#5E6175"/>
<path d="M114.17 90.0508C112.88 91.3467 112.002 92.9959 111.648 94.7903C111.294 96.5846 111.479 98.4437 112.181 100.133C112.882 101.822 114.069 103.265 115.59 104.281C117.111 105.296 118.899 105.838 120.728 105.838C122.557 105.838 124.345 105.296 125.866 104.281C127.388 103.265 128.574 101.822 129.276 100.133C129.977 98.4437 130.163 96.5846 129.808 94.7903C129.454 92.9959 128.577 91.3467 127.286 90.0508" stroke="#F26921" stroke-width="4.76923" stroke-miterlimit="10"/>
<path d="M120.727 95.2983V84.3164" stroke="#F26921" stroke-width="4.76923" stroke-miterlimit="10"/>
<path d="M99.5263 17.1374V70.7181C99.5268 71.3997 99.3928 72.0746 99.1322 72.7043C98.8716 73.3341 98.4894 73.9063 98.0075 74.3882C97.5255 74.8701 96.9534 75.2523 96.3236 75.5129C95.6939 75.7735 95.019 75.9075 94.3374 75.9071H26.4045C25.7232 75.9071 25.0486 75.7728 24.4193 75.512C23.7899 75.2512 23.2181 74.8689 22.7365 74.3871C22.2549 73.9052 21.873 73.3331 21.6126 72.7036C21.3522 72.0741 21.2183 71.3994 21.2188 70.7181V17.1374C21.2179 16.4559 21.3514 15.7809 21.6117 15.151C21.8719 14.5211 22.2537 13.9486 22.7354 13.4664C23.217 12.9842 23.789 12.6017 24.4185 12.3407C25.0481 12.0797 25.723 11.9453 26.4045 11.9453H94.3374C95.7139 11.9462 97.0337 12.4936 98.0067 13.4672C98.9798 14.4408 99.5263 15.7609 99.5263 17.1374Z" fill="#F5F5F5"/>
<path d="M94.3381 76.8616H26.4052C24.7771 76.8591 23.2165 76.211 22.0655 75.0595C20.9146 73.9079 20.2673 72.347 20.2656 70.7189V17.1381C20.2665 15.5095 20.9134 13.9477 22.0644 12.7955C23.2154 11.6432 24.7766 10.9947 26.4052 10.9922H94.3381C95.9673 10.9939 97.5293 11.642 98.681 12.7943C99.8327 13.9467 100.48 15.5089 100.481 17.1381V70.7189C100.479 72.3475 99.8315 73.909 98.6799 75.0606C97.5282 76.2122 95.9668 76.8599 94.3381 76.8616ZM26.4052 12.8999C25.2823 12.9016 24.2059 13.3488 23.4124 14.1435C22.619 14.9381 22.1733 16.0152 22.1733 17.1381V70.7189C22.1742 71.8413 22.6202 72.9175 23.4135 73.7114C24.2069 74.5054 25.2828 74.9522 26.4052 74.9539H94.3381C95.4611 74.9531 96.5378 74.5066 97.3319 73.7126C98.1259 72.9185 98.5724 71.8418 98.5732 70.7189V17.1381C98.5724 16.0149 98.126 14.9378 97.3321 14.1433C96.5381 13.3487 95.4614 12.9016 94.3381 12.8999H26.4052Z" fill="#5E6175"/>
<path d="M99.5263 17.1374V23.4614H21.2188V17.1374C21.2179 16.4559 21.3514 15.7809 21.6117 15.151C21.8719 14.5211 22.2537 13.9486 22.7354 13.4664C23.217 12.9842 23.789 12.6017 24.4185 12.3407C25.0481 12.0797 25.723 11.9453 26.4045 11.9453H94.3374C95.7139 11.9462 97.0337 12.4936 98.0067 13.4672C98.9798 14.4408 99.5263 15.7609 99.5263 17.1374Z" fill="#5E6175"/>
<path d="M27.6067 19.6471C28.6796 19.6471 29.5494 18.7773 29.5494 17.7044C29.5494 16.6315 28.6796 15.7617 27.6067 15.7617C26.5338 15.7617 25.6641 16.6315 25.6641 17.7044C25.6641 18.7773 26.5338 19.6471 27.6067 19.6471Z" fill="#F5F5F5"/>
<path d="M35.0755 19.6471C36.1484 19.6471 37.0181 18.7773 37.0181 17.7044C37.0181 16.6315 36.1484 15.7617 35.0755 15.7617C34.0026 15.7617 33.1328 16.6315 33.1328 17.7044C33.1328 18.7773 34.0026 19.6471 35.0755 19.6471Z" fill="#F5F5F5"/>
<path d="M66.9645 67.7063H76.6651C77.4451 67.7063 78.1932 67.3964 78.7447 66.8449C79.2963 66.2933 79.6061 65.5453 79.6061 64.7652C79.6061 63.9852 79.2963 63.2372 78.7447 62.6856C78.1932 62.1341 77.4451 61.8242 76.6651 61.8242H66.9645C66.1845 61.8242 65.4364 62.1341 64.8848 62.6856C64.3333 63.2372 64.0234 63.9852 64.0234 64.7652C64.0234 65.5453 64.3333 66.2933 64.8848 66.8449C65.4364 67.3964 66.1845 67.7063 66.9645 67.7063Z" fill="#F26921"/>
<path d="M44.7106 67.7063H54.4112C55.1912 67.7063 55.9392 67.3964 56.4908 66.8449C57.0423 66.2933 57.3522 65.5453 57.3522 64.7652C57.3522 63.9852 57.0423 63.2372 56.4908 62.6856C55.9392 62.1341 55.1912 61.8242 54.4112 61.8242H44.7106C43.9305 61.8242 43.1825 62.1341 42.6309 62.6856C42.0794 63.2372 41.7695 63.9852 41.7695 64.7652C41.7695 65.5453 42.0794 66.2933 42.6309 66.8449C43.1825 67.3964 43.9305 67.7063 44.7106 67.7063Z" fill="#A9AFC4"/>
<path d="M52.6875 34.0742H65.8855V52.0192H52.6875V34.0742Z" fill="#DEE1EC"/>
<path d="M66.8401 52.9738H51.7344V33.1211H66.8401V52.9738ZM53.6421 51.0661H64.9324V35.0288H53.6421V51.0661Z" fill="#5E6175"/>
<path d="M65.8867 34.0749V52.02L71.1869 54.6144V31.4805L65.8867 34.0749Z" fill="#5E6175"/>
<path d="M72.1415 56.145L64.9336 52.6126V33.4784L72.1415 29.9492V56.145ZM66.8413 51.4235L70.2338 53.0991V33.0079L66.8413 34.658V51.4235Z" fill="#5E6175"/>
<path d="M62.2649 43.046L57.5783 38.7188V40.9285H47.1719V45.0173H57.5624V47.3765L62.2649 43.046Z" fill="#F26921"/>
<path d="M100.91 7.85938L104.866 3.90307L106.215 5.25181L102.259 9.20811L100.91 7.85938Z" fill="#5E6175"/>
<path d="M96.0273 0H97.935V5.5959H96.0273V0Z" fill="#5E6175"/>
<path d="M104.68 11.8477H110.276V13.7553H104.68V11.8477Z" fill="#5E6175"/>
<path d="M96.7978 86.3921H94.8901V84.4844H96.7978V86.3921ZM91.7106 86.3921H89.8029V84.4844H91.7106V86.3921ZM86.6234 86.3921H84.7157V84.4844H86.6234V86.3921ZM81.5362 86.3921H79.6285V84.4844H81.5362V86.3921ZM76.4491 86.3921H74.5414V84.4844H76.4491V86.3921ZM71.3619 86.3921H69.4542V84.4844H71.3619V86.3921ZM66.2747 86.3921H64.367V84.4844H66.2747V86.3921ZM61.1875 86.3921H59.2798V84.4844H61.1875V86.3921ZM56.1003 86.3921H54.1926V84.4844H56.1003V86.3921ZM51.0132 86.3921H49.1055V84.4844H51.0132V86.3921Z" fill="#A9AFC4"/>
<path d="M49.0547 79.0273H50.9624V80.935H49.0547V79.0273Z" fill="#A9AFC4"/>
<path d="M49.0547 70.5508H50.9624V72.4585H49.0547V70.5508Z" fill="#A9AFC4"/>
<path d="M28.101 123.685C27.4476 123.684 26.8055 123.515 26.2362 123.195C25.6668 122.874 25.1894 122.412 24.8496 121.854C24.5098 121.296 24.319 120.66 24.2954 120.007C24.2719 119.354 24.4165 118.706 24.7153 118.125C25.0141 117.544 25.4571 117.05 26.0018 116.689C26.5466 116.328 27.1749 116.113 27.8265 116.065C28.4781 116.017 29.1312 116.137 29.7232 116.413C30.3151 116.69 30.8262 117.114 31.2073 117.644C31.6171 118.215 31.8614 118.888 31.9133 119.588C31.9652 120.289 31.8227 120.99 31.5014 121.615C31.1802 122.24 30.6927 122.763 30.0927 123.129C29.4927 123.494 28.8035 123.687 28.101 123.685ZM28.101 117.962C27.7988 117.958 27.4999 118.026 27.229 118.16C26.9581 118.294 26.723 118.491 26.5429 118.733C26.3628 118.976 26.243 119.258 26.1933 119.556C26.1436 119.854 26.1654 120.16 26.257 120.448C26.3486 120.736 26.5073 120.998 26.7201 121.213C26.9328 121.427 27.1935 121.588 27.4807 121.683C27.7679 121.777 28.0734 121.801 28.3719 121.754C28.6705 121.707 28.9536 121.59 29.1979 121.412C29.5221 121.176 29.7636 120.844 29.8882 120.463C30.0128 120.082 30.0141 119.671 29.892 119.289C29.7698 118.907 29.5304 118.573 29.2077 118.335C28.8851 118.097 28.4956 117.967 28.0946 117.962H28.101Z" fill="#5E6175"/>
<path d="M10.6276 115.267C10.1176 115.268 9.61599 115.138 9.17101 114.889C8.72604 114.64 8.35273 114.28 8.08707 113.845C7.8214 113.409 7.67233 112.913 7.65422 112.403C7.6361 111.894 7.74955 111.388 7.98364 110.935C8.21773 110.482 8.56456 110.096 8.99073 109.816C9.41689 109.536 9.90802 109.37 10.4168 109.335C10.9256 109.3 11.4349 109.396 11.8956 109.615C12.3563 109.834 12.7529 110.168 13.0472 110.584C13.3623 111.028 13.5491 111.55 13.5873 112.093C13.6255 112.636 13.5135 113.179 13.2636 113.663C13.0138 114.146 12.6357 114.552 12.1708 114.835C11.7058 115.118 11.172 115.267 10.6276 115.267ZM10.6276 111.239C10.4605 111.239 10.2957 111.279 10.1467 111.354C9.99774 111.43 9.86874 111.54 9.77023 111.675C9.67172 111.81 9.60648 111.967 9.57982 112.132C9.55315 112.297 9.56582 112.466 9.61678 112.625C9.66775 112.784 9.75557 112.929 9.87311 113.048C9.99064 113.167 10.1346 113.256 10.2932 113.309C10.4518 113.361 10.6206 113.376 10.7859 113.351C10.9512 113.326 11.1083 113.263 11.2445 113.166C11.426 113.034 11.5612 112.848 11.6309 112.635C11.7005 112.421 11.701 112.191 11.6323 111.978C11.5635 111.764 11.4291 111.578 11.2481 111.445C11.0671 111.312 10.8489 111.24 10.6245 111.239H10.6276Z" fill="#5E6175"/>
<defs>
<linearGradient id="paint0_linear_432_10222" x1="60.3742" y1="16.1494" x2="60.3742" y2="77.0747" gradientUnits="userSpaceOnUse">
<stop stop-color="#CACFDD"/>
<stop offset="1" stop-color="#EEF0F1"/>
</linearGradient>
<linearGradient id="paint1_linear_432_10222" x1="46.957" y1="106.834" x2="74.4119" y2="106.834" gradientUnits="userSpaceOnUse">
<stop stop-color="#CACFDD"/>
<stop offset="1" stop-color="#EEF0F1"/>
</linearGradient>
<linearGradient id="paint2_linear_432_10222" x1="108.051" y1="71.6445" x2="108.051" y2="102.905" gradientUnits="userSpaceOnUse">
<stop stop-color="#CACFDD"/>
<stop offset="1" stop-color="#EEF0F1"/>
</linearGradient>
</defs>
</svg>
