<svg width="58" height="72" viewBox="0 0 58 72" fill="none" xmlns="http://www.w3.org/2000/svg">
<path d="M28.9952 0C14.1098 0 2 12.207 2 27.2119V42.754H5.29681V27.2119C5.29681 14.0408 15.927 3.32525 28.9933 3.32525C42.0595 3.32525 52.6917 14.0408 52.6917 27.2119V42.754H55.9885V27.2119C55.9904 12.207 43.8806 0 28.9952 0Z" fill="#42695A"/>
<path d="M26.5524 42.6105C24.907 41.5362 23.8842 39.5332 23.8842 37.3826C23.8842 36.2729 24.1535 35.1867 24.661 34.2443C25.5316 32.6151 26.8667 31.2909 27.9559 29.8172C28.5961 28.9494 29.2461 28.064 29.7966 27.1353C30.4797 25.9823 30.9053 24.2921 30.9053 22.7279C30.9053 19.9162 29.6345 17.2639 27.5069 15.6268C27.4933 15.613 27.4777 15.6052 27.4581 15.6032C27.4308 15.5993 27.4035 15.613 27.3879 15.6347C27.3683 15.6622 27.3683 15.6977 27.3879 15.7232C27.7587 16.5339 27.9461 17.4075 27.9461 18.3244C27.9461 19.0859 27.8134 19.8257 27.5538 20.5242C26.6149 23.3693 24.337 25.6301 24.3116 25.6557C21.778 28.4556 21.0207 29.766 21.0148 29.7758C20.1442 31.1591 19.6836 32.7764 19.6836 34.4509C19.6836 38.6596 22.6154 42.2268 26.5017 42.7502C26.5056 42.7502 26.5095 42.7502 26.5115 42.7502C26.5427 42.7502 26.572 42.7305 26.5837 42.6991C26.5954 42.6656 26.5837 42.6282 26.5544 42.6066" fill="#F26921"/>
<path d="M37.5434 30.5626C35.6461 26.5251 33.1281 23.6937 33.1028 23.6661C33.0793 23.6406 33.0442 23.6347 33.0149 23.6465C32.9856 23.6602 32.9661 23.6917 32.97 23.7252C33.0052 24.0557 33.0227 24.3922 33.0227 24.7267C33.0227 27.2334 31.9941 29.2049 30.5438 31.1568C30.1788 31.6467 29.8138 32.1386 29.4527 32.6325L28.2873 34.1554C28.2366 34.2184 28.1839 34.2872 28.1292 34.362C27.1923 35.6272 25.5976 38.5294 27.9301 41.3844C27.9555 41.4159 28.0043 41.4139 28.0258 41.3804C28.1058 41.2644 28.1956 41.1463 28.2991 41.0302C28.8885 40.4222 29.5015 39.8359 30.1105 39.2495C31.2152 38.1851 32.0936 37.0773 32.4977 35.5721C32.5523 35.3714 32.5972 35.1687 32.6304 34.968C32.6343 34.9484 32.648 34.9307 32.6675 34.9247C32.687 34.9188 32.7046 34.9247 32.7124 34.9425C32.7124 34.9425 34.4594 37.6656 33.8055 41.8015C33.7547 42.1183 33.6766 42.4252 33.5751 42.7204C33.5673 42.744 33.5907 42.7637 33.6122 42.7538C36.4367 41.2801 38.3125 38.0631 38.3125 34.4525C38.3125 33.0949 38.0548 31.7884 37.5454 30.5645" fill="#F26921"/>
<path d="M50.7312 42.7519H49.0135V27.1016C49.0135 15.9749 40.0327 6.92192 28.9945 6.92192C17.9563 6.92192 8.97356 15.9749 8.97356 27.1016V42.7519H7.25586V27.1016C7.25586 15.0206 17.0077 5.19043 28.9945 5.19043C40.9813 5.19043 50.7312 15.0206 50.7312 27.1016V42.7519Z" fill="#42695A"/>
<path d="M29.1314 0C14.1709 0 2 12.2152 2 27.2301V42.7826H5.31345V27.2301C5.31345 14.0502 15.9973 3.32747 29.1295 3.32747C42.2616 3.32747 52.9474 14.0502 52.9474 27.2301V42.7826H56.2609V27.2301C56.2628 12.2152 44.0919 0 29.1314 0Z" fill="#42695A"/>
<path d="M26.5524 42.6105C24.907 41.5362 23.8842 39.5332 23.8842 37.3826C23.8842 36.2729 24.1535 35.1867 24.661 34.2443C25.5316 32.6151 26.8667 31.2909 27.9559 29.8172C28.5961 28.9494 29.2461 28.064 29.7966 27.1353C30.4797 25.9823 30.9053 24.2921 30.9053 22.7279C30.9053 19.9162 29.6345 17.2639 27.5069 15.6268C27.4933 15.613 27.4777 15.6052 27.4581 15.6032C27.4308 15.5993 27.4035 15.613 27.3879 15.6347C27.3683 15.6622 27.3683 15.6977 27.3879 15.7232C27.7587 16.5339 27.9461 17.4075 27.9461 18.3244C27.9461 19.0859 27.8134 19.8257 27.5538 20.5242C26.6149 23.3693 24.337 25.6301 24.3116 25.6557C21.778 28.4556 21.0207 29.766 21.0148 29.7758C20.1442 31.1591 19.6836 32.7764 19.6836 34.4509C19.6836 38.6596 22.6154 42.2268 26.5017 42.7502C26.5056 42.7502 26.5095 42.7502 26.5115 42.7502C26.5427 42.7502 26.572 42.7305 26.5837 42.6991C26.5954 42.6656 26.5837 42.6282 26.5544 42.6066" fill="#F26921"/>
<path d="M37.5434 30.5626C35.6461 26.5251 33.1281 23.6937 33.1028 23.6661C33.0793 23.6406 33.0442 23.6347 33.0149 23.6465C32.9856 23.6602 32.9661 23.6917 32.97 23.7252C33.0052 24.0557 33.0227 24.3922 33.0227 24.7267C33.0227 27.2334 31.9941 29.2049 30.5438 31.1568C30.1788 31.6467 29.8138 32.1386 29.4527 32.6325L28.2873 34.1554C28.2366 34.2184 28.1839 34.2872 28.1292 34.362C27.1923 35.6272 25.5976 38.5294 27.9301 41.3844C27.9555 41.4159 28.0043 41.4139 28.0258 41.3804C28.1058 41.2644 28.1956 41.1463 28.2991 41.0302C28.8885 40.4222 29.5015 39.8359 30.1105 39.2495C31.2152 38.1851 32.0936 37.0773 32.4977 35.5721C32.5523 35.3714 32.5972 35.1687 32.6304 34.968C32.6343 34.9484 32.648 34.9307 32.6675 34.9247C32.687 34.9188 32.7046 34.9247 32.7124 34.9425C32.7124 34.9425 34.4594 37.6656 33.8055 41.8015C33.7547 42.1183 33.6766 42.4252 33.5751 42.7204C33.5673 42.744 33.5907 42.7637 33.6122 42.7538C36.4367 41.2801 38.3125 38.0631 38.3125 34.4525C38.3125 33.0949 38.0548 31.7884 37.5454 30.5645" fill="#F26921"/>
<path d="M50.7312 42.7519H49.0135V27.1016C49.0135 15.9749 40.0327 6.92192 28.9945 6.92192C17.9563 6.92192 8.97356 15.9749 8.97356 27.1016V42.7519H7.25586V27.1016C7.25586 15.0206 17.0077 5.19043 28.9945 5.19043C40.9813 5.19043 50.7312 15.0206 50.7312 27.1016V42.7519Z" fill="#42695A"/>
<path d="M20.9909 59.6067C20.9909 60.2676 21.5251 60.8062 22.1805 60.8062C22.836 60.8062 23.3702 60.2676 23.3702 59.6067C23.3702 58.9458 22.836 58.4072 22.1805 58.4072C21.5251 58.4072 20.9909 58.9458 20.9909 59.6067ZM18.0462 59.6067C18.0462 60.2676 18.5804 60.8062 19.2358 60.8062C19.8913 60.8062 20.4254 60.2676 20.4254 59.6067C20.4254 58.9458 19.8913 58.4072 19.2358 58.4072C18.5804 58.4072 18.0462 58.9458 18.0462 59.6067ZM12.5638 49.1995C12.5638 48.5386 12.0296 48 11.3741 48C10.7187 48 10.1845 48.5386 10.1845 49.1995C10.1845 49.8605 10.7187 50.3991 11.3741 50.3991C12.0296 50.3991 12.5638 49.8605 12.5638 49.1995ZM29.062 49.1995C29.062 48.5386 28.5278 48 27.8723 48C27.2169 48 26.6827 48.5386 26.6827 49.1995C26.6827 49.8605 27.2169 50.3991 27.8723 50.3991C28.5278 50.3991 29.062 49.8605 29.062 49.1995ZM37.6906 49.1995C37.6906 48.5386 37.1565 48 36.501 48C35.8455 48 35.3114 48.5386 35.3114 49.1995C35.3114 49.8605 35.8455 50.3991 36.501 50.3991C37.1565 50.3991 37.6906 49.8605 37.6906 49.1995ZM29.2146 55.6865H26.5301V54.4219C26.5301 53.6761 27.1327 53.0684 27.8723 53.0684C28.6119 53.0684 29.2146 53.6761 29.2146 54.4219V55.6865ZM12.7164 55.6865H10.0319V54.335C10.0319 53.5893 10.6345 52.9816 11.3741 52.9816C12.1137 52.9816 12.7164 53.5893 12.7164 54.335V55.6865ZM44.9282 54.5935V48.002H43.0068V54.5935C43.0068 55.1972 42.5196 55.6865 41.9228 55.6865H39.7862V54.335C39.7862 52.5752 38.4224 51.131 36.6967 51.0501L33.4643 51.0442V52.9816H36.5245C37.2641 52.9816 37.8667 53.5893 37.8667 54.335V55.6865H31.1379V54.4219C31.1379 52.6087 29.6744 51.133 27.8762 51.133C26.0781 51.133 24.6126 52.6087 24.6126 54.4219V55.6865H21.6209V50.9988H19.6995V55.6865H14.6378V54.335C14.6378 52.52 13.1742 51.0442 11.3761 51.0442C9.57797 51.0442 8.11442 52.52 8.11442 54.335V55.6865H5.00732C4.40859 55.6865 3.92335 55.1952 3.92335 54.5935V51.5828H2V54.5935C2 56.4066 3.4792 57.6239 4.86253 57.6239H41.6939C43.537 57.6239 44.9282 56.3218 44.9282 54.5935ZM52.7859 55.6865V54.4751C52.7859 53.6504 53.4512 52.9797 54.269 52.9797H56.2609V51.0422H54.269C52.3926 51.0422 50.8665 52.5811 50.8665 54.4731V55.6845H49.534C48.9353 55.6845 48.4501 55.1933 48.4501 54.5915V48H46.5287V54.5915C46.5287 56.4106 47.9766 57.5785 49.3129 57.62H49.3658L56.2609 57.6219V55.6845H52.7859V55.6865Z" fill="#42695A"/>
<path d="M6.14607 67.4846H3.80204C3.80791 66.8932 4.33229 66.4126 4.97406 66.4126C5.61583 66.4126 6.1402 66.8913 6.14607 67.4846ZM6.14607 71.9903H7.94811V67.4925C7.94811 65.9518 6.6137 64.6958 4.97406 64.6958C3.33441 64.6958 2 65.9498 2 67.4925V71.9903H3.80204V69.1995H6.14607V71.9903ZM11.4994 71.9903H13.1371V70.2754H11.4994C11.1922 70.2754 10.9339 70.0954 10.9339 69.8838V64.6978H9.13186V69.8838C9.13186 71.0448 10.1943 71.9903 11.4994 71.9903ZM17.6549 67.4075L19.5 64.6978H17.3125L16.0602 66.5372V64.6978H14.2582V71.9982H16.0602V68.9107H16.5298C17.1599 68.9107 17.6725 69.3834 17.6725 69.9629V71.9903H19.4745V69.9629C19.4745 68.8316 18.7369 67.8288 17.6568 67.4055M24.235 71.9982H26.037V64.6978H24.235V67.4846H22.7166V64.6978H20.9146V71.9982H22.7166V69.1995H24.235V71.9982ZM31.5977 67.4846H29.2537C29.2596 66.8932 29.7839 66.4126 30.4257 66.4126C31.0675 66.4126 31.5919 66.8913 31.5977 67.4846ZM31.5977 71.9982H33.3998V67.4925C33.3998 65.9518 32.0654 64.6958 30.4257 64.6958C28.7861 64.6958 27.4517 65.9498 27.4517 67.4925V71.9982H29.2537V69.1995H31.5977V71.9982ZM36.5225 69.1995H39.1718V67.4846H36.5225V66.8062C36.5225 66.5926 36.7828 66.4146 37.088 66.4146H39.1718V64.6998H37.088C35.7829 64.6998 34.7205 65.6452 34.7205 66.8062V72.0001H36.5225V69.2014V69.1995ZM42.5372 71.9982H44.621V70.2833H42.5372C42.23 70.2833 41.9717 70.1034 41.9717 69.8917V69.1995H44.621V67.4846H41.9717V66.8062C41.9717 66.5926 42.2319 66.4146 42.5372 66.4146H44.621V64.6998H42.5372C41.2321 64.6998 40.1697 65.6452 40.1697 66.8062V69.8937C40.1697 71.0547 41.2321 72.0001 42.5372 72.0001M48.4031 71.9982H50.4869V70.2833H48.4031C48.0959 70.2833 47.8376 70.1034 47.8376 69.8917V69.1995H50.4869V67.4846H47.8376V66.8062C47.8376 66.5926 48.0979 66.4146 48.4031 66.4146H50.4869V64.6998H48.4031C47.098 64.6998 46.0356 65.6452 46.0356 66.8062V69.8937C46.0356 71.0547 47.098 72.0001 48.4031 72.0001M53.6116 67.4846V66.8062C53.6116 66.5926 53.8718 66.4146 54.1771 66.4146H56.2609V64.6998H54.1771C52.872 64.6998 51.8096 65.6452 51.8096 66.8062V72.0001H53.6116V69.2014H56.2609V67.4866H53.6116V67.4846Z" fill="#42695A"/>
</svg>
