<svg width="120" height="32" viewBox="0 0 120 32" fill="none" xmlns="http://www.w3.org/2000/svg">
<path d="M102.461 0.0585938C103.31 0.0585938 104.159 0.0585938 105.034 0.0585938C105.039 1.24314 105.043 2.42768 105.045 3.61223C105.046 4.16231 105.048 4.71237 105.05 5.26244C105.052 5.74217 105.053 6.2219 105.054 6.70164C105.054 6.95539 105.055 7.20913 105.056 7.46288C105.058 7.70231 105.058 7.94171 105.058 8.18114C105.058 8.26845 105.058 8.35577 105.059 8.44307C105.065 9.1579 104.971 9.82213 104.634 10.4656C104.616 10.5003 104.598 10.5349 104.579 10.5706C104.118 11.4286 103.406 11.9873 102.514 12.3461C102.477 12.3621 102.441 12.3781 102.403 12.3946C101.79 12.6504 101.149 12.6843 100.494 12.6812C100.409 12.6814 100.324 12.6816 100.238 12.6819C100.005 12.6826 99.7712 12.6823 99.5377 12.6818C99.2833 12.6814 99.0289 12.682 98.7744 12.6824C98.3288 12.6831 97.8833 12.6831 97.4377 12.6828C96.775 12.6823 96.1124 12.6828 95.4498 12.6834C94.2663 12.6844 93.0828 12.6845 91.8993 12.6842C90.8635 12.684 89.8278 12.684 88.792 12.6843C88.6531 12.6844 88.5142 12.6844 88.3753 12.6845C88.1659 12.6845 87.9565 12.6846 87.7472 12.6846C85.8009 12.6852 83.8545 12.6854 81.9082 12.685C81.8532 12.685 81.8532 12.685 81.7971 12.685C81.3882 12.6849 80.9792 12.6848 80.5703 12.6847C80.5334 12.6847 80.4965 12.6847 80.4584 12.6847C80.1589 12.6846 80.1589 12.6846 80.0105 12.6846C77.6489 12.6841 75.2873 12.6845 72.9256 12.6857C72.3305 12.686 71.7353 12.6863 71.1402 12.6866C71.1035 12.6866 71.0669 12.6867 71.0291 12.6867C69.8995 12.6872 68.7698 12.6875 67.6401 12.6875C67.6046 12.6875 67.5691 12.6875 67.5326 12.6875C66.7189 12.6876 65.9052 12.6875 65.0915 12.6874C64.8131 12.6873 64.5347 12.6873 64.2564 12.6873C64.1878 12.6873 64.1193 12.6873 64.0486 12.6872C63.0136 12.6871 61.9785 12.6875 60.9435 12.6882C59.7665 12.689 58.5896 12.6891 57.4126 12.6881C56.754 12.6876 56.0953 12.6877 55.4367 12.6886C54.9966 12.6892 54.5566 12.6889 54.1166 12.6881C53.8659 12.6877 53.6153 12.6875 53.3646 12.6883C53.1362 12.6891 52.9079 12.6888 52.6795 12.6878C52.5977 12.6876 52.5159 12.6878 52.4342 12.6883C51.3685 12.695 50.4357 12.3863 49.6351 11.6635C49.6018 11.6339 49.5685 11.6042 49.5342 11.5737C49.1652 11.2259 48.9097 10.8202 48.703 10.3606C48.6882 10.3283 48.6735 10.296 48.6582 10.2627C48.3662 9.58233 48.3531 8.92017 48.3595 8.19348C48.3598 8.0932 48.36 7.99293 48.3601 7.89266C48.3607 7.631 48.3623 7.36936 48.364 7.10771C48.3659 6.79256 48.3666 6.47741 48.3676 6.16226C48.3691 5.68552 48.3721 5.20881 48.3748 4.73206C49.2066 4.73206 50.0384 4.73206 50.8954 4.73206C50.8967 5.02922 50.8981 5.32638 50.8995 5.63254C50.9008 5.8216 50.9022 6.01065 50.9038 6.1997C50.9063 6.49931 50.9086 6.7989 50.9096 7.09852C50.9104 7.34027 50.9122 7.58199 50.9147 7.82373C50.9155 7.91563 50.9159 8.00753 50.9159 8.09943C50.9165 8.68108 50.9472 9.12954 51.2695 9.63199C51.7747 10.1042 52.3213 10.0744 52.9732 10.0728C53.0726 10.0735 53.1719 10.0743 53.2712 10.0752C53.531 10.0773 53.7909 10.0778 54.0507 10.078C54.3165 10.0785 54.5823 10.0805 54.848 10.0823C55.3684 10.0857 55.8887 10.0875 56.409 10.0882C56.4078 9.99653 56.4078 9.99653 56.4065 9.90304C56.4036 9.67257 56.4018 9.44209 56.4004 9.21161C56.3996 9.11256 56.3985 9.01352 56.3971 8.91449C56.3788 7.55893 56.6559 6.35104 57.6301 5.34907C57.6777 5.30141 57.7253 5.25376 57.7743 5.20466C57.8127 5.16567 57.8511 5.12668 57.8906 5.08651C58.3906 4.60982 58.9965 4.31286 59.6647 4.15444C59.703 4.14521 59.7414 4.13597 59.7809 4.12646C60.1195 4.05096 60.4441 4.03185 60.7904 4.03301C60.866 4.03174 60.866 4.03174 60.9431 4.03045C61.9896 4.02974 63.0314 4.54262 63.77 5.26353C65.1623 6.66764 65.0733 8.14125 65.0733 10.0882C67.2567 10.0882 69.4401 10.0882 71.6897 10.0882C71.6897 8.07806 71.6897 6.06794 71.6897 3.99691C72.5388 3.99691 73.3879 3.99691 74.2627 3.99691C74.2627 6.00703 74.2627 8.01715 74.2627 10.0882C75.5624 10.0882 76.862 10.0882 78.201 10.0882C78.1928 9.41983 78.1928 9.41983 78.1821 8.75152C78.169 7.50748 78.5253 6.37863 79.3884 5.45642C79.7272 5.11117 80.0824 4.85377 80.5115 4.62704C80.5583 4.60186 80.6051 4.57668 80.6532 4.55074C81.5992 4.08129 82.7439 3.98174 83.7524 4.30193C83.8093 4.32257 83.8661 4.34322 83.9247 4.36449C83.9794 4.38351 84.0341 4.40253 84.0905 4.42213C85.1316 4.81792 85.8945 5.58212 86.4026 6.55354C86.4194 6.58496 86.4363 6.61638 86.4537 6.64875C87.0096 7.75904 86.8128 8.83416 86.8128 10.0882C89.7414 10.0882 92.6699 10.0882 95.6872 10.0882C95.7867 8.42354 95.7867 8.42354 95.1095 7.04254C94.5502 6.58574 93.9133 6.59797 93.2288 6.59559C93.1329 6.5947 93.0371 6.59375 92.9412 6.59273C92.6903 6.59024 92.4393 6.58867 92.1884 6.5873C91.8865 6.58545 91.5847 6.58246 91.2829 6.57966C90.8256 6.57555 90.3683 6.57289 89.911 6.56995C89.911 5.73817 89.911 4.9064 89.911 4.04942C91.0258 4.04521 91.0258 4.04521 91.5041 4.04429C91.8294 4.04367 92.1547 4.04293 92.48 4.0415C92.7425 4.04035 93.005 4.03973 93.2675 4.03946C93.3673 4.03926 93.467 4.03889 93.5667 4.03832C94.6634 4.0323 95.5636 4.18126 96.4748 4.83709C96.5196 4.8689 96.5643 4.90071 96.6104 4.93349C97.4653 5.57693 98.0724 6.6168 98.2232 7.67642C98.257 7.96354 98.2672 8.24544 98.2653 8.53439C98.2652 8.57917 98.2652 8.62396 98.2651 8.6701C98.2648 8.81132 98.2641 8.95253 98.2635 9.09375C98.2632 9.19026 98.263 9.28677 98.2628 9.38328C98.2622 9.61825 98.2613 9.85321 98.2602 10.0882C98.6706 10.0862 99.081 10.083 99.4914 10.0785C99.6819 10.0765 99.8725 10.0748 100.063 10.0739C100.247 10.0731 100.432 10.0713 100.616 10.0688C100.72 10.0677 100.824 10.0676 100.927 10.0675C101.308 10.0613 101.559 10.0269 101.883 9.82562C101.92 9.81036 101.956 9.79511 101.993 9.77939C102.119 9.70574 102.137 9.64128 102.199 9.51056C102.217 9.47986 102.235 9.44916 102.254 9.41753C102.467 9.02003 102.439 8.59815 102.437 8.16003C102.438 8.07149 102.438 7.98296 102.439 7.89442C102.44 7.65523 102.441 7.41604 102.44 7.17684C102.441 6.92644 102.442 6.67604 102.443 6.42564C102.445 5.95198 102.446 5.47833 102.447 5.00467C102.448 4.46521 102.45 3.92575 102.452 3.38629C102.456 2.27706 102.459 1.16783 102.461 0.0585938Z" fill="white"/>
<path d="M22.96 0.215451C23.0621 0.231502 23.1643 0.247501 23.2664 0.263449C23.5679 0.312 23.8679 0.367321 24.1677 0.425495C24.2165 0.434819 24.2652 0.444143 24.3155 0.45375C27.3934 1.05185 30.2794 2.47244 32.727 4.41632C32.7803 4.45836 32.8335 4.50039 32.8884 4.5437C33.2228 4.81228 33.5393 5.09864 33.8529 5.39085C33.9354 5.46714 34.0187 5.54242 34.1023 5.61751C34.5268 6.00041 34.9175 6.40726 35.3 6.83182C35.3344 6.86946 35.3688 6.9071 35.4042 6.94587C37.9247 9.75442 39.511 13.336 40.1442 17.0353C40.156 17.1037 40.156 17.1037 40.1682 17.1734C40.3245 18.1374 40.3562 19.0978 40.353 20.0724C40.353 20.2009 40.353 20.3294 40.353 20.4578C40.3531 20.7319 40.3528 21.006 40.3522 21.2801C40.3513 21.6764 40.351 22.0727 40.3509 22.469C40.3507 23.1123 40.35 23.7556 40.349 24.3989C40.348 25.023 40.3473 25.6471 40.3468 26.2712C40.3468 26.3291 40.3468 26.3291 40.3468 26.3882C40.3466 26.5819 40.3465 26.7756 40.3464 26.9694C40.3453 28.5711 40.3433 30.1728 40.3411 31.7745C39.5266 31.7745 38.7122 31.7745 37.8731 31.7745C37.8711 31.2112 37.8711 31.2112 37.8691 30.6366C37.8648 29.4323 37.8603 28.228 37.8557 27.0237C37.8549 26.8363 37.8542 26.6489 37.8535 26.4616C37.8533 26.4056 37.8533 26.4056 37.8531 26.3485C37.8508 25.7462 37.8486 25.1439 37.8466 24.5417C37.8444 23.9227 37.8421 23.3037 37.8396 22.6848C37.8382 22.3375 37.8369 21.9903 37.8358 21.643C37.8348 21.3156 37.8335 20.9881 37.8321 20.6607C37.8316 20.5411 37.8312 20.4215 37.8309 20.3019C37.8285 19.4237 37.8191 18.5511 37.6794 17.6819C37.6656 17.5955 37.6656 17.5955 37.6516 17.5074C37.3996 15.9808 36.9889 14.493 36.3502 13.0806C36.3231 13.0196 36.3231 13.0196 36.2954 12.9573C35.2729 10.6716 33.7062 8.50338 31.7818 6.88434C31.7386 6.84697 31.6954 6.80961 31.6509 6.77111C29.4364 4.8817 26.719 3.49536 23.8526 2.94602C23.7564 2.92633 23.6601 2.90664 23.5638 2.88694C23.5271 2.87983 23.4903 2.87272 23.4524 2.86539C23.3715 2.8496 23.2908 2.83334 23.2101 2.81654C20.7739 2.31137 18.1617 2.48891 15.766 3.10355C15.7132 3.117 15.6605 3.13046 15.6062 3.14432C12.2765 4.01256 9.05141 5.96415 6.83911 8.6172C6.81565 8.64519 6.79219 8.67317 6.76801 8.70201C4.59339 11.3051 3.18173 14.3476 2.67434 17.7081C2.66178 17.7911 2.66178 17.7911 2.64897 17.8757C2.52695 18.7385 2.5247 19.6023 2.52244 20.4718C2.52193 20.5956 2.52141 20.7194 2.52086 20.8431C2.51945 21.1767 2.51834 21.5103 2.51729 21.8438C2.51626 22.1578 2.51499 22.4718 2.51373 22.7859C2.51123 23.4072 2.50896 24.0285 2.50682 24.6498C2.50475 25.2527 2.50257 25.8557 2.50026 26.4587C2.50012 26.4959 2.49997 26.5332 2.49983 26.5716C2.49911 26.7586 2.49839 26.9456 2.49767 27.1326C2.4917 28.6799 2.48613 30.2272 2.48071 31.7745C1.66627 31.7745 0.851821 31.7745 0.0126967 31.7745C0.0103739 30.1789 0.00843705 28.5832 0.0073331 26.9876C0.00720178 26.7985 0.00706646 26.6093 0.00692767 26.4202C0.00690012 26.3826 0.00687272 26.3449 0.00684434 26.3061C0.00638952 25.6996 0.005563 25.093 0.00459442 24.4865C0.00360624 23.8623 0.00302753 23.2382 0.00281564 22.6141C0.00268548 22.2643 0.00236357 21.9144 0.00159293 21.5646C0.00087108 21.2342 0.00066118 20.9038 0.000817317 20.5734C0.000788823 20.4532 0.00058638 20.333 0.000177917 20.2129C-0.00361935 19.0363 0.0522532 17.8612 0.275251 16.7039C0.285532 16.6502 0.295812 16.5965 0.306404 16.5412C0.947924 13.2525 2.33687 10.0035 4.55243 7.45929C4.67966 7.31195 4.80129 7.16138 4.92247 7.00905C5.13874 6.74223 5.3751 6.50403 5.62152 6.26549C5.73795 6.15963 5.73795 6.15963 5.7889 6.04416C5.82355 6.04416 5.85821 6.04416 5.89392 6.04416C5.90725 6.01309 5.92059 5.98202 5.93433 5.95001C6.00606 5.82135 6.07925 5.75346 6.19257 5.66017C6.33298 5.54166 6.4657 5.42181 6.59297 5.28932C6.80719 5.07221 7.04238 4.88376 7.28053 4.69367C7.36813 4.62322 7.45482 4.55175 7.54145 4.48012C8.05544 4.05782 8.59325 3.67797 9.14959 3.31359C9.19222 3.28564 9.23485 3.25768 9.27877 3.22888C11.2954 1.91792 13.5233 0.992961 15.871 0.478006C15.9138 0.468233 15.9567 0.45846 16.0008 0.448391C16.3233 0.375696 16.647 0.318287 16.9737 0.267962C17.0669 0.253519 17.0669 0.253519 17.1619 0.238784C19.0527 -0.0407578 21.0718 -0.107323 22.96 0.215451Z" fill="white"/>
<path d="M25.2185 4.67717C25.2623 4.69182 25.3062 4.70647 25.3513 4.72156C27.2193 5.34731 28.9694 6.28369 30.4696 7.56527C30.5408 7.62203 30.5408 7.62203 30.6134 7.67994C31.0223 8.0114 31.3965 8.37581 31.7692 8.74677C31.795 8.77221 31.8207 8.79765 31.8472 8.82386C32.1999 9.17366 32.5253 9.53769 32.8326 9.92826C32.8627 9.96609 32.8929 10.0039 32.924 10.0429C33.3224 10.5455 33.6885 11.0632 34.0271 11.6079C34.0892 11.7077 34.1522 11.8069 34.2153 11.906C35.3157 13.6588 36.0107 15.7611 36.2983 17.8049C36.3071 17.8639 36.3159 17.9229 36.325 17.9837C36.4157 18.6546 36.4175 19.3184 36.4153 19.9944C36.4152 20.1228 36.4152 20.2512 36.4153 20.3797C36.4153 20.6544 36.415 20.929 36.4144 21.2037C36.4136 21.6008 36.4133 21.998 36.4132 22.3951C36.4129 23.0397 36.4122 23.6843 36.4113 24.3288C36.4103 24.9544 36.4095 25.5799 36.4091 26.2054C36.4091 26.2634 36.4091 26.2634 36.409 26.3226C36.4089 26.5166 36.4087 26.7106 36.4086 26.9046C36.4075 28.5098 36.4057 30.1151 36.4033 31.7203C35.9874 31.7203 35.5716 31.7203 35.1431 31.7203C35.1426 31.5681 35.1422 31.416 35.1418 31.2592C35.1378 29.8596 35.1334 28.46 35.1284 27.0604C35.1277 26.8765 35.1271 26.6926 35.1264 26.5086C35.1263 26.472 35.1261 26.4354 35.126 26.3977C35.1239 25.8071 35.1222 25.2165 35.1206 24.6259C35.119 24.0185 35.1169 23.4112 35.1146 22.8039C35.1132 22.4633 35.1121 22.1227 35.1114 21.7821C35.1107 21.4607 35.1095 21.1394 35.108 20.818C35.1076 20.7008 35.1072 20.5836 35.1071 20.4665C35.1061 19.5122 35.0473 18.5705 34.8936 17.6277C34.8848 17.5733 34.8759 17.519 34.8668 17.463C34.3927 14.6843 33.0663 12.1798 31.2048 10.0858C31.1666 10.0427 31.1666 10.0427 31.1278 9.99875C30.8697 9.70805 30.6098 9.42599 30.311 9.17609C30.2395 9.11553 30.1697 9.05288 30.1014 8.98861C28.5437 7.52329 26.6031 6.54706 24.5884 5.88492C24.5506 5.8724 24.5129 5.85988 24.474 5.84698C23.8871 5.6548 23.2935 5.53432 22.6842 5.43617C22.5521 5.41426 22.4209 5.38965 22.2894 5.36433C21.6133 5.24377 20.9375 5.23947 20.2529 5.23838C20.2056 5.2382 20.1582 5.23801 20.1094 5.23781C19.144 5.23575 18.1946 5.30041 17.25 5.5075C17.1852 5.52134 17.1203 5.53518 17.0535 5.54944C16.5638 5.65617 16.0854 5.78218 15.609 5.93743C15.5445 5.9572 15.48 5.97697 15.4135 5.99733C13.1482 6.71195 11.1434 8.08963 9.4718 9.75104C9.433 9.78942 9.433 9.78942 9.39342 9.82857C9.06029 10.1589 8.75105 10.4992 8.46753 10.8735C8.43879 10.9112 8.41006 10.949 8.38046 10.9878C6.29352 13.7655 5.2508 16.9713 5.24762 20.4355C5.24713 20.5593 5.2466 20.6831 5.24602 20.8069C5.2446 21.1398 5.2438 21.4727 5.24311 21.8056C5.24237 22.1192 5.24116 22.4328 5.23995 22.7464C5.23757 23.3667 5.23564 23.9871 5.23401 24.6074C5.23242 25.2093 5.23061 25.8112 5.22852 26.4131C5.22832 26.4689 5.22833 26.4689 5.22813 26.5259C5.22748 26.7127 5.22682 26.8995 5.22617 27.0863C5.22075 28.6309 5.21608 30.1756 5.21185 31.7203C4.79597 31.7203 4.38008 31.7203 3.95159 31.7203C3.94802 30.0894 3.9452 28.4585 3.94355 26.8277C3.94335 26.6345 3.94315 26.4413 3.94294 26.2481C3.9429 26.2096 3.94286 26.1711 3.94281 26.1315C3.94213 25.5115 3.94089 24.8914 3.93944 24.2714C3.93796 23.6336 3.93709 22.9959 3.93677 22.3581C3.93657 22.0005 3.93611 21.6429 3.93493 21.2854C3.93385 20.9478 3.93354 20.6103 3.93377 20.2727C3.93373 20.1498 3.93342 20.0268 3.93281 19.9039C3.9278 18.842 4.01883 17.7992 4.25025 16.7612C4.26363 16.7005 4.27702 16.6397 4.29081 16.5771C5.08048 13.1042 7.07552 9.68952 9.93783 7.51276C10.0065 7.45908 10.075 7.40533 10.1436 7.35154C14.0644 4.29143 19.0069 3.25851 25.2185 4.67717Z" fill="white"/>
<path d="M107.134 0.0585938C107.966 0.0585938 108.798 0.0585938 109.655 0.0585938C109.655 0.323083 109.656 0.587573 109.656 0.860077C109.658 1.73407 109.661 2.60807 109.665 3.48206C109.667 4.01195 109.668 4.54183 109.669 5.07172C109.67 5.5337 109.671 5.99568 109.674 6.45765C109.675 6.70215 109.676 6.94664 109.676 7.19114C109.675 7.42156 109.676 7.65196 109.678 7.88238C109.679 7.96666 109.679 8.05095 109.678 8.13524C109.677 8.63782 109.686 9.1031 110.003 9.51783C110.075 9.61558 110.075 9.61558 110.075 9.7206C110.119 9.74172 110.119 9.74172 110.164 9.76326C110.285 9.82562 110.285 9.82562 110.416 9.90767C110.602 10.0142 110.763 10.0418 110.974 10.0464C111.016 10.0475 111.058 10.0485 111.102 10.0496C111.147 10.0505 111.191 10.0514 111.238 10.0523C111.284 10.0534 111.33 10.0545 111.378 10.0556C111.526 10.059 111.673 10.0621 111.821 10.0652C111.921 10.0675 112.021 10.0698 112.122 10.0721C112.367 10.0777 112.613 10.083 112.858 10.0882C112.856 10.0025 112.856 10.0025 112.855 9.91518C112.851 9.6985 112.849 9.48183 112.847 9.26513C112.846 9.17225 112.844 9.07938 112.842 8.98652C112.815 7.57145 113.178 6.40179 114.171 5.36219C114.199 5.32991 114.228 5.29762 114.257 5.26435C114.893 4.56727 115.938 4.09516 116.872 4.03848C117.342 4.02438 117.812 4.02915 118.283 4.035C118.477 4.03718 118.671 4.03813 118.865 4.03917C119.243 4.04128 119.621 4.0454 120 4.04942C120 4.88119 120 5.71297 120 6.56995C119.69 6.57289 119.69 6.57289 119.375 6.57589C119.174 6.57832 118.973 6.58101 118.772 6.58373C118.633 6.58547 118.494 6.58694 118.355 6.58814C118.154 6.58991 117.954 6.59266 117.754 6.59559C117.661 6.59609 117.661 6.59609 117.567 6.5966C116.907 6.60825 116.385 6.76556 115.913 7.24459C115.249 8.05758 115.458 9.09069 115.431 10.0882C116.939 10.0882 118.446 10.0882 120 10.0882C120 10.9373 120 11.7864 120 12.6612C118.764 12.6648 117.529 12.6677 116.294 12.6694C115.72 12.6702 115.147 12.6713 114.573 12.6731C114.073 12.6747 113.573 12.6757 113.073 12.676C112.808 12.6762 112.544 12.6767 112.279 12.6779C112.03 12.6789 111.78 12.6793 111.531 12.679C111.44 12.6791 111.348 12.6794 111.257 12.68C110.589 12.6842 109.992 12.6268 109.389 12.31C109.354 12.2917 109.318 12.2733 109.281 12.2544C108.259 11.7128 107.58 10.88 107.239 9.77311C107.126 9.22677 107.12 8.68493 107.122 8.13022C107.123 8.04165 107.123 7.95307 107.122 7.8645C107.122 7.6264 107.123 7.38832 107.124 7.15022C107.124 6.90052 107.124 6.65082 107.125 6.40112C107.125 5.92933 107.126 5.45755 107.127 4.98576C107.128 4.4482 107.129 3.91064 107.129 3.37308C107.13 2.26825 107.132 1.16342 107.134 0.0585938Z" fill="white"/>
<path d="M18.9689 11.6094C19.1533 11.6895 19.2837 11.799 19.4316 11.9343C19.4955 11.9923 19.4955 11.9923 19.5606 12.0514C19.608 12.0962 19.6553 12.1409 19.704 12.187C19.733 12.2143 19.762 12.2417 19.7919 12.2699C20.018 12.4887 20.207 12.72 20.3867 12.9779C20.4275 13.0364 20.4275 13.0364 20.4691 13.0961C21.2541 14.2426 21.6035 15.5231 21.6043 16.9031C21.6049 16.9608 21.6055 17.0185 21.6062 17.078C21.6074 17.7301 21.4754 18.3411 21.3059 18.9677C21.2825 19.0544 21.2599 19.1412 21.2375 19.2282C20.8105 20.6966 19.5379 22.046 18.5784 23.1999C17.3952 24.6263 16.2412 26.1708 16.3816 28.1241C16.5147 29.3531 17.0325 30.5321 17.9712 31.3535C18.0842 31.4426 18.1982 31.5284 18.316 31.6111C18.3408 31.6301 18.3657 31.649 18.3912 31.6685C18.3912 31.6859 18.3912 31.7032 18.3912 31.7211C17.1568 31.6812 16.015 31.0404 15.1356 30.1982C15.0968 30.1634 15.058 30.1285 15.018 30.0926C13.9795 29.1241 13.2767 27.5656 13.2263 26.1495C13.2236 26.0041 13.2233 25.8589 13.2246 25.7135C13.2255 25.6035 13.2246 25.4937 13.2236 25.3838C13.2229 24.8874 13.2865 24.4324 13.4027 23.9494C13.4123 23.9084 13.4219 23.8674 13.4318 23.8251C13.6337 23.0157 14.0491 22.2437 14.558 21.5864C14.5977 21.5336 14.5977 21.5336 14.6382 21.4798C15.3282 20.5755 16.065 19.694 16.8481 18.8688C17.2257 18.4695 17.5511 18.0454 17.8661 17.5956C17.8891 17.5635 17.9121 17.5313 17.9357 17.4982C18.2931 16.9965 18.5654 16.4792 18.8113 15.9153C18.8367 15.859 18.8621 15.8026 18.8883 15.7446C19.4453 14.4714 19.4845 13.1771 19.0226 11.8748C18.9689 11.7144 18.9689 11.7144 18.9689 11.6094Z" fill="#F16825"/>
<path d="M23.1706 17.5957C23.3688 17.6866 23.4684 17.7908 23.6038 17.9633C23.6409 18.0099 23.678 18.0564 23.7162 18.1044C23.8007 18.2258 23.8007 18.2258 23.8007 18.3309C23.8354 18.3309 23.87 18.3309 23.9058 18.3309C23.9697 18.4045 23.9697 18.4045 24.0409 18.5077C24.0803 18.5641 24.0803 18.5641 24.1204 18.6216C24.1481 18.6621 24.1758 18.7026 24.2044 18.7444C24.2328 18.7854 24.2613 18.8264 24.2906 18.8686C24.3472 18.9502 24.4036 19.0318 24.4599 19.1136C24.5508 19.2452 24.6434 19.3755 24.7361 19.5058C24.9232 19.7738 25.0981 20.049 25.271 20.3263C25.3058 20.3817 25.3406 20.4371 25.3765 20.4943C25.5994 20.8524 25.8063 21.215 26.0062 21.5865C26.0462 21.6609 26.0462 21.6609 26.0871 21.7368C26.1679 21.8877 26.2479 22.039 26.3278 22.1904C26.3547 22.2406 26.3816 22.2907 26.4092 22.3424C26.9516 23.3728 27.1346 24.4622 27.1319 25.6167C27.1319 25.6543 27.1319 25.6918 27.1319 25.7304C27.1266 27.3455 26.6039 28.9693 25.5336 30.1983C25.4969 30.2414 25.4602 30.2844 25.4224 30.3288C25.0242 30.7851 24.5962 31.1881 24.0895 31.5209C24.0423 31.5524 24.0423 31.5524 23.9941 31.5844C23.9041 31.6413 23.9041 31.6413 23.7482 31.7211C23.6962 31.7038 23.6442 31.6865 23.5907 31.6686C23.6014 31.6242 23.6122 31.5798 23.6233 31.5341C23.6374 31.4745 23.6516 31.4149 23.6662 31.3536C23.6802 31.2951 23.6942 31.2366 23.7086 31.1763C23.9431 30.0491 23.879 28.7347 23.5907 27.6253C23.5809 27.5868 23.571 27.5483 23.5609 27.5086C23.4205 26.9768 23.2053 26.4883 22.9606 25.9974C22.9432 25.9974 22.9259 25.9974 22.908 25.9974C22.8997 26.0356 22.8914 26.0738 22.8828 26.1131C22.5917 27.3678 21.8529 28.4783 20.8784 29.3149C20.5974 29.5574 20.3375 29.8206 20.0757 30.0835C20.025 30.134 19.9742 30.1846 19.9234 30.2351C19.8757 30.2829 19.8281 30.3306 19.7789 30.3799C19.7357 30.4232 19.6924 30.4665 19.6479 30.5111C19.5449 30.6108 19.5449 30.6108 19.4948 30.7234C19.4428 30.7234 19.3909 30.7234 19.3373 30.7234C19.2522 30.6143 19.1797 30.5093 19.1076 30.392C19.0867 30.3586 19.0658 30.3253 19.0443 30.2909C18.5092 29.4207 18.3572 28.5144 18.5295 27.5024C18.7638 26.5312 19.3527 25.6592 19.9884 24.9046C20.279 24.5542 20.5437 24.1821 20.8154 23.8171C20.9047 23.6976 20.9946 23.5787 21.0849 23.4601C21.916 22.3676 22.7309 21.1698 23.0131 19.8012C23.0232 19.7527 23.0332 19.7042 23.0436 19.6543C23.1608 18.9767 23.1531 18.2815 23.1706 17.5957Z" fill="#F16825"/>
<path d="M88.2638 22.9393C88.3604 23.0112 88.4529 23.0854 88.5451 23.1627C88.5832 23.1895 88.6214 23.2162 88.6607 23.2437C88.6919 23.269 88.723 23.2942 88.7551 23.3203C88.7551 23.3549 88.7551 23.3896 88.7551 23.4253C88.7898 23.4253 88.8244 23.4253 88.8601 23.4253C89.5171 24.1664 89.8328 24.9905 89.8232 25.9801C89.8232 26.0432 89.8232 26.1063 89.8233 26.1713C89.8232 26.3421 89.8224 26.513 89.8213 26.6838C89.8203 26.8631 89.8202 27.0425 89.82 27.2218C89.8195 27.5604 89.8182 27.8991 89.8167 28.2377C89.8149 28.6236 89.814 29.0096 89.8132 29.3955C89.8116 30.1885 89.8087 30.9815 89.8053 31.7745C89.0255 31.7745 88.2457 31.7745 87.4423 31.7745C87.4423 30.5615 87.4423 29.3485 87.4423 28.0988C86.4199 28.0988 85.3975 28.0988 84.3442 28.0988C84.3442 29.3118 84.3442 30.5248 84.3442 31.7745C83.5471 31.7745 82.7499 31.7745 81.9287 31.7745C81.9251 30.9802 81.9222 30.1859 81.9205 29.3916C81.9197 29.0228 81.9186 28.6539 81.9168 28.285C81.915 27.9285 81.9141 27.572 81.9137 27.2156C81.9134 27.08 81.9129 26.9445 81.912 26.809C81.9014 25.0493 81.9014 25.0493 82.2798 24.3541C82.2982 24.3192 82.3165 24.2843 82.3354 24.2483C82.8741 23.2528 83.7447 22.6508 84.8022 22.3178C85.9996 21.9853 87.2431 22.2654 88.2638 22.9393Z" fill="white"/>
<path d="M54.7614 22.9846C55.5271 23.5923 56.0148 24.3549 56.1995 25.3154C56.2191 25.5357 56.2195 25.7539 56.2174 25.975C56.2174 26.0376 56.2174 26.1001 56.2174 26.1646C56.2173 26.3692 56.2161 26.5737 56.2149 26.7783C56.2145 26.921 56.2143 27.0637 56.2142 27.2065C56.2137 27.5423 56.2124 27.8782 56.2108 28.214C56.2091 28.5968 56.2082 28.9795 56.2074 29.3623C56.2058 30.1488 56.2029 30.9352 56.1995 31.7217C55.4197 31.7217 54.6399 31.7217 53.8365 31.7217C53.8365 30.526 53.8365 29.3303 53.8365 28.0984C52.8141 28.0984 51.7917 28.0984 50.7383 28.0984C50.7383 29.2941 50.7383 30.4898 50.7383 31.7217C49.9586 31.7217 49.1788 31.7217 48.3754 31.7217C48.3706 30.8923 48.3667 30.0628 48.3645 29.2334C48.3634 28.8482 48.3619 28.463 48.3595 28.0778C48.3574 27.7418 48.3561 27.4057 48.3556 27.0697C48.3553 26.892 48.3547 26.7144 48.3531 26.5367C48.3421 25.1062 48.3421 25.1062 48.5854 24.5277C48.6091 24.4714 48.6091 24.4714 48.6332 24.4139C49.0852 23.4495 49.9263 22.7886 50.9072 22.4156C52.1912 21.9727 53.6677 22.1647 54.7614 22.9846Z" fill="white"/>
<path d="M73.3184 22.2168C74.1155 22.2168 74.9126 22.2168 75.7339 22.2168C75.7339 23.4125 75.7339 24.6081 75.7339 25.84C76.3923 25.84 77.0508 25.84 77.7293 25.84C77.7293 24.6444 77.7293 23.4487 77.7293 22.2168C78.5091 22.2168 79.2888 22.2168 80.0923 22.2168C80.0923 25.3706 80.0923 28.5244 80.0923 31.7738C79.3125 31.7738 78.5327 31.7738 77.7293 31.7738C77.7293 30.5608 77.7293 29.3478 77.7293 28.098C77.0708 28.098 76.4123 28.098 75.7339 28.098C75.7339 29.311 75.7339 30.524 75.7339 31.7738C74.9367 31.7738 74.1396 31.7738 73.3184 31.7738C73.3184 28.62 73.3184 25.4662 73.3184 22.2168Z" fill="white"/>
<path d="M64.5488 22.2174C65.3286 22.2174 66.1084 22.2174 66.9118 22.2174C66.9291 22.9799 66.9465 23.7423 66.9643 24.5279C67.1376 24.268 67.3109 24.008 67.4894 23.7402C67.6354 23.5286 67.7817 23.3174 67.9292 23.1068C68.0008 23.0045 68.0723 22.9021 68.1438 22.7997C68.1745 22.7558 68.2053 22.7119 68.237 22.6666C68.3365 22.5315 68.3365 22.5315 68.4055 22.3602C68.5643 22.1912 68.6049 22.1938 68.8286 22.1816C68.9497 22.1817 69.0709 22.1835 69.1919 22.1866C69.2557 22.1871 69.3196 22.1875 69.3853 22.188C69.5892 22.1898 69.793 22.1937 69.9968 22.1977C70.135 22.1993 70.2732 22.2007 70.4114 22.202C70.7502 22.2055 71.089 22.2108 71.4278 22.2174C71.3639 22.3814 71.302 22.5232 71.1986 22.6658C71.1741 22.7001 71.1495 22.7344 71.1242 22.7697C71.0976 22.8062 71.0711 22.8427 71.0438 22.8804C70.9865 22.9602 70.9294 23.0402 70.8723 23.1201C70.8427 23.1616 70.8131 23.203 70.7825 23.2457C70.6352 23.4537 70.4915 23.6641 70.348 23.8748C70.2909 23.9585 70.2338 24.0423 70.1767 24.1261C70.1489 24.1668 70.1212 24.2076 70.0925 24.2496C70.0125 24.3666 69.9321 24.4833 69.8514 24.5999C69.5808 24.9911 69.3157 25.3839 69.0648 25.7881C69.1308 25.8055 69.1969 25.8228 69.265 25.8407C69.5943 25.9504 69.846 26.1515 70.115 26.3658C70.153 26.3951 70.1911 26.4244 70.2303 26.4546C70.8791 26.9826 71.2762 27.7588 71.4278 28.5712C71.4472 28.8219 71.4463 29.0707 71.4431 29.322C71.4429 29.391 71.4427 29.4601 71.4425 29.5312C71.4419 29.7125 71.4403 29.8937 71.4386 30.075C71.4369 30.2609 71.4362 30.4468 71.4354 30.6327C71.4339 30.9958 71.4308 31.3588 71.4278 31.7219C70.648 31.7219 69.8682 31.7219 69.0648 31.7219C69.0618 31.4222 69.0618 31.4222 69.0588 31.1164C69.0564 30.9221 69.0537 30.7278 69.051 30.5335C69.0492 30.3988 69.0478 30.2641 69.0466 30.1295C69.0448 29.9355 69.0421 29.7416 69.0391 29.5476C69.0388 29.4877 69.0385 29.4279 69.0381 29.3662C69.029 28.8664 68.9365 28.5123 68.5907 28.1386C68.1047 27.7046 67.5603 27.7652 66.9118 27.7311C66.9118 29.048 66.9118 30.365 66.9118 31.7219C66.132 31.7219 65.3522 31.7219 64.5488 31.7219C64.5488 28.5854 64.5488 25.4489 64.5488 22.2174Z" fill="white"/>
<path d="M109.832 22.1968C109.906 22.1972 109.981 22.1975 110.055 22.1977C110.248 22.1985 110.441 22.2005 110.634 22.2029C110.866 22.2054 111.099 22.2064 111.332 22.2076C111.683 22.2096 112.035 22.2136 112.386 22.2173C112.386 22.9624 112.386 23.7075 112.386 24.4753C112.166 24.4766 111.946 24.478 111.719 24.4794C111.543 24.481 111.367 24.4829 111.191 24.4849C111.006 24.487 110.821 24.4887 110.635 24.4895C110.422 24.4904 110.209 24.4931 109.996 24.4958C109.93 24.4958 109.864 24.4959 109.796 24.496C109.342 24.5012 109.342 24.5012 108.973 24.7378C108.808 25.0681 108.887 25.4718 108.868 25.8405C110.029 25.8405 111.19 25.8405 112.386 25.8405C112.386 26.5857 112.386 27.3308 112.386 28.0985C111.225 28.0985 110.064 28.0985 108.868 28.0985C108.819 29.0221 108.819 29.0221 109.13 29.3588C109.32 29.4617 109.483 29.4777 109.697 29.4805C109.787 29.4821 109.787 29.4821 109.879 29.4837C109.943 29.4843 110.007 29.4849 110.073 29.4855C110.139 29.4865 110.205 29.4876 110.273 29.4886C110.448 29.4912 110.623 29.4934 110.798 29.4953C110.977 29.4974 111.156 29.5001 111.335 29.5028C111.685 29.5079 112.036 29.5121 112.386 29.5163C112.386 30.2614 112.386 31.0066 112.386 31.7743C111.995 31.7776 111.604 31.7807 111.213 31.7824C111.031 31.7832 110.849 31.7843 110.667 31.7861C110.457 31.7882 110.247 31.789 110.037 31.7896C109.941 31.7909 109.941 31.7909 109.843 31.7921C108.92 31.7923 108.046 31.5534 107.345 30.9341C106.911 30.4902 106.502 29.9487 106.497 29.3019C106.496 29.2597 106.496 29.2174 106.495 29.1739C106.495 29.128 106.495 29.0822 106.495 29.0349C106.494 28.9862 106.494 28.9375 106.493 28.8873C106.492 28.7261 106.491 28.5649 106.49 28.4037C106.49 28.3485 106.49 28.2933 106.489 28.2364C106.488 27.9439 106.487 27.6514 106.486 27.3589C106.486 27.1175 106.484 26.8763 106.482 26.6349C106.479 26.3429 106.478 26.0509 106.478 25.7588C106.477 25.648 106.477 25.5371 106.475 25.4262C106.463 24.3128 106.463 24.3128 106.767 23.7926C106.792 23.749 106.817 23.7054 106.843 23.6605C107.295 22.9099 107.995 22.4927 108.819 22.2621C109.153 22.1821 109.491 22.1914 109.832 22.1968Z" fill="white"/>
<path d="M101.64 22.2109C101.739 22.2109 101.739 22.2109 101.84 22.211C101.912 22.2112 101.984 22.2115 102.056 22.2118C102.129 22.2119 102.203 22.2119 102.277 22.212C102.471 22.2122 102.664 22.2127 102.858 22.2133C103.056 22.2138 103.253 22.2141 103.451 22.2143C103.839 22.2149 104.227 22.2159 104.614 22.2169C104.614 22.962 104.614 23.7072 104.614 24.4749C104.398 24.4762 104.182 24.4776 103.959 24.479C103.786 24.4806 103.613 24.4825 103.44 24.4845C103.258 24.4866 103.076 24.4883 102.894 24.4891C102.684 24.4901 102.475 24.4927 102.266 24.4954C102.201 24.4954 102.136 24.4955 102.069 24.4956C101.694 24.5019 101.472 24.5196 101.201 24.7899C101.184 25.1365 101.167 25.4831 101.149 25.8402C102.292 25.8402 103.436 25.8402 104.614 25.8402C104.614 26.5853 104.614 27.3304 104.614 28.0981C103.471 28.0981 102.327 28.0981 101.149 28.0981C101.08 29.0862 101.08 29.0862 101.464 29.4109C101.626 29.4651 101.743 29.4716 101.914 29.4742C101.974 29.4752 102.034 29.4763 102.095 29.4774C102.16 29.4782 102.225 29.4791 102.291 29.48C102.391 29.4817 102.391 29.4817 102.492 29.4833C102.668 29.4862 102.844 29.4888 103.02 29.4914C103.199 29.494 103.379 29.4969 103.558 29.4998C103.91 29.5055 104.262 29.5107 104.614 29.5159C104.614 30.261 104.614 31.0062 104.614 31.7739C104.218 31.7783 103.823 31.7825 103.427 31.7848C103.242 31.7859 103.058 31.7873 102.873 31.7897C101.608 31.8059 100.5 31.7748 99.5321 30.8449C98.9745 30.2636 98.7266 29.6553 98.7239 28.8528C98.7235 28.8083 98.7232 28.7639 98.7228 28.7181C98.7218 28.5716 98.7212 28.4251 98.7207 28.2786C98.7205 28.2283 98.7202 28.1779 98.72 28.126C98.7189 27.8593 98.7182 27.5925 98.7177 27.3258C98.7171 27.052 98.7153 26.7783 98.7132 26.5045C98.7118 26.2925 98.7114 26.0805 98.7112 25.8685C98.711 25.7676 98.7103 25.6668 98.7094 25.566C98.7004 24.585 98.8464 23.8306 99.5313 23.0897C100.089 22.5622 100.869 22.2094 101.64 22.2109Z" fill="white"/>
<path d="M94.4454 22.2109C94.5447 22.2109 94.5447 22.2109 94.646 22.211C94.7177 22.2112 94.7894 22.2115 94.8612 22.2118C94.935 22.2119 95.0088 22.2119 95.0826 22.212C95.2762 22.2122 95.4698 22.2127 95.6634 22.2133C95.8613 22.2138 96.0591 22.2141 96.2569 22.2143C96.6446 22.2149 97.0323 22.2159 97.42 22.2169C97.42 22.962 97.42 23.7072 97.42 24.4749C97.2038 24.4762 96.9876 24.4776 96.7649 24.479C96.592 24.4806 96.4191 24.4825 96.2461 24.4845C96.0639 24.4866 95.8817 24.4883 95.6994 24.4891C95.4901 24.4901 95.2808 24.4927 95.0714 24.4954C95.0064 24.4954 94.9414 24.4955 94.8745 24.4956C94.5 24.5019 94.2772 24.5196 94.0068 24.7899C93.9895 25.1365 93.9722 25.4831 93.9543 25.8402C95.098 25.8402 96.2417 25.8402 97.42 25.8402C97.42 26.5853 97.42 27.3304 97.42 28.0981C96.2764 28.0981 95.1327 28.0981 93.9543 28.0981C93.9543 29.3111 93.9543 30.5241 93.9543 31.7739C93.1572 31.7739 92.3601 31.7739 91.5388 31.7739C91.5341 30.8554 91.5302 29.937 91.5279 29.0186C91.5269 28.5921 91.5254 28.1655 91.523 27.739C91.5209 27.367 91.5195 26.9949 91.5191 26.6229C91.5188 26.4261 91.5182 26.2294 91.5166 26.0327C91.5152 25.8469 91.5148 25.6612 91.5151 25.4754C91.515 25.376 91.5139 25.2765 91.5127 25.1771C91.5166 24.3412 91.7754 23.6971 92.337 23.0897C92.8944 22.5622 93.6747 22.2094 94.4454 22.2109Z" fill="white"/>
<path d="M117.079 22.2109C117.144 22.2109 117.209 22.211 117.277 22.211C117.347 22.2112 117.417 22.2115 117.487 22.2118C117.56 22.2119 117.632 22.212 117.705 22.212C117.895 22.2122 118.085 22.2127 118.275 22.2133C118.47 22.2138 118.664 22.2141 118.858 22.2143C119.239 22.2149 119.619 22.2159 120 22.2169C120 22.962 120 23.7072 120 24.4749C119.78 24.4762 119.56 24.4776 119.333 24.479C119.158 24.4806 118.982 24.4825 118.806 24.4845C118.62 24.4866 118.435 24.4883 118.249 24.4891C118.036 24.4901 117.823 24.4927 117.61 24.4954C117.544 24.4955 117.478 24.4955 117.41 24.4956C116.956 24.5008 116.956 24.5008 116.587 24.7374C116.422 25.0677 116.501 25.4714 116.482 25.8402C117.643 25.8402 118.804 25.8402 120 25.8402C120 26.5853 120 27.3304 120 28.0981C118.839 28.0981 117.678 28.0981 116.482 28.0981C116.482 29.2938 116.482 30.4895 116.482 31.7214C115.702 31.7214 114.922 31.7214 114.119 31.7214C114.114 30.7865 114.11 29.8517 114.108 28.9168C114.107 28.4827 114.105 28.0486 114.103 27.6145C114.101 27.2359 114.1 26.8573 114.099 26.4788C114.099 26.2785 114.098 26.0782 114.097 25.878C114.095 25.6891 114.095 25.5002 114.095 25.3112C114.095 25.2097 114.094 25.1082 114.093 25.0066C114.096 24.2807 114.361 23.6602 114.857 23.1293C115.468 22.5506 116.236 22.2092 117.079 22.2109Z" fill="white"/>
<path d="M57.7751 22.2168C58.5549 22.2168 59.3347 22.2168 60.1381 22.2168C60.1383 22.4238 60.1385 22.6308 60.1387 22.8441C60.1396 23.5274 60.142 24.2106 60.145 24.8939C60.1468 25.3082 60.1482 25.7226 60.1483 26.1369C60.1485 26.4981 60.1496 26.8592 60.1518 27.2204C60.1529 27.4116 60.1535 27.6028 60.1531 27.794C60.1526 28.0075 60.1542 28.221 60.156 28.4345C60.1553 28.5295 60.1553 28.5295 60.1546 28.6265C60.1485 28.9755 60.1485 28.9755 60.3169 29.2641C60.6269 29.4784 60.8904 29.4806 61.2582 29.485C61.3103 29.4861 61.3624 29.4871 61.4161 29.4881C61.5819 29.4913 61.7477 29.4937 61.9136 29.4961C62.0262 29.4981 62.1389 29.5002 62.2515 29.5023C62.5273 29.5074 62.803 29.5116 63.0787 29.5158C63.0787 30.2436 63.0787 30.9714 63.0787 31.7213C62.6873 31.7261 62.2961 31.7303 61.9047 31.7328C61.7718 31.7339 61.639 31.7353 61.5061 31.7371C61.3141 31.7397 61.1221 31.7409 60.93 31.7418C60.8715 31.7429 60.813 31.7439 60.7528 31.7451C59.9148 31.7453 59.1817 31.4202 58.5777 30.8468C58.1004 30.3564 57.7681 29.8049 57.7688 29.1061C57.7687 29.0452 57.7686 28.9843 57.7686 28.9216C57.7687 28.8553 57.7689 28.7889 57.7691 28.7206C57.7691 28.6497 57.7691 28.5788 57.7691 28.5079C57.7691 28.3157 57.7694 28.1236 57.7698 27.9315C57.7701 27.7306 57.7701 27.5296 57.7702 27.3287C57.7703 26.9484 57.7708 26.5681 57.7713 26.1878C57.7719 25.7548 57.7722 25.3217 57.7724 24.8887C57.773 23.9981 57.774 23.1074 57.7751 22.2168Z" fill="white"/>
<path d="M61.7787 6.89242C62.1295 7.15345 62.3708 7.51782 62.5008 7.93608C62.521 8.10546 62.5192 8.27255 62.5162 8.44293C62.516 8.48488 62.5158 8.52684 62.5157 8.57006C62.5149 8.72522 62.5127 8.88038 62.5106 9.03553C62.5074 9.38318 62.5041 9.73084 62.5008 10.089C61.3398 10.089 60.1787 10.089 58.9825 10.089C58.9782 9.75437 58.9739 9.41971 58.9694 9.07491C58.9675 8.97051 58.9656 8.86611 58.9636 8.75855C58.9568 8.12147 58.9892 7.56936 59.4521 7.08462C60.1489 6.48034 60.9975 6.38914 61.7787 6.89242Z" fill="#42695A"/>
<path d="M83.4673 6.95813C83.8754 7.24962 84.1344 7.62016 84.2919 8.09286C84.2964 8.24392 84.298 8.39371 84.297 8.54474C84.297 8.58381 84.2969 8.62288 84.2969 8.66313C84.2966 8.80889 84.2959 8.95465 84.2952 9.10041C84.2941 9.42641 84.293 9.7524 84.2919 10.0883C83.1309 10.0883 81.9699 10.0883 80.7737 10.0883C80.7704 9.76878 80.7672 9.44928 80.7638 9.1201C80.7624 9.02023 80.761 8.92036 80.7595 8.81746C80.759 8.73681 80.7586 8.65616 80.7583 8.57551C80.7575 8.53484 80.7567 8.49418 80.7559 8.45228C80.7556 7.9289 80.935 7.522 81.2988 7.14766C81.954 6.59885 82.7275 6.51022 83.4673 6.95813Z" fill="#42695A"/>
<path d="M72.1232 14.0055C72.4018 14.227 72.6249 14.5641 72.6877 14.9179C72.7434 15.4264 72.6659 15.8081 72.3726 16.2307C72.0644 16.5884 71.7417 16.7832 71.2705 16.8208C70.7497 16.8331 70.4014 16.7321 70.0096 16.3882C69.6851 16.0637 69.5278 15.6898 69.5107 15.233C69.5276 14.7958 69.673 14.4259 69.9729 14.1056C70.6256 13.5174 71.4135 13.5306 72.1232 14.0055Z" fill="white"/>
<path d="M76.0081 14.0059C76.2833 14.2241 76.4624 14.5352 76.5725 14.8657C76.6279 15.3918 76.5644 15.7946 76.2575 16.231C75.9384 16.6009 75.6195 16.7769 75.1375 16.8267C74.6554 16.8475 74.3236 16.7616 73.9456 16.4616C73.6368 16.1769 73.4465 15.8266 73.4094 15.4066C73.4001 15.034 73.4429 14.7678 73.6319 14.4456C73.6503 14.4127 73.6688 14.3798 73.6877 14.3459C73.8916 14.0217 74.1969 13.831 74.5476 13.6908C75.1054 13.5929 75.5359 13.6899 76.0081 14.0059Z" fill="white"/>
<path d="M94.7583 0.273683C95.1041 0.51741 95.4025 0.838939 95.4776 1.26626C95.5321 1.80286 95.4596 2.25143 95.1166 2.67749C94.7764 3.03887 94.3682 3.21217 93.876 3.23214C93.4112 3.21723 93.0338 2.99167 92.6945 2.68406C92.4021 2.32838 92.2932 1.91922 92.3091 1.46379C92.3668 0.994958 92.6014 0.625799 92.9571 0.321065C93.5214 -0.0605122 94.1722 -0.0588788 94.7583 0.273683Z" fill="white"/>
<path d="M83.131 0.140032C83.5531 0.362495 83.8889 0.688496 84.0434 1.1443C84.1429 1.61931 84.1126 2.0468 83.8727 2.47348C83.6615 2.78319 83.4325 2.9675 83.0851 3.10362C83.0353 3.12528 82.9854 3.14694 82.9341 3.16925C82.4847 3.27712 82.0562 3.22023 81.6587 2.98341C81.24 2.69023 81.0297 2.34425 80.9321 1.84335C80.8764 1.40644 80.9749 1.0405 81.2213 0.676012C81.6767 0.111601 82.4375 -0.143683 83.131 0.140032Z" fill="white"/>
<path d="M61.388 0.149765C61.7583 0.357012 62.0788 0.666532 62.2497 1.05783C62.3602 1.47263 62.3646 1.94442 62.189 2.34086C61.9503 2.74304 61.5697 3.05419 61.1224 3.19089C60.6277 3.2471 60.2297 3.20618 59.8106 2.91623C59.46 2.6288 59.2282 2.2909 59.1401 1.84201C59.099 1.34056 59.2319 0.919798 59.5546 0.5317C60.0455 0.0544744 60.7416 -0.104969 61.388 0.149765Z" fill="white"/>
<path d="M53.2654 24.7634C53.5439 24.982 53.7229 25.2423 53.8354 25.5788C53.8354 25.6654 53.8354 25.7521 53.8354 25.8413C52.8131 25.8413 51.7907 25.8413 50.7373 25.8413C50.8112 25.3238 50.9443 25.0568 51.3498 24.7228C51.9228 24.306 52.6985 24.3741 53.2654 24.7634Z" fill="#42695A"/>
<path d="M86.6322 24.6061C86.9042 24.7622 87.1097 24.9502 87.2853 25.21C87.3058 25.2402 87.3262 25.2704 87.3473 25.3015C87.3904 25.42 87.3904 25.42 87.3904 25.8401C86.3853 25.8401 85.3802 25.8401 84.3447 25.8401C84.4079 25.2712 84.561 25.0637 84.9747 24.7019C85.469 24.3752 86.1014 24.3608 86.6322 24.6061Z" fill="#42695A"/>
</svg>
