<svg width="130" height="34" viewBox="0 0 130 34" fill="none" xmlns="http://www.w3.org/2000/svg">
<path d="M21.3293 0C9.56812 0 0 9.64494 0 21.5006V33.7806H2.60486V21.5006C2.60486 11.0939 11.004 2.62733 21.3278 2.62733C31.6516 2.62733 40.0523 11.0939 40.0523 21.5006V33.7806H42.6571V21.5006C42.6587 9.64494 33.0905 0 21.3293 0Z" fill="#42695A"/>
<path d="M19.3998 33.6675C18.0997 32.8187 17.2916 31.2361 17.2916 29.5369C17.2916 28.6601 17.5044 27.8019 17.9054 27.0572C18.5932 25.77 19.6481 24.7237 20.5087 23.5593C21.0146 22.8737 21.5281 22.1741 21.9631 21.4404C22.5028 20.5293 22.8391 19.1939 22.8391 17.958C22.8391 15.7364 21.8351 13.6408 20.154 12.3473C20.1432 12.3364 20.1309 12.3302 20.1154 12.3287C20.0939 12.3255 20.0723 12.3364 20.0599 12.3535C20.0445 12.3753 20.0445 12.4033 20.0599 12.4235C20.3529 13.064 20.501 13.7543 20.501 14.4787C20.501 15.0804 20.3961 15.6649 20.191 16.2168C19.4492 18.4648 17.6494 20.2511 17.6293 20.2713C15.6275 22.4835 15.0291 23.5189 15.0245 23.5267C14.3366 24.6196 13.9727 25.8975 13.9727 27.2205C13.9727 30.5458 16.2891 33.3644 19.3597 33.7779C19.3628 33.7779 19.3659 33.7779 19.3675 33.7779C19.3921 33.7779 19.4153 33.7624 19.4245 33.7375C19.4338 33.7111 19.4245 33.6815 19.4014 33.6644" fill="#F26921"/>
<path d="M28.0815 24.1469C26.5824 20.9568 24.5929 18.7197 24.5728 18.6979C24.5543 18.6777 24.5266 18.673 24.5034 18.6823C24.4803 18.6932 24.4649 18.7181 24.468 18.7445C24.4957 19.0057 24.5096 19.2715 24.5096 19.5358C24.5096 21.5164 23.6968 23.0742 22.5509 24.6164C22.2625 25.0035 21.9741 25.3921 21.6888 25.7823L20.7681 26.9856C20.728 27.0354 20.6864 27.0898 20.6432 27.1489C19.9029 28.1485 18.6429 30.4416 20.4859 32.6973C20.5059 32.7222 20.5445 32.7207 20.5614 32.6942C20.6247 32.6025 20.6956 32.5092 20.7774 32.4175C21.2431 31.9371 21.7274 31.4739 22.2086 31.0106C23.0815 30.1695 23.7755 29.2943 24.0947 28.105C24.1379 27.9464 24.1734 27.7863 24.1996 27.6277C24.2027 27.6121 24.2135 27.5982 24.2289 27.5935C24.2443 27.5888 24.2582 27.5935 24.2644 27.6075C24.2644 27.6075 25.6447 29.7591 25.128 33.0269C25.0879 33.2772 25.0263 33.5197 24.9461 33.7529C24.9399 33.7716 24.9584 33.7871 24.9754 33.7794C27.207 32.615 28.6891 30.0731 28.6891 27.2204C28.6891 26.1477 28.4855 25.1154 28.083 24.1484" fill="#F26921"/>
<path d="M38.5039 33.7795H37.1467V21.4139C37.1467 12.6225 30.0508 5.46964 21.3294 5.46964C12.6079 5.46964 5.5105 12.6225 5.5105 21.4139V33.7795H4.15332V21.4139C4.15332 11.8685 11.8584 4.10156 21.3294 4.10156C30.8003 4.10156 38.5039 11.8685 38.5039 21.4139V33.7795Z" fill="#42695A"/>
<path d="M79.4749 16.6271C79.4749 17.5739 80.2401 18.3455 81.179 18.3455C82.118 18.3455 82.8832 17.5739 82.8832 16.6271C82.8832 15.6803 82.118 14.9087 81.179 14.9087C80.2401 14.9087 79.4749 15.6803 79.4749 16.6271ZM75.2564 16.6271C75.2564 17.5739 76.0216 18.3455 76.9606 18.3455C77.8996 18.3455 78.6648 17.5739 78.6648 16.6271C78.6648 15.6803 77.8996 14.9087 76.9606 14.9087C76.0216 14.9087 75.2564 15.6803 75.2564 16.6271ZM67.4026 1.71839C67.4026 0.771579 66.6374 0 65.6984 0C64.7594 0 63.9942 0.771579 63.9942 1.71839C63.9942 2.6652 64.7594 3.43677 65.6984 3.43677C66.6374 3.43677 67.4026 2.6652 67.4026 1.71839ZM91.037 1.71839C91.037 0.771579 90.2718 0 89.3328 0C88.3938 0 87.6286 0.771579 87.6286 1.71839C87.6286 2.6652 88.3938 3.43677 89.3328 3.43677C90.2718 3.43677 91.037 2.6652 91.037 1.71839ZM103.398 1.71839C103.398 0.771579 102.633 0 101.694 0C100.755 0 99.9896 0.771579 99.9896 1.71839C99.9896 2.6652 100.755 3.43677 101.694 3.43677C102.633 3.43677 103.398 2.6652 103.398 1.71839ZM91.2556 11.0112H87.41V9.19959C87.41 8.13125 88.2733 7.26075 89.3328 7.26075C90.3923 7.26075 91.2556 8.13125 91.2556 9.19959V11.0112ZM67.6212 11.0112H63.7756V9.07524C63.7756 8.0069 64.6389 7.13639 65.6984 7.13639C66.7579 7.13639 67.6212 8.0069 67.6212 9.07524V11.0112ZM113.766 9.44548V0.00282474H111.014V9.44548C111.014 10.3103 110.316 11.0112 109.461 11.0112H106.4V9.07524C106.4 6.55418 104.446 4.48533 101.974 4.36945L97.3436 4.36097V7.13639H101.727C102.787 7.13639 103.65 8.0069 103.65 9.07524V11.0112H94.0109V9.19959C94.0109 6.60223 91.9143 4.48815 89.3384 4.48815C86.7625 4.48815 84.6631 6.60223 84.6631 9.19959V11.0112H80.3774V4.29597H77.6249V11.0112H70.3737V9.07524C70.3737 6.47504 68.2771 4.36097 65.7012 4.36097C63.1253 4.36097 61.0287 6.47504 61.0287 9.07524V11.0112H56.5776C55.7199 11.0112 55.0248 10.3075 55.0248 9.44548V5.13255H52.2695V9.44548C52.2695 12.0428 54.3886 13.7867 56.3702 13.7867H109.133C111.773 13.7867 113.766 11.9213 113.766 9.44548ZM125.023 11.0112V9.2759C125.023 8.09451 125.976 7.13357 127.147 7.13357H130.001V4.35815H127.147C124.459 4.35815 122.273 6.56265 122.273 9.27307V11.0084H120.364C119.506 11.0084 118.811 10.3047 118.811 9.44265V0H116.059V9.44265C116.059 12.0485 118.133 13.7217 120.047 13.781H120.123L130.001 13.7838V11.0084H125.023V11.0112Z" fill="#42695A"/>
<path d="M58.209 27.4029H54.851C54.8594 26.5541 55.6106 25.8643 56.53 25.8643C57.4494 25.8643 58.2006 26.5513 58.209 27.4029ZM58.209 33.8693H60.7905V27.4142C60.7905 25.2029 58.8789 23.4004 56.53 23.4004C54.1811 23.4004 52.2695 25.2001 52.2695 27.4142V33.8693H54.851V29.864H58.209V33.8693ZM65.8778 33.8693H68.2239V31.4082H65.8778C65.4377 31.4082 65.0677 31.1499 65.0677 30.8462V23.4032H62.4862V30.8462C62.4862 32.5125 64.0082 33.8693 65.8778 33.8693ZM74.6958 27.2922L77.339 23.4032H74.2053L72.4114 26.0432V23.4032H69.8299V33.8807H72.4114V29.4495H73.0842C73.9867 29.4495 74.7211 30.128 74.7211 30.9597V33.8693H77.3026V30.9597C77.3026 29.336 76.2459 27.8968 74.6986 27.2893M84.1221 33.8807H86.7036V23.4032H84.1221V27.4029H81.947V23.4032H79.3655V33.8807H81.947V29.864H84.1221V33.8807ZM94.6696 27.4029H91.3117C91.3201 26.5541 92.0713 25.8643 92.9906 25.8643C93.91 25.8643 94.6612 26.5513 94.6696 27.4029ZM94.6696 33.8807H97.2511V27.4142C97.2511 25.2029 95.3395 23.4004 92.9906 23.4004C90.6418 23.4004 88.7302 25.2001 88.7302 27.4142V33.8807H91.3117V29.864H94.6696V33.8807ZM101.725 29.864H105.52V27.4029H101.725V26.4292C101.725 26.1227 102.097 25.8672 102.535 25.8672H105.52V23.4061H102.535C100.665 23.4061 99.1431 24.7629 99.1431 26.4292V33.8835H101.725V29.8668V29.864ZM110.341 33.8807H113.326V31.4196H110.341C109.901 31.4196 109.531 31.1613 109.531 30.8575V29.864H113.326V27.4029H109.531V26.4292C109.531 26.1227 109.904 25.8672 110.341 25.8672H113.326V23.4061H110.341C108.471 23.4061 106.949 24.7629 106.949 26.4292V30.8604C106.949 32.5266 108.471 33.8835 110.341 33.8835M118.744 33.8807H121.729V31.4196H118.744C118.304 31.4196 117.934 31.1613 117.934 30.8575V29.864H121.729V27.4029H117.934V26.4292C117.934 26.1227 118.307 25.8672 118.744 25.8672H121.729V23.4061H118.744C116.874 23.4061 115.352 24.7629 115.352 26.4292V30.8604C115.352 32.5266 116.874 33.8835 118.744 33.8835M126.205 27.4029V26.4292C126.205 26.1227 126.578 25.8672 127.016 25.8672H130.001V23.4061H127.016C125.146 23.4061 123.624 24.7629 123.624 26.4292V33.8835H126.205V29.8668H130.001V27.4057H126.205V27.4029Z" fill="#42695A"/>
</svg>
