<svg width="120" height="46" viewBox="0 0 120 46" fill="none" xmlns="http://www.w3.org/2000/svg">
<path d="M28.0841 5.21859H21.2256C22.1552 0.798974 24.8109 0.798967 24.8109 0.798967C27.2834 0.798967 27.9235 3.52497 28.0841 5.21859Z" fill="url(#paint0_linear_0_5)"/>
<path d="M91.9157 5.21859H98.7743C97.8448 0.798974 95.189 0.798967 95.189 0.798967C92.7165 0.798967 92.0764 3.52497 91.9157 5.21859Z" fill="url(#paint1_linear_0_5)"/>
<path d="M95.1889 0.798967C92.7163 0.798967 92.0763 3.5251 91.9156 5.21859C91.844 5.98122 91.8691 6.53505 91.8691 6.53505V45.2773L59.9999 35.5446L28.1307 45.2773V6.53505C28.1307 6.53505 28.1558 5.98122 28.0842 5.21859C27.9235 3.5251 27.2835 0.798967 24.8109 0.798967H95.1889Z" fill="url(#paint2_linear_0_5)"/>
<defs>
<linearGradient id="paint0_linear_0_5" x1="21.2256" y1="3.00875" x2="28.0842" y2="3.00875" gradientUnits="userSpaceOnUse">
<stop offset="0.0758" stop-color="#D42027"/>
<stop offset="0.7222" stop-color="#671110"/>
<stop offset="0.846" stop-color="#6C0F0F"/>
<stop offset="1" stop-color="#B42025"/>
</linearGradient>
<linearGradient id="paint1_linear_0_5" x1="98.7743" y1="3.00875" x2="91.9157" y2="3.00875" gradientUnits="userSpaceOnUse">
<stop offset="0.0758" stop-color="#D42027"/>
<stop offset="0.7222" stop-color="#671110"/>
<stop offset="0.846" stop-color="#6C0F0F"/>
<stop offset="1" stop-color="#B42025"/>
</linearGradient>
<linearGradient id="paint2_linear_0_5" x1="47.9999" y1="-19.0926" x2="43.8366" y2="68.1404" gradientUnits="userSpaceOnUse">
<stop offset="0.14377" stop-color="#A70110"/>
<stop offset="0.2806" stop-color="#B20819"/>
<stop offset="0.360281" stop-color="#D11B31"/>
<stop offset="0.501677" stop-color="#ED2C47"/>
<stop offset="0.753979" stop-color="#C31226"/>
<stop offset="0.852198" stop-color="#A70110"/>
<stop offset="0.996" stop-color="#ED2C47"/>
</linearGradient>
</defs>
</svg>
