<svg width="199" height="175" viewBox="0 0 199 175" fill="none" xmlns="http://www.w3.org/2000/svg">
<path d="M162.845 62.9777L127.317 27.4492H13.834V124.395H127.317L162.85 88.8616L162.845 62.9777ZM143.445 69.9107C144.638 71.1039 145.45 72.6241 145.779 74.2789C146.108 75.9338 145.939 77.6491 145.293 79.2079C144.647 80.7667 143.554 82.099 142.151 83.0363C140.748 83.9737 139.098 84.474 137.411 84.474C135.724 84.474 134.075 83.9737 132.672 83.0363C131.269 82.099 130.175 80.7667 129.529 79.2079C128.884 77.6491 128.714 75.9338 129.043 74.2789C129.372 72.6241 130.185 71.1039 131.378 69.9107C132.17 69.1182 133.111 68.4896 134.146 68.0607C135.181 67.6318 136.291 67.411 137.411 67.411C138.532 67.411 139.641 67.6318 140.677 68.0607C141.712 68.4896 142.652 69.1182 143.445 69.9107Z" fill="#DEE1EC"/>
<path d="M155.044 66.21L124.084 35.25H21.6348V116.602H124.084L155.048 85.6373L155.044 66.21ZM143.444 69.9102C144.637 71.1035 145.449 72.6236 145.778 74.2785C146.107 75.9334 145.938 77.6487 145.293 79.2074C144.647 80.7662 143.553 82.0985 142.15 83.0359C140.747 83.9732 139.098 84.4735 137.411 84.4735C135.723 84.4735 134.074 83.9732 132.671 83.0359C131.268 82.0985 130.175 80.7662 129.529 79.2074C128.883 77.6487 128.714 75.9334 129.043 74.2785C129.372 72.6236 130.184 71.1035 131.377 69.9102C132.17 69.1177 133.11 68.4891 134.145 68.0602C135.181 67.6313 136.29 67.4106 137.411 67.4106C138.531 67.4106 139.641 67.6313 140.676 68.0602C141.711 68.4891 142.652 69.1177 143.444 69.9102Z" fill="#F5F5F5"/>
<path d="M130.433 82.8987C129.053 81.5185 128.114 79.7603 127.734 77.8464C127.354 75.9325 127.55 73.9489 128.297 72.1463C129.044 70.3437 130.308 68.803 131.931 67.7191C133.553 66.6352 135.461 66.0566 137.412 66.0566C139.363 66.0566 141.271 66.6352 142.893 67.7191C144.516 68.803 145.781 70.3437 146.528 72.1463C147.275 73.9489 147.471 75.9325 147.09 77.8464C146.71 79.7603 145.771 81.5185 144.392 82.8987C142.539 84.7474 140.029 85.7857 137.412 85.7857C134.795 85.7857 132.285 84.7474 130.433 82.8987ZM132.321 70.8318C131.315 71.8383 130.63 73.1204 130.352 74.5161C130.075 75.9118 130.218 77.3584 130.762 78.673C131.307 79.9876 132.229 81.1112 133.413 81.9017C134.596 82.6922 135.987 83.1141 137.41 83.1141C138.833 83.1141 140.224 82.6922 141.407 81.9017C142.59 81.1112 143.513 79.9876 144.058 78.673C144.602 77.3584 144.745 75.9118 144.468 74.5161C144.19 73.1204 143.505 71.8383 142.499 70.8318C141.148 69.4847 139.318 68.7283 137.41 68.7283C135.502 68.7283 133.672 69.4847 132.321 70.8318Z" fill="#5E6175"/>
<path d="M138.613 84.8129C137.09 82.273 136.461 79.2966 136.826 76.3577C137.19 73.4188 138.528 70.6864 140.626 68.5959L175.883 33.3212C178.376 30.8283 181.757 29.4277 185.282 29.4277C188.808 29.4277 192.189 30.8283 194.682 33.3212C197.175 35.8142 198.576 39.1954 198.576 42.721C198.576 46.2466 197.175 49.6278 194.682 52.1208L163.771 83.0273L161.883 81.1393L192.803 50.2283C194.795 48.2367 195.914 45.5354 195.914 42.7188C195.914 39.9021 194.795 37.2009 192.803 35.2092C190.811 33.2176 188.11 32.0986 185.293 32.0986C182.477 32.0986 179.776 33.2176 177.784 35.2092L142.509 70.4839C140.834 72.155 139.767 74.3381 139.475 76.686C139.184 79.0339 139.686 81.4117 140.902 83.4414L138.613 84.8129Z" fill="#5E6175"/>
<path style="mix-blend-mode:multiply" d="M71.3887 27.4439V73.8816L52.273 60.4343L33.1484 73.8861V27.4395L71.3887 27.4439Z" fill="url(#paint0_linear_432_10069)"/>
<path d="M33.1543 90.9863H114.626V98.6362H33.1543V90.9863Z" fill="#DEE1EC"/>
<path d="M84.3379 71.7227H114.621V79.3725H84.3379V71.7227Z" fill="#DEE1EC"/>
<path d="M84.3379 50.8965H114.621V58.5463H84.3379V50.8965Z" fill="#DEE1EC"/>
<path style="mix-blend-mode:multiply" d="M151.882 99.8279L127.312 124.398H102.141C107.573 102.535 131.458 90.9224 151.882 99.8279Z" fill="url(#paint1_linear_432_10069)"/>
<path d="M127.869 125.733H12.498V26.1074H127.869L164.181 62.4196V89.4122L127.869 125.733ZM15.1697 123.062H126.76L161.514 88.3302V63.5283L126.782 28.7969H15.1697V123.062ZM137.411 85.7921C135.458 85.793 133.549 85.2148 131.925 84.1306C130.301 83.0464 129.035 81.5049 128.288 79.7012C127.54 77.8974 127.344 75.9124 127.724 73.9972C128.104 72.082 129.044 70.3226 130.425 68.9415C131.805 67.5605 133.564 66.6199 135.479 66.2386C137.394 65.8573 139.379 66.0526 141.183 66.7996C142.987 67.5467 144.529 68.8119 145.614 70.4354C146.699 72.0589 147.278 73.9677 147.278 75.9203C147.288 77.2192 147.04 78.507 146.548 79.709C146.056 80.9109 145.329 82.003 144.411 82.9216C143.493 83.8402 142.401 84.5671 141.199 85.0599C139.998 85.5527 138.71 85.8016 137.411 85.7921ZM137.411 68.7247C135.987 68.7247 134.595 69.1471 133.41 69.9384C132.226 70.7298 131.303 71.8546 130.759 73.1705C130.214 74.4864 130.071 75.9343 130.35 77.3311C130.628 78.7279 131.314 80.0108 132.321 81.0176C133.329 82.0244 134.612 82.7098 136.009 82.9871C137.406 83.2644 138.854 83.1212 140.17 82.5755C141.485 82.0299 142.609 81.1064 143.4 79.9217C144.191 78.7371 144.612 77.3446 144.611 75.9203C144.615 74.9737 144.431 74.0356 144.07 73.1605C143.709 72.2853 143.178 71.4902 142.508 70.8212C141.839 70.1522 141.043 69.6225 140.167 69.2627C139.292 68.9028 138.353 68.72 137.407 68.7247H137.411Z" fill="#5E6175"/>
<path d="M137.41 162.478C153.599 162.478 166.723 149.355 166.723 133.166C166.723 116.977 153.599 103.854 137.41 103.854C121.221 103.854 108.098 116.977 108.098 133.166C108.098 149.355 121.221 162.478 137.41 162.478Z" fill="#F5F5F5"/>
<path d="M137.411 163.814C131.349 163.815 125.423 162.018 120.382 158.651C115.341 155.284 111.412 150.498 109.092 144.898C106.772 139.297 106.164 133.135 107.346 127.189C108.528 121.244 111.447 115.783 115.733 111.496C120.019 107.209 125.48 104.29 131.425 103.107C137.371 101.924 143.533 102.531 149.134 104.85C154.734 107.17 159.521 111.098 162.889 116.138C166.257 121.178 168.054 127.104 168.054 133.166C168.045 141.291 164.814 149.08 159.069 154.826C153.324 160.571 145.535 163.804 137.411 163.814ZM137.411 105.194C131.877 105.193 126.467 106.833 121.866 109.907C117.264 112.981 113.678 117.35 111.56 122.462C109.442 127.574 108.887 133.2 109.967 138.627C111.046 144.055 113.711 149.04 117.624 152.953C121.537 156.866 126.522 159.53 131.949 160.61C137.377 161.689 143.002 161.135 148.114 159.017C153.227 156.898 157.596 153.312 160.67 148.711C163.743 144.109 165.384 138.7 165.383 133.166C165.373 125.75 162.423 118.641 157.179 113.397C151.936 108.153 144.826 105.203 137.411 105.194Z" fill="#5E6175"/>
<path d="M137.41 150.019C134.731 150.015 132.164 148.95 130.27 147.056C128.376 145.162 127.31 142.594 127.307 139.916H133.638C133.638 140.662 133.86 141.391 134.274 142.011C134.688 142.631 135.278 143.115 135.967 143.4C136.656 143.685 137.414 143.76 138.146 143.615C138.877 143.469 139.549 143.11 140.077 142.582C140.604 142.055 140.963 141.383 141.109 140.651C141.254 139.92 141.18 139.161 140.894 138.472C140.609 137.783 140.125 137.194 139.505 136.78C138.885 136.365 138.156 136.144 137.41 136.144C135.412 136.144 133.458 135.551 131.796 134.441C130.135 133.331 128.84 131.753 128.075 129.906C127.311 128.06 127.111 126.028 127.501 124.068C127.891 122.108 128.854 120.308 130.267 118.895C131.681 117.482 133.481 116.52 135.442 116.131C137.402 115.742 139.433 115.942 141.279 116.708C143.125 117.473 144.703 118.769 145.813 120.431C146.922 122.093 147.514 124.047 147.513 126.045H141.181C141.181 125.299 140.96 124.57 140.546 123.95C140.131 123.33 139.542 122.846 138.853 122.561C138.164 122.275 137.406 122.201 136.674 122.346C135.943 122.492 135.271 122.851 134.743 123.378C134.216 123.906 133.856 124.578 133.711 125.309C133.565 126.041 133.64 126.799 133.926 127.489C134.211 128.178 134.694 128.767 135.315 129.181C135.935 129.596 136.664 129.817 137.41 129.817C138.754 129.789 140.091 130.029 141.341 130.524C142.591 131.019 143.73 131.758 144.691 132.699C145.651 133.64 146.415 134.763 146.936 136.003C147.457 137.242 147.725 138.573 147.725 139.918C147.725 141.262 147.457 142.594 146.936 143.833C146.415 145.073 145.651 146.196 144.691 147.136C143.73 148.077 142.591 148.817 141.341 149.312C140.091 149.807 138.754 150.047 137.41 150.019Z" fill="#F26921"/>
<path d="M134.244 146.854H140.576V153.168H134.244V146.854Z" fill="#F26921"/>
<path d="M134.244 112.795H140.576V119.109H134.244V112.795Z" fill="#F26921"/>
<path d="M71.3945 64.3483L52.2744 50.901L33.1543 64.3483V22.9377C33.1537 22.3668 33.2657 21.8014 33.4839 21.2739C33.7021 20.7464 34.0222 20.267 34.4259 19.8634C34.8295 19.4597 35.3089 19.1396 35.8364 18.9214C36.3639 18.7032 36.9293 18.5912 37.5002 18.5918H67.0486C68.2012 18.5918 69.3066 19.0497 70.1217 19.8647C70.9367 20.6797 71.3945 21.7851 71.3945 22.9377V64.3483Z" fill="#F26921"/>
<path d="M134.379 5.41211C134.361 4.71782 134.481 4.02697 134.732 3.3791C134.982 2.73123 135.357 2.13908 135.837 1.63655C136.316 1.13401 136.89 0.730972 137.525 0.450496C138.161 0.17002 138.845 0.0176199 139.539 0.00202108C144.241 -0.122656 146.726 5.55015 143.493 8.93869C142.77 9.69315 141.84 10.2167 140.82 10.4435C139.8 10.6702 138.735 10.59 137.761 10.2129C136.786 9.83584 135.945 9.17875 135.343 8.32444C134.741 7.47012 134.406 6.4568 134.379 5.41211ZM137.05 5.34978C137.062 5.86673 137.226 6.36863 137.523 6.79198C137.82 7.21532 138.236 7.54109 138.718 7.72807C139.2 7.91504 139.727 7.95482 140.232 7.84237C140.736 7.72993 141.196 7.4703 141.554 7.09635C141.911 6.7224 142.149 6.25092 142.238 5.74158C142.327 5.23223 142.263 4.70789 142.054 4.23491C141.845 3.76193 141.501 3.36155 141.064 3.08444C140.628 2.80732 140.119 2.66592 139.602 2.67813C138.911 2.6968 138.255 2.98746 137.777 3.48692C137.3 3.98637 137.038 4.65424 137.05 5.34532V5.34978Z" fill="#5E6175"/>
<path d="M159.639 25.218C158.7 25.2171 157.789 24.8918 157.062 24.2972C156.334 23.7026 155.835 22.875 155.647 21.9545C155.459 21.0339 155.595 20.0767 156.031 19.2447C156.468 18.4127 157.178 17.7568 158.042 17.388C158.906 17.0192 159.871 16.9599 160.774 17.2204C161.676 17.4808 162.462 18.0449 162.996 18.8173C163.531 19.5897 163.783 20.5231 163.709 21.4597C163.635 22.3963 163.241 23.2788 162.591 23.9579C162.21 24.3562 161.751 24.6733 161.244 24.8898C160.737 25.1064 160.191 25.218 159.639 25.218ZM158.228 21.1749C158.235 21.4529 158.324 21.7225 158.484 21.9498C158.645 22.177 158.868 22.3517 159.128 22.4518C159.387 22.5518 159.671 22.5728 159.942 22.5119C160.213 22.4511 160.461 22.3113 160.652 22.11C160.844 21.9088 160.972 21.6552 161.02 21.3813C161.068 21.1074 161.034 20.8254 160.922 20.571C160.809 20.3166 160.624 20.1012 160.39 19.9519C160.155 19.8026 159.882 19.7261 159.604 19.7322C159.23 19.7415 158.875 19.8987 158.617 20.1691C158.359 20.4396 158.219 20.8013 158.228 21.1749Z" fill="#5E6175"/>
<path d="M4.71861 139.912C3.78989 139.912 2.88189 139.638 2.1083 139.124C1.33471 138.61 0.729908 137.88 0.369629 137.024C0.00935068 136.168 -0.0903945 135.224 0.0828836 134.312C0.256162 133.4 0.694763 132.559 1.34377 131.894C1.99277 131.23 2.82333 130.772 3.73145 130.577C4.63957 130.383 5.58489 130.461 6.44904 130.801C7.31319 131.141 8.05776 131.729 8.58953 132.49C9.12129 133.251 9.41662 134.153 9.43852 135.081C9.45275 135.71 9.34121 136.336 9.11045 136.921C8.87969 137.506 8.53435 138.04 8.0947 138.49C7.65505 138.94 7.12994 139.297 6.5502 139.542C5.97045 139.786 5.34774 139.912 4.71861 139.912ZM4.71861 133.144C4.44528 133.144 4.17459 133.198 3.92255 133.304C3.67052 133.409 3.44226 133.565 3.25129 133.76C3.06031 133.956 2.9105 134.188 2.81071 134.442C2.71093 134.696 2.66319 134.968 2.67034 135.242C2.68085 135.644 2.80985 136.035 3.04121 136.365C3.27257 136.694 3.59601 136.949 3.97108 137.095C4.34616 137.242 4.75621 137.275 5.14995 137.19C5.54369 137.105 5.90364 136.906 6.18478 136.618C6.46591 136.329 6.65575 135.964 6.73055 135.568C6.80535 135.173 6.76179 134.764 6.60531 134.392C6.44883 134.021 6.18639 133.704 5.85081 133.482C5.51523 133.259 5.12141 133.14 4.71861 133.14V133.144Z" fill="#5E6175"/>
<path d="M104.033 166.711L110.38 160.364L112.269 162.253L105.922 168.6L104.033 166.711Z" fill="#5E6175"/>
<path d="M117.426 166.023H120.097V175H117.426V166.023Z" fill="#5E6175"/>
<path d="M97.4375 153.127H106.414V155.799H97.4375V153.127Z" fill="#5E6175"/>
<path d="M100.809 140.09H98.1374V137.419H100.809V140.09ZM93.6846 140.09H91.013V137.419H93.6846V140.09ZM86.5602 140.09H83.8886V137.419H86.5602V140.09ZM79.4358 140.09H76.7642V137.419H79.4358V140.09ZM72.3114 140.09H69.6398V137.419H72.3114V140.09ZM65.187 140.09H62.5154L62.5376 137.419H65.2093L65.187 140.09ZM57.6173 138.991C56.7067 138.561 55.8552 138.017 55.0837 137.37L56.798 135.322C57.3937 135.82 58.0506 136.241 58.7528 136.573L57.6173 138.991ZM52.0336 133.425C51.6016 132.515 51.2903 131.552 51.1074 130.562L53.7345 130.076C53.8731 130.839 54.1127 131.58 54.447 132.28L52.0336 133.425Z" fill="#A9AFC4"/>
<path d="M53.6052 118.929H50.9336V116.257H53.6052V118.929ZM53.6052 111.805H50.9336V109.133H53.6052V111.805ZM53.6052 104.68H50.9336V102.289H53.6052V104.68Z" fill="#A9AFC4"/>
<defs>
<linearGradient id="paint0_linear_432_10069" x1="52.2686" y1="21.3748" x2="52.2686" y2="58.6933" gradientUnits="userSpaceOnUse">
<stop stop-color="#CACFDD"/>
<stop offset="1" stop-color="#EEF0F1"/>
</linearGradient>
<linearGradient id="paint1_linear_432_10069" x1="102.141" y1="110.608" x2="151.882" y2="110.608" gradientUnits="userSpaceOnUse">
<stop stop-color="#CACFDD"/>
<stop offset="1" stop-color="#EEF0F1"/>
</linearGradient>
</defs>
</svg>
