<svg width="175" height="175" viewBox="0 0 175 175" fill="none" xmlns="http://www.w3.org/2000/svg">
<path d="M131.246 131.25C155.409 107.088 155.409 67.9125 131.246 43.75C107.084 19.5875 67.9085 19.5875 43.7461 43.75C19.5836 67.9125 19.5836 107.088 43.7461 131.25C67.9085 155.412 107.084 155.412 131.246 131.25Z" fill="#F5F5F5"/>
<path d="M149.395 87.5003C149.395 103.912 142.876 119.652 131.271 131.257C119.666 142.862 103.926 149.382 87.514 149.382C71.1021 149.382 55.3624 142.862 43.7574 131.257C32.1524 119.652 25.6328 103.912 25.6328 87.5003C25.6328 53.3251 53.3388 25.6191 87.514 25.6191C121.689 25.6191 149.395 53.3251 149.395 87.5003Z" fill="#F5F5F5"/>
<path d="M147.398 51.6386C147.091 51.123 146.766 50.6013 146.444 50.1042L147.997 49.1191C148.328 49.6408 148.66 50.1748 148.979 50.7057L147.398 51.6386ZM144.765 47.5693C144.422 47.0752 144.066 46.578 143.71 46.0901L145.192 45.0006C145.56 45.5008 145.925 46.0103 146.278 46.5166L144.765 47.5693ZM141.856 43.6871C141.478 43.2114 141.089 42.7388 140.702 42.2816L142.108 41.0939C142.507 41.5634 142.905 42.0483 143.292 42.5363L141.856 43.6871ZM138.701 40.0044C138.293 39.5625 137.876 39.1175 137.455 38.6817L138.781 37.402C139.211 37.8501 139.64 38.3043 140.058 38.7615L138.701 40.0044ZM135.307 36.5458C134.865 36.1254 134.417 35.7111 133.975 35.3182L135.203 33.9526C135.66 34.3638 136.123 34.7935 136.568 35.2231L135.307 36.5458ZM131.686 33.3204C131.216 32.9306 130.743 32.547 130.274 32.1757L131.416 30.7302C131.897 31.1108 132.382 31.5067 132.864 31.9056L131.686 33.3204ZM127.859 30.3497C127.371 29.9968 126.874 29.6438 126.373 29.3001L127.414 27.7841C127.926 28.134 128.439 28.4961 128.948 28.8582L127.859 30.3497ZM123.838 27.6399C123.326 27.3176 122.804 27.0015 122.286 26.6946L123.225 25.1111C123.753 25.418 124.29 25.7494 124.817 26.0778L123.838 27.6399ZM119.646 25.2093C119.112 24.9208 118.569 24.6385 118.035 24.3715L118.858 22.7266C119.407 23.0028 119.962 23.2912 120.515 23.5859L119.646 25.2093Z" fill="#C5CAD0"/>
<path d="M87.5167 150.301C52.8781 150.301 24.7148 122.129 24.7148 87.4991C24.7148 52.8697 52.8781 24.6973 87.5136 24.6973C122.149 24.6973 150.315 52.8697 150.315 87.4991C150.315 122.129 122.143 150.301 87.5167 150.301ZM87.5167 26.5386C53.9062 26.5386 26.5592 53.8855 26.5592 87.4991C26.5592 121.113 53.9031 148.46 87.5167 148.46C121.13 148.46 148.474 121.113 148.474 87.4991C148.474 53.8855 121.127 26.5386 87.5136 26.5386H87.5167Z" fill="#677381"/>
<path d="M115.682 115.685C131.248 100.119 131.248 74.8814 115.682 59.3155C100.117 43.7496 74.8793 43.7496 59.3134 59.3155C43.7475 74.8814 43.7475 100.119 59.3134 115.685C74.8793 131.25 100.117 131.25 115.682 115.685Z" fill="url(#paint0_linear_432_21917)"/>
<path style="mix-blend-mode:multiply" d="M146.03 107.677C143.012 116.412 138.077 124.36 131.588 130.94C128.052 117.482 122.258 95.4324 120.021 86.8947C98.5817 82.1502 98.7321 40.8613 118.778 40.8613C128.267 40.8613 137.118 51.09 140.19 60.9749C142.694 69.0246 141.371 76.6661 136.673 81.7052L146.03 107.677Z" fill="url(#paint1_linear_432_21917)"/>
<path d="M116.578 46.4494C105.294 49.9572 106.512 79.7285 122.032 81.9259C122.672 82.0078 123.274 82.2778 123.76 82.7017C124.247 83.1256 124.597 83.6844 124.766 84.3073C127.596 95.0945 139.552 140.594 139.552 140.594C139.761 141.377 140.126 142.111 140.625 142.75C141.124 143.389 141.747 143.92 142.457 144.312C143.167 144.704 143.948 144.949 144.755 145.031C145.562 145.113 146.377 145.031 147.151 144.79C147.925 144.55 148.643 144.155 149.261 143.63C149.878 143.105 150.384 142.46 150.746 141.735C151.108 141.009 151.32 140.218 151.369 139.409C151.418 138.599 151.302 137.788 151.03 137.025C151.03 137.025 135.072 92.7683 131.297 82.2757C131.085 81.6652 131.059 81.0054 131.223 80.3803C131.387 79.7552 131.733 79.1929 132.218 78.7649C143.717 68.1711 127.881 42.9386 116.578 46.4494Z" fill="#DEE1EC"/>
<path d="M145.359 146.008C143.828 146.004 142.341 145.495 141.13 144.558C139.919 143.622 139.052 142.311 138.663 140.83C138.663 140.83 126.694 95.3309 123.877 84.5438C123.753 84.0964 123.498 83.6959 123.147 83.3928C122.795 83.0897 122.361 82.8975 121.901 82.8405C110.745 81.26 106.289 66.1979 108.888 55.3125C111.445 44.6113 119.752 42.015 127.937 49.3896C131.571 52.6672 134.532 57.3687 136.057 62.2789C138.239 69.2944 137.061 75.555 132.826 79.4647C132.479 79.7731 132.231 80.177 132.113 80.6259C131.995 81.0747 132.012 81.5484 132.163 81.9874C132.163 82.0181 151.905 136.736 151.997 137.031C152.315 138.069 152.385 139.167 152.201 140.237C152.017 141.307 151.586 142.319 150.94 143.192C150.295 144.065 149.454 144.774 148.484 145.263C147.515 145.752 146.445 146.007 145.359 146.008ZM118.752 47.0634C114.277 47.0634 111.718 51.3997 110.681 55.7514C108.336 65.5719 112.184 79.6151 122.161 81.0299C122.983 81.1386 123.753 81.4881 124.376 82.0343C124.998 82.5805 125.445 83.2988 125.66 84.0988C128.489 94.8645 140.443 140.358 140.443 140.358C140.617 141.024 140.925 141.647 141.347 142.191C141.77 142.734 142.298 143.186 142.9 143.52C143.502 143.854 144.165 144.062 144.85 144.133C145.534 144.203 146.226 144.134 146.883 143.93C147.541 143.725 148.15 143.39 148.674 142.943C149.198 142.497 149.626 141.949 149.932 141.333C150.239 140.717 150.417 140.045 150.456 139.357C150.496 138.67 150.396 137.982 150.162 137.335C150.211 137.335 130.444 82.6257 130.432 82.5919C130.157 81.8121 130.12 80.9683 130.324 80.1671C130.528 79.3658 130.965 78.643 131.58 78.0899C141.67 68.8065 129.073 47.0634 118.752 47.0634Z" fill="#677381"/>
<path style="mix-blend-mode:multiply" d="M72.6461 56.1476L67.9538 75.8437C67.0535 79.6479 64.7353 82.965 61.4723 85.1179C57.8142 87.5424 57.7252 87.5362 57.3293 88.0334L45.6276 133.051C38.3676 126.375 32.8052 118.064 29.4023 108.807L39.0203 82.3252C38.9834 81.7115 38.962 81.7943 37.2618 77.5746C35.799 73.954 35.7715 69.9119 37.1851 66.2718L44.486 47.3828C45.21 45.5115 46.6175 43.9849 48.424 43.1116C50.2305 42.2383 52.3011 42.0834 54.2174 42.6782L67.3032 46.7567C69.217 47.355 70.8327 48.6569 71.8243 50.3998C72.8159 52.1426 73.1096 54.1967 72.6461 56.1476Z" fill="url(#paint2_linear_432_21917)"/>
<path d="M43.057 75.2584C42.1892 73.102 42.1727 70.6965 43.011 68.5283L51.1497 47.4727L44.6682 68.3411C44.4097 69.1697 44.4909 70.067 44.8937 70.8358C45.2965 71.6046 45.988 72.182 46.8164 72.4412L56.5448 75.464C57.3734 75.7225 58.2706 75.6413 59.0394 75.2385C59.8082 74.8357 60.3857 74.1442 60.6448 73.3158L67.1294 52.4473L61.9123 74.4083C61.3747 76.672 59.9968 78.6467 58.0577 79.9324L54.5776 82.2371C53.314 83.0778 52.2785 84.2187 51.564 85.5576L37.1402 140.927C36.9316 141.71 36.5668 142.443 36.0676 143.082C35.5684 143.721 34.9452 144.253 34.2354 144.645C33.5257 145.037 32.7439 145.281 31.9373 145.363C31.1306 145.446 30.3157 145.364 29.5414 145.123C28.7672 144.882 28.0496 144.488 27.4318 143.962C26.814 143.437 26.3088 142.793 25.9465 142.067C25.5841 141.342 25.3722 140.551 25.3234 139.741C25.2746 138.932 25.3899 138.121 25.6625 137.358L45.2052 83.5843C45.3726 82.0761 45.1616 80.5499 44.5914 79.1436L43.057 75.2584Z" fill="#DEE1EC"/>
<path d="M54.3672 74.7803L61.8215 50.7969L54.3672 74.7803Z" fill="#DEE1EC"/>
<path d="M48.9766 73.1045L56.434 49.1211L48.9766 73.1045Z" fill="#DEE1EC"/>
<path d="M31.3355 146.337C30.2248 146.329 29.132 146.056 28.1481 145.54C27.1642 145.025 26.3174 144.282 25.6782 143.374C25.039 142.465 24.6257 141.417 24.4728 140.317C24.3198 139.217 24.4316 138.096 24.7988 137.048L44.2863 83.3606C44.4182 82.0391 44.2298 80.7054 43.7369 79.4723L42.1902 75.6055C41.2328 73.2333 41.2141 70.5856 42.138 68.2002L50.2767 47.1445L52.0168 47.7583L45.5322 68.6268C45.3455 69.2214 45.4021 69.8657 45.6898 70.4186C45.9774 70.9715 46.4726 71.3877 47.0667 71.576L56.7951 74.5989C57.3896 74.7856 58.034 74.729 58.5869 74.4413C59.1397 74.1537 59.556 73.6585 59.7443 73.0644L66.2258 52.1959L68.0027 52.6839L62.7671 74.6449C62.1784 77.1331 60.6627 79.3031 58.529 80.7121L55.0489 83.0168C53.9431 83.7546 53.0306 84.7471 52.3881 85.9108L38.0318 141.157C37.6438 142.638 36.7765 143.95 35.5653 144.887C34.3541 145.824 32.8669 146.334 31.3355 146.337ZM43.8965 74.915L45.4555 78.7848C46.0808 80.3336 46.3118 82.0135 46.1276 83.6736C46.1092 83.8393 47.1802 80.8533 26.5388 137.686C26.3155 138.334 26.2236 139.021 26.2686 139.705C26.3136 140.389 26.4945 141.058 26.8008 141.671C27.1071 142.285 27.5327 142.831 28.0526 143.278C28.5724 143.725 29.1763 144.064 29.8287 144.275C30.4862 144.48 31.1785 144.55 31.8636 144.48C32.5488 144.41 33.2127 144.201 33.8151 143.867C34.4175 143.533 34.9459 143.081 35.3684 142.537C35.791 141.993 36.0988 141.369 36.2734 140.703C51.3662 82.5657 50.6511 85.2571 50.7309 85.119C51.5176 83.646 52.6575 82.3912 54.0484 81.467L57.5255 79.1623C59.0368 78.1664 60.1754 76.6975 60.7631 74.9855C60.2319 75.6344 59.5188 76.1094 58.7153 76.3495C57.9119 76.5896 57.055 76.5837 56.2549 76.3328L46.5265 73.3069C45.7277 73.0586 45.0211 72.5776 44.4973 71.9253C43.9736 71.2731 43.6564 70.4793 43.5865 69.6457C43.1081 71.3882 43.2159 73.2397 43.8934 74.915H43.8965Z" fill="#677381"/>
<path d="M53.4961 74.5078L60.9555 50.5222L62.714 51.0691L55.2546 75.0547L53.4961 74.5078Z" fill="#677381"/>
<path d="M48.1055 72.832L55.5649 48.8464L57.3233 49.3933L49.8639 73.3789L48.1055 72.832Z" fill="#677381"/>
<path d="M33.1211 34.3125L34.4229 33.0107L38.6191 37.2069L37.3173 38.5087L33.1211 34.3125Z" fill="#677381"/>
<path d="M28.9258 41.832H34.861V43.6734H28.9258V41.832Z" fill="#677381"/>
<path d="M41.5859 28.6504H43.4273V34.5856H41.5859V28.6504Z" fill="#677381"/>
<path d="M61.7031 159.385C61.0397 159.386 60.3895 159.2 59.8268 158.848C59.2641 158.497 58.8116 157.994 58.5211 157.398C58.2306 156.802 58.1137 156.136 58.1839 155.476C58.2541 154.816 58.5085 154.19 58.918 153.668C59.3274 153.146 59.8755 152.749 60.4996 152.524C61.1236 152.299 61.7984 152.254 62.4468 152.394C63.0952 152.535 63.6911 152.854 64.1663 153.317C64.6415 153.78 64.9769 154.368 65.1341 155.012C65.2597 155.532 65.2659 156.074 65.1523 156.596C65.0386 157.119 64.8081 157.609 64.4779 158.03C64.1478 158.451 63.7266 158.791 63.246 159.026C62.7654 159.261 62.2379 159.383 61.7031 159.385ZM60.2423 154.969C60.0976 155.207 60.0138 155.477 59.9984 155.755C59.983 156.033 60.0365 156.311 60.154 156.564C60.2715 156.816 60.4495 157.036 60.6722 157.203C60.895 157.371 61.1555 157.48 61.4308 157.523C61.7061 157.566 61.9876 157.54 62.2505 157.448C62.5134 157.355 62.7495 157.2 62.9378 156.994C63.1262 156.789 63.2611 156.541 63.3305 156.271C63.3999 156.001 63.4017 155.718 63.3357 155.448C63.2551 155.123 63.0804 154.83 62.8336 154.604C62.5867 154.378 62.2787 154.231 61.9482 154.18C61.6177 154.129 61.2795 154.176 60.976 154.317C60.6725 154.457 60.4172 154.684 60.2423 154.969Z" fill="#677381"/>
<path d="M45.477 148.121C44.9637 148.121 44.4608 147.977 44.0257 147.704C43.5906 147.432 43.241 147.043 43.0168 146.581C42.7926 146.119 42.7029 145.604 42.758 145.093C42.813 144.583 43.0106 144.099 43.3281 143.695C43.6456 143.292 44.0702 142.986 44.5534 142.813C45.0365 142.64 45.5587 142.606 46.0602 142.715C46.5616 142.825 47.0221 143.073 47.389 143.432C47.7559 143.791 48.0143 144.246 48.1347 144.745C48.2311 145.147 48.2352 145.566 48.1466 145.97C48.0581 146.374 47.8793 146.752 47.6236 147.077C47.3678 147.402 47.0419 147.665 46.6701 147.845C46.2983 148.026 45.8904 148.12 45.477 148.121ZM45.477 144.491C45.3496 144.489 45.2233 144.515 45.1067 144.567C44.9901 144.618 44.8858 144.694 44.8008 144.789C44.7157 144.884 44.6519 144.996 44.6136 145.117C44.5752 145.239 44.5632 145.367 44.5784 145.493C44.5936 145.62 44.6356 145.742 44.7016 145.851C44.7676 145.96 44.8561 146.054 44.9612 146.126C45.0663 146.198 45.1855 146.247 45.311 146.269C45.4365 146.291 45.5652 146.287 45.6888 146.255C45.8025 146.227 45.9097 146.177 46.004 146.108C46.0982 146.038 46.1778 145.951 46.2381 145.85C46.32 145.715 46.3645 145.56 46.3671 145.402C46.3697 145.243 46.3304 145.087 46.253 144.949C46.1757 144.811 46.0632 144.696 45.9268 144.615C45.7905 144.535 45.6353 144.492 45.477 144.491Z" fill="#677381"/>
<path d="M142.266 30.0231C143.834 30.0231 145.338 30.6462 146.447 31.7552C147.556 32.8643 148.179 34.3685 148.179 35.9369C148.179 34.3685 148.802 32.8643 149.911 31.7552C151.021 30.6462 152.525 30.0231 154.093 30.0231C152.525 30.0231 151.021 29.4001 149.911 28.291C148.802 27.182 148.179 25.6778 148.179 24.1094C148.179 25.6778 147.556 27.182 146.447 28.291C145.338 29.4001 143.834 30.0231 142.266 30.0231Z" fill="#F26921"/>
<path d="M87.3385 102.052C95.1042 102.052 101.4 95.7566 101.4 87.9908C101.4 80.2251 95.1042 73.9297 87.3385 73.9297C79.5727 73.9297 73.2773 80.2251 73.2773 87.9908C73.2773 95.7566 79.5727 102.052 87.3385 102.052Z" fill="#F26921"/>
<path d="M87.3391 102.992C84.3722 102.993 81.4718 102.114 79.0047 100.466C76.5375 98.8179 74.6144 96.4754 73.4786 93.7346C72.3429 90.9938 72.0454 87.9777 72.6238 85.0677C73.2022 82.1578 74.6306 79.4848 76.7282 77.3867C78.8259 75.2886 81.4986 73.8597 84.4084 73.2806C87.3182 72.7016 90.3344 72.9985 93.0755 74.1337C95.8165 75.2689 98.1594 77.1915 99.8078 79.6583C101.456 82.1251 102.336 85.0253 102.336 87.9922C102.332 91.9686 100.751 95.7811 97.9391 98.5931C95.1276 101.405 91.3155 102.987 87.3391 102.992ZM87.3391 74.8668C84.7422 74.8662 82.2035 75.6357 80.0441 77.0781C77.8846 78.5204 76.2014 80.5708 75.2074 82.9698C74.2133 85.3689 73.9531 88.0088 74.4595 90.5558C74.966 93.1028 76.2164 95.4423 78.0527 97.2786C79.8889 99.1148 82.2285 100.365 84.7755 100.872C87.3224 101.378 89.9624 101.118 92.3614 100.124C94.7605 99.1298 96.8109 97.4466 98.2532 95.2872C99.6955 93.1277 100.465 90.589 100.464 87.9922C100.46 84.5124 99.0761 81.1763 96.6155 78.7157C94.155 76.2551 90.8189 74.8709 87.3391 74.8668Z" fill="#677381"/>
<path d="M80.2031 91.7695L91.4035 80.5691L94.8084 83.974L83.608 95.1744L80.2031 91.7695Z" fill="#F5F5F5"/>
<path d="M80.207 83.9746L83.6119 80.5697L94.8123 91.7701L91.4074 95.175L80.207 83.9746Z" fill="#F5F5F5"/>
<path d="M6.20312 65.8582C8.55166 65.8582 10.8041 66.7908 12.4652 68.4511C14.1263 70.1113 15.0601 72.3632 15.0613 74.7117C15.0613 72.3636 15.9941 70.1117 17.6545 68.4513C19.3148 66.791 21.5668 65.8582 23.9149 65.8582C22.7518 65.8582 21.6001 65.6291 20.5257 65.1838C19.4512 64.7386 18.475 64.086 17.6528 63.2634C16.8306 62.4408 16.1786 61.4642 15.7339 60.3895C15.2893 59.3148 15.0607 58.1631 15.0613 57C15.0613 59.3493 14.1281 61.6025 12.4668 63.2637C10.8056 64.9249 8.55247 65.8582 6.20312 65.8582Z" fill="#F26921"/>
<path d="M67.2031 13.9771C67.7252 13.9764 68.2422 14.0787 68.7247 14.2781C69.2072 14.4774 69.6457 14.7699 70.015 15.1389C70.3844 15.5078 70.6774 15.9459 70.8774 16.4282C71.0773 16.9104 71.1802 17.4274 71.1802 17.9494C71.1789 17.4262 71.2813 16.908 71.4814 16.4245C71.6814 15.9411 71.9753 15.5021 72.3459 15.1328C72.7165 14.7635 73.1565 14.4712 73.6407 14.2729C74.1248 14.0745 74.6434 13.974 75.1666 13.9771C74.1126 13.9758 73.1023 13.5563 72.3574 12.8105C71.6126 12.0648 71.1942 11.054 71.1942 10C71.1942 10.5235 71.0909 11.0418 70.8902 11.5252C70.6894 12.0086 70.3952 12.4477 70.0244 12.8172C69.6536 13.1867 69.2135 13.4793 68.7294 13.6784C68.2453 13.8774 67.7266 13.9789 67.2031 13.9771Z" fill="#F26921"/>
<defs>
<linearGradient id="paint0_linear_432_21917" x1="112.68" y1="62.3184" x2="23.203" y2="151.795" gradientUnits="userSpaceOnUse">
<stop stop-color="#CACFDD"/>
<stop offset="1" stop-color="#EEF0F1"/>
</linearGradient>
<linearGradient id="paint1_linear_432_21917" x1="126.487" y1="120.548" x2="54.8438" y2="120.548" gradientUnits="userSpaceOnUse">
<stop stop-color="#CACFDD"/>
<stop offset="1" stop-color="#EEF0F1"/>
</linearGradient>
<linearGradient id="paint2_linear_432_21917" x1="124.842" y1="46.7445" x2="53.7755" y2="46.7445" gradientUnits="userSpaceOnUse">
<stop stop-color="#CACFDD"/>
<stop offset="1" stop-color="#EEF0F1"/>
</linearGradient>
</defs>
</svg>
