<svg width="26" height="26" viewBox="0 0 26 26" fill="none" xmlns="http://www.w3.org/2000/svg">
<path d="M17.0623 22.75C17.0623 22.9655 16.9767 23.1722 16.8243 23.3245C16.6719 23.4769 16.4653 23.5625 16.2498 23.5625H9.74976C9.53427 23.5625 9.32761 23.4769 9.17524 23.3245C9.02286 23.1722 8.93726 22.9655 8.93726 22.75C8.93726 22.5345 9.02286 22.3278 9.17524 22.1755C9.32761 22.0231 9.53427 21.9375 9.74976 21.9375H16.2498C16.4653 21.9375 16.6719 22.0231 16.8243 22.1755C16.9767 22.3278 17.0623 22.5345 17.0623 22.75ZM22.5314 19.5C22.3904 19.7483 22.1858 19.9546 21.9385 20.0974C21.6912 20.2402 21.4103 20.3145 21.1248 20.3125H4.87476C4.5891 20.3121 4.30859 20.2364 4.06151 20.0931C3.81442 19.9497 3.60948 19.7438 3.46736 19.496C3.32523 19.2482 3.25094 18.9673 3.25196 18.6817C3.25299 18.396 3.3293 18.1157 3.4732 17.8689C4.03687 16.898 4.87476 14.1517 4.87476 10.5625C4.87476 8.40762 5.73079 6.34099 7.25452 4.81726C8.77825 3.29352 10.8449 2.4375 12.9998 2.4375C15.1546 2.4375 17.2213 3.29352 18.745 4.81726C20.2687 6.34099 21.1248 8.40762 21.1248 10.5625C21.1248 14.1507 21.9637 16.898 22.5273 17.8689C22.6727 18.116 22.7496 18.3974 22.7501 18.684C22.7506 18.9707 22.6748 19.2524 22.5304 19.5H22.5314ZM21.1248 18.6875C20.3397 17.3398 19.4998 14.2238 19.4998 10.5625C19.4998 8.83859 18.8149 7.18529 17.596 5.96631C16.377 4.74732 14.7237 4.0625 12.9998 4.0625C11.2759 4.0625 9.62255 4.74732 8.40357 5.96631C7.18458 7.18529 6.49976 8.83859 6.49976 10.5625C6.49976 14.2248 5.65882 17.3408 4.87476 18.6875H21.1248Z" fill="#36594C"/>
</svg>
