<svg width="20" height="20" viewBox="0 0 20 20" fill="none" xmlns="http://www.w3.org/2000/svg">
<g clip-path="url(#clip0_432_21796)">
<path d="M15.6777 1.53613C16.0404 1.53613 16.334 1.82974 16.334 2.19238V3.38379L16.8955 2.44824C17.0821 2.1373 17.4859 2.03613 17.7969 2.22266C18.1078 2.40921 18.2089 2.81307 18.0225 3.12402L16.8018 5.15723C17.4623 5.23434 17.9745 5.38983 18.3906 5.64355C19.1988 6.13633 19.5996 6.98199 19.5996 8.12988C19.5996 8.94068 19.4088 10.5993 19.0654 12.3574C18.7221 14.1148 18.2237 15.9859 17.6045 17.2178C17.0571 18.3067 16.4309 18.8799 15.6777 18.8799C14.9246 18.8799 14.2983 18.3067 13.751 17.2178C13.4412 16.6013 13.1503 15.8035 12.8779 14.8428C12.4266 15.6712 11.8828 16.4262 11.2725 16.9883C10.6097 17.5985 9.86286 17.9893 9.07227 17.9893C8.30841 17.9893 7.80755 17.8041 7.29102 17.5283C6.77448 17.8041 6.27362 17.9893 5.50977 17.9893C4.63733 17.9893 3.87579 17.5271 3.26074 16.9434C2.64484 16.3588 2.16431 15.6428 1.85449 15.1104C0.973268 13.5959 0.400391 11.7903 0.400391 10.5049C0.400391 7.31291 3.47077 4.99538 6.54199 5.88086C6.40638 5.23714 6.07352 4.37709 5.25293 3.9668C4.92885 3.80453 4.79783 3.41016 4.95996 3.08594C5.12226 2.76192 5.51654 2.63074 5.84082 2.79297C7.31029 3.52791 7.75132 5.03605 7.88574 5.92773C9.30956 5.46688 10.8661 5.69253 12.1055 6.54883C12.6004 5.6245 13.5338 5.27794 14.5537 5.1582L13.333 3.12402C13.1465 2.81306 13.2476 2.40921 13.5586 2.22266C13.8695 2.03629 14.2734 2.13728 14.46 2.44824L15.0215 3.38379V2.19238C15.0215 1.82974 15.3151 1.53613 15.6777 1.53613ZM15.6777 6.41113C14.6531 6.41113 14.0039 6.52324 13.6104 6.78711C13.2295 7.04276 13.0684 7.4566 13.0684 8.12988C13.0684 8.90427 13.259 10.4867 13.5879 12.1514C13.9168 13.8165 14.3814 15.5486 14.9238 16.6279C15.1054 16.9891 15.2718 17.2292 15.4082 17.377C15.4765 17.4508 15.536 17.5004 15.584 17.5303C15.6331 17.5608 15.664 17.5674 15.6777 17.5674C15.6915 17.5674 15.7224 17.5608 15.7715 17.5303C15.8194 17.5004 15.879 17.4508 15.9473 17.377C16.0837 17.2292 16.2501 16.9891 16.4316 16.6279C16.6422 16.209 16.8519 15.6642 17.0547 15.0205H16.5312C16.1686 15.0205 15.875 14.7269 15.875 14.3643C15.875 14.0016 16.1686 13.708 16.5312 13.708H17.4219C17.5319 13.2656 17.6329 12.8125 17.7266 12.3486H16.8281C16.4655 12.3486 16.1719 12.055 16.1719 11.6924C16.1719 11.3297 16.4655 11.0361 16.8281 11.0361H17.9668C18.0466 10.5491 18.1119 10.0892 18.1621 9.67676H17.125C16.7624 9.67676 16.4688 9.38315 16.4688 9.02051C16.4688 8.65787 16.7624 8.36426 17.125 8.36426H18.2793C18.283 8.27681 18.2871 8.19844 18.2871 8.12988C18.2871 7.4566 18.126 7.04276 17.7451 6.78711C17.3516 6.52324 16.7024 6.41113 15.6777 6.41113ZM5.21289 7.00488C3.28329 7.00488 1.71289 8.57528 1.71289 10.5049C1.71289 11.5442 2.22371 13.1319 2.99023 14.4492C3.40119 15.1555 3.84507 15.7158 4.28223 16.0977C4.7211 16.481 5.14294 16.6768 5.50977 16.6768C5.80422 16.6768 6.02409 16.6407 6.23926 16.5664C6.45662 16.4913 6.67292 16.3752 6.96191 16.208C7.1653 16.0903 7.41673 16.0903 7.62012 16.208C7.90912 16.3752 8.12541 16.4913 8.34277 16.5664C8.55794 16.6407 8.77782 16.6768 9.07227 16.6768C9.36458 16.6768 9.67267 16.5603 9.98535 16.3467C10.2978 16.1331 10.6101 15.8261 10.9072 15.4551C11.4965 14.7193 12.0189 13.742 12.375 12.7783C12.2462 12.1551 12.0807 11.2395 11.9531 10.333C11.8272 9.43873 11.7369 8.54567 11.7588 7.95117C10.6273 6.89348 8.94298 6.70831 7.62012 7.47363C7.41673 7.59131 7.1653 7.59131 6.96191 7.47363C6.43289 7.16757 5.82824 7.00488 5.21289 7.00488Z" fill="#E27E14" stroke="#E27E14" stroke-width="0.2"/>
</g>
<defs>
<clipPath id="clip0_432_21796">
<rect width="20" height="20" fill="white"/>
</clipPath>
</defs>
</svg>
