<svg width="36" height="36" viewBox="0 0 36 36" fill="none" xmlns="http://www.w3.org/2000/svg">
<g clip-path="url(#clip0_432_8039)">
<circle cx="18" cy="18" r="18" fill="#F26921"/>
<path d="M17.0747 9.15234H19.9357C21.4091 9.15233 22.5851 9.15232 23.5074 9.27632C24.4603 9.40442 25.245 9.67613 25.8657 10.2969C26.4864 10.9177 26.7582 11.7024 26.8863 12.6552C27.0103 13.5775 27.0103 14.7535 27.0103 16.2271V17.5166C27.0103 19.1319 27.3825 26.2877 26.1495 27.8921C23.1025 27.8921 19.2042 28.0016 17.0747 28.0016C15.6011 28.0016 14.4252 28.0016 13.5028 27.8776C12.55 27.7494 11.7653 27.4777 11.1446 26.857C10.5238 26.2363 10.2521 25.4516 10.124 24.4987C9.99997 23.5764 9.99998 22.4004 10 20.9269V16.227C9.99998 14.7535 9.99997 13.5775 10.124 12.6552C10.2521 11.7024 10.5238 10.9177 11.1446 10.2969C11.7653 9.67613 12.55 9.40442 13.5028 9.27632C14.4252 9.15232 15.6011 9.15233 17.0747 9.15234Z" fill="white"/>
<path fill-rule="evenodd" clip-rule="evenodd" d="M13.9117 8C14.4195 8 14.8311 8.41167 14.8311 8.91947V10.7584C14.8311 11.2662 14.4195 11.6779 13.9117 11.6779C13.4039 11.6779 12.9922 11.2662 12.9922 10.7584V8.91947C12.9922 8.41167 13.4039 8 13.9117 8ZM18.509 8C19.0169 8 19.4285 8.41167 19.4285 8.91947V10.7584C19.4285 11.2662 19.0169 11.6779 18.509 11.6779C18.0012 11.6779 17.5896 11.2662 17.5896 10.7584V8.91947C17.5896 8.41167 18.0012 8 18.509 8ZM23.1064 8C23.6142 8 24.0259 8.41167 24.0259 8.91947V10.7584C24.0259 11.2662 23.6142 11.6779 23.1064 11.6779C22.5986 11.6779 22.1869 11.2662 22.1869 10.7584V8.91947C22.1869 8.41167 22.5986 8 23.1064 8Z" fill="white"/>
<path fill-rule="evenodd" clip-rule="evenodd" d="M14.1406 16.2755C14.1406 15.8947 14.4494 15.5859 14.8302 15.5859H22.186C22.5669 15.5859 22.8756 15.8947 22.8756 16.2755C22.8756 16.6564 22.5669 16.9651 22.186 16.9651H14.8302C14.4494 16.9651 14.1406 16.6564 14.1406 16.2755ZM14.1406 20.8729C14.1406 20.4921 14.4494 20.1833 14.8302 20.1833H18.5081C18.889 20.1833 19.1977 20.4921 19.1977 20.8729C19.1977 21.2538 18.889 21.5625 18.5081 21.5625H14.8302C14.4494 21.5625 14.1406 21.2538 14.1406 20.8729Z" fill="#F26921"/>
<circle cx="24.4814" cy="23.6337" r="4.63763" fill="white" stroke="#F26921"/>
<path d="M25.6943 22.292C25.8675 22.1188 26.1481 22.1189 26.3213 22.292C26.4945 22.4652 26.4945 22.7458 26.3213 22.9189L24.2656 24.9746C24.0924 25.1475 23.8118 25.1477 23.6387 24.9746L22.6865 24.0215C22.5134 23.8483 22.5134 23.5677 22.6865 23.3945C22.8597 23.2216 23.1404 23.2215 23.3135 23.3945L23.9521 24.0332L25.6943 22.292Z" fill="#F26921" stroke="white" stroke-width="0.183895"/>
</g>
<defs>
<clipPath id="clip0_432_8039">
<rect width="36" height="36" fill="white"/>
</clipPath>
</defs>
</svg>
