<svg width="177" height="175" viewBox="0 0 177 175" fill="none" xmlns="http://www.w3.org/2000/svg">
<path d="M79.0503 117.524L81.7537 114.331V123.2C85.5384 118.731 87.6151 113.065 87.6145 107.208V105.031L89.7596 107.562C92.6944 111.024 94.3045 115.416 94.3028 119.954L98.9303 114.495C101.802 117.881 103.377 122.176 103.377 126.614V129.366C103.377 131.255 103.005 133.126 102.282 134.872C101.559 136.617 100.499 138.203 99.1625 139.539C97.8263 140.875 96.2401 141.934 94.4944 142.657C92.7487 143.38 90.8777 143.751 88.9883 143.751H88.7111C86.8585 143.751 85.024 143.386 83.3124 142.677C81.6008 141.968 80.0456 140.929 78.7355 139.619C77.4255 138.309 76.3864 136.754 75.6774 135.042C74.9684 133.33 74.6035 131.496 74.6035 129.643C74.6047 125.205 76.1804 120.91 79.0503 117.524Z" fill="#F26921"/>
<path d="M92.6039 135.966L89.1453 130.398L85.6866 135.966C85.0575 136.974 84.7248 138.14 84.7266 139.328C84.7266 140.5 85.1921 141.624 86.0208 142.453C86.8494 143.281 87.9733 143.747 89.1453 143.747C90.3172 143.747 91.4411 143.281 92.2697 142.453C93.0984 141.624 93.5639 140.5 93.5639 139.328C93.5655 138.14 93.2328 136.975 92.6039 135.966Z" fill="#F5F5F5"/>
<path d="M131.588 130.399H45.2024C43.1029 130.399 41.0239 129.985 39.0842 129.182C37.1445 128.378 35.3821 127.201 33.8975 125.716C32.4129 124.231 31.2353 122.469 30.4318 120.529C29.6284 118.589 29.2148 116.511 29.2148 114.411V49.3359H147.571V114.411C147.572 116.51 147.159 118.589 146.356 120.529C145.553 122.469 144.375 124.231 142.891 125.716C141.407 127.2 139.645 128.378 137.705 129.182C135.766 129.985 133.687 130.399 131.588 130.399Z" fill="#E7E9EB"/>
<path style="mix-blend-mode:multiply" d="M108.703 57.478H28.5V49.3477H116.837C116.836 51.5043 115.979 53.5723 114.453 55.0969C112.928 56.6216 110.86 57.478 108.703 57.478Z" fill="url(#paint0_linear_432_7912)"/>
<path d="M31.2676 162.24H145.543V173.793H31.2676V162.24Z" fill="#A9AFC4"/>
<path style="mix-blend-mode:multiply" d="M31.2676 162.24H145.543V168.017H31.2676V162.24Z" fill="url(#paint1_linear_432_7912)"/>
<path d="M146.748 174.998H30.0625V161.035H146.748V174.998ZM32.4727 172.588H144.338V163.445H32.4727V172.588Z" fill="#5E6175"/>
<path d="M47.9863 130.398H55.8676V143.751H47.9863V130.398Z" fill="#DEE1EC"/>
<path d="M120.947 130.398H128.829V143.751H120.947V130.398Z" fill="#DEE1EC"/>
<path d="M47.9863 129.193H128.828V131.604H47.9863V129.193Z" fill="#5E6175"/>
<path d="M57.0687 144.956H46.7812V129.193H57.0687V144.956ZM49.1914 142.546H54.6585V131.604H49.1914V142.546Z" fill="#5E6175"/>
<path d="M130.03 144.956H119.742V129.193H130.03V144.956ZM122.152 142.546H127.619V131.604H122.152V142.546Z" fill="#5E6175"/>
<path d="M21.0176 143.75H155.791V162.24H21.0176V143.75Z" fill="#F5F5F5"/>
<path d="M157 163.447H19.8125V142.559H157V163.447ZM22.2227 161.037H154.59V144.969H22.2227V161.037Z" fill="#5E6175"/>
<path d="M0 172.588H176.747V174.998H0V172.588Z" fill="#5E6175"/>
<path d="M147.572 64.6483L164.845 57.8195C165.56 57.5363 166.333 57.4324 167.098 57.5167C167.862 57.6011 168.594 57.8711 169.23 58.3033C169.865 58.7356 170.386 59.3168 170.745 59.9964C171.105 60.6759 171.293 61.4332 171.293 62.202C171.292 63.1396 171.011 64.0556 170.488 64.8332C169.964 65.6109 169.22 66.215 168.352 66.5685L147.588 75.0041L147.572 64.6483Z" fill="#DEE1EC"/>
<path d="M29.1963 64.6483L11.9433 57.8195C11.2285 57.5363 10.4553 57.4324 9.69112 57.5167C8.92692 57.6011 8.19496 57.8711 7.55912 58.3033C6.92327 58.7356 6.40284 59.3168 6.04324 59.9964C5.68365 60.6759 5.4958 61.4332 5.49609 62.202C5.49605 63.1398 5.77585 64.0563 6.29967 64.8342C6.8235 65.612 7.56752 66.2159 8.43652 66.5685L29.1963 75.0041V64.6483Z" fill="#DEE1EC"/>
<path d="M146.367 76.7803V63.8295L164.383 56.6954C165.84 56.1094 167.469 56.126 168.913 56.7415C170.357 57.3569 171.498 58.5209 172.084 59.9772C172.67 61.4336 172.653 63.0631 172.038 64.5072C171.422 65.9514 170.258 67.0918 168.802 67.6778L146.367 76.7803ZM148.777 65.4685V73.2172L167.882 65.4644C168.475 65.2267 168.991 64.8318 169.375 64.3223C169.76 63.8128 169.998 63.2081 170.064 62.5732C170.13 61.9383 170.022 61.2975 169.751 60.7197C169.479 60.1419 169.056 59.6491 168.525 59.2944C168.053 58.9694 167.508 58.7666 166.939 58.7042C166.37 58.6418 165.794 58.7217 165.263 58.9368L148.777 65.4685Z" fill="#5E6175"/>
<path d="M30.3999 76.7803L7.98115 67.6778C6.52479 67.0918 5.36085 65.9514 4.74537 64.5072C4.1299 63.0631 4.11332 61.4336 4.69928 59.9772C5.28523 58.5209 6.42572 57.3569 7.86985 56.7415C9.31399 56.126 10.9435 56.1094 12.3998 56.6954L30.416 63.8295L30.3999 76.7803ZM10.1945 58.6838C9.26644 58.6912 8.3788 59.0645 7.72443 59.7226C7.07005 60.3808 6.70182 61.2706 6.69973 62.1986C6.69868 62.8969 6.90661 63.5796 7.29676 64.1587C7.68691 64.7379 8.24144 65.187 8.88898 65.4484L27.9897 73.2172V65.4685L11.496 58.9368C11.0821 58.7708 10.6405 58.6849 10.1945 58.6838Z" fill="#5E6175"/>
<path d="M108.439 49.3468H10.9951C8.76811 49.3457 6.63269 48.4603 5.05835 46.8852C3.484 45.3101 2.59961 43.1743 2.59961 40.9473H116.839C116.839 42.0503 116.621 43.1425 116.199 44.1616C115.777 45.1807 115.158 46.1066 114.378 46.8866C113.598 47.6666 112.672 48.2853 111.653 48.7074C110.634 49.1295 109.542 49.3468 108.439 49.3468Z" fill="#DEE1EC"/>
<path d="M131.59 131.604H45.2044C40.6462 131.598 36.2763 129.785 33.0532 126.562C29.8301 123.339 28.017 118.969 28.0117 114.411V48.1309H148.778V114.411C148.773 118.968 146.96 123.338 143.738 126.561C140.516 129.784 136.147 131.597 131.59 131.604ZM30.4018 50.5531V114.423C30.4061 118.342 31.9649 122.1 34.7362 124.871C37.5075 127.643 41.2651 129.201 45.1843 129.206H131.59C135.508 129.2 139.265 127.641 142.035 124.87C144.806 122.099 146.364 118.342 146.368 114.423V50.5531H30.4018Z" fill="#5E6175"/>
<path d="M108.439 50.5519H10.9951C8.44917 50.5487 6.00847 49.5356 4.20858 47.735C2.4087 45.9344 1.39666 43.4932 1.39453 40.9473V39.7422H118.044V40.9473C118.04 43.4936 117.027 45.9347 115.227 47.7352C113.426 49.5358 110.985 50.5487 108.439 50.5519ZM3.90514 42.1524C4.19118 43.8263 5.05951 45.3454 6.3568 46.4413C7.65409 47.5372 9.29689 48.1394 10.9951 48.1417H108.439C110.136 48.1348 111.777 47.531 113.074 46.436C114.371 45.341 115.242 43.8246 115.533 42.1524H3.90514Z" fill="#5E6175"/>
<path d="M86.7356 42.1526H76.8699V33.2671C76.8678 31.9243 76.3334 30.6371 75.384 29.6876C74.4345 28.7381 73.1473 28.2038 71.8045 28.2016H47.6143C46.2715 28.2038 44.9843 28.7381 44.0348 29.6876C43.0853 30.6371 42.551 31.9243 42.5489 33.2671V42.1526H32.6992V33.2671C32.7045 29.3115 34.2771 25.5192 37.0726 22.7207C39.8681 19.9222 43.6587 18.3455 47.6143 18.3359H71.7884C75.7471 18.3402 79.5424 19.9147 82.3416 22.7139C85.1409 25.5131 86.7153 29.3084 86.7196 33.2671L86.7356 42.1526ZM79.2801 39.7424H84.3254V33.2671C84.3223 29.9473 83.0021 26.7644 80.6546 24.4169C78.3072 22.0695 75.1243 20.7493 71.8045 20.7461H47.6143C44.2948 20.7504 41.1125 22.0709 38.7653 24.4181C36.4181 26.7653 35.0976 29.9476 35.0933 33.2671V39.7424H40.1387V33.2671C40.1408 31.2851 40.9291 29.3848 42.3306 27.9834C43.7321 26.5819 45.6323 25.7936 47.6143 25.7915H71.7884C73.7705 25.7936 75.6707 26.5819 77.0721 27.9834C78.4736 29.3848 79.2619 31.2851 79.264 33.2671L79.2801 39.7424Z" fill="#F26921"/>
<path d="M78.075 40.9475V33.267C78.074 31.6043 77.413 30.01 76.2372 28.8343C75.0615 27.6586 73.4672 26.9976 71.8045 26.9965H47.6143C45.9519 26.9987 44.3582 27.66 43.1827 28.8355C42.0072 30.011 41.3459 31.6047 41.3437 33.267V40.9475H33.9043V33.267C33.9085 29.6308 35.3538 26.1444 37.9236 23.5716C40.4933 20.9989 43.978 19.5495 47.6143 19.541H71.7884C75.4275 19.5453 78.9163 20.9928 81.4895 23.566C84.0627 26.1392 85.5102 29.628 85.5145 33.267V40.9475H78.075Z" fill="#F26921"/>
<path d="M140.925 36.5786C139.159 34.8102 138.168 32.4134 138.168 29.9145C138.168 27.4155 139.159 25.0187 140.925 23.2503C142.237 21.9328 142.974 20.1489 142.974 18.2893C142.974 16.4297 142.237 14.6459 140.925 13.3283C139.158 11.5605 138.166 9.16345 138.166 6.66417C138.166 4.16489 139.158 1.76788 140.925 0L142.628 1.71525C141.314 3.03105 140.576 4.81462 140.576 6.67421C140.576 8.53381 141.314 10.3174 142.628 11.6332C144.394 13.4016 145.386 15.7984 145.386 18.2973C145.386 20.7963 144.394 23.1931 142.628 24.9615C141.314 26.278 140.576 28.0622 140.576 29.9225C140.576 31.7827 141.314 33.567 142.628 34.8835L140.925 36.5786Z" fill="#5E6175"/>
<path d="M129.099 36.9925C127.334 35.2241 126.342 32.8273 126.342 30.3284C126.342 27.8294 127.334 25.4326 129.099 23.6642C130.413 22.3484 131.151 20.5648 131.151 18.7052C131.151 16.8456 130.413 15.0621 129.099 13.7463L130.802 12.0391C132.568 13.8075 133.56 16.2043 133.56 18.7032C133.56 21.2022 132.568 23.599 130.802 25.3674C129.488 26.6839 128.75 28.4681 128.75 30.3284C128.75 32.1886 129.488 33.9729 130.802 35.2893L129.099 36.9925Z" fill="#5E6175"/>
<path d="M25.6367 12.7148L27.3407 11.0108L33.1826 16.8527L31.4786 18.5567L25.6367 12.7148Z" fill="#5E6175"/>
<path d="M19.748 23.3086H28.011V25.7188H19.748V23.3086Z" fill="#5E6175"/>
<path d="M37.4434 4.88867H39.8535V13.1516H37.4434V4.88867Z" fill="#5E6175"/>
<path d="M167.396 160.761H164.986V158.351H167.396V160.761ZM167.396 154.334H164.986V151.924H167.396V154.334ZM167.396 147.907H164.986V145.497H167.396V147.907ZM164.508 141.906C164.288 141.223 163.993 140.567 163.628 139.949L165.709 138.744C166.158 139.513 166.525 140.328 166.802 141.175L164.508 141.906ZM161.295 137.238C160.738 136.784 160.135 136.391 159.495 136.065L160.588 133.916C161.382 134.319 162.131 134.806 162.821 135.37L161.295 137.238ZM156.072 135.045C155.703 135.004 155.331 134.984 154.96 134.984H153.799V132.574H154.96C155.421 132.574 155.883 132.599 156.342 132.651L156.072 135.045Z" fill="#A9AFC4"/>
<path style="mix-blend-mode:multiply" d="M28.0099 87.3828L29.9435 132.889H57.0138C66.467 106.397 48.8584 89.5107 28.0099 87.3828Z" fill="url(#paint2_linear_432_7912)"/>
<path d="M27.5012 144.713C41.4265 144.713 52.7152 133.487 52.7152 119.64C52.7152 105.792 41.4265 94.5664 27.5012 94.5664C13.5758 94.5664 2.28711 105.792 2.28711 119.64C2.28711 133.487 13.5758 144.713 27.5012 144.713Z" fill="#F5F5F5"/>
<path d="M27.502 145.998C22.2591 145.999 17.1338 144.453 12.7741 141.558C8.41437 138.662 5.01618 134.545 3.00924 129.729C1.0023 124.912 0.476744 119.612 1.49905 114.499C2.52136 109.385 5.04562 104.688 8.75257 101.001C12.4595 97.3144 17.1827 94.8035 22.3247 93.7861C27.4668 92.7687 32.7968 93.2904 37.6406 95.2854C42.4845 97.2803 46.6246 100.659 49.5375 104.994C52.4503 109.329 54.0051 114.425 54.0051 119.639C53.9983 126.627 51.2039 133.327 46.2352 138.268C41.2665 143.21 34.5293 145.99 27.502 145.998ZM27.502 95.8473C22.7688 95.8465 18.1418 97.2414 14.2059 99.8558C10.2701 102.47 7.20238 106.186 5.3907 110.535C3.57901 114.883 3.10477 119.668 4.02795 124.284C4.95113 128.9 7.23026 133.141 10.5771 136.469C13.9239 139.797 18.1881 142.063 22.8303 142.981C27.4726 143.899 32.2843 143.428 36.657 141.626C41.0297 139.825 44.7669 136.774 47.3959 132.86C50.025 128.946 51.4278 124.345 51.427 119.639C51.419 113.331 48.8958 107.284 44.4107 102.824C39.9256 98.3643 33.8448 95.8552 27.502 95.8473Z" fill="#677381"/>
<path d="M13.9531 126.111L34.0032 106.173L40.7929 112.925L20.7428 132.863L13.9531 126.111Z" fill="#F26921"/>
<path d="M13.9551 112.926L20.7448 106.174L40.7948 126.112L34.0052 132.864L13.9551 112.926Z" fill="#F26921"/>
<defs>
<linearGradient id="paint0_linear_432_7912" x1="28.5" y1="53.4128" x2="116.837" y2="53.4128" gradientUnits="userSpaceOnUse">
<stop stop-color="#CACFDD"/>
<stop offset="1" stop-color="#EEF0F1"/>
</linearGradient>
<linearGradient id="paint1_linear_432_7912" x1="88.4051" y1="156.874" x2="88.4051" y2="181.944" gradientUnits="userSpaceOnUse">
<stop stop-color="#CACFDD"/>
<stop offset="1" stop-color="#EEF0F1"/>
</linearGradient>
<linearGradient id="paint2_linear_432_7912" x1="58.9937" y1="110.285" x2="30.1875" y2="110.285" gradientUnits="userSpaceOnUse">
<stop stop-color="#CACFDD"/>
<stop offset="1" stop-color="#EEF0F1"/>
</linearGradient>
</defs>
</svg>
