<svg width="174" height="176" viewBox="0 0 174 176" fill="none" xmlns="http://www.w3.org/2000/svg">
<path d="M143.613 70.9642H34.7887C31.083 70.9642 27.5291 69.4921 24.9088 66.8718C22.2885 64.2515 20.8164 60.6976 20.8164 56.9919C20.8164 53.2862 22.2885 49.7323 24.9088 47.1119C27.5291 44.4916 31.083 43.0195 34.7887 43.0195H143.613V70.9642Z" fill="#C5CAD0"/>
<path d="M144.797 72.1469H34.7883C30.7683 72.1469 26.9129 70.55 24.0704 67.7074C21.2278 64.8648 19.6309 61.0095 19.6309 56.9895C19.6309 52.9695 21.2278 49.1141 24.0704 46.2715C26.9129 43.429 30.7683 41.832 34.7883 41.832H144.797V72.1469ZM34.7883 44.2022C31.3969 44.2022 28.1444 45.5495 25.7464 47.9475C23.3483 50.3456 22.0011 53.5981 22.0011 56.9895C22.0011 60.3808 23.3483 63.6333 25.7464 66.0314C28.1444 68.4295 31.3969 69.7767 34.7883 69.7767H142.427V44.2022H34.7883Z" fill="#5E6175"/>
<path d="M145.718 14.3527L55.5191 28.8833C51.9317 29.4612 49.4919 32.8379 50.0699 36.4254L58.4645 88.5352C59.0424 92.1227 62.4191 94.5624 66.0066 93.9845L156.206 79.454C159.793 78.8761 162.233 75.4993 161.655 71.9119L153.26 19.802C152.682 16.2145 149.306 13.7748 145.718 14.3527Z" fill="#E7E9EB"/>
<path d="M51.0762 42.625L154.267 26.0016L156.873 42.1785L53.6822 58.8019L51.0762 42.625Z" fill="#F26921"/>
<path d="M65.0089 95.2494C63.1633 95.2491 61.3779 94.5925 59.9718 93.397C58.5657 92.2015 57.6306 90.545 57.3334 88.7234L48.935 36.5988C48.7709 35.5922 48.807 34.5632 49.0411 33.5706C49.2753 32.578 49.7029 31.6414 50.2996 30.8143C50.8962 29.9872 51.6501 29.286 52.5182 28.7507C53.3862 28.2154 54.3514 27.8565 55.3583 27.6947L145.584 13.1338C147.617 12.8068 149.696 13.3 151.366 14.5051C153.035 15.7102 154.158 17.5286 154.488 19.561L162.902 71.7054C163.226 73.7337 162.732 75.8077 161.53 77.4729C160.327 79.1382 158.514 80.2589 156.487 80.5897C156.068 80.5897 66.4192 95.2494 65.0089 95.2494ZM146.824 15.4092C146.149 15.4092 152.141 14.4769 55.7533 30.0254C55.0539 30.1383 54.3836 30.3878 53.7806 30.7599C53.1777 31.1319 52.654 31.6191 52.2395 32.1936C51.8249 32.7681 51.5276 33.4186 51.3646 34.1081C51.2016 34.7975 51.1761 35.5123 51.2894 36.2117L59.6997 88.3561C59.9286 89.7684 60.7086 91.0321 61.8685 91.8698C63.0284 92.7074 64.4733 93.0506 65.8859 92.8239C153.188 78.7291 156.151 78.259 156.112 78.259C156.811 78.1471 157.482 77.8983 158.085 77.5268C158.688 77.1554 159.212 76.6685 159.626 76.0942C160.041 75.5199 160.338 74.8694 160.501 74.18C160.664 73.4906 160.689 72.7759 160.575 72.0767L152.141 19.9402C151.935 18.6779 151.287 17.5297 150.313 16.7C149.34 15.8704 148.103 15.413 146.824 15.4092Z" fill="#5E6175"/>
<path d="M132.902 37.3203H41.5149C37.8801 37.3203 34.9336 40.2668 34.9336 43.9016V96.6978C34.9336 100.332 37.8801 103.279 41.5149 103.279H132.902C136.537 103.279 139.483 100.332 139.483 96.6978V43.9016C139.483 40.2668 136.537 37.3203 132.902 37.3203Z" fill="#F5F5F5"/>
<path d="M139.501 43.9016V96.6978C139.501 97.5619 139.331 98.4176 139.001 99.216C138.671 100.014 138.186 100.74 137.576 101.351C136.965 101.962 136.24 102.447 135.441 102.778C134.643 103.109 133.787 103.279 132.923 103.279H41.5324C40.6683 103.279 39.8127 103.109 39.0144 102.778C38.2162 102.447 37.4909 101.962 36.8801 101.351C36.2693 100.74 35.7849 100.014 35.4546 99.216C35.1243 98.4176 34.9546 97.5619 34.9551 96.6978V43.9016C34.9546 43.0375 35.1243 42.1818 35.4546 41.3833C35.7849 40.5849 36.2693 39.8593 36.8801 39.2482C37.4909 38.637 38.2162 38.1522 39.0144 37.8214C39.8127 37.4906 40.6683 37.3203 41.5324 37.3203H132.908C133.773 37.3188 134.63 37.4878 135.43 37.8179C136.23 38.1479 136.956 38.6325 137.569 39.2437C138.181 39.855 138.667 40.5811 138.999 41.3803C139.33 42.1795 139.501 43.0363 139.501 43.9016Z" fill="#F5F5F5"/>
<path d="M56.5112 61.7217C59.6769 61.7217 62.2432 59.1554 62.2432 55.9897C62.2432 52.8241 59.6769 50.2578 56.5112 50.2578C53.3456 50.2578 50.7793 52.8241 50.7793 55.9897C50.7793 59.1554 53.3456 61.7217 56.5112 61.7217Z" fill="#F26921"/>
<path d="M47.8555 83.1055H67.7493V90.3425H47.8555V83.1055Z" fill="#DEE1EC"/>
<path d="M77.2617 83.1055H97.1556V90.3425H77.2617V83.1055Z" fill="#DEE1EC"/>
<path d="M106.668 83.1055H126.562V90.3425H106.668V83.1055Z" fill="#DEE1EC"/>
<path style="mix-blend-mode:multiply" d="M139.501 64.1172V96.6956C139.501 97.5597 139.331 98.4154 139.001 99.2138C138.671 100.012 138.186 100.738 137.576 101.349C136.965 101.96 136.24 102.445 135.441 102.776C134.643 103.107 133.787 103.277 132.923 103.277H41.5324C40.6683 103.277 39.8127 103.107 39.0144 102.776C38.2162 102.445 37.4909 101.96 36.8801 101.349C36.2693 100.738 35.7849 100.012 35.4546 99.2138C35.1243 98.4154 34.9546 97.5597 34.9551 96.6956V64.1172H139.501Z" fill="url(#paint0_linear_432_8991)"/>
<path d="M156.51 11.0703L161.928 5.65212L163.604 7.32785L158.185 12.746L156.51 11.0703Z" fill="#5E6175"/>
<path d="M161.385 17.0273H169.048V19.3975H161.385V17.0273Z" fill="#5E6175"/>
<path d="M150.328 0H152.698V7.66365H150.328V0Z" fill="#5E6175"/>
<path d="M22.3533 175.001C21.7731 175 21.2019 174.856 20.6905 174.582C20.1791 174.308 19.7433 173.911 19.4216 173.428C19.1 172.945 18.9024 172.391 18.8465 171.813C18.7906 171.235 18.878 170.653 19.101 170.117C19.324 169.582 19.6757 169.109 20.125 168.742C20.5742 168.375 21.1072 168.124 21.6765 168.012C22.2459 167.9 22.8341 167.93 23.389 168.099C23.944 168.269 24.4485 168.573 24.8578 168.984C25.3479 169.479 25.6807 170.108 25.8143 170.792C25.9479 171.475 25.8763 172.183 25.6086 172.826C25.3409 173.469 24.889 174.019 24.3098 174.406C23.7306 174.793 23.0499 175 22.3533 175.001ZM21.1959 171.465C21.1944 171.656 21.24 171.844 21.3288 172.013C21.4175 172.182 21.5467 172.326 21.7047 172.433C21.8627 172.54 22.0447 172.606 22.2344 172.626C22.4242 172.645 22.6159 172.618 22.7924 172.545C22.9689 172.473 23.1248 172.358 23.2462 172.211C23.3676 172.064 23.4507 171.889 23.4882 171.702C23.5257 171.515 23.5163 171.321 23.461 171.139C23.4057 170.956 23.3061 170.79 23.1711 170.655C23.009 170.496 22.8037 170.388 22.5807 170.344C22.3577 170.3 22.1268 170.323 21.9166 170.409C21.7063 170.495 21.526 170.641 21.3979 170.829C21.2698 171.017 21.1995 171.238 21.1959 171.465Z" fill="#5E6175"/>
<path d="M6.41309 158.287C5.62098 158.287 4.84104 158.092 4.14251 157.719C3.44397 157.345 2.84845 156.805 2.4088 156.146C1.96914 155.487 1.69896 154.73 1.62224 153.942C1.54551 153.153 1.66461 152.358 1.96897 151.627C2.27332 150.896 2.75352 150.251 3.36694 149.75C3.98035 149.248 4.70801 148.906 5.48531 148.754C6.26262 148.602 7.06553 148.643 7.82278 148.876C8.58003 149.108 9.26819 149.524 9.82618 150.086C10.4915 150.762 10.9428 151.619 11.1234 152.55C11.304 153.481 11.206 154.444 10.8417 155.32C10.4773 156.195 9.8628 156.943 9.07506 157.471C8.28731 157.999 7.36134 158.283 6.41309 158.287ZM6.41309 151.034C5.93075 151.035 5.45945 151.179 5.05868 151.447C4.6579 151.715 4.3456 152.097 4.1612 152.542C3.9768 152.988 3.92856 153.478 4.02256 153.951C4.11657 154.424 4.34861 154.859 4.6894 155.2C5.03019 155.542 5.46445 155.775 5.93739 155.869C6.41033 155.964 6.90074 155.917 7.34674 155.733C7.79273 155.549 8.17432 155.238 8.44335 154.837C8.71238 154.437 8.85678 153.966 8.85835 153.483C8.85939 153.162 8.79675 152.843 8.67404 152.545C8.55132 152.247 8.37096 151.977 8.14332 151.749C7.91568 151.522 7.64527 151.341 7.34764 151.219C7.05002 151.096 6.73107 151.033 6.40914 151.034H6.41309Z" fill="#5E6175"/>
<path d="M132.903 104.462H41.5319C39.4732 104.46 37.4994 103.641 36.044 102.184C34.5886 100.728 33.7706 98.7541 33.7695 96.6954V43.8992C33.7706 41.8404 34.5886 39.8662 36.044 38.4101C37.4994 36.9539 39.4732 36.1349 41.5319 36.1328H132.903C133.924 36.1318 134.935 36.3318 135.879 36.7216C136.822 37.1113 137.68 37.6831 138.403 38.4043C139.125 39.1254 139.699 39.9819 140.09 40.9247C140.482 41.8675 140.684 42.8782 140.685 43.8992V96.6954C140.684 97.7163 140.482 98.727 140.09 99.6699C139.699 100.613 139.125 101.469 138.403 102.19C137.68 102.911 136.822 103.483 135.879 103.873C134.935 104.263 133.924 104.463 132.903 104.462ZM41.5319 38.503C40.1018 38.5051 38.7309 39.0744 37.72 40.0861C36.7091 41.0977 36.1408 42.469 36.1397 43.8992V96.6954C36.1408 98.1255 36.7091 99.4968 37.72 100.508C38.7309 101.52 40.1018 102.089 41.5319 102.092H132.903C133.613 102.093 134.316 101.954 134.972 101.683C135.628 101.413 136.224 101.015 136.727 100.514C137.229 100.013 137.628 99.4181 137.901 98.7628C138.173 98.1076 138.314 97.405 138.315 96.6954V43.8992C138.313 42.4687 137.744 41.0973 136.732 40.0858C135.721 39.0743 134.349 38.5051 132.919 38.503H41.5319Z" fill="#5E6175"/>
<path d="M143.613 70.9645V162.32H34.7887C31.083 162.32 27.5291 160.848 24.9088 158.228C22.2885 155.607 20.8164 152.053 20.8164 148.348V56.9922C20.8175 60.6976 22.2899 64.2509 24.91 66.871C27.5301 69.491 31.0834 70.9635 34.7887 70.9645H143.613Z" fill="url(#paint1_linear_432_8991)"/>
<path d="M143.613 70.9646V162.324H34.7887C32.9535 162.324 31.1363 161.962 29.4408 161.26C27.7454 160.558 26.2049 159.528 24.9074 158.23C23.6099 156.932 22.5808 155.391 21.8789 153.696C21.1769 152 20.8159 150.183 20.8164 148.348V56.9883C20.8154 58.8236 21.176 60.6412 21.8778 62.3371C22.5796 64.033 23.6086 65.574 24.9063 66.8719C26.2039 68.1699 27.7445 69.1994 29.4402 69.9017C31.1359 70.6039 32.9534 70.9651 34.7887 70.9646H143.613Z" fill="#E7E9EB"/>
<path style="mix-blend-mode:multiply" d="M143.611 95.3242V137.368H116.192C112.791 137.364 109.53 136.012 107.124 133.608C104.719 131.203 103.366 127.942 103.361 124.541V108.155C103.366 104.753 104.719 101.492 107.124 99.0869C109.529 96.6815 112.79 95.3284 116.192 95.3242H143.611Z" fill="url(#paint2_linear_432_8991)"/>
<path d="M144.801 163.505H34.7883C30.7696 163.501 26.9167 161.903 24.075 159.061C21.2333 156.219 19.635 152.366 19.6309 148.348V56.9922H22.0011C22.0052 60.3823 23.3538 63.6323 25.751 66.0295C28.1481 68.4267 31.3982 69.7752 34.7883 69.7794H144.801V163.505ZM22.0011 65.1417V148.348C22.0052 151.738 23.3538 154.988 25.751 157.385C28.1481 159.782 31.3982 161.131 34.7883 161.135H142.431V72.1496H34.7883C32.2377 72.1487 29.7286 71.5042 27.4934 70.2757C25.2582 69.0473 23.3691 67.2746 22.0011 65.122V65.1417Z" fill="#5E6175"/>
<path d="M143.613 130.523H115.664C114.949 130.523 114.241 130.382 113.58 130.109C112.919 129.835 112.319 129.433 111.814 128.928C111.308 128.422 110.907 127.821 110.634 127.16C110.361 126.499 110.22 125.791 110.221 125.076V107.619C110.221 106.176 110.794 104.791 111.815 103.77C112.836 102.749 114.221 102.176 115.664 102.176H143.613V130.523Z" fill="#F5F5F5"/>
<path d="M144.883 130.523H143.611V102.176H144.883C146.327 102.176 147.712 102.749 148.733 103.77C149.753 104.791 150.327 106.176 150.327 107.619V125.076C150.327 125.791 150.187 126.499 149.914 127.16C149.64 127.821 149.239 128.422 148.734 128.928C148.228 129.433 147.628 129.835 146.967 130.109C146.307 130.382 145.599 130.523 144.883 130.523Z" fill="#C5CAD0"/>
<path d="M143.612 131.706H115.664C113.906 131.704 112.22 131.004 110.978 129.761C109.735 128.517 109.036 126.832 109.035 125.073V107.617C109.037 105.86 109.736 104.175 110.979 102.932C112.222 101.689 113.906 100.99 115.664 100.988H143.612V103.358H115.664C114.535 103.36 113.452 103.809 112.654 104.607C111.855 105.405 111.406 106.488 111.405 107.617V125.073C111.405 126.203 111.854 127.287 112.652 128.086C113.451 128.885 114.534 129.335 115.664 129.336H143.612V131.706Z" fill="#5E6175"/>
<path d="M144.883 131.706H143.611V129.336H144.883C146.013 129.335 147.096 128.885 147.895 128.086C148.693 127.287 149.142 126.203 149.142 125.073V107.617C149.141 106.488 148.692 105.405 147.893 104.607C147.095 103.809 146.012 103.36 144.883 103.358H143.611V100.988H144.883C146.641 100.99 148.326 101.689 149.568 102.932C150.811 104.175 151.51 105.86 151.512 107.617V125.073C151.511 126.832 150.812 128.517 149.57 129.761C148.327 131.004 146.641 131.704 144.883 131.706Z" fill="#5E6175"/>
<path d="M122.96 121.478C125.791 121.478 128.087 119.182 128.087 116.35C128.087 113.518 125.791 111.223 122.96 111.223C120.128 111.223 117.832 113.518 117.832 116.35C117.832 119.182 120.128 121.478 122.96 121.478Z" fill="#5E6175"/>
<path d="M92.1595 117.534H89.7893V115.164H92.1595V117.534ZM85.839 117.534H83.4688V115.164H85.839V117.534ZM79.5185 117.534H77.1483V115.164H79.5185V117.534ZM73.1979 117.534H70.8277V115.164H73.1979V117.534ZM66.8774 117.534H64.5072V115.164H66.8774V117.534ZM60.5569 117.534H58.1867V115.164H60.5569V117.534ZM54.2363 117.534H51.8661V115.164H54.2363V117.534ZM47.9158 117.534H45.5456V115.164H47.9158V117.534ZM41.5953 117.534H39.2251V115.164H41.5953V117.534ZM35.2747 117.534H32.9045V115.164H35.2747V117.534ZM28.9542 117.534H26.584V115.164H28.9542V117.534Z" fill="#A9AFC4"/>
<path d="M13.5952 113.588C12.9 113.142 12.2205 112.656 11.5726 112.143L13.0461 110.286C13.6347 110.752 14.2465 111.189 14.8791 111.593L13.5952 113.588ZM8.55063 109.31C7.99759 108.698 7.46824 108.05 6.9705 107.39L8.87851 105.98C9.32095 106.58 9.80289 107.165 10.3046 107.722L8.55063 109.31ZM4.79387 103.867C4.41686 103.127 4.07801 102.369 3.77863 101.595L5.97897 100.734C6.24932 101.434 6.55656 102.12 6.8994 102.788L4.79387 103.867ZM2.60538 97.6171C2.43175 96.8054 2.2999 95.9853 2.21035 95.16L4.58055 94.9151C4.65956 95.6617 4.77412 96.4083 4.92423 97.1391L2.60538 97.6171ZM4.45809 91.0912H2.08789V88.721H4.45809V91.0912ZM4.45809 84.7707H2.08789V82.4005H4.45809V84.7707ZM4.45809 78.4501H2.08789V76.0799H4.45809V78.4501ZM4.45809 72.1296H2.08789V69.7594H4.45809V72.1296ZM4.45809 65.8091H2.08789V63.4389H4.45809V65.8091ZM4.45809 59.4885H2.08789C2.08789 57.7859 2.08789 57.62 2.08789 57.0788L4.45809 57.1618C4.45809 57.6951 4.46204 57.9439 4.46204 59.4885H4.45809ZM4.90448 53.4366L2.58168 52.9665C2.7476 52.1567 2.95301 51.3469 3.19398 50.5568L5.46147 51.256C5.24421 51.971 5.05854 52.7019 4.90843 53.4366H4.90448ZM6.87964 47.7797L4.76226 46.7131C5.1336 45.9784 5.55233 45.2515 5.99082 44.5523L7.97389 45.8243C7.5591 46.4564 7.19962 47.1121 6.86384 47.7995L6.87964 47.7797ZM10.2572 42.8339L8.49138 41.2538C9.03885 40.6409 9.61769 40.0568 10.2256 39.5038L11.8057 41.2538C11.2584 41.7542 10.7363 42.2816 10.2414 42.8339H10.2572ZM14.808 38.9428L13.5162 36.9677C14.2121 36.5152 14.9307 36.0985 15.6691 35.7194L16.7555 37.8249C16.076 38.1567 15.4203 38.536 14.7922 38.9428H14.808ZM20.2002 36.3791L19.4812 34.1234C20.2717 33.8704 21.0747 33.6581 21.887 33.4874L22.3768 35.8063C21.646 35.9485 20.9152 36.1539 20.2002 36.3791ZM26.0941 35.3362L25.9953 32.966C26.7261 32.9344 27.216 32.9423 28.4129 32.9423V35.3125C27.137 35.3164 26.7222 35.3085 26.0941 35.3362ZM34.7334 35.3362H32.3632V32.966H34.7334V35.3362Z" fill="#A9AFC4"/>
<path d="M153.934 152.782C155.186 152.782 156.427 153.028 157.584 153.507C158.742 153.986 159.793 154.688 160.679 155.574C161.565 156.459 162.268 157.511 162.747 158.668C163.227 159.825 163.474 161.066 163.474 162.318C163.474 161.066 163.72 159.825 164.2 158.668C164.679 157.511 165.382 156.459 166.268 155.574C167.154 154.688 168.206 153.986 169.363 153.507C170.521 153.028 171.761 152.782 173.014 152.782C170.484 152.782 168.057 151.777 166.268 149.988C164.479 148.199 163.474 145.772 163.474 143.242C163.474 145.772 162.469 148.199 160.679 149.988C158.89 151.777 156.464 152.782 153.934 152.782Z" fill="#F26921"/>
<path d="M23.4355 18.5689C24.1547 18.5684 24.8669 18.7097 25.5314 18.9846C26.1959 19.2596 26.7997 19.6629 27.3082 20.1714C27.8167 20.6799 28.22 21.2837 28.495 21.9482C28.77 22.6127 28.9112 23.3249 28.9107 24.0441C28.9107 22.592 29.4876 21.1993 30.5143 20.1726C31.5411 19.1458 32.9338 18.5689 34.3859 18.5689C32.9338 18.5689 31.5411 17.9921 30.5143 16.9653C29.4876 15.9385 28.9107 14.5459 28.9107 13.0938C28.9107 14.5459 28.3339 15.9385 27.3071 16.9653C26.2803 17.9921 24.8877 18.5689 23.4355 18.5689Z" fill="#F26921"/>
<path d="M26.5109 174.717C40.4363 174.717 51.725 163.491 51.725 149.643C51.725 135.796 40.4363 124.57 26.5109 124.57C12.5856 124.57 1.29688 135.796 1.29688 149.643C1.29688 163.491 12.5856 174.717 26.5109 174.717Z" fill="#F5F5F5"/>
<path d="M26.5117 176C21.2689 176.001 16.1435 174.455 11.7838 171.56C7.42414 168.664 4.02595 164.547 2.01901 159.731C0.012064 154.914 -0.51349 149.614 0.508819 144.501C1.53113 139.387 4.05538 134.69 7.76234 131.003C11.4693 127.316 16.1925 124.805 21.3345 123.788C26.4766 122.771 31.8065 123.292 36.6504 125.287C41.4942 127.282 45.6344 130.661 48.5472 134.996C51.4601 139.331 53.0149 144.427 53.0149 149.641C53.008 156.629 50.2137 163.329 45.245 168.27C40.2763 173.212 33.5391 175.992 26.5117 176ZM26.5117 125.849C21.7786 125.848 17.1515 127.243 13.2157 129.858C9.27989 132.472 6.21215 136.188 4.40046 140.537C2.58878 144.885 2.11454 149.67 3.03772 154.286C3.9609 158.902 6.24003 163.143 9.58686 166.471C12.9337 169.799 17.1979 172.065 21.8401 172.983C26.4823 173.901 31.2941 173.43 35.6668 171.628C40.0394 169.827 43.7766 166.776 46.4057 162.862C49.0348 158.948 50.4376 154.347 50.4367 149.641C50.4288 143.333 47.9055 137.286 43.4205 132.826C38.9354 128.366 32.8546 125.857 26.5117 125.849Z" fill="#677381"/>
<path d="M12.9629 156.113L33.013 136.175L39.8027 142.927L19.7526 162.865L12.9629 156.113Z" fill="#F26921"/>
<path d="M12.9648 142.93L19.7545 136.178L39.8046 156.116L33.0149 162.868L12.9648 142.93Z" fill="#F26921"/>
<defs>
<linearGradient id="paint0_linear_432_8991" x1="34.9353" y1="83.699" x2="139.485" y2="83.699" gradientUnits="userSpaceOnUse">
<stop stop-color="#CACFDD"/>
<stop offset="1" stop-color="#EEF0F1"/>
</linearGradient>
<linearGradient id="paint1_linear_432_8991" x1="20.8164" y1="109.658" x2="143.613" y2="109.658" gradientUnits="userSpaceOnUse">
<stop stop-color="#CACFDD"/>
<stop offset="1" stop-color="#EEF0F1"/>
</linearGradient>
<linearGradient id="paint2_linear_432_8991" x1="103.369" y1="116.348" x2="143.611" y2="116.348" gradientUnits="userSpaceOnUse">
<stop stop-color="#CACFDD"/>
<stop offset="1" stop-color="#EEF0F1"/>
</linearGradient>
</defs>
</svg>
