<svg width="52" height="53" viewBox="0 0 52 53" fill="none" xmlns="http://www.w3.org/2000/svg">
<path d="M37.5652 13.3193L35.4523 34.7576L33.0957 41.6283H42.1109L39.7121 34.7576L37.741 13.3193H37.5652Z" fill="url(#paint0_linear_395_478349)"/>
<path d="M24.8703 18.8786L17.2777 16.1704C16.8314 16.0113 16.4333 15.7406 16.1211 15.3841L11.6176 10.386L0.0371094 11.6353V2.45947H21.0137C21.8347 2.4592 22.6263 2.76553 23.2332 3.31846L28.6789 8.26963C29.0862 8.64035 29.4153 9.08871 29.647 9.58839C29.8786 10.0881 30.0081 10.629 30.0277 11.1794L30.1602 14.8825C30.1747 15.3347 30.0182 15.7758 29.7219 16.1177C29.4256 16.4597 29.0112 16.6772 28.5615 16.7271C28.1118 16.777 27.6598 16.6554 27.2958 16.3867C26.9318 16.118 26.6825 15.7219 26.5977 15.2774L26.0047 12.0981C25.9321 11.7074 25.7217 11.3556 25.4117 11.1067L22.3836 8.67041C22.2924 8.5969 22.1871 8.54298 22.0742 8.512C21.9612 8.48102 21.8431 8.47367 21.7272 8.49038C21.6113 8.5071 21.5001 8.54753 21.4005 8.60915C21.3009 8.67077 21.2151 8.75226 21.1484 8.84854L20.2109 10.1938C20.0904 10.366 20.0149 10.5655 19.9914 10.7743C19.9678 10.9832 19.997 11.1945 20.0762 11.3892L20.5109 12.4556C20.5742 12.611 20.668 12.7521 20.7868 12.8707C20.9055 12.9892 21.0468 13.0828 21.2023 13.1458L23.1945 13.9544C23.7737 14.1889 24.263 14.6018 24.5915 15.1333C24.92 15.6647 25.0706 16.287 25.0215 16.9099L24.8703 18.8786Z" fill="#DEE1EC"/>
<path style="mix-blend-mode:multiply" d="M30.0125 10.9639H25.2324L25.4094 11.1057C25.7192 11.3552 25.9295 11.7072 26.0023 12.0982L26.5965 15.2764C26.6813 15.7202 26.9303 16.1158 27.2939 16.3841C27.6575 16.6524 28.1089 16.7738 28.558 16.7239C29.0071 16.6741 29.4209 16.4567 29.7168 16.1152C30.0127 15.7736 30.1689 15.3331 30.1543 14.8814C30.0125 10.7283 30.0371 11.1936 30.0125 10.9639Z" fill="url(#paint1_linear_395_478349)"/>
<path d="M25.1848 19.3638L17.1586 16.5056C16.6561 16.3262 16.2079 16.0212 15.8566 15.6196L11.4773 10.7599L0.0750004 11.9892L0 11.286L11.7551 10.0228L16.3793 15.1532C16.6525 15.4657 17.001 15.7033 17.3918 15.8435L24.5555 18.397L24.6727 16.8864C24.7176 16.3378 24.5858 15.7891 24.2965 15.3208C24.0072 14.8525 23.5756 14.489 23.0648 14.2837L21.0727 13.4751C20.8739 13.394 20.6933 13.2741 20.5413 13.1223C20.3894 12.9706 20.2693 12.7902 20.1879 12.5915L19.7531 11.5251C19.6523 11.2771 19.615 11.0079 19.6447 10.7418C19.6744 10.4758 19.77 10.2213 19.923 10.0017L20.8605 8.65518C20.955 8.51952 21.0764 8.40473 21.2171 8.31795C21.3578 8.23118 21.5149 8.17426 21.6785 8.15074C21.8422 8.12722 22.0089 8.1376 22.1684 8.18124C22.3278 8.22488 22.4766 8.30084 22.6055 8.4044L25.6324 10.8372C26.0082 11.1387 26.2634 11.5648 26.352 12.0384L26.9449 15.2165C27.0106 15.5761 27.2101 15.8975 27.5033 16.1159C27.7965 16.3343 28.1616 16.4334 28.525 16.3932C28.8883 16.3531 29.223 16.1767 29.4615 15.8997C29.7 15.6226 29.8246 15.2654 29.8102 14.9001L29.6777 11.1958C29.6588 10.6925 29.54 10.1981 29.3281 9.74116C29.1163 9.28426 28.8157 8.87407 28.4437 8.53448L22.9957 3.57862C22.4536 3.08448 21.7464 2.81072 21.0129 2.81104H0.0363283V2.10792H21.0129C21.9231 2.10607 22.8011 2.44512 23.4738 3.05831L28.9195 8.00948C29.3605 8.41252 29.7169 8.89916 29.9682 9.44112C30.2194 9.98308 30.3605 10.5696 30.3832 11.1665L30.5156 14.8708C30.5349 15.4126 30.3486 15.9417 29.994 16.3519C29.6394 16.7621 29.1429 17.023 28.604 17.0823C28.065 17.1416 27.5236 16.995 27.0883 16.6717C26.653 16.3485 26.3561 15.8726 26.257 15.3396L25.6629 12.1603C25.6049 11.8518 25.4387 11.5742 25.1941 11.3774L22.166 8.94464C22.1123 8.90149 22.0503 8.86986 21.9839 8.85173C21.9174 8.8336 21.8479 8.82935 21.7798 8.83924C21.7116 8.84914 21.6462 8.87297 21.5877 8.90924C21.5291 8.94552 21.4787 8.99347 21.4395 9.0501L20.502 10.3954C20.4156 10.5193 20.3617 10.6628 20.3451 10.8128C20.3285 10.9629 20.3498 11.1147 20.407 11.2544L20.8418 12.3208C20.8878 12.4325 20.9555 12.5339 21.041 12.6191C21.1265 12.7044 21.2281 12.7719 21.3398 12.8177L23.332 13.6263C23.9813 13.8877 24.5299 14.3498 24.8978 14.9452C25.2657 15.5406 25.4336 16.2381 25.377 16.9357L25.1848 19.3638Z" fill="#5E6175"/>
<path d="M25.1855 19.3638L17.1594 16.5056C16.6569 16.3262 16.2087 16.0212 15.8574 15.6196L16.3871 15.1509C16.6595 15.4619 17.0068 15.6983 17.3961 15.8376L24.5563 18.397L24.6734 16.8864C24.7184 16.3378 24.5866 15.7891 24.2973 15.3208C24.008 14.8525 23.5764 14.489 23.0656 14.2837L21.0734 13.4751C20.8747 13.394 20.694 13.2741 20.5421 13.1223C20.3902 12.9706 20.2701 12.7902 20.1887 12.5915L20.8402 12.3267C20.8863 12.4383 20.954 12.5397 21.0395 12.625C21.125 12.7103 21.2265 12.7778 21.3383 12.8235L23.3305 13.6321C23.9797 13.8935 24.5283 14.3557 24.8963 14.9511C25.2642 15.5465 25.432 16.2439 25.3754 16.9415L25.1855 19.3638Z" fill="#5E6175"/>
<path style="mix-blend-mode:multiply" d="M37.5664 13.3193V41.6283H42.1121L39.7133 34.7576L37.7422 13.3193H37.5664Z" fill="url(#paint2_linear_395_478349)"/>
<path d="M37.566 13.3184C36.6039 23.0695 37.0797 18.2402 35.4566 34.7566L33.0953 41.6273H7.95508C7.96914 41.5465 7.78516 42.0961 10.2988 34.7566C12.5547 11.8688 12.3801 13.5844 12.4211 13.3184H37.566Z" fill="url(#paint3_linear_395_478349)"/>
<path style="mix-blend-mode:multiply" d="M37.566 13.3184L36.8031 21.0527H11.6523C12.4727 12.7254 12.3859 13.5633 12.4246 13.3184H37.566Z" fill="url(#paint4_linear_395_478349)"/>
<path d="M33.0957 41.9801H7.54883L7.63789 41.4598L9.9582 34.6863C12.282 11.0965 12.0195 13.643 12.1238 12.9727H37.5664V13.6758H12.7344L10.6496 34.8328L8.43828 41.2781H33.0957V41.9801Z" fill="#5E6175"/>
<path d="M42.6066 41.9801H33.0957V41.277H41.6164L39.3664 34.8316C39.3594 34.7566 37.3988 13.4414 37.3906 13.35L37.5652 13.3348V12.9668H38.0621L40.0543 34.6805L42.6066 41.9801Z" fill="#5E6175"/>
<path d="M12.3109 13.3193L10.3867 19.0205H35.8328C37.7219 12.8869 37.5285 13.5479 37.5648 13.3193H12.3109Z" fill="#F5F5F5"/>
<path d="M36.0945 19.3721H9.89844L12.0605 12.9678H37.9777L37.877 13.5818L36.0945 19.3721ZM10.8781 18.6689H35.5754L37.1141 13.6709H12.5645L10.8781 18.6689Z" fill="#5E6175"/>
<path d="M21.148 8.85205L20.2105 10.1974C20.0906 10.3691 20.0154 10.568 19.9919 10.7762C19.9684 10.9843 19.9972 11.195 20.0758 11.3892L20.5105 12.4556C20.5739 12.611 20.6677 12.7521 20.7864 12.8706C20.9052 12.9892 21.0464 13.0828 21.202 13.1458L23.1941 13.9544C23.7733 14.1889 24.2626 14.6018 24.5911 15.1332C24.9196 15.6647 25.0702 16.287 25.0211 16.9099L24.8664 18.8786L17.2773 16.1704C16.831 16.0113 16.4329 15.7406 16.1207 15.3841L11.6172 10.386L21.148 8.85205Z" fill="#DEE1EC"/>
<path d="M25.1855 19.3639L17.1594 16.5057C16.6569 16.3263 16.2087 16.0213 15.8574 15.6197L11.3574 10.6264L11.8801 10.1576L16.3836 15.1545C16.6568 15.467 17.0053 15.7046 17.3961 15.8447L24.5562 18.3971L24.6734 16.8865C24.7184 16.3379 24.5866 15.7892 24.2973 15.3209C24.008 14.8526 23.5764 14.4891 23.0656 14.2838L21.0734 13.4752C20.8747 13.3941 20.694 13.2742 20.5421 13.1224C20.3902 12.9707 20.2701 12.7903 20.1887 12.5916L19.7539 11.5252C19.6531 11.2772 19.6158 11.008 19.6455 10.7419C19.6751 10.4759 19.7708 10.2214 19.9238 10.0018L20.8613 8.65527L21.4391 9.05723L20.5016 10.4025C20.4152 10.5264 20.3613 10.6699 20.3447 10.8199C20.3282 10.97 20.3494 11.1218 20.4066 11.2615L20.8414 12.3279C20.8874 12.4396 20.9552 12.541 21.0406 12.6263C21.1261 12.7116 21.2277 12.779 21.3395 12.8248L23.3316 13.6334C23.9809 13.8948 24.5295 14.357 24.8974 14.9524C25.2653 15.5478 25.4332 16.2452 25.3766 16.9428L25.1855 19.3639Z" fill="#5E6175"/>
<path d="M25.1855 19.3638L17.1594 16.5056C16.6569 16.3262 16.2087 16.0212 15.8574 15.6196L16.3871 15.1509C16.6595 15.4619 17.0068 15.6983 17.3961 15.8376L24.5563 18.397L24.6734 16.8864C24.7184 16.3378 24.5866 15.7891 24.2973 15.3208C24.008 14.8525 23.5764 14.489 23.0656 14.2837L21.0734 13.4751C20.8747 13.394 20.694 13.2741 20.5421 13.1223C20.3902 12.9706 20.2701 12.7902 20.1887 12.5915L20.8402 12.3267C20.8863 12.4383 20.954 12.5397 21.0395 12.625C21.125 12.7103 21.2265 12.7778 21.3383 12.8235L23.3305 13.6321C23.9797 13.8935 24.5283 14.3557 24.8963 14.9511C25.2642 15.5465 25.432 16.2439 25.3754 16.9415L25.1855 19.3638Z" fill="#5E6175"/>
<path d="M27.9203 45.702C27.3629 45.6889 26.8326 45.4583 26.443 45.0594C26.0533 44.6605 25.8352 44.125 25.8352 43.5674C25.8352 43.0098 26.0533 42.4743 26.443 42.0754C26.8326 41.6765 27.3629 41.4459 27.9203 41.4328H30.6508C31.6408 41.4328 32.6165 41.1957 33.4961 40.7414C34.4157 40.2665 35.4395 40.0294 36.4743 40.0517C37.509 40.074 38.5217 40.3551 39.4199 40.8692C40.8063 41.6625 40.3504 41.3942 41.4402 42.0528H51.5992V50.959L40.5754 48.8813L31.8063 51.641C30.4624 52.0322 29.0309 52.0019 27.7047 51.5543L16.443 47.6871C15.8487 47.4943 15.3554 47.0733 15.0716 46.5167C14.7878 45.9601 14.7366 45.3136 14.9295 44.7194C15.1223 44.1251 15.5434 43.6318 16.0999 43.348C16.6565 43.0641 17.303 43.013 17.8973 43.2059L25.4711 45.6106C25.6766 45.6751 25.8908 45.7079 26.1062 45.7078L27.9203 45.702Z" fill="#DEE1EC"/>
<path d="M27.5967 51.8869L16.3338 48.0197C15.6653 47.7867 15.1146 47.3011 14.7998 46.6669C14.4851 46.0327 14.4313 45.3005 14.65 44.6271C14.8687 43.9537 15.3426 43.3929 15.9699 43.0647C16.5973 42.7366 17.3282 42.6673 18.0061 42.8716L25.5834 45.274C25.7803 45.3342 25.9858 45.3615 26.1916 45.3548C25.836 45.0105 25.5914 44.5678 25.4891 44.0835C25.3868 43.5992 25.4315 43.0954 25.6175 42.6366C25.8035 42.1779 26.1223 41.7852 26.5329 41.5089C26.9436 41.2325 27.4275 41.0852 27.9225 41.0857H30.653C31.5866 41.0848 32.5065 40.8615 33.3366 40.4341C34.3076 39.9297 35.3899 39.6777 36.4839 39.7012C37.5778 39.7248 38.6483 40.0232 39.5967 40.5689C40.983 41.3611 40.5471 41.1056 41.5397 41.7056H51.5991V42.4088H41.3416C40.1475 41.6869 40.6221 41.967 39.2451 41.1783C38.398 40.6921 37.4423 40.4265 36.4658 40.4061C35.4893 40.3856 34.5232 40.6108 33.6565 41.0611C32.7269 41.5401 31.6964 41.7904 30.6506 41.7912H27.9201C27.6822 41.7851 27.4453 41.8267 27.2237 41.9135C27.002 42.0004 26.8 42.1308 26.6295 42.2969C26.459 42.4631 26.3235 42.6617 26.231 42.8811C26.1385 43.1004 26.0908 43.3361 26.0908 43.5742C26.0908 43.8123 26.1385 44.0479 26.231 44.2673C26.3235 44.4866 26.459 44.6853 26.6295 44.8514C26.8 45.0176 27.002 45.148 27.2237 45.2348C27.4453 45.3217 27.6822 45.3633 27.9201 45.3572H32.8983V46.0603H26.1108C25.8594 46.059 25.6097 46.0195 25.3701 45.9431L17.7951 43.5384C16.1135 43.0134 14.6381 44.7631 15.3975 46.3263C15.5126 46.5663 15.6748 46.7807 15.8746 46.9567C16.0743 47.1327 16.3074 47.2666 16.56 47.3506L27.8241 51.2177C29.0796 51.6423 30.4353 51.6709 31.7076 51.2998L40.553 48.5189L51.6647 50.6119L51.5334 51.3033L40.5963 49.242L31.9116 51.9771C30.498 52.3902 28.9917 52.3587 27.5967 51.8869Z" fill="#5E6175"/>
<path d="M22.5369 25.561C22.7291 24.1876 22.1666 22.7485 21.2244 22.7485C20.2823 22.7485 19.3178 24.1864 19.1256 25.561C18.9651 26.7165 19.4022 27.4571 20.1065 27.6622L18.5889 35.0954C18.5589 35.2122 18.5565 35.3344 18.5817 35.4523C18.607 35.5702 18.6593 35.6807 18.7345 35.775C18.8097 35.8693 18.9058 35.9448 19.0151 35.9957C19.1245 36.0465 19.2441 36.0713 19.3647 36.0681C19.6277 36.0609 19.879 35.9582 20.0718 35.7792C20.2646 35.6002 20.3857 35.3571 20.4123 35.0954L20.9713 27.6622C21.7354 27.4571 22.3799 26.7177 22.5369 25.561Z" fill="#F26921"/>
<path d="M28.0975 22.7497C27.9954 22.7525 27.8974 22.7909 27.8206 22.8583C27.7438 22.9257 27.6929 23.0179 27.6768 23.1188L27.4073 25.0477C27.3904 25.1528 27.3374 25.2487 27.2574 25.3188C27.1774 25.389 27.0754 25.4291 26.969 25.4321C26.9204 25.4335 26.8721 25.4241 26.8276 25.4045C26.783 25.385 26.7434 25.3557 26.7117 25.3189C26.6799 25.282 26.6567 25.2386 26.6439 25.1917C26.631 25.1448 26.6288 25.0956 26.6374 25.0477L26.9069 23.1188C26.9151 23.0729 26.913 23.0257 26.9007 22.9808C26.8884 22.9358 26.8662 22.8941 26.8358 22.8588C26.8054 22.8234 26.7675 22.7953 26.7249 22.7764C26.6822 22.7576 26.6359 22.7484 26.5893 22.7497H26.5425C26.4403 22.7525 26.3423 22.7909 26.2655 22.8583C26.1887 22.9257 26.1378 23.0179 26.1218 23.1188L25.8522 25.0477C25.8353 25.1528 25.7823 25.2487 25.7023 25.3188C25.6223 25.389 25.5203 25.4291 25.4139 25.4321C25.3653 25.4335 25.317 25.4241 25.2725 25.4045C25.228 25.385 25.1884 25.3557 25.1566 25.3189C25.1248 25.282 25.1017 25.2386 25.0888 25.1917C25.076 25.1448 25.0737 25.0956 25.0823 25.0477L25.3518 23.1188C25.36 23.0729 25.3579 23.0257 25.3456 22.9808C25.3333 22.9358 25.3111 22.8941 25.2807 22.8588C25.2503 22.8234 25.2124 22.7953 25.1698 22.7764C25.1272 22.7576 25.0809 22.7484 25.0343 22.7497C24.9321 22.7525 24.8341 22.7909 24.7573 22.8583C24.6805 22.9257 24.6296 23.0179 24.6135 23.1188L24.262 25.6313C24.1366 26.5372 24.6628 27.2942 25.4831 27.4852L23.9303 35.0954C23.9006 35.2122 23.8984 35.3343 23.9237 35.4521C23.9491 35.5699 24.0014 35.6802 24.0766 35.7744C24.1517 35.8687 24.2477 35.9442 24.3569 35.9951C24.4661 36.0461 24.5856 36.071 24.7061 36.068C24.9691 36.0608 25.2205 35.9581 25.4133 35.7792C25.6061 35.6002 25.7271 35.3571 25.7538 35.0954L26.3257 27.4852C26.7671 27.3843 27.1683 27.1539 27.4781 26.8237C27.7879 26.4934 27.9922 26.0783 28.0647 25.6313L28.4163 23.1188C28.4245 23.0728 28.4223 23.0255 28.41 22.9805C28.3976 22.9354 28.3754 22.8937 28.3448 22.8583C28.3143 22.8229 28.2762 22.7948 28.2335 22.776C28.1907 22.7572 28.1442 22.7482 28.0975 22.7497Z" fill="#F26921"/>
<path d="M33.6265 7.83135C33.321 7.83197 33.0228 7.73837 32.7725 7.56332C32.5222 7.38828 32.332 7.14029 32.2278 6.85318C32.1236 6.56607 32.1104 6.2538 32.1902 5.95895C32.2699 5.6641 32.4386 5.40102 32.6734 5.20558C32.9081 5.01013 33.1974 4.89183 33.5018 4.86681C33.8062 4.84178 34.1109 4.91125 34.3744 5.06574C34.6379 5.22023 34.8473 5.45223 34.9742 5.73009C35.101 6.00796 35.139 6.31818 35.0831 6.61846C35.0197 6.9587 34.8395 7.26613 34.5735 7.48759C34.3075 7.70905 33.9726 7.83064 33.6265 7.83135ZM33.6265 5.56494C33.5041 5.56524 33.3835 5.59428 33.2744 5.64971C33.1653 5.70513 33.0707 5.7854 32.9983 5.88406C32.9259 5.98271 32.8776 6.09699 32.8575 6.21769C32.8373 6.33839 32.8457 6.46215 32.8821 6.57899C32.9185 6.69583 32.9818 6.8025 33.067 6.8904C33.1521 6.9783 33.2567 7.04498 33.3723 7.08508C33.4879 7.12517 33.6114 7.13756 33.7326 7.12124C33.8539 7.10492 33.9697 7.06034 34.0706 6.99111C34.1554 6.93327 34.2279 6.85915 34.2839 6.77304C34.3398 6.68694 34.378 6.59057 34.3964 6.48955C34.4173 6.37624 34.4129 6.25972 34.3835 6.14831C34.3542 6.0369 34.3006 5.93334 34.2266 5.84502C34.1526 5.75671 34.06 5.68581 33.9555 5.6374C33.8509 5.58898 33.737 5.56424 33.6218 5.56494H33.6265Z" fill="#5E6175"/>
<path d="M27.365 0.929163C27.3993 0.745298 27.4784 0.572726 27.5953 0.426717C27.7122 0.280709 27.8633 0.165768 28.0352 0.0920662C28.2071 0.0183643 28.3945 -0.0118257 28.5809 0.00416799C28.7672 0.0201616 28.9468 0.0818455 29.1036 0.183761C29.2605 0.285677 29.3897 0.424681 29.4801 0.588473C29.5704 0.752264 29.6189 0.935792 29.6214 1.12281C29.6239 1.30984 29.5802 1.49459 29.4943 1.66071C29.4083 1.82684 29.2828 1.96922 29.1287 2.07526C28.9431 2.20294 28.7239 2.2727 28.4987 2.27568C28.2735 2.27867 28.0524 2.21475 27.8636 2.09202C27.6747 1.96929 27.5265 1.79328 27.4378 1.58627C27.349 1.37926 27.3237 1.15057 27.365 0.929163ZM28.483 0.70182C28.415 0.702229 28.348 0.718582 28.2875 0.749564C28.227 0.780546 28.1746 0.825293 28.1345 0.88021C28.0944 0.935127 28.0677 0.998683 28.0566 1.06577C28.0456 1.13286 28.0504 1.20161 28.0707 1.2665C28.091 1.33139 28.1263 1.39061 28.1736 1.4394C28.221 1.48819 28.2791 1.52519 28.3434 1.54743C28.4077 1.56967 28.4762 1.57653 28.5436 1.56745C28.611 1.55838 28.6753 1.53362 28.7314 1.49518C28.8082 1.44257 28.866 1.36671 28.8965 1.27878C28.9269 1.19084 28.9283 1.09546 28.9005 1.00665C28.8727 0.91785 28.8171 0.840312 28.742 0.785441C28.6668 0.730569 28.576 0.701259 28.483 0.70182Z" fill="#5E6175"/>
<path d="M4.7168 44.2773L6.24375 42.7504L6.74086 43.2475L5.21391 44.7745L4.7168 44.2773Z" fill="#5E6175"/>
<path d="M7.92773 44.1353H8.63086V46.295H7.92773V44.1353Z" fill="#5E6175"/>
<path d="M3.14844 41.0024H5.3082V41.7056H3.14844V41.0024Z" fill="#5E6175"/>
<path d="M40.334 25.0674C44.4599 25.0674 47.8047 21.7226 47.8047 17.5967C47.8047 13.4707 44.4599 10.126 40.334 10.126C36.208 10.126 32.8633 13.4707 32.8633 17.5967C32.8633 21.7226 36.208 25.0674 40.334 25.0674Z" fill="#F5F5F5"/>
<path d="M44.791 26.9345L44.4887 26.3005C44.6914 26.2032 44.8941 26.0978 45.0898 25.9864L45.4414 26.5981C45.227 26.7177 45.009 26.8349 44.791 26.9345ZM46.4539 25.9396L46.0379 25.3724C46.2195 25.2388 46.3988 25.097 46.5699 24.9517L47.0246 25.4884C46.8406 25.6442 46.6484 25.7954 46.4539 25.9396ZM47.9023 24.6505L47.3879 24.1712C47.5414 24.0071 47.6902 23.8349 47.8332 23.6591L48.3793 24.1021C48.227 24.2907 48.0664 24.4759 47.9023 24.6517V24.6505ZM49.0859 23.1165L48.4918 22.7403C48.609 22.5493 48.7262 22.3524 48.834 22.1544L49.4527 22.4872C49.3391 22.7017 49.216 22.9126 49.0859 23.1177V23.1165ZM49.959 21.3892L49.3051 21.1313C49.3871 20.9216 49.4633 20.706 49.5312 20.4927L50.2016 20.7024C50.1348 20.9321 50.0527 21.163 49.959 21.3892ZM50.4969 19.5259L49.8055 19.3958C49.8477 19.1743 49.8816 18.9493 49.9074 18.7255L50.6105 18.8063C50.5824 19.0466 50.5449 19.2892 50.5016 19.5259H50.4969ZM50.6762 17.597H49.973C49.973 17.372 49.9648 17.1435 49.9496 16.9196L50.6527 16.8704C50.6727 17.1083 50.6809 17.3556 50.6809 17.597H50.6762ZM49.8055 15.7993C49.7633 15.5767 49.7129 15.3552 49.6566 15.1372L50.3363 14.9591C50.3973 15.1935 50.4535 15.4278 50.4969 15.6681L49.8055 15.7993ZM49.3098 14.0614C49.2277 13.8528 49.1363 13.6431 49.0391 13.4415L49.6742 13.138C49.7773 13.3548 49.8758 13.5786 49.9637 13.8036L49.3098 14.0614ZM48.4895 12.4524C48.3723 12.2626 48.241 12.0739 48.1074 11.8923L48.6746 11.4763C48.8176 11.6708 48.9547 11.8735 49.0848 12.0774L48.4895 12.4524ZM47.3867 11.0228C47.2332 10.8575 47.0715 10.697 46.9074 10.5435L47.3867 10.029C47.5637 10.1931 47.7383 10.3665 47.9012 10.5435L47.3867 11.0228ZM46.0379 9.82158C45.8562 9.68799 45.6676 9.55908 45.4766 9.43955L45.8527 8.84541C46.0566 8.97432 46.2594 9.1126 46.4539 9.25557L46.0379 9.82158ZM44.4887 8.89229C44.2848 8.79502 44.075 8.70361 43.8664 8.62158L44.1242 7.96768C44.3492 8.05557 44.573 8.154 44.7922 8.2583L44.4887 8.89229ZM42.7918 8.27002C42.575 8.2126 42.3523 8.16221 42.1309 8.12119L42.2609 7.42979C42.4953 7.47432 42.7379 7.52822 42.9711 7.59033L42.7918 8.27002ZM41.0105 7.97705C40.7867 7.96182 40.5582 7.95361 40.332 7.95361V7.25049C40.5746 7.25049 40.8184 7.25869 41.0586 7.2751L41.0105 7.97705Z" fill="#A9AFC4"/>
<path d="M40.334 25.4189C38.7869 25.4189 37.2745 24.9602 35.9882 24.1007C34.7018 23.2411 33.6992 22.0195 33.1072 20.5901C32.5151 19.1608 32.3602 17.588 32.662 16.0706C32.9638 14.5533 33.7088 13.1595 34.8028 12.0655C35.8968 10.9715 37.2906 10.2265 38.8079 9.92472C40.3253 9.6229 41.8981 9.7778 43.3274 10.3699C44.7568 10.9619 45.9784 11.9645 46.838 13.2509C47.6975 14.5372 48.1563 16.0496 48.1563 17.5967C48.1538 19.6705 47.3288 21.6587 45.8624 23.1251C44.396 24.5915 42.4078 25.4165 40.334 25.4189ZM40.334 10.4775C38.926 10.4775 37.5495 10.8951 36.3788 11.6773C35.2081 12.4596 34.2956 13.5715 33.7568 14.8723C33.2179 16.1732 33.0769 17.6046 33.3516 18.9856C33.6263 20.3665 34.3044 21.635 35.3 22.6307C36.2956 23.6263 37.5641 24.3043 38.9451 24.579C40.3261 24.8537 41.7575 24.7127 43.0584 24.1739C44.3592 23.6351 45.4711 22.7226 46.2533 21.5519C47.0356 20.3811 47.4531 19.0047 47.4531 17.5967C47.451 15.7092 46.7002 13.8997 45.3656 12.5651C44.031 11.2305 42.2214 10.4797 40.334 10.4775Z" fill="#5E6175"/>
<path d="M39.0457 21.042L35.8887 17.885L37.0441 16.7307L39.0457 18.7322L43.6266 14.1514L44.782 15.3057L39.0457 21.042Z" fill="#F26921"/>
<defs>
<linearGradient id="paint0_linear_395_478349" x1="33.0957" y1="27.4732" x2="42.1109" y2="27.4732" gradientUnits="userSpaceOnUse">
<stop stop-color="#A9AFC4"/>
<stop offset="1" stop-color="#D4D8E5"/>
</linearGradient>
<linearGradient id="paint1_linear_395_478349" x1="23.6551" y1="13.8537" x2="30.1602" y2="13.8537" gradientUnits="userSpaceOnUse">
<stop stop-color="#CACFDD"/>
<stop offset="1" stop-color="#EEF0F1"/>
</linearGradient>
<linearGradient id="paint2_linear_395_478349" x1="37.5664" y1="27.4732" x2="42.1121" y2="27.4732" gradientUnits="userSpaceOnUse">
<stop stop-color="#CACFDD"/>
<stop offset="1" stop-color="#EEF0F1"/>
</linearGradient>
<linearGradient id="paint3_linear_395_478349" x1="22.7605" y1="13.8035" x2="22.7605" y2="40.1648" gradientUnits="userSpaceOnUse">
<stop stop-color="#CACFDD"/>
<stop offset="1" stop-color="#EEF0F1"/>
</linearGradient>
<linearGradient id="paint4_linear_395_478349" x1="11.6523" y1="17.1879" x2="37.566" y2="17.1879" gradientUnits="userSpaceOnUse">
<stop stop-color="#CACFDD"/>
<stop offset="1" stop-color="#EEF0F1"/>
</linearGradient>
</defs>
</svg>
