<svg width="20" height="24" viewBox="0 0 20 24" fill="none" xmlns="http://www.w3.org/2000/svg">
<path d="M15.9428 2.22115C14.8189 1.30092 13.5048 0.64159 12.0953 0.290705C10.6858 -0.0601791 9.21592 -0.0938698 7.79179 0.192063C5.96066 0.567481 4.27604 1.46135 2.9386 2.7672C1.60116 4.07304 0.667282 5.73582 0.248204 7.55745C-0.170873 9.37908 -0.0574821 11.2828 0.57487 13.0418C1.20722 14.8008 2.33188 16.341 3.81487 17.4788C5.50805 18.7181 6.94966 20.2685 8.06262 22.0472L8.82096 23.3082C8.91727 23.4684 9.05338 23.6009 9.21607 23.6929C9.37875 23.785 9.56247 23.8333 9.74937 23.8333C9.93627 23.8333 10.12 23.785 10.2827 23.6929C10.4454 23.6009 10.5815 23.4684 10.6778 23.3082L11.4047 22.0971C12.3739 20.3934 13.6953 18.9161 15.2809 17.7637C16.5241 16.9084 17.5516 15.7758 18.2822 14.4554C19.0128 13.135 19.4266 11.6628 19.4908 10.1551C19.5551 8.64742 19.2682 7.1454 18.6526 5.76758C18.0371 4.38976 17.1098 3.17383 15.9439 2.21573L15.9428 2.22115ZM9.74829 14.0847C8.89124 14.0847 8.05343 13.8306 7.34082 13.3544C6.6282 12.8783 6.07279 12.2015 5.74481 11.4097C5.41683 10.6179 5.33102 9.74659 5.49822 8.90601C5.66542 8.06542 6.07813 7.29329 6.68416 6.68727C7.29019 6.08124 8.06231 5.66853 8.9029 5.50133C9.74348 5.33412 10.6148 5.41994 11.4066 5.74792C12.1984 6.0759 12.8752 6.63131 13.3513 7.34393C13.8275 8.05654 14.0816 8.89434 14.0816 9.7514C14.0816 10.9007 13.6251 12.0029 12.8124 12.8155C11.9998 13.6282 10.8976 14.0847 9.74829 14.0847Z" fill="#F26921"/>
</svg>
