<svg width="18" height="17" viewBox="0 0 18 17" fill="none" xmlns="http://www.w3.org/2000/svg">
<path d="M17.4635 3.04608C17.425 2.88609 17.3551 2.73533 17.2579 2.60256C17.1606 2.46979 17.038 2.35765 16.8971 2.27264C14.4394 0.785924 11.6218 0 8.74945 0C5.87708 0 3.05947 0.785924 0.601794 2.27264C0.461291 2.35786 0.338967 2.46994 0.241823 2.60247C0.144678 2.735 0.0746183 2.88539 0.0356522 3.04503C-0.0033138 3.20467 -0.0104215 3.37042 0.0147355 3.53281C0.0398925 3.6952 0.0968207 3.85103 0.182263 3.99139L7.68226 16.2781C7.79368 16.4618 7.95056 16.6137 8.13777 16.7191C8.32497 16.8245 8.53618 16.8798 8.75101 16.8798C8.96585 16.8798 9.17706 16.8245 9.36426 16.7191C9.55147 16.6137 9.70834 16.4618 9.81976 16.2781L17.3198 3.99139C17.4053 3.85127 17.4621 3.69551 17.4868 3.5332C17.5114 3.3709 17.5035 3.2053 17.4635 3.04608ZM3.71742 7.38202C3.9205 7.19064 4.16373 7.047 4.42938 6.96157C4.69503 6.87615 4.9764 6.8511 5.25296 6.88824C5.52953 6.92539 5.79431 7.0238 6.02801 7.17629C6.2617 7.32878 6.45841 7.53151 6.60379 7.76969C6.74918 8.00788 6.83956 8.27551 6.86836 8.55306C6.89715 8.83062 6.86364 9.1111 6.77025 9.37406C6.67686 9.63702 6.52596 9.87581 6.32854 10.073C6.13113 10.2703 5.89219 10.4209 5.62914 10.514L3.71742 7.38202ZM10.5862 12.6125C10.2732 12.3174 10.0712 11.9236 10.0141 11.4972C9.957 11.0708 10.0482 10.6378 10.2725 10.2707C10.4968 9.90361 10.8405 9.62482 11.246 9.48108C11.6515 9.33734 12.094 9.33739 12.4995 9.48124L10.5862 12.6125ZM13.1588 8.39921C12.4641 8.0839 11.6781 8.03359 10.9489 8.25778C10.2197 8.48197 9.59768 8.96516 9.20012 9.61627C8.80255 10.2674 8.6569 11.0414 8.79061 11.7925C8.92432 12.5436 9.32817 13.2198 9.92601 13.6937L8.74945 15.6242L6.28851 11.5953C6.69254 11.4132 7.05323 11.1473 7.34663 10.8152C7.64003 10.4831 7.85944 10.0924 7.9903 9.66898C8.12116 9.24558 8.16047 8.7992 8.10562 8.35945C8.05078 7.9197 7.90303 7.49665 7.67218 7.11837C7.44134 6.74009 7.13268 6.41523 6.76669 6.16535C6.4007 5.91548 5.98575 5.7463 5.54938 5.66905C5.11301 5.59181 4.6652 5.60825 4.23567 5.7173C3.80614 5.82635 3.40472 6.0255 3.05804 6.30155L2.56195 5.48827C4.42526 4.35087 6.56604 3.74911 8.74906 3.74911C10.9321 3.74911 13.0729 4.35087 14.9362 5.48827L13.1588 8.39921ZM15.5885 4.4203C13.5286 3.16392 11.1623 2.49927 8.74945 2.49927C6.33659 2.49927 3.97035 3.16392 1.91039 4.4203L1.24945 3.34061C3.51213 1.97312 6.10563 1.25029 8.74945 1.25029C11.3933 1.25029 13.9868 1.97312 16.2495 3.34061L15.5885 4.4203Z" fill="#42695A"/>
</svg>
