<svg width="19" height="14" viewBox="0 0 19 14" fill="none" xmlns="http://www.w3.org/2000/svg">
<path d="M10.0037 9.82187C10.9835 9.21164 11.7379 8.29892 12.1527 7.22178C12.5675 6.14464 12.6203 4.9617 12.3029 3.85192C11.9856 2.74214 11.3154 1.76591 10.3938 1.07092C9.47226 0.375931 8.34941 0 7.19515 0C6.04089 0 4.91803 0.375931 3.99645 1.07092C3.07487 1.76591 2.40472 2.74214 2.08737 3.85192C1.77003 4.9617 1.82276 6.14464 2.23759 7.22178C2.65243 8.29892 3.40679 9.21164 4.38655 9.82187C2.77327 10.35 1.32171 11.3367 0.15452 12.7258C0.0998329 12.7883 0.0581616 12.8611 0.0319428 12.94C0.00572399 13.0188 -0.0045161 13.1021 0.0018212 13.1849C0.0081585 13.2677 0.030946 13.3485 0.0688515 13.4224C0.106757 13.4963 0.159019 13.5619 0.222584 13.6154C0.286148 13.6689 0.359738 13.7092 0.439051 13.7339C0.518365 13.7586 0.60181 13.7673 0.684508 13.7594C0.767206 13.7515 0.847498 13.7271 0.920688 13.6878C0.993878 13.6485 1.0585 13.595 1.11077 13.5305C2.67952 11.6586 4.84046 10.6281 7.19124 10.6281C9.54202 10.6281 11.703 11.6586 13.2748 13.5305C13.3815 13.6575 13.5343 13.7369 13.6996 13.7513C13.8649 13.7656 14.0291 13.7137 14.1561 13.607C14.2831 13.5003 14.3625 13.3475 14.3769 13.1823C14.3912 13.017 14.3394 12.8528 14.2326 12.7258C13.0647 11.3367 11.6131 10.35 10.0037 9.82187ZM3.12874 5.31562C3.12874 4.51214 3.367 3.7267 3.81339 3.05862C4.25979 2.39055 4.89426 1.86984 5.63659 1.56236C6.37891 1.25488 7.19575 1.17443 7.98379 1.33118C8.77184 1.48794 9.49571 1.87485 10.0639 2.443C10.632 3.01115 11.0189 3.73502 11.1757 4.52307C11.3324 5.31112 11.252 6.12795 10.9445 6.87028C10.637 7.6126 10.1163 8.24708 9.44824 8.69347C8.78017 9.13986 7.99473 9.37812 7.19124 9.37812C6.11418 9.37688 5.08159 8.94847 4.31999 8.18688C3.55839 7.42528 3.12998 6.39269 3.12874 5.31562ZM18.4608 8.68047L18.0967 8.47031C18.1394 8.24419 18.1394 8.01206 18.0967 7.78594L18.4608 7.57578C18.5319 7.53474 18.5942 7.4801 18.6442 7.41498C18.6942 7.34986 18.7308 7.27553 18.7521 7.19624C18.7733 7.11694 18.7788 7.03424 18.7681 6.95285C18.7573 6.87146 18.7307 6.79297 18.6897 6.72187C18.6486 6.65078 18.594 6.58846 18.5289 6.53848C18.4638 6.48849 18.3894 6.45183 18.3101 6.43057C18.2308 6.40932 18.1481 6.40389 18.0667 6.41459C17.9854 6.4253 17.9069 6.45193 17.8358 6.49297L17.4709 6.70391C17.2963 6.55411 17.0956 6.43783 16.8787 6.36094V5.94062C16.8787 5.77486 16.8129 5.61589 16.6957 5.49868C16.5785 5.38147 16.4195 5.31562 16.2537 5.31562C16.088 5.31562 15.929 5.38147 15.8118 5.49868C15.6946 5.61589 15.6287 5.77486 15.6287 5.94062V6.36094C15.4119 6.43783 15.2112 6.55411 15.0366 6.70391L14.6717 6.49297C14.6006 6.45193 14.5221 6.4253 14.4407 6.41459C14.3593 6.40389 14.2766 6.40932 14.1973 6.43057C14.1181 6.45183 14.0437 6.48849 13.9786 6.53848C13.9135 6.58846 13.8588 6.65078 13.8178 6.72187C13.7768 6.79297 13.7501 6.87146 13.7394 6.95285C13.7287 7.03424 13.7341 7.11694 13.7554 7.19624C13.7767 7.27553 13.8133 7.34986 13.8633 7.41498C13.9133 7.4801 13.9756 7.53474 14.0467 7.57578L14.4108 7.78594C14.3681 8.01206 14.3681 8.24419 14.4108 8.47031L14.0467 8.68047C13.9756 8.72151 13.9133 8.77615 13.8633 8.84127C13.8133 8.90639 13.7767 8.98072 13.7554 9.06001C13.7341 9.13931 13.7287 9.22201 13.7394 9.3034C13.7501 9.38479 13.7768 9.46328 13.8178 9.53437C13.8588 9.60547 13.9135 9.66779 13.9786 9.71777C14.0437 9.76776 14.1181 9.80442 14.1973 9.82568C14.2766 9.84693 14.3593 9.85236 14.4407 9.84166C14.5221 9.83095 14.6006 9.80432 14.6717 9.76328L15.0366 9.55234C15.2112 9.70214 15.4119 9.81841 15.6287 9.89531V10.3156C15.6287 10.4814 15.6946 10.6404 15.8118 10.7576C15.929 10.8748 16.088 10.9406 16.2537 10.9406C16.4195 10.9406 16.5785 10.8748 16.6957 10.7576C16.8129 10.6404 16.8787 10.4814 16.8787 10.3156V9.89531C17.0956 9.81841 17.2963 9.70214 17.4709 9.55234L17.8358 9.76328C17.9307 9.81836 18.0385 9.84721 18.1483 9.84687C18.2859 9.84693 18.4197 9.80155 18.5289 9.71779C18.6381 9.63403 18.7166 9.51656 18.7522 9.38362C18.7878 9.25068 18.7786 9.1097 18.7259 8.98256C18.6732 8.85542 18.58 8.74923 18.4608 8.68047ZM15.6287 8.12812C15.6287 8.00451 15.6654 7.88367 15.7341 7.78089C15.8027 7.67811 15.9004 7.598 16.0146 7.5507C16.1288 7.5034 16.2544 7.49102 16.3757 7.51513C16.4969 7.53925 16.6083 7.59877 16.6957 7.68618C16.7831 7.77359 16.8426 7.88495 16.8667 8.00619C16.8908 8.12743 16.8785 8.2531 16.8312 8.3673C16.7839 8.48151 16.7038 8.57912 16.601 8.64779C16.4982 8.71647 16.3774 8.75312 16.2537 8.75312C16.088 8.75312 15.929 8.68728 15.8118 8.57007C15.6946 8.45286 15.6287 8.29389 15.6287 8.12812Z" fill="#42695A"/>
</svg>
