<svg width="8" height="14" viewBox="0 0 8 14" fill="none" xmlns="http://www.w3.org/2000/svg">
<path d="M0.295798 0.291162C0.202069 0.384125 0.127675 0.494724 0.0769061 0.616584C0.0261374 0.738443 -5.74053e-07 0.869149 -5.68283e-07 1.00116C-5.62512e-07 1.13317 0.0261374 1.26388 0.0769061 1.38574C0.127675 1.5076 0.202069 1.6182 0.295798 1.71116L4.8758 6.29116C4.96953 6.38412 5.04392 6.49472 5.09469 6.61658C5.14546 6.73844 5.1716 6.86915 5.1716 7.00116C5.1716 7.13317 5.14546 7.26388 5.09469 7.38574C5.04392 7.5076 4.96953 7.6182 4.8758 7.71116L0.295798 12.2912C0.20207 12.3841 0.127675 12.4947 0.0769066 12.6166C0.0261379 12.7384 -4.95165e-08 12.8691 -4.3746e-08 13.0012C-3.79756e-08 13.1332 0.026138 13.2639 0.0769067 13.3857C0.127675 13.5076 0.20207 13.6182 0.295798 13.7112C0.483161 13.8974 0.736612 14.002 1.0008 14.002C1.26498 14.002 1.51844 13.8974 1.7058 13.7112L6.2958 9.12116C6.8576 8.55866 7.17316 7.79616 7.17316 7.00116C7.17316 6.20616 6.8576 5.44366 6.2958 4.88116L1.7058 0.291161C1.51844 0.104911 1.26498 0.000367109 1.0008 0.000367121C0.736612 0.000367132 0.48316 0.104911 0.295798 0.291162Z" fill="black"/>
</svg>
