<svg width="16" height="16" viewBox="0 0 16 16" fill="none" xmlns="http://www.w3.org/2000/svg">
<path d="M15.7222 14.3845L12.6465 11.3088C13.5786 10.0885 14.0899 8.60842 14.0901 7.04659C14.0901 5.16443 13.357 3.39479 12.0259 2.06392C10.695 0.733045 8.92563 0 7.04323 0C5.16107 0 3.39143 0.733045 2.06056 2.06392C-0.686854 4.81157 -0.686854 9.28208 2.06056 12.0293C3.39143 13.3604 5.16107 14.0934 7.04323 14.0934C8.60506 14.0932 10.0852 13.582 11.3054 12.6498L14.3811 15.7255C14.5661 15.9107 14.809 16.0034 15.0516 16.0034C15.2943 16.0034 15.5372 15.9107 15.7222 15.7255C16.0926 15.3553 16.0926 14.7547 15.7222 14.3845ZM3.40162 10.6882C1.39374 8.68031 1.39397 5.4131 3.40162 3.40498C4.37431 2.43253 5.66767 1.89675 7.04323 1.89675C8.41902 1.89675 9.71216 2.43253 10.6848 3.40498C11.6575 4.37767 12.1933 5.67103 12.1933 7.04659C12.1933 8.42238 11.6575 9.71551 10.6848 10.6882C9.71216 11.6609 8.41902 12.1967 7.04323 12.1967C5.66767 12.1967 4.37431 11.6609 3.40162 10.6882Z" fill="#42695A"/>
</svg>
