<svg width="18" height="17" viewBox="0 0 18 17" fill="none" xmlns="http://www.w3.org/2000/svg">
<path d="M17.4354 6.34833C17.3572 6.10812 17.2098 5.8964 17.0115 5.73986C16.8133 5.58331 16.5731 5.48895 16.3213 5.46864L11.7119 5.09677L9.93225 0.79286C9.83601 0.558343 9.6722 0.357742 9.46165 0.216562C9.25111 0.0753819 9.00333 0 8.74983 0C8.49633 0 8.24856 0.0753819 8.03801 0.216562C7.82747 0.357742 7.66366 0.558343 7.56741 0.79286L5.78929 5.09599L1.17757 5.46864C0.925362 5.48997 0.685059 5.58526 0.486766 5.74255C0.288473 5.89985 0.141009 6.11217 0.0628489 6.3529C-0.015311 6.59364 -0.0206906 6.85209 0.0473841 7.09587C0.115459 7.33965 0.25396 7.55792 0.445536 7.72333L3.96116 10.7569L2.89007 15.2929C2.83016 15.5393 2.84483 15.798 2.93221 16.036C3.01958 16.2741 3.17573 16.4809 3.38082 16.63C3.58591 16.7792 3.8307 16.8641 4.08411 16.8739C4.33752 16.8837 4.58814 16.8179 4.80413 16.685L8.74944 14.2569L12.6971 16.685C12.9132 16.8164 13.1633 16.8808 13.4159 16.8703C13.6685 16.8598 13.9124 16.7747 14.1168 16.6259C14.3212 16.477 14.477 16.271 14.5645 16.0338C14.6521 15.7966 14.6675 15.5388 14.6088 15.2929L13.5338 10.7561L17.0494 7.72255C17.2426 7.55741 17.3823 7.33867 17.451 7.09403C17.5197 6.84939 17.5143 6.58987 17.4354 6.34833ZM16.2369 6.77567L12.4323 10.0569C12.3455 10.1317 12.2809 10.2289 12.2457 10.3379C12.2104 10.4469 12.2058 10.5634 12.2323 10.6749L13.3948 15.5811C13.3978 15.5879 13.3981 15.5956 13.3956 15.6025C13.3931 15.6095 13.3881 15.6153 13.3815 15.6186C13.3674 15.6296 13.3635 15.6272 13.3518 15.6186L9.07679 12.9897C8.97833 12.9292 8.86502 12.8972 8.74944 12.8972C8.63387 12.8972 8.52055 12.9292 8.4221 12.9897L4.1471 15.6202C4.13538 15.6272 4.13225 15.6296 4.11741 15.6202C4.11082 15.6168 4.10576 15.6111 4.10329 15.6041C4.10082 15.5971 4.10112 15.5895 4.10413 15.5827L5.26663 10.6765C5.29312 10.565 5.28848 10.4484 5.25321 10.3394C5.21794 10.2305 5.1534 10.1333 5.06663 10.0585L1.26194 6.77724C1.25257 6.76942 1.24397 6.76239 1.25179 6.73817C1.2596 6.71395 1.26585 6.71708 1.27757 6.71552L6.27132 6.31239C6.38586 6.30257 6.49547 6.26134 6.58809 6.19325C6.68072 6.12516 6.75277 6.03285 6.79632 5.92645L8.71976 1.26942C8.726 1.25614 8.72835 1.24989 8.7471 1.24989C8.76585 1.24989 8.76819 1.25614 8.77444 1.26942L10.7026 5.92645C10.7465 6.03289 10.819 6.1251 10.9121 6.19293C11.0051 6.26076 11.1151 6.30156 11.2299 6.31083L16.2237 6.71395C16.2354 6.71395 16.2424 6.71395 16.2494 6.73661C16.2565 6.75927 16.2494 6.76786 16.2369 6.77567Z" fill="#F26921"/>
</svg>
