<svg width="48" height="46" viewBox="0 0 48 46" fill="none" xmlns="http://www.w3.org/2000/svg">
<path d="M47.0755 17.1405C46.8645 16.4919 46.4663 15.9203 45.9311 15.4976C45.3958 15.0749 44.7474 14.8202 44.0676 14.7653L31.6222 13.7613L26.8171 2.14072C26.5572 1.50752 26.1149 0.965903 25.5465 0.584717C24.978 0.203531 24.309 0 23.6245 0C22.9401 0 22.2711 0.203531 21.7026 0.584717C21.1342 0.965903 20.6919 1.50752 20.432 2.14072L15.6311 13.7592L3.17943 14.7653C2.49848 14.8229 1.84966 15.0802 1.31427 15.5049C0.778877 15.9296 0.380724 16.5029 0.169692 17.1528C-0.0413398 17.8028 -0.0558646 18.5006 0.127937 19.1588C0.311739 19.817 0.685693 20.4064 1.20295 20.853L10.6951 29.0437L7.80318 41.2907C7.64144 41.9561 7.68104 42.6545 7.91696 43.2973C8.15287 43.9401 8.57446 44.4983 9.12821 44.9011C9.68195 45.3038 10.3429 45.533 11.0271 45.5594C11.7113 45.5859 12.388 45.4084 12.9712 45.0496L23.6235 38.4937L34.2822 45.0496C34.8656 45.4042 35.5408 45.5782 36.2229 45.5498C36.905 45.5214 37.5635 45.2917 38.1153 44.8898C38.6672 44.488 39.0878 43.9318 39.3242 43.2913C39.5606 42.6509 39.6022 41.9548 39.4438 41.2907L36.5413 29.0416L46.0335 20.8509C46.5549 20.405 46.9323 19.8144 47.1178 19.1539C47.3033 18.4934 47.2886 17.7926 47.0755 17.1405Z" fill="#F26921"/>
</svg>
