<svg width="142" height="40" viewBox="0 0 142 40" fill="none" xmlns="http://www.w3.org/2000/svg">
<mask id="path-1-inside-1_432_19291" fill="white">
<path d="M45.5 3.5918L49.0918 0H138C140.209 1.67506e-06 142 1.79086 142 4V36C142 38.2091 140.209 40 138 40H49L45.5 36.5L42 40H4C1.79086 40 3.22133e-08 38.2091 0 36V4C5.15413e-07 1.79086 1.79086 0 4 0H41.9082L45.5 3.5918Z"/>
</mask>
<path d="M45.5 3.5918L49.0918 0H138C140.209 1.67506e-06 142 1.79086 142 4V36C142 38.2091 140.209 40 138 40H49L45.5 36.5L42 40H4C1.79086 40 3.22133e-08 38.2091 0 36V4C5.15413e-07 1.79086 1.79086 0 4 0H41.9082L45.5 3.5918Z" fill="#F0F1F3"/>
<path d="M45.5 3.5918L45.1464 3.94535L45.5 4.2989L45.8536 3.94535L45.5 3.5918ZM49.0918 0V-0.5H48.8847L48.7382 -0.353553L49.0918 0ZM138 0V-0.5V0ZM142 4H142.5H142ZM142 36H142.5H142ZM49 40L48.6464 40.3536L48.7929 40.5H49V40ZM45.5 36.5L45.8536 36.1464L45.5 35.7929L45.1464 36.1464L45.5 36.5ZM42 40V40.5H42.2071L42.3536 40.3536L42 40ZM4 40L4 40.5H4V40ZM0 36H-0.5H0ZM0 4H-0.5H0ZM41.9082 0L42.2618 -0.353553L42.1153 -0.5H41.9082V0ZM45.5 3.5918L45.8536 3.23824L44.9556 2.34029L44.6021 2.69385L44.2485 3.0474L45.1464 3.94535L45.5 3.5918ZM42.8062 0.897949L43.1597 0.544396L42.2618 -0.353553L41.9082 0L41.5546 0.353553L42.4526 1.2515L42.8062 0.897949ZM41.9082 0V-0.5H40.3287V0V0.5H41.9082V0ZM37.1697 0V-0.5H34.0107V0V0.5H37.1697V0ZM30.8516 0V-0.5H27.6926V0V0.5H30.8516V0ZM24.5336 0V-0.5H21.3746V0V0.5H24.5336V0ZM18.2156 0V-0.5H15.0566V0V0.5H18.2156V0ZM11.8975 0V-0.5H8.73853V0V0.5H11.8975V0ZM5.57951 0V-0.5H4V0V0.5H5.57951V0ZM4 0V-0.5C3.39076 -0.5 2.8086 -0.378653 2.27732 -0.158341L2.46885 0.303522L2.66038 0.765385C3.07236 0.594543 3.52451 0.5 4 0.5V0ZM0.303522 2.46885L-0.158341 2.27732C-0.378653 2.8086 -0.5 3.39076 -0.5 4H0H0.5C0.5 3.52451 0.594543 3.07236 0.765385 2.66038L0.303522 2.46885ZM0 4H-0.5V5.6H0H0.5V4H0ZM0 8.8H-0.5V12H0H0.5V8.8H0ZM0 15.2H-0.5V18.4H0H0.5V15.2H0ZM0 21.6H-0.5V24.8H0H0.5V21.6H0ZM0 28H-0.5V31.2H0H0.5V28H0ZM0 34.4H-0.5V36H0H0.5V34.4H0ZM0 36H-0.5C-0.5 36.6092 -0.378653 37.1914 -0.15834 37.7227L0.303522 37.5312L0.765385 37.3396C0.594543 36.9276 0.5 36.4755 0.5 36H0ZM2.46885 39.6965L2.27732 40.1583C2.8086 40.3787 3.39076 40.5 4 40.5L4 40L4 39.5C3.52451 39.5 3.07236 39.4055 2.66038 39.2346L2.46885 39.6965ZM4 40V40.5H5.58333V40V39.5H4V40ZM8.75 40V40.5H11.9167V40V39.5H8.75V40ZM15.0833 40V40.5H18.25V40V39.5H15.0833V40ZM21.4167 40V40.5H24.5833V40V39.5H21.4167V40ZM27.75 40V40.5H30.9167V40V39.5H27.75V40ZM34.0833 40V40.5H37.25V40V39.5H34.0833V40ZM40.4167 40V40.5H42V40V39.5H40.4167V40ZM42 40L42.3536 40.3536L43.2286 39.4786L42.875 39.125L42.5214 38.7714L41.6464 39.6464L42 40ZM44.625 37.375L44.9786 37.7286L45.8536 36.8536L45.5 36.5L45.1464 36.1464L44.2714 37.0214L44.625 37.375ZM45.5 36.5L45.1464 36.8536L46.0214 37.7286L46.375 37.375L46.7286 37.0214L45.8536 36.1464L45.5 36.5ZM48.125 39.125L47.7714 39.4786L48.6464 40.3536L49 40L49.3536 39.6464L48.4786 38.7714L48.125 39.125ZM49 40V40.5H50.4833V40V39.5H49V40ZM53.45 40V40.5H56.4167V40V39.5H53.45V40ZM59.3833 40V40.5H62.35V40V39.5H59.3833V40ZM65.3167 40V40.5H68.2833V40V39.5H65.3167V40ZM71.25 40V40.5H74.2167V40V39.5H71.25V40ZM77.1833 40V40.5H80.15V40V39.5H77.1833V40ZM83.1167 40V40.5H86.0833V40V39.5H83.1167V40ZM89.05 40V40.5H92.0167V40V39.5H89.05V40ZM94.9833 40V40.5H97.95V40V39.5H94.9833V40ZM100.917 40V40.5H103.883V40V39.5H100.917V40ZM106.85 40V40.5H109.817V40V39.5H106.85V40ZM112.783 40V40.5H115.75V40V39.5H112.783V40ZM118.717 40V40.5H121.683V40V39.5H118.717V40ZM124.65 40V40.5H127.617V40V39.5H124.65V40ZM130.583 40V40.5H133.55V40V39.5H130.583V40ZM136.517 40V40.5H138V40V39.5H136.517V40ZM138 40V40.5C138.609 40.5 139.191 40.3787 139.723 40.1583L139.531 39.6965L139.34 39.2346C138.928 39.4055 138.475 39.5 138 39.5V40ZM141.696 37.5312L142.158 37.7227C142.379 37.1914 142.5 36.6092 142.5 36H142H141.5C141.5 36.4755 141.405 36.9276 141.235 37.3396L141.696 37.5312ZM142 36H142.5V34.4H142H141.5V36H142ZM142 31.2H142.5V28H142H141.5V31.2H142ZM142 24.8H142.5V21.6H142H141.5V24.8H142ZM142 18.4H142.5V15.2H142H141.5V18.4H142ZM142 12H142.5V8.8H142H141.5V12H142ZM142 5.6H142.5V4H142H141.5V5.6H142ZM142 4H142.5C142.5 3.39076 142.379 2.8086 142.158 2.27732L141.696 2.46885L141.235 2.66038C141.405 3.07236 141.5 3.52451 141.5 4H142ZM139.531 0.303523L139.723 -0.15834C139.191 -0.378652 138.609 -0.5 138 -0.5V0V0.5C138.475 0.5 138.928 0.594543 139.34 0.765386L139.531 0.303523ZM138 0V-0.5H136.518V0V0.5H138V0ZM133.555 0V-0.5H130.591V0V0.5H133.555V0ZM127.627 0V-0.5H124.664V0V0.5H127.627V0ZM121.7 0V-0.5H118.737V0V0.5H121.7V0ZM115.773 0V-0.5H112.809V0V0.5H115.773V0ZM109.846 0V-0.5H106.882V0V0.5H109.846V0ZM103.919 0V-0.5H100.955V0V0.5H103.919V0ZM97.9913 0V-0.5H95.0277V0V0.5H97.9913V0ZM92.0641 0V-0.5H89.1005V0V0.5H92.0641V0ZM86.1369 0V-0.5H83.1733V0V0.5H86.1369V0ZM80.2097 0V-0.5H77.246V0V0.5H80.2097V0ZM74.2824 0V-0.5H71.3188V0V0.5H74.2824V0ZM68.3552 0V-0.5H65.3916V0V0.5H68.3552V0ZM62.428 0V-0.5H59.4644V0V0.5H62.428V0ZM56.5008 0V-0.5H53.5372V0V0.5H56.5008V0ZM50.5736 0V-0.5H49.0918V0V0.5H50.5736V0ZM49.0918 0L48.7382 -0.353553L47.8403 0.544396L48.1938 0.897949L48.5474 1.2515L49.4454 0.353553L49.0918 0ZM46.3979 2.69385L46.0444 2.34029L45.1464 3.23824L45.5 3.5918L45.8536 3.94535L46.7515 3.0474L46.3979 2.69385ZM45.5 3.5918L44.7929 4.2989L45.5 5.00601L46.2071 4.2989L45.5 3.5918ZM49.0918 0V-1H48.6776L48.3847 -0.707107L49.0918 0ZM138 0V-1V0ZM142 4H143H142ZM142 36H143H142ZM49 40L48.2929 40.7071L48.5858 41H49V40ZM45.5 36.5L46.2071 35.7929L45.5 35.0858L44.7929 35.7929L45.5 36.5ZM42 40V41H42.4142L42.7071 40.7071L42 40ZM4 40L4 41H4V40ZM0 36H-1H0ZM0 4L-1 4V4H0ZM41.9082 0L42.6153 -0.707107L42.3224 -1H41.9082V0ZM45.5 3.5918L46.2071 2.88469L45.3092 1.98674L44.6021 2.69385L43.8949 3.40095L44.7929 4.2989L45.5 3.5918ZM42.8062 0.897949L43.5133 0.190842L42.6153 -0.707107L41.9082 0L41.2011 0.707107L42.099 1.60506L42.8062 0.897949ZM41.9082 0V-1H40.3287V0V1H41.9082V0ZM37.1697 0V-1H34.0107V0V1H37.1697V0ZM30.8516 0V-1H27.6926V0V1H30.8516V0ZM24.5336 0V-1H21.3746V0V1H24.5336V0ZM18.2156 0V-1H15.0566V0V1H18.2156V0ZM11.8975 0V-1H8.73853V0V1H11.8975V0ZM5.57951 0V-1H4V0V1H5.57951V0ZM4 0V-1C3.32388 -1 2.67672 -0.865251 2.08579 -0.620204L2.46885 0.303522L2.8519 1.22725C3.20424 1.08114 3.59138 1 4 1V0ZM0.303522 2.46885L-0.620204 2.0858C-0.865251 2.67672 -1 3.32389 -1 4L0 4H1C1 3.59138 1.08114 3.20424 1.22725 2.8519L0.303522 2.46885ZM0 4H-1V5.6H0H1V4H0ZM0 8.8H-1V12H0H1V8.8H0ZM0 15.2H-1V18.4H0H1V15.2H0ZM0 21.6H-1V24.8H0H1V21.6H0ZM0 28H-1V31.2H0H1V28H0ZM0 34.4H-1V36H0H1V34.4H0ZM0 36H-1C-1 36.6761 -0.865251 37.3233 -0.620203 37.9142L0.303522 37.5312L1.22725 37.1481C1.08114 36.7958 1 36.4086 1 36H0ZM2.46885 39.6965L2.08579 40.6202C2.67672 40.8652 3.32388 41 4 41L4 40L4 39C3.59138 39 3.20424 38.9189 2.8519 38.7728L2.46885 39.6965ZM4 40V41H5.58333V40V39H4V40ZM8.75 40V41H11.9167V40V39H8.75V40ZM15.0833 40V41H18.25V40V39H15.0833V40ZM21.4167 40V41H24.5833V40V39H21.4167V40ZM27.75 40V41H30.9167V40V39H27.75V40ZM34.0833 40V41H37.25V40V39H34.0833V40ZM40.4167 40V41H42V40V39H40.4167V40ZM42 40L42.7071 40.7071L43.5821 39.8321L42.875 39.125L42.1679 38.4179L41.2929 39.2929L42 40ZM44.625 37.375L45.3321 38.0821L46.2071 37.2071L45.5 36.5L44.7929 35.7929L43.9179 36.6679L44.625 37.375ZM45.5 36.5L44.7929 37.2071L45.6679 38.0821L46.375 37.375L47.0821 36.6679L46.2071 35.7929L45.5 36.5ZM48.125 39.125L47.4179 39.8321L48.2929 40.7071L49 40L49.7071 39.2929L48.8321 38.4179L48.125 39.125ZM49 40V41H50.4833V40V39H49V40ZM53.45 40V41H56.4167V40V39H53.45V40ZM59.3833 40V41H62.35V40V39H59.3833V40ZM65.3167 40V41H68.2833V40V39H65.3167V40ZM71.25 40V41H74.2167V40V39H71.25V40ZM77.1833 40V41H80.15V40V39H77.1833V40ZM83.1167 40V41H86.0833V40V39H83.1167V40ZM89.05 40V41H92.0167V40V39H89.05V40ZM94.9833 40V41H97.95V40V39H94.9833V40ZM100.917 40V41H103.883V40V39H100.917V40ZM106.85 40V41H109.817V40V39H106.85V40ZM112.783 40V41H115.75V40V39H112.783V40ZM118.717 40V41H121.683V40V39H118.717V40ZM124.65 40V41H127.617V40V39H124.65V40ZM130.583 40V41H133.55V40V39H130.583V40ZM136.517 40V41H138V40V39H136.517V40ZM138 40V41C138.676 41 139.323 40.8652 139.914 40.6202L139.531 39.6965L139.148 38.7728C138.796 38.9189 138.409 39 138 39V40ZM141.696 37.5312L142.62 37.9142C142.865 37.3233 143 36.6761 143 36H142H141C141 36.4086 140.919 36.7958 140.773 37.1481L141.696 37.5312ZM142 36H143V34.4H142H141V36H142ZM142 31.2H143V28H142H141V31.2H142ZM142 24.8H143V21.6H142H141V24.8H142ZM142 18.4H143V15.2H142H141V18.4H142ZM142 12H143V8.8H142H141V12H142ZM142 5.6H143V4H142H141V5.6H142ZM142 4H143C143 3.32389 142.865 2.67672 142.62 2.08579L141.696 2.46885L140.773 2.8519C140.919 3.20424 141 3.59138 141 4H142ZM139.531 0.303523L139.914 -0.620202C139.323 -0.86525 138.676 -0.999999 138 -1V0V1C138.409 1 138.796 1.08114 139.148 1.22725L139.531 0.303523ZM138 0V-1H136.518V0V1H138V0ZM133.555 0V-1H130.591V0V1H133.555V0ZM127.627 0V-1H124.664V0V1H127.627V0ZM121.7 0V-1H118.737V0V1H121.7V0ZM115.773 0V-1H112.809V0V1H115.773V0ZM109.846 0V-1H106.882V0V1H109.846V0ZM103.919 0V-1H100.955V0V1H103.919V0ZM97.9913 0V-1H95.0277V0V1H97.9913V0ZM92.0641 0V-1H89.1005V0V1H92.0641V0ZM86.1369 0V-1H83.1733V0V1H86.1369V0ZM80.2097 0V-1H77.246V0V1H80.2097V0ZM74.2824 0V-1H71.3188V0V1H74.2824V0ZM68.3552 0V-1H65.3916V0V1H68.3552V0ZM62.428 0V-1H59.4644V0V1H62.428V0ZM56.5008 0V-1H53.5372V0V1H56.5008V0ZM50.5736 0V-1H49.0918V0V1H50.5736V0ZM49.0918 0L48.3847 -0.707107L47.4867 0.190842L48.1938 0.897949L48.901 1.60506L49.7989 0.707107L49.0918 0ZM46.3979 2.69385L45.6908 1.98674L44.7929 2.88469L45.5 3.5918L46.2071 4.2989L47.1051 3.40095L46.3979 2.69385Z" fill="#42695A" mask="url(#path-1-inside-1_432_19291)"/>
</svg>
