<svg width="24" height="24" viewBox="0 0 24 24" fill="none" xmlns="http://www.w3.org/2000/svg">
<path d="M17.2685 8.57769C17.3543 8.66342 17.4224 8.76522 17.4688 8.87728C17.5153 8.98934 17.5392 9.10946 17.5392 9.23077C17.5392 9.35207 17.5153 9.47219 17.4688 9.58425C17.4224 9.69631 17.3543 9.79812 17.2685 9.88384L10.8069 16.3454C10.7212 16.4312 10.6194 16.4993 10.5073 16.5457C10.3953 16.5922 10.2752 16.6161 10.1538 16.6161C10.0325 16.6161 9.91243 16.5922 9.80037 16.5457C9.68831 16.4993 9.5865 16.4312 9.50077 16.3454L6.73154 13.5762C6.55834 13.4029 6.46103 13.168 6.46103 12.9231C6.46103 12.6781 6.55834 12.4432 6.73154 12.27C6.90475 12.0968 7.13967 11.9995 7.38462 11.9995C7.62957 11.9995 7.86449 12.0968 8.0377 12.27L10.1538 14.3873L15.9623 8.57769C16.048 8.49187 16.1498 8.42378 16.2619 8.37733C16.374 8.33087 16.4941 8.30696 16.6154 8.30696C16.7367 8.30696 16.8568 8.33087 16.9689 8.37733C17.0809 8.42378 17.1827 8.49187 17.2685 8.57769ZM24 12C24 14.3734 23.2962 16.6934 21.9776 18.6668C20.6591 20.6402 18.7849 22.1783 16.5922 23.0865C14.3995 23.9948 11.9867 24.2324 9.65892 23.7694C7.33115 23.3064 5.19295 22.1635 3.51472 20.4853C1.83649 18.807 0.693605 16.6689 0.230582 14.3411C-0.232441 12.0133 0.00519941 9.60051 0.913451 7.4078C1.8217 5.21508 3.35977 3.34094 5.33316 2.02236C7.30655 0.703788 9.62663 0 12 0C15.1816 0.00335979 18.2319 1.26872 20.4816 3.51843C22.7313 5.76814 23.9966 8.81843 24 12ZM22.1538 12C22.1538 9.99176 21.5583 8.02861 20.4426 6.35882C19.3269 4.68903 17.7411 3.38759 15.8857 2.61907C14.0303 1.85055 11.9887 1.64947 10.0191 2.04126C8.04943 2.43305 6.24019 3.40011 4.82015 4.82015C3.40011 6.24019 2.43305 8.04943 2.04126 10.0191C1.64947 11.9887 1.85055 14.0303 2.61907 15.8857C3.38759 17.7411 4.68904 19.3269 6.35883 20.4426C8.02862 21.5583 9.99176 22.1538 12 22.1538C14.692 22.1508 17.2729 21.08 19.1765 19.1765C21.08 17.2729 22.1508 14.692 22.1538 12Z" fill="#17B26A"/>
</svg>
