<svg width="13" height="13" viewBox="0 0 13 13" fill="none" xmlns="http://www.w3.org/2000/svg">
<path d="M12.5 0.625V3.125C12.5 3.29076 12.4342 3.44973 12.3169 3.56694C12.1997 3.68415 12.0408 3.75 11.875 3.75C11.7092 3.75 11.5503 3.68415 11.4331 3.56694C11.3158 3.44973 11.25 3.29076 11.25 3.125V1.25H6.875V11.25H8.75C8.91576 11.25 9.07473 11.3158 9.19194 11.4331C9.30915 11.5503 9.375 11.7092 9.375 11.875C9.375 12.0408 9.30915 12.1997 9.19194 12.3169C9.07473 12.4342 8.91576 12.5 8.75 12.5H3.75C3.58424 12.5 3.42527 12.4342 3.30806 12.3169C3.19085 12.1997 3.125 12.0408 3.125 11.875C3.125 11.7092 3.19085 11.5503 3.30806 11.4331C3.42527 11.3158 3.58424 11.25 3.75 11.25H5.625V1.25H1.25V3.125C1.25 3.29076 1.18415 3.44973 1.06694 3.56694C0.949731 3.68415 0.79076 3.75 0.625 3.75C0.45924 3.75 0.300269 3.68415 0.183058 3.56694C0.0658481 3.44973 0 3.29076 0 3.125V0.625C0 0.45924 0.0658481 0.300269 0.183058 0.183058C0.300269 0.0658481 0.45924 0 0.625 0H11.875C12.0408 0 12.1997 0.0658481 12.3169 0.183058C12.4342 0.300269 12.5 0.45924 12.5 0.625Z" fill="#42695A"/>
</svg>
