<svg width="36" height="36" viewBox="0 0 36 36" fill="none" xmlns="http://www.w3.org/2000/svg">
<circle opacity="0.05" cx="18" cy="18" r="18" fill="#677381"/>
<g clip-path="url(#clip0_365_22693)">
<path d="M14.7523 18.7285C13.1663 18.7285 11.8851 20.0098 11.9085 21.5801C11.9241 22.5879 12.4788 23.4629 13.2952 23.9512C13.0179 23.5254 12.8538 23.0215 12.846 22.4785C12.8226 20.9082 14.1038 19.627 15.6898 19.627C16.0023 19.627 16.3031 19.6777 16.5843 19.7676V16.623C16.2913 16.5801 15.9906 16.5566 15.6898 16.5566C15.6741 16.5566 15.6624 16.5566 15.6468 16.5566V18.8691C15.3656 18.7793 15.0648 18.7285 14.7523 18.7285Z" fill="#9CA7B3"/>
<path d="M21.6074 9.29883H21.584H20.7715C21.0059 10.4746 21.666 11.498 22.5879 12.1934C21.9824 11.3926 21.6152 10.3926 21.6074 9.29883Z" fill="#9CA7B3"/>
<path d="M26.3887 14.084C26.0801 14.084 25.7832 14.0527 25.4902 13.998V16.252C24.4277 16.252 23.3965 16.0449 22.4277 15.6309C21.8027 15.3652 21.2207 15.0254 20.6855 14.6152L20.7012 21.5645C20.6934 23.127 20.0762 24.5918 18.959 25.6973C18.0488 26.5957 16.8965 27.1699 15.6465 27.3535C15.3535 27.3965 15.0527 27.4199 14.752 27.4199C13.416 27.4199 12.1426 26.9863 11.1074 26.1855C11.2246 26.3262 11.3496 26.4629 11.4863 26.5957C12.6113 27.7051 14.1035 28.3184 15.6934 28.3184C15.9941 28.3184 16.2949 28.2949 16.5879 28.252C17.8379 28.0684 18.9902 27.4941 19.9004 26.5957C21.0176 25.4902 21.6348 24.0254 21.6426 22.4629L21.584 15.5137C22.1152 15.9238 22.6973 16.2676 23.3262 16.5293C24.2988 16.9395 25.3301 17.1504 26.3887 17.1504" fill="#9CA7B3"/>
<path d="M11.4746 18.2871C12.5879 17.1816 14.0684 16.5684 15.6465 16.5566V15.7246C15.3535 15.6816 15.0528 15.6582 14.752 15.6582C13.1582 15.6582 11.6621 16.2715 10.5371 17.3887C9.43166 18.4863 8.79885 19.9863 8.80275 21.5449C8.80275 23.1152 9.42385 24.5879 10.5449 25.7012C10.7246 25.877 10.9082 26.041 11.1035 26.1895C10.2207 25.1387 9.74025 23.8262 9.73635 22.4434C9.74025 20.8848 10.3692 19.3848 11.4746 18.2871Z" fill="#C5CAD0"/>
<path d="M25.4902 13.998V13.1621H25.4824C24.3965 13.1621 23.3965 12.8027 22.5918 12.1934C23.291 13.1152 24.3145 13.7715 25.4902 13.998Z" fill="#C5CAD0"/>
<path d="M15.5293 25.2441C15.9004 25.2637 16.2559 25.2129 16.584 25.1074C17.7168 24.7363 18.5332 23.6816 18.5332 22.4395L18.5371 17.791V9.29883H20.7715C20.7129 9.00586 20.6816 8.70898 20.6777 8.40039H17.5996V16.8887L17.5957 21.5371C17.5957 22.7793 16.7793 23.834 15.6465 24.2051C15.3184 24.3145 14.9629 24.3652 14.5918 24.3418C14.1191 24.3145 13.6777 24.1738 13.2949 23.9473C13.7754 24.6895 14.5957 25.1934 15.5293 25.2441Z" fill="#C5CAD0"/>
<path d="M15.6465 27.3535C16.8965 27.1699 18.0488 26.5957 18.959 25.6973C20.0762 24.5918 20.6934 23.127 20.7012 21.5645L20.6856 14.6152C21.2168 15.0254 21.7988 15.3691 22.4278 15.6309C23.4004 16.041 24.4317 16.252 25.4903 16.252V13.998C24.3145 13.7715 23.291 13.1152 22.5918 12.1934C21.6699 11.498 21.0059 10.4746 20.7754 9.29883H18.5371V17.7871L18.5332 22.4355C18.5332 23.6777 17.7168 24.7324 16.584 25.1035C16.2559 25.2129 15.9004 25.2637 15.5293 25.2402C14.5918 25.1895 13.7754 24.6855 13.2949 23.9473C12.4785 23.4629 11.9238 22.584 11.9082 21.5762C11.8848 20.0059 13.166 18.7246 14.752 18.7246C15.0645 18.7246 15.3653 18.7754 15.6465 18.8652V16.5527C14.0684 16.5645 12.5879 17.1777 11.4746 18.2832C10.3692 19.3809 9.73635 20.8809 9.74025 22.4355C9.74025 23.8184 10.2207 25.1309 11.1074 26.1816C12.1465 26.9824 13.416 27.416 14.752 27.416C15.0528 27.4199 15.3535 27.3965 15.6465 27.3535Z" fill="#677381"/>
</g>
<defs>
<clipPath id="clip0_365_22693">
<rect width="20" height="20" fill="white" transform="translate(7.63867 8.36133)"/>
</clipPath>
</defs>
</svg>
