<svg width="55" height="72" viewBox="0 0 55 72" fill="none" xmlns="http://www.w3.org/2000/svg">
<path d="M26.9952 0C12.1098 0 0 12.207 0 27.2119V42.754H3.29681V27.2119C3.29681 14.0408 13.927 3.32525 26.9933 3.32525C40.0595 3.32525 50.6917 14.0408 50.6917 27.2119V42.754H53.9885V27.2119C53.9904 12.207 41.8806 0 26.9952 0Z" fill="white"/>
<path d="M24.5524 42.6095C22.907 41.5352 21.8842 39.5322 21.8842 37.3816C21.8842 36.2719 22.1535 35.1858 22.661 34.2433C23.5316 32.6141 24.8667 31.2899 25.9559 29.8162C26.5961 28.9485 27.2461 28.0631 27.7966 27.1343C28.4797 25.9813 28.9053 24.2912 28.9053 22.7269C28.9053 19.9152 27.6345 17.2629 25.5069 15.6258C25.4933 15.6121 25.4777 15.6042 25.4581 15.6022C25.4308 15.5983 25.4035 15.6121 25.3879 15.6337C25.3683 15.6613 25.3683 15.6967 25.3879 15.7223C25.7587 16.5329 25.9461 17.4065 25.9461 18.3234C25.9461 19.0849 25.8134 19.8247 25.5538 20.5232C24.6149 23.3684 22.337 25.6291 22.3116 25.6547C19.778 28.4546 19.0207 29.765 19.0148 29.7749C18.1442 31.1581 17.6836 32.7755 17.6836 34.4499C17.6836 38.6586 20.6154 42.2259 24.5017 42.7492C24.5056 42.7492 24.5095 42.7492 24.5115 42.7492C24.5427 42.7492 24.572 42.7296 24.5837 42.6981C24.5954 42.6646 24.5837 42.6272 24.5544 42.6056" fill="#F26921"/>
<path d="M35.5434 30.5626C33.6461 26.5251 31.1281 23.6937 31.1028 23.6661C31.0793 23.6406 31.0442 23.6347 31.0149 23.6465C30.9856 23.6602 30.9661 23.6917 30.97 23.7252C31.0052 24.0557 31.0227 24.3922 31.0227 24.7267C31.0227 27.2334 29.9941 29.2049 28.5438 31.1568C28.1788 31.6467 27.8138 32.1386 27.4527 32.6325L26.2873 34.1554C26.2366 34.2184 26.1839 34.2872 26.1292 34.362C25.1923 35.6272 23.5976 38.5294 25.9301 41.3844C25.9555 41.4159 26.0043 41.4139 26.0258 41.3804C26.1058 41.2644 26.1956 41.1463 26.2991 41.0302C26.8885 40.4222 27.5015 39.8359 28.1105 39.2495C29.2152 38.1851 30.0936 37.0773 30.4977 35.5721C30.5523 35.3714 30.5972 35.1687 30.6304 34.968C30.6343 34.9484 30.648 34.9307 30.6675 34.9247C30.687 34.9188 30.7046 34.9247 30.7124 34.9425C30.7124 34.9425 32.4594 37.6656 31.8055 41.8015C31.7547 42.1183 31.6766 42.4252 31.5751 42.7204C31.5673 42.744 31.5907 42.7637 31.6122 42.7538C34.4367 41.2801 36.3125 38.0631 36.3125 34.4525C36.3125 33.0949 36.0548 31.7884 35.5454 30.5645" fill="#F26921"/>
<path d="M48.7312 42.7529H47.0135V27.1026C47.0135 15.9758 38.0327 6.9229 26.9945 6.9229C15.9563 6.9229 6.97356 15.9758 6.97356 27.1026V42.7529H5.25586V27.1026C5.25586 15.0215 15.0077 5.19141 26.9945 5.19141C38.9813 5.19141 48.7312 15.0215 48.7312 27.1026V42.7529Z" fill="white"/>
<path d="M27.1314 0C12.1709 0 0 12.2152 0 27.2301V42.7826H3.31345V27.2301C3.31345 14.0502 13.9973 3.32747 27.1295 3.32747C40.2616 3.32747 50.9474 14.0502 50.9474 27.2301V42.7826H54.2609V27.2301C54.2628 12.2152 42.0919 0 27.1314 0Z" fill="white"/>
<path d="M24.5524 42.6095C22.907 41.5352 21.8842 39.5322 21.8842 37.3816C21.8842 36.2719 22.1535 35.1858 22.661 34.2433C23.5316 32.6141 24.8667 31.2899 25.9559 29.8162C26.5961 28.9485 27.2461 28.0631 27.7966 27.1343C28.4797 25.9813 28.9053 24.2912 28.9053 22.7269C28.9053 19.9152 27.6345 17.2629 25.5069 15.6258C25.4933 15.6121 25.4777 15.6042 25.4581 15.6022C25.4308 15.5983 25.4035 15.6121 25.3879 15.6337C25.3683 15.6613 25.3683 15.6967 25.3879 15.7223C25.7587 16.5329 25.9461 17.4065 25.9461 18.3234C25.9461 19.0849 25.8134 19.8247 25.5538 20.5232C24.6149 23.3684 22.337 25.6291 22.3116 25.6547C19.778 28.4546 19.0207 29.765 19.0148 29.7749C18.1442 31.1581 17.6836 32.7755 17.6836 34.4499C17.6836 38.6586 20.6154 42.2259 24.5017 42.7492C24.5056 42.7492 24.5095 42.7492 24.5115 42.7492C24.5427 42.7492 24.572 42.7296 24.5837 42.6981C24.5954 42.6646 24.5837 42.6272 24.5544 42.6056" fill="#F26921"/>
<path d="M35.5434 30.5626C33.6461 26.5251 31.1281 23.6937 31.1028 23.6661C31.0793 23.6406 31.0442 23.6347 31.0149 23.6465C30.9856 23.6602 30.9661 23.6917 30.97 23.7252C31.0052 24.0557 31.0227 24.3922 31.0227 24.7267C31.0227 27.2334 29.9941 29.2049 28.5438 31.1568C28.1788 31.6467 27.8138 32.1386 27.4527 32.6325L26.2873 34.1554C26.2366 34.2184 26.1839 34.2872 26.1292 34.362C25.1923 35.6272 23.5976 38.5294 25.9301 41.3844C25.9555 41.4159 26.0043 41.4139 26.0258 41.3804C26.1058 41.2644 26.1956 41.1463 26.2991 41.0302C26.8885 40.4222 27.5015 39.8359 28.1105 39.2495C29.2152 38.1851 30.0936 37.0773 30.4977 35.5721C30.5523 35.3714 30.5972 35.1687 30.6304 34.968C30.6343 34.9484 30.648 34.9307 30.6675 34.9247C30.687 34.9188 30.7046 34.9247 30.7124 34.9425C30.7124 34.9425 32.4594 37.6656 31.8055 41.8015C31.7547 42.1183 31.6766 42.4252 31.5751 42.7204C31.5673 42.744 31.5907 42.7637 31.6122 42.7538C34.4367 41.2801 36.3125 38.0631 36.3125 34.4525C36.3125 33.0949 36.0548 31.7884 35.5454 30.5645" fill="#F26921"/>
<path d="M48.7312 42.7529H47.0135V27.1026C47.0135 15.9758 38.0327 6.9229 26.9945 6.9229C15.9563 6.9229 6.97356 15.9758 6.97356 27.1026V42.7529H5.25586V27.1026C5.25586 15.0215 15.0077 5.19141 26.9945 5.19141C38.9813 5.19141 48.7312 15.0215 48.7312 27.1026V42.7529Z" fill="white"/>
<path d="M18.9909 59.6067C18.9909 60.2676 19.5251 60.8062 20.1805 60.8062C20.836 60.8062 21.3702 60.2676 21.3702 59.6067C21.3702 58.9458 20.836 58.4072 20.1805 58.4072C19.5251 58.4072 18.9909 58.9458 18.9909 59.6067ZM16.0462 59.6067C16.0462 60.2676 16.5804 60.8062 17.2358 60.8062C17.8913 60.8062 18.4254 60.2676 18.4254 59.6067C18.4254 58.9458 17.8913 58.4072 17.2358 58.4072C16.5804 58.4072 16.0462 58.9458 16.0462 59.6067ZM10.5638 49.1995C10.5638 48.5386 10.0296 48 9.37415 48C8.71868 48 8.18452 48.5386 8.18452 49.1995C8.18452 49.8605 8.71868 50.3991 9.37415 50.3991C10.0296 50.3991 10.5638 49.8605 10.5638 49.1995ZM27.062 49.1995C27.062 48.5386 26.5278 48 25.8723 48C25.2169 48 24.6827 48.5386 24.6827 49.1995C24.6827 49.8605 25.2169 50.3991 25.8723 50.3991C26.5278 50.3991 27.062 49.8605 27.062 49.1995ZM35.6906 49.1995C35.6906 48.5386 35.1565 48 34.501 48C33.8455 48 33.3114 48.5386 33.3114 49.1995C33.3114 49.8605 33.8455 50.3991 34.501 50.3991C35.1565 50.3991 35.6906 49.8605 35.6906 49.1995ZM27.2146 55.6865H24.5301V54.4219C24.5301 53.6761 25.1327 53.0684 25.8723 53.0684C26.6119 53.0684 27.2146 53.6761 27.2146 54.4219V55.6865ZM10.7164 55.6865H8.03191V54.335C8.03191 53.5893 8.63455 52.9816 9.37415 52.9816C10.1137 52.9816 10.7164 53.5893 10.7164 54.335V55.6865ZM42.9282 54.5935V48.002H41.0068V54.5935C41.0068 55.1972 40.5196 55.6865 39.9228 55.6865H37.7862V54.335C37.7862 52.5752 36.4224 51.131 34.6967 51.0501L31.4643 51.0442V52.9816H34.5245C35.2641 52.9816 35.8667 53.5893 35.8667 54.335V55.6865H29.1379V54.4219C29.1379 52.6087 27.6744 51.133 25.8762 51.133C24.0781 51.133 22.6126 52.6087 22.6126 54.4219V55.6865H19.6209V50.9988H17.6995V55.6865H12.6378V54.335C12.6378 52.52 11.1742 51.0442 9.3761 51.0442C7.57797 51.0442 6.11442 52.52 6.11442 54.335V55.6865H3.00732C2.40859 55.6865 1.92335 55.1952 1.92335 54.5935V51.5828H0V54.5935C0 56.4066 1.4792 57.6239 2.86253 57.6239H39.6939C41.537 57.6239 42.9282 56.3218 42.9282 54.5935ZM50.7859 55.6865V54.4751C50.7859 53.6504 51.4512 52.9797 52.269 52.9797H54.2609V51.0422H52.269C50.3926 51.0422 48.8665 52.5811 48.8665 54.4731V55.6845H47.534C46.9353 55.6845 46.4501 55.1933 46.4501 54.5915V48H44.5287V54.5915C44.5287 56.4106 45.9766 57.5785 47.3129 57.62H47.3658L54.2609 57.6219V55.6845H50.7859V55.6865Z" fill="white"/>
<path d="M4.14607 67.4841H1.80204C1.80791 66.8927 2.33229 66.4121 2.97406 66.4121C3.61583 66.4121 4.1402 66.8908 4.14607 67.4841ZM4.14607 71.9898H5.94811V67.4921C5.94811 65.9513 4.6137 64.6953 2.97406 64.6953C1.33441 64.6953 0 65.9493 0 67.4921V71.9898H1.80204V69.199H4.14607V71.9898ZM9.49937 71.9898H11.1371V70.2749H9.49937C9.19218 70.2749 8.93391 70.095 8.93391 69.8833V64.6973H7.13186V69.8833C7.13186 71.0443 8.19431 71.9898 9.49937 71.9898ZM15.6549 67.407L17.5 64.6973H15.3125L14.0602 66.5367V64.6973H12.2582V71.9977H14.0602V68.9102H14.5298C15.1599 68.9102 15.6725 69.3829 15.6725 69.9624V71.9898H17.4745V69.9624C17.4745 68.8311 16.7369 67.8283 15.6568 67.405M22.235 71.9977H24.037V64.6973H22.235V67.4841H20.7166V64.6973H18.9146V71.9977H20.7166V69.199H22.235V71.9977ZM29.5977 67.4841H27.2537C27.2596 66.8927 27.7839 66.4121 28.4257 66.4121C29.0675 66.4121 29.5919 66.8908 29.5977 67.4841ZM29.5977 71.9977H31.3998V67.4921C31.3998 65.9513 30.0654 64.6953 28.4257 64.6953C26.7861 64.6953 25.4517 65.9493 25.4517 67.4921V71.9977H27.2537V69.199H29.5977V71.9977ZM34.5225 69.199H37.1718V67.4841H34.5225V66.8057C34.5225 66.5921 34.7828 66.4141 35.088 66.4141H37.1718V64.6993H35.088C33.7829 64.6993 32.7205 65.6447 32.7205 66.8057V71.9997H34.5225V69.2009V69.199ZM40.5372 71.9977H42.621V70.2828H40.5372C40.23 70.2828 39.9717 70.1029 39.9717 69.8912V69.199H42.621V67.4841H39.9717V66.8057C39.9717 66.5921 40.2319 66.4141 40.5372 66.4141H42.621V64.6993H40.5372C39.2321 64.6993 38.1697 65.6447 38.1697 66.8057V69.8932C38.1697 71.0542 39.2321 71.9997 40.5372 71.9997M46.4031 71.9977H48.4869V70.2828H46.4031C46.0959 70.2828 45.8376 70.1029 45.8376 69.8912V69.199H48.4869V67.4841H45.8376V66.8057C45.8376 66.5921 46.0979 66.4141 46.4031 66.4141H48.4869V64.6993H46.4031C45.098 64.6993 44.0356 65.6447 44.0356 66.8057V69.8932C44.0356 71.0542 45.098 71.9997 46.4031 71.9997M51.6116 67.4841V66.8057C51.6116 66.5921 51.8718 66.4141 52.1771 66.4141H54.2609V64.6993H52.1771C50.872 64.6993 49.8096 65.6447 49.8096 66.8057V71.9997H51.6116V69.2009H54.2609V67.4861H51.6116V67.4841Z" fill="white"/>
</svg>
